<?xml version="1.0" standalone="no"?>
<!DOCTYPE svg PUBLIC "-//W3C//DTD SVG 20010904//EN"
 "http://www.w3.org/TR/2001/REC-SVG-20010904/DTD/svg10.dtd">
<svg version="1.0" xmlns="http://www.w3.org/2000/svg"
 width="1056.000000pt" height="992.000000pt" viewBox="0 0 1056.000000 992.000000"
 preserveAspectRatio="xMidYMid meet">
<metadata>
Created by potrace 1.16, written by Peter Selinger 2001-2019
</metadata>
<g transform="translate(0.000000,992.000000) scale(0.100000,-0.100000)"
fill="#000000" stroke="none">
<path d="M4305 9680 c-33 -4 -94 -8 -135 -9 -69 -1 -257 -26 -390 -52 -272
-53 -438 -90 -455 -100 -5 -4 -26 -10 -45 -14 -41 -8 -136 -34 -165 -45 -11
-4 -40 -13 -65 -20 -53 -15 -127 -39 -155 -50 -11 -5 -47 -18 -80 -29 -34 -11
-74 -25 -90 -32 -17 -6 -39 -15 -50 -19 -11 -5 -72 -30 -135 -56 -111 -45
-138 -57 -170 -76 -8 -4 -22 -11 -30 -14 -68 -26 -300 -151 -453 -245 -48 -30
-96 -59 -106 -64 -22 -13 -104 -68 -111 -75 -3 -3 -12 -9 -21 -15 -55 -34
-119 -81 -119 -87 0 -5 -5 -8 -11 -8 -15 0 -224 -170 -329 -266 -172 -161
-304 -299 -390 -409 -30 -38 -57 -72 -60 -75 -16 -13 -90 -120 -90 -130 0 -5
-4 -10 -10 -10 -5 0 -10 -7 -10 -15 0 -8 -4 -15 -10 -15 -5 0 -10 -5 -10 -11
0 -6 -11 -25 -25 -43 -14 -18 -25 -38 -25 -44 0 -7 -3 -12 -7 -12 -5 0 -13
-10 -19 -23 -7 -12 -34 -66 -62 -120 -73 -143 -140 -309 -172 -432 -5 -16 -17
-61 -28 -100 -21 -73 -42 -180 -64 -325 -19 -127 -15 -594 6 -735 23 -150 44
-257 68 -340 11 -38 22 -82 25 -98 3 -15 9 -30 14 -33 5 -3 9 -14 9 -24 0 -11
6 -34 14 -52 8 -18 29 -69 46 -113 46 -116 146 -304 226 -425 38 -58 71 -109
73 -115 2 -5 7 -12 11 -15 3 -3 19 -23 35 -45 88 -120 163 -203 335 -375 146
-146 220 -215 289 -270 24 -19 58 -46 75 -60 102 -84 416 -299 553 -379 190
-110 394 -211 583 -288 47 -19 99 -40 115 -48 17 -7 50 -20 75 -29 25 -8 90
-32 145 -51 55 -20 109 -39 120 -42 11 -3 56 -16 100 -30 109 -34 342 -93 364
-93 10 0 41 -6 67 -14 127 -36 308 -68 614 -107 93 -12 290 -11 290 1 0 6 -8
10 -18 10 -9 0 -33 11 -52 23 -39 27 -105 49 -195 68 -113 23 -122 64 -13 57
47 -3 86 -15 153 -45 50 -23 114 -49 143 -59 51 -16 52 -17 36 -35 -16 -18
-16 -19 9 -19 34 0 104 38 133 73 22 27 44 84 44 118 0 26 -38 105 -67 140
-38 45 -112 89 -228 134 -55 21 -104 42 -109 47 -6 4 -16 8 -24 8 -8 0 -28 6
-45 14 -18 7 -54 21 -82 31 -27 10 -63 23 -80 30 -16 7 -55 23 -85 35 -64 26
-113 46 -155 65 -16 7 -70 30 -120 50 -159 65 -596 286 -636 321 -8 8 -19 14
-23 14 -5 0 -37 20 -73 45 -35 25 -67 45 -70 45 -5 0 -103 69 -113 80 -3 3
-32 25 -65 50 -57 42 -84 63 -109 85 -6 6 -40 34 -75 64 -54 47 -187 188 -256
272 -86 104 -199 309 -226 409 -28 105 -22 263 13 340 21 45 113 125 186 162
75 39 101 48 222 77 68 17 123 27 330 61 36 6 223 17 415 25 193 8 445 19 560
24 274 13 2567 13 2935 0 780 -27 998 -37 1030 -47 19 -7 56 -12 81 -12 26 0
80 -7 120 -15 41 -9 99 -20 129 -26 66 -13 108 -29 218 -82 162 -78 232 -178
232 -332 0 -67 -19 -170 -39 -220 -5 -11 -16 -38 -26 -60 -9 -22 -22 -51 -28
-65 -19 -41 -114 -186 -158 -243 -86 -109 -281 -299 -398 -387 -18 -14 -39
-31 -46 -37 -17 -16 -215 -153 -221 -153 -2 0 -25 -15 -51 -33 -27 -19 -55
-37 -63 -41 -8 -3 -31 -16 -50 -27 -104 -63 -348 -189 -366 -189 -8 0 -14 -4
-14 -10 0 -5 -9 -10 -19 -10 -11 0 -26 -7 -35 -15 -8 -8 -19 -15 -25 -15 -6 0
-19 -4 -29 -10 -9 -5 -33 -16 -52 -24 -19 -8 -60 -26 -90 -39 -30 -13 -80 -34
-110 -47 -30 -12 -64 -26 -75 -30 -11 -5 -42 -18 -70 -30 -27 -11 -57 -24 -65
-29 -9 -5 -30 -12 -48 -15 -17 -4 -34 -12 -37 -17 -4 -5 -17 -9 -30 -9 -13 0
-27 -4 -30 -10 -3 -5 -14 -10 -23 -10 -9 0 -30 -7 -46 -15 -15 -8 -34 -15 -41
-15 -6 0 -33 -11 -59 -25 -26 -14 -54 -25 -63 -25 -8 0 -46 -16 -84 -36 -71
-38 -149 -113 -149 -143 0 -10 -5 -22 -11 -28 -13 -13 -14 -89 -1 -123 13 -34
69 -88 112 -108 51 -23 407 -22 500 1 36 9 87 17 115 17 87 0 537 97 775 167
213 62 582 196 725 263 155 72 203 96 305 150 128 69 244 137 370 218 87 57
251 171 260 182 3 3 23 19 45 35 241 177 591 529 760 765 22 30 42 57 45 60
19 16 139 216 195 322 129 248 203 471 257 778 25 146 36 566 19 761 -20 217
-86 501 -158 669 -15 36 -19 46 -48 115 -20 48 -41 89 -128 245 -28 50 -139
218 -176 265 -40 51 -40 53 -75 100 -17 22 -32 42 -35 45 -4 3 -21 23 -40 45
-96 114 -317 328 -476 462 -97 80 -386 293 -400 293 -3 0 -27 16 -54 35 -26
19 -53 35 -60 35 -6 0 -11 5 -11 10 0 6 -4 10 -10 10 -5 0 -42 20 -82 43 -102
61 -412 219 -528 270 -159 69 -276 113 -450 168 -52 17 -103 35 -112 40 -10 5
-34 13 -55 18 -21 6 -54 14 -73 19 -19 6 -82 22 -140 36 -58 15 -119 31 -135
36 -17 6 -53 13 -80 16 -28 4 -55 11 -61 16 -7 5 -46 13 -87 17 -41 5 -80 12
-87 16 -7 4 -65 13 -129 21 -64 7 -147 17 -186 23 -292 43 -483 34 -543 -26
-8 -8 -11 -17 -8 -21 4 -3 10 -2 14 4 4 6 22 16 39 23 42 17 101 8 173 -25 68
-31 138 -50 305 -79 279 -49 529 -108 760 -179 44 -14 110 -33 146 -44 129
-39 386 -137 609 -232 305 -131 856 -457 1000 -593 19 -18 69 -60 110 -92 104
-83 343 -325 414 -421 33 -43 73 -92 88 -109 16 -16 58 -78 94 -137 36 -59 72
-112 80 -119 8 -6 14 -17 14 -25 0 -7 15 -48 34 -91 75 -169 95 -246 121 -448
8 -66 21 -169 29 -230 8 -60 17 -133 20 -160 3 -28 17 -127 31 -220 29 -198
31 -285 9 -473 -25 -224 -74 -384 -189 -617 -108 -219 -301 -509 -450 -674
-215 -240 -509 -505 -695 -631 -36 -24 -112 -76 -170 -115 -141 -96 -420 -250
-490 -270 -26 -7 -216 -88 -260 -110 -14 -7 -38 -15 -53 -19 -16 -4 -86 -29
-155 -56 -117 -44 -324 -111 -432 -139 -25 -7 -58 -16 -75 -20 -16 -5 -93 -27
-170 -49 -77 -22 -174 -47 -215 -55 -41 -9 -113 -23 -160 -32 -47 -10 -114
-28 -149 -41 -36 -14 -105 -29 -155 -34 -76 -8 -93 -7 -117 7 -26 16 -33 16
-104 -1 -42 -10 -79 -15 -82 -12 -24 24 99 104 195 126 28 7 54 15 56 19 3 4
26 8 53 9 69 3 146 22 160 39 6 8 16 12 21 9 15 -9 64 12 57 24 -3 5 -2 10 4
10 10 0 27 38 23 53 -2 6 28 11 65 10 6 0 9 5 7 11 -3 7 6 13 21 14 14 1 39 9
55 17 17 9 30 12 30 9 0 -4 8 0 18 8 9 8 32 15 51 17 19 1 39 5 45 9 6 4 13 7
16 8 23 4 60 26 67 39 5 9 22 17 38 18 16 1 33 11 39 22 14 26 32 40 81 63 61
30 156 72 200 90 22 8 65 32 95 52 30 20 62 40 70 43 8 4 29 16 45 26 17 11
53 32 80 46 126 68 411 273 540 389 114 103 107 96 195 196 137 155 231 296
289 435 25 60 46 92 83 127 l50 47 -26 23 c-20 18 -30 42 -42 101 -15 74 -15
80 2 98 9 10 23 19 29 19 7 0 48 24 91 53 44 30 133 84 199 121 178 100 178
100 191 112 7 6 45 27 86 48 114 58 141 75 171 107 33 35 34 52 6 104 -32 60
-62 88 -142 128 -247 125 -475 159 -1262 189 -249 10 -922 13 -2525 13 -2536
0 -2951 -6 -3415 -50 -316 -31 -424 -51 -570 -110 -117 -47 -171 -80 -228
-136 -38 -37 -47 -53 -47 -80 1 -62 12 -69 345 -238 147 -75 293 -156 335
-187 41 -31 90 -62 108 -69 26 -11 32 -20 32 -43 0 -16 -7 -43 -15 -58 -8 -16
-15 -36 -15 -45 0 -29 -23 -40 -61 -29 -40 12 -119 13 -119 3 1 -20 90 -92
135 -108 67 -24 86 -45 130 -145 49 -109 81 -163 164 -274 122 -164 205 -250
411 -431 31 -27 137 -107 210 -158 106 -74 180 -121 237 -153 62 -33 251 -152
263 -164 3 -3 23 -11 45 -19 46 -16 123 -49 145 -62 8 -4 30 -16 48 -25 17 -9
32 -20 32 -25 0 -5 6 -9 14 -9 7 0 20 -10 28 -22 9 -13 35 -29 61 -36 30 -9
49 -21 53 -34 3 -11 8 -17 11 -14 3 3 21 -1 41 -10 19 -8 53 -15 74 -16 23 -1
42 -7 45 -15 3 -7 14 -13 24 -13 11 0 36 -9 56 -20 21 -11 43 -20 50 -20 12 0
14 -5 12 -27 0 -5 10 -10 23 -13 13 -3 23 -11 23 -17 0 -7 5 -16 10 -21 15
-13 152 -49 215 -57 30 -3 59 -10 65 -14 5 -5 29 -11 52 -15 56 -8 169 -61
187 -88 19 -27 11 -41 -16 -27 -31 16 -188 25 -188 10 0 -20 -105 -12 -187 13
-121 38 -232 66 -303 76 -81 11 -179 33 -295 65 -49 14 -148 41 -220 60 -148
39 -305 90 -450 145 -55 21 -138 53 -185 70 -201 75 -323 127 -450 193 -175
90 -182 94 -333 201 -364 258 -520 387 -717 596 -149 159 -146 156 -247 287
-261 344 -471 783 -520 1088 -35 223 -17 508 66 1010 10 66 24 161 31 210 14
111 43 231 71 293 11 26 22 52 23 57 1 6 12 31 24 57 12 26 22 52 22 57 0 6 3
11 8 11 4 0 13 14 21 30 7 17 27 52 45 78 18 26 36 54 40 62 14 30 31 56 51
76 11 11 27 31 35 44 8 12 20 28 25 34 6 6 57 64 114 129 133 152 368 387 386
387 4 0 18 14 32 30 14 17 28 28 31 26 5 -6 94 62 100 76 2 5 9 8 15 8 6 0 36
20 66 44 31 23 94 67 141 96 47 29 87 57 88 61 2 5 10 9 17 9 8 0 36 15 62 32
84 57 295 164 508 258 28 12 70 31 93 42 64 28 387 147 462 169 36 11 92 28
125 38 33 10 78 24 100 30 22 6 72 19 110 30 169 48 520 125 663 147 97 14
190 37 225 56 87 44 240 65 274 37 7 -7 16 -9 19 -7 11 12 -64 47 -120 57 -65
12 -109 12 -201 1z m2830 -3600 c402 -17 627 -58 735 -132 82 -56 106 -109 78
-175 -6 -15 -14 -48 -17 -73 l-6 -45 -105 2 c-58 0 -166 6 -240 12 -470 38
-722 43 -2095 46 -748 2 -1493 -1 -1655 -5 -512 -15 -924 -36 -947 -48 -13 -7
-67 -12 -132 -12 -100 0 -111 2 -121 20 -6 11 -9 20 -6 20 2 0 -3 28 -13 63
-18 63 -18 74 2 116 15 30 118 103 177 124 121 44 365 75 685 87 296 10 3416
11 3660 0z m-300 -3015 c-22 -7 -80 -25 -130 -40 -49 -14 -97 -29 -105 -32 -8
-3 -20 -5 -26 -4 -7 1 -14 -5 -18 -14 -3 -8 -12 -15 -21 -15 -8 0 -15 -4 -15
-10 0 -5 7 -10 16 -10 8 0 12 -5 9 -10 -5 -8 -11 -7 -21 1 -8 6 -14 8 -14 4 0
-4 -6 -3 -13 3 -30 25 -263 -5 -337 -43 -16 -8 -44 -15 -62 -15 -31 0 -30 2
22 23 31 13 77 38 103 56 73 50 106 60 204 62 50 1 115 5 144 10 30 5 69 11
87 13 18 3 47 9 65 15 42 13 74 18 117 19 l35 0 -40 -13z"/>
<path d="M4661 9537 c-9 -16 -28 -29 -56 -37 -24 -7 -58 -21 -77 -33 -110 -67
-138 -77 -252 -87 -151 -12 -230 -32 -706 -181 -52 -17 -133 -45 -180 -64 -47
-18 -134 -52 -195 -75 -60 -24 -147 -60 -193 -81 -46 -22 -85 -39 -88 -39 -12
0 -372 -184 -411 -210 -24 -17 -58 -37 -76 -46 -47 -25 -221 -140 -312 -208
-218 -162 -462 -404 -586 -581 -92 -131 -109 -186 -60 -193 18 -3 21 -6 11
-12 -10 -6 -7 -10 13 -15 17 -5 27 -14 27 -26 0 -10 4 -19 9 -19 5 0 30 -10
57 -22 27 -12 68 -27 91 -33 41 -11 253 -15 283 -5 12 4 15 -5 14 -50 -1 -30
-7 -75 -13 -99 -10 -36 -18 -46 -52 -60 -38 -16 -49 -34 -28 -47 6 -3 22 -1
35 6 20 11 28 10 59 -11 19 -13 48 -46 64 -74 16 -27 45 -66 65 -84 41 -40 49
-36 10 6 -78 84 -99 180 -70 318 10 44 21 89 26 100 4 11 20 49 34 84 85 206
292 456 541 654 11 9 40 32 65 53 43 35 245 178 282 199 10 6 70 42 135 81 65
39 143 83 173 99 243 125 432 215 450 215 6 0 18 4 28 10 18 10 269 112 362
147 30 12 75 29 100 38 25 9 83 30 130 47 200 69 271 115 311 203 22 47 24
114 6 139 -12 16 -14 16 -26 -7z"/>
<path d="M5876 9543 c-8 -8 -8 -82 0 -122 4 -18 26 -54 50 -80 45 -50 104 -83
214 -121 36 -12 79 -28 95 -35 17 -7 64 -25 105 -40 41 -15 108 -40 149 -56
40 -16 77 -29 82 -29 5 0 34 -12 66 -26 32 -14 67 -30 78 -34 135 -57 135 -57
230 -100 39 -18 99 -47 135 -65 166 -85 279 -144 320 -169 25 -15 53 -29 63
-33 9 -3 17 -9 17 -14 0 -5 5 -9 11 -9 25 0 325 -212 479 -338 103 -85 277
-269 348 -369 40 -55 72 -105 72 -111 0 -6 3 -12 8 -14 8 -4 76 -139 90 -183
27 -78 42 -147 48 -223 4 -45 10 -82 13 -82 3 1 18 17 33 36 23 30 25 39 17
70 -6 19 -9 60 -7 91 l3 57 145 2 c80 1 163 5 185 8 100 15 115 19 122 30 10
17 52 39 76 41 89 8 -17 202 -247 454 -203 223 -445 417 -741 596 -76 46 -106
63 -250 140 -131 70 -434 204 -615 271 -41 15 -79 31 -85 34 -12 8 -227 80
-446 149 -160 51 -332 91 -494 116 -111 16 -184 42 -208 71 -9 12 -41 30 -70
39 -28 9 -59 25 -68 36 -9 10 -19 15 -23 12z"/>
<path d="M8390 8603 c1 -5 28 -28 61 -53 254 -190 482 -395 595 -535 26 -33
65 -78 85 -100 63 -67 80 -88 107 -135 14 -25 42 -70 62 -100 20 -30 48 -77
61 -105 14 -27 39 -77 56 -110 49 -92 78 -170 108 -285 29 -110 40 -254 19
-268 -6 -4 -18 -32 -28 -62 -40 -126 -133 -235 -248 -293 -92 -45 -193 -87
-212 -87 -8 0 -19 -7 -24 -16 -5 -9 -11 -15 -13 -13 -8 5 -140 -12 -165 -22
-15 -5 -83 -16 -153 -24 -69 -8 -157 -19 -196 -24 -38 -5 -166 -10 -285 -11
-118 -1 -231 -3 -250 -4 -19 -2 -255 -7 -525 -11 -269 -4 -495 -12 -502 -17
-7 -5 -12 -5 -15 1 -2 6 -20 6 -44 2 -23 -4 -49 -4 -57 0 -10 6 -16 3 -19 -9
-4 -14 2 -17 31 -17 20 0 42 5 50 9 10 6 12 5 7 -2 -5 -8 0 -11 14 -9 12 2 42
1 66 -3 27 -4 41 -3 37 3 -4 6 -1 7 6 3 21 -13 104 -16 119 -4 10 9 15 9 21
-1 7 -10 13 -10 29 -2 12 6 23 7 26 2 3 -5 21 -6 39 -2 18 5 41 5 52 1 11 -4
27 -5 35 -1 12 5 105 6 105 1 0 -1 12 -3 28 -5 15 -2 25 -1 23 3 -2 4 93 7
212 8 120 1 267 4 327 8 61 3 180 9 265 12 157 6 238 11 320 19 25 2 73 5 107
5 34 0 65 5 68 10 4 6 17 10 31 10 14 0 36 8 51 17 14 10 33 18 42 19 9 1 33
5 54 7 20 3 43 9 50 15 6 5 28 10 48 10 31 1 225 82 239 101 10 12 68 28 80
21 6 -4 13 -16 14 -26 2 -11 10 -18 18 -16 9 1 18 -7 21 -18 4 -16 2 -20 -12
-15 -22 7 -53 -4 -46 -15 6 -10 -49 -70 -65 -70 -5 0 -10 -5 -10 -12 0 -6 3
-8 7 -4 4 3 13 -4 21 -16 13 -23 13 -23 8 4 -4 15 -2 30 4 33 5 3 10 -1 10
-11 0 -13 6 -15 33 -10 18 3 26 2 19 -2 -9 -6 -6 -12 13 -20 28 -13 25 -32 -5
-32 -14 0 -18 5 -13 16 5 13 2 15 -18 9 -31 -9 -60 -42 -52 -60 9 -25 22 -16
17 12 -4 20 -2 24 8 16 7 -6 24 -9 37 -7 20 4 22 2 11 -11 -16 -20 -6 -19 14
1 9 8 16 11 16 6 0 -6 10 -8 23 -5 18 4 19 3 7 -6 -8 -6 -23 -11 -32 -11 -10
0 -18 -5 -18 -11 0 -5 4 -8 9 -5 5 4 12 -7 16 -24 4 -17 11 -27 16 -24 6 3 8
9 5 12 -3 3 -1 11 5 19 9 10 8 13 -5 13 -10 0 -14 5 -11 10 3 6 15 10 26 10
16 0 22 -8 21 -30 0 -3 6 -10 13 -17 10 -10 16 -9 26 3 6 8 9 18 5 21 -4 4
-12 1 -17 -7 -8 -12 -9 -11 -7 5 2 11 -3 25 -11 31 -11 9 -8 11 15 10 17 -1
28 -6 27 -13 -2 -9 4 -10 21 -3 14 5 26 6 29 2 2 -4 2 -1 1 6 -2 6 6 12 17 12
14 0 19 5 16 14 -5 12 1 14 31 10 20 -3 42 -6 48 -7 12 0 15 -27 2 -27 -4 0
-8 4 -8 9 0 5 -9 11 -20 14 -24 6 -48 -19 -33 -34 8 -8 13 -7 17 0 4 6 12 11
17 11 6 0 7 -4 4 -10 -4 -6 1 -7 11 -3 13 5 16 2 12 -8 -5 -12 2 -14 29 -11
24 3 33 8 29 18 -9 24 33 16 61 -12 14 -14 28 -22 32 -18 3 4 0 9 -6 11 -7 3
-13 14 -13 26 0 13 3 17 8 11 4 -6 17 -10 29 -9 12 1 20 -2 17 -6 -2 -4 0 -10
6 -14 6 -4 7 -12 4 -18 -4 -7 -3 -8 2 -4 5 5 10 13 10 18 1 5 3 12 4 17 17 45
11 277 -10 397 -5 28 -11 64 -14 80 -3 17 -7 39 -10 50 -26 98 -37 140 -56
205 -24 81 -173 390 -235 486 -103 159 -186 282 -210 309 -163 187 -261 286
-420 427 -97 86 -243 192 -300 217 -11 5 -37 23 -59 40 -21 17 -43 31 -48 31
-5 0 -24 11 -42 25 -18 14 -40 25 -48 25 -9 0 -21 7 -28 15 -13 15 -60 21 -60
8z"/>
<path d="M2401 6986 c11 -11 127 -46 152 -46 15 0 37 -5 48 -11 11 -5 61 -17
112 -25 354 -58 368 -59 2587 -59 2029 0 2058 0 2365 35 39 4 120 16 180 26
l110 19 -63 3 c-34 2 -88 -2 -120 -8 -146 -27 -534 -31 -2647 -27 -1447 3
-2181 8 -2225 15 -36 6 -112 14 -170 18 -58 4 -110 10 -115 15 -6 4 -31 11
-55 14 -25 4 -62 13 -83 21 -34 13 -86 20 -76 10z"/>
<path d="M9160 6240 c13 -8 12 -10 -3 -10 -11 0 -15 -5 -11 -11 4 -8 0 -8 -15
0 -12 7 -26 9 -31 6 -5 -3 -11 -1 -15 5 -3 5 -22 7 -43 4 -20 -3 -44 -7 -53
-7 -10 -1 -16 -13 -17 -35 -2 -18 1 -31 6 -28 5 3 22 -2 37 -10 16 -8 37 -13
47 -11 10 3 18 1 18 -4 0 -5 10 -9 23 -9 13 0 28 -5 35 -12 6 -6 50 -30 98
-53 47 -23 84 -45 82 -50 -5 -13 47 -21 84 -13 27 6 32 16 18 33 -7 9 -10 18
-7 22 4 3 2 12 -4 20 -9 9 -8 13 0 13 6 0 11 5 11 10 0 6 -11 10 -24 10 -34 0
-42 17 -19 42 18 20 18 21 -3 8 -18 -11 -24 -10 -43 9 -11 11 -27 21 -35 21
-8 0 -18 5 -22 12 -4 7 -3 8 4 4 13 -8 16 3 4 20 -8 11 -51 12 -69 1 -6 -4
-18 0 -26 8 -9 8 -22 15 -29 15 -10 0 -9 -3 2 -10z"/>
<path d="M1053 5475 c7 -92 48 -235 101 -350 66 -144 276 -468 350 -541 12
-11 57 -60 101 -109 44 -49 100 -107 125 -130 103 -97 116 -107 108 -86 -1 5
-61 69 -133 143 -71 73 -142 149 -157 168 -199 255 -233 307 -316 485 -39 83
-77 164 -86 180 -9 17 -16 40 -16 53 0 12 -6 38 -14 56 -8 19 -19 67 -26 108
-6 40 -18 80 -27 88 -14 14 -15 8 -10 -65z"/>
<path d="M8115 1743 c-110 -20 -178 -41 -255 -77 -98 -46 -211 -165 -234 -246
-4 -14 -14 -50 -24 -80 -13 -46 -16 -102 -16 -345 1 -265 3 -297 22 -369 27
-98 53 -150 104 -210 41 -48 146 -126 170 -126 8 0 22 -6 33 -14 29 -20 137
-45 245 -57 61 -6 316 -9 705 -6 569 4 615 6 690 24 106 27 167 52 230 94 65
44 125 107 125 133 0 6 -16 22 -36 36 l-36 24 -22 -27 c-12 -15 -27 -27 -34
-27 -15 0 -15 5 3 39 13 27 13 29 -5 34 -29 7 -24 27 9 38 34 12 37 24 47 179
3 64 2 115 -4 131 -14 36 -47 43 -66 15 -13 -20 -21 -22 -93 -20 -43 1 -89 5
-102 8 -13 3 -33 0 -44 -6 -16 -8 -22 -8 -25 1 -2 6 -12 11 -21 11 -14 0 -20
11 -24 43 -4 23 -11 59 -17 80 -9 31 -15 37 -31 32 -18 -6 -19 -1 -19 115 0
124 -5 146 -44 188 -31 35 -78 51 -185 64 -112 13 -546 13 -611 0 l-45 -8 60
-13 c101 -22 106 -27 35 -35 -149 -16 -164 -19 -184 -41 -12 -12 -36 -27 -55
-33 -33 -12 -37 -10 -66 18 l-31 30 -22 -29 c-30 -40 -42 -130 -42 -308 0
-193 11 -246 60 -296 40 -40 63 -48 58 -19 -1 9 2 18 7 20 18 6 94 -9 123 -24
22 -11 90 -14 358 -14 l331 0 65 33 c35 18 79 43 96 56 18 12 32 19 32 15 0
-21 41 34 46 62 3 19 11 34 16 34 6 0 9 -36 6 -93 -3 -84 -6 -97 -31 -130 -53
-69 -125 -88 -372 -96 -283 -9 -590 3 -662 25 -93 29 -147 95 -184 223 -20 69
-35 87 -55 66 -8 -8 -33 -11 -68 -10 -31 2 -59 -1 -61 -6 -3 -4 -17 -4 -30 1
-14 5 -25 6 -25 1 0 -10 -4 -9 -59 3 -27 7 -37 5 -47 -9 -12 -15 -13 -15 -23
3 -6 11 -16 44 -22 74 -15 68 -34 97 -59 91 -29 -8 -35 30 -35 227 0 163 2
178 24 225 27 58 33 65 125 128 132 92 281 118 761 132 301 9 835 -16 975 -46
53 -11 170 -69 170 -84 0 -5 16 -21 35 -35 118 -87 173 -349 146 -700 -7 -85
-16 -172 -21 -192 -5 -24 -4 -38 2 -38 21 0 79 76 99 129 20 53 21 70 16 306
-5 272 -8 291 -68 420 -22 46 -124 143 -184 176 -85 45 -132 58 -290 79 -124
17 -202 19 -700 18 -444 0 -577 -3 -640 -15z m1031 -464 c115 -20 134 -60 134
-285 0 -240 -8 -252 -168 -270 -145 -18 -480 -17 -621 0 -171 22 -181 37 -181
281 0 83 5 166 10 186 14 51 47 77 110 88 80 13 641 13 716 0z m651 -866 c9
-23 -54 -76 -109 -92 -24 -7 -54 -18 -68 -24 -26 -11 -156 -24 -305 -32 -67
-3 -80 -2 -50 5 22 5 64 9 93 9 29 1 60 5 70 10 9 5 51 19 92 32 41 13 110 43
155 65 90 47 113 52 122 27z"/>
<path d="M645 1688 c-3 -7 -4 -321 -3 -698 l3 -685 318 -3 c174 -1 317 1 317
5 0 3 -15 19 -32 34 -28 23 -30 28 -16 34 20 8 78 -32 78 -53 0 -7 8 -12 18
-10 15 3 18 22 22 184 4 133 9 185 19 197 12 15 53 17 402 17 l389 0 17 -27
c15 -22 19 -57 23 -203 l5 -175 313 -3 c262 -2 312 0 312 12 0 7 -9 16 -20 19
-12 3 -20 14 -20 26 0 31 15 26 60 -21 26 -26 44 -38 50 -32 7 7 9 265 8 700
l-3 689 -350 0 -350 0 -5 -181 c-4 -132 -9 -186 -19 -198 -16 -19 -6 -35 11
-18 7 7 22 12 34 12 19 0 24 8 33 50 6 28 11 87 11 131 0 65 -4 85 -21 108
-24 33 -22 66 4 65 9 0 150 -1 312 -2 197 -1 295 -5 295 -12 0 -6 -10 -24 -22
-41 -23 -30 -23 -33 -29 -500 -6 -492 -12 -567 -34 -406 -3 26 -10 48 -16 48
-13 2 -22 5 -42 13 -10 5 -23 3 -30 -3 -10 -8 -17 -7 -25 1 -9 9 -12 9 -12 1
0 -7 -10 -10 -25 -7 -15 3 -25 0 -25 -7 0 -8 -6 -7 -17 2 -9 8 -14 9 -10 3 5
-8 -15 -13 -66 -16 -39 -2 -74 -1 -75 4 -2 4 -7 6 -12 3 -5 -3 -15 2 -23 10
-22 22 -67 3 -68 -27 0 -17 -7 -8 -26 30 -17 36 -40 63 -66 80 l-41 27 -408 3
c-368 2 -410 1 -433 -14 -30 -19 -23 -31 20 -36 22 -2 31 -9 33 -24 2 -12 13
-26 25 -31 19 -9 17 -11 -26 -26 -50 -17 -72 -15 -81 9 -8 21 -34 17 -46 -7
-21 -39 -40 -114 -40 -161 0 -27 -3 -48 -8 -48 -4 0 -8 35 -8 78 -1 131 -5
147 -34 147 -14 0 -28 -4 -32 -10 -5 -6 -8 -5 -8 4 0 11 -3 11 -15 1 -8 -7
-15 -10 -15 -7 0 3 -16 1 -35 -3 -19 -4 -33 -4 -30 0 6 9 -97 6 -112 -3 -6 -4
-13 -3 -17 0 -4 4 -12 8 -19 9 -7 2 -22 5 -35 8 -13 3 -20 1 -17 -5 9 -13 -9
-11 -24 4 -11 9 -13 9 -7 0 4 -8 1 -13 -8 -13 -9 0 -16 -4 -16 -10 0 -5 -4
-10 -8 -10 -5 0 -14 48 -20 108 -7 59 -17 142 -22 184 -6 42 -14 183 -19 313
-8 221 -10 238 -30 266 -12 16 -21 39 -19 50 3 19 12 20 318 20 231 0 316 -3
319 -12 2 -6 -9 -23 -24 -36 l-27 -26 4 -126 c3 -141 18 -185 61 -180 12 2 37
-4 56 -14 30 -15 74 -17 383 -17 341 0 388 4 388 32 0 8 -99 9 -368 5 -203 -3
-378 -4 -389 -1 -36 10 -43 47 -43 219 0 90 -3 170 -6 179 -5 14 -46 16 -355
16 -271 0 -351 -3 -354 -12z"/>
<path d="M3475 1688 c-3 -7 -4 -321 -3 -698 l3 -685 329 -3 c320 -2 386 3 324
27 -29 11 -46 41 -22 41 22 0 64 -30 64 -46 0 -20 19 -27 35 -14 13 11 15 109
15 689 0 513 -3 680 -12 689 -18 18 -727 17 -733 0z m695 -39 c0 -5 -10 -23
-22 -40 -23 -30 -23 -37 -30 -417 -3 -213 -9 -412 -12 -442 -2 -30 -5 -79 -5
-108 -1 -33 -5 -51 -11 -47 -5 3 -10 25 -10 48 0 45 -18 168 -26 176 -4 4 -85
4 -172 -1 -23 -2 -42 -1 -42 2 0 3 -24 5 -54 5 -30 -1 -52 3 -50 7 3 4 -2 8
-11 8 -9 0 -14 -4 -11 -8 6 -10 -30 -9 -40 1 -4 3 -15 2 -25 -4 -30 -15 -55
19 -68 93 -15 88 -31 326 -31 478 0 112 -3 131 -25 178 -27 58 -31 78 -15 84
26 8 660 -3 660 -13z"/>
<path d="M4776 1693 c-10 -10 -7 -1375 4 -1388 12 -14 610 -8 610 6 0 6 -10
19 -22 29 -13 10 -20 21 -16 25 14 14 59 -6 68 -29 12 -31 28 -41 45 -26 11 9
14 69 17 310 3 277 4 299 22 319 11 12 26 21 34 21 19 0 135 -56 187 -90 22
-15 65 -40 95 -56 30 -16 78 -43 107 -61 29 -18 57 -33 63 -33 5 0 10 -4 10
-10 0 -5 4 -10 9 -10 5 0 46 -22 91 -50 45 -27 83 -50 85 -50 2 0 32 -19 67
-42 111 -74 131 -110 137 -245 1 -16 641 -19 641 -4 0 6 -12 16 -27 23 -35 17
-41 38 -11 38 30 -1 62 -25 55 -44 -7 -18 32 -29 50 -14 17 14 14 1361 -3
1378 -7 7 -122 9 -355 8 l-344 -3 -1 -201 c-2 -207 -7 -237 -43 -247 -21 -5
-27 -2 -126 53 -33 18 -80 44 -105 58 -25 14 -63 37 -85 52 -22 15 -47 30 -55
33 -8 4 -31 17 -50 28 -130 80 -302 166 -395 198 l-89 31 -331 0 c-183 0 -335
-3 -339 -7z m714 -49 c65 -18 69 -20 180 -73 83 -39 160 -81 170 -91 3 -3 16
-11 30 -18 14 -7 39 -21 55 -32 17 -11 48 -29 70 -40 22 -12 58 -32 80 -46 22
-13 47 -27 55 -31 8 -3 17 -9 20 -12 5 -6 19 -14 75 -43 101 -52 112 -52 191
1 68 45 74 59 74 160 -1 80 -14 138 -39 172 -12 17 -21 39 -19 50 3 20 10 20
313 20 207 0 311 -4 313 -11 2 -5 -8 -24 -22 -41 -24 -28 -26 -38 -26 -127 0
-53 -2 -149 -5 -212 -2 -63 -6 -214 -10 -335 -8 -281 -19 -366 -30 -234 -3 30
-8 74 -12 99 -3 25 -6 48 -5 52 3 14 -28 16 -41 3 -17 -16 -111 -30 -102 -15
4 6 -2 7 -17 1 -13 -4 -45 -7 -73 -5 -27 2 -85 5 -127 8 -43 2 -78 2 -78 -2 0
-4 -8 -12 -19 -19 -15 -9 -31 -8 -77 7 -32 10 -69 17 -81 15 -13 -1 -23 2 -23
6 0 5 -11 9 -25 9 -20 0 -27 -6 -31 -30 -6 -27 -34 -44 -34 -20 0 6 -8 10 -18
10 -11 0 -61 25 -112 56 -50 30 -170 94 -266 142 -147 72 -184 86 -234 90 -46
3 -66 0 -86 -13 l-27 -17 30 -13 c43 -18 52 -53 22 -76 -31 -24 -52 -24 -74 1
-28 31 -44 24 -66 -26 -19 -42 -38 -200 -39 -318 0 -62 -8 -38 -15 49 -9 109
-11 114 -43 111 -42 -5 -82 -17 -82 -27 0 -5 -11 -4 -25 1 -14 5 -25 7 -25 3
0 -3 -8 1 -17 10 -15 13 -22 14 -43 2 -16 -8 -32 -10 -47 -4 -12 4 -46 7 -74
5 -43 -2 -53 1 -65 19 -22 34 -54 307 -63 538 -7 195 -9 215 -30 250 -16 26
-20 41 -13 50 17 20 609 12 682 -9z"/>
</g>
</svg>
