<?xml version="1.0" standalone="no"?>
<!DOCTYPE svg PUBLIC "-//W3C//DTD SVG 20010904//EN"
 "http://www.w3.org/TR/2001/REC-SVG-20010904/DTD/svg10.dtd">
<svg version="1.0" xmlns="http://www.w3.org/2000/svg"
 width="2277.000000pt" height="1664.000000pt" viewBox="0 0 2277.000000 1664.000000"
 preserveAspectRatio="xMidYMid meet">
<metadata>
Created by potrace 1.16, written by Peter Selinger 2001-2019
</metadata>
<g transform="translate(0.000000,1664.000000) scale(0.100000,-0.100000)"
fill="#000000" stroke="none">
<path d="M11000 13793 c-8 -1 -154 -10 -325 -18 -170 -9 -335 -18 -365 -20
-139 -12 -370 -25 -525 -31 -93 -3 -177 -10 -185 -14 -8 -4 -60 -10 -115 -14
-108 -7 -366 -39 -510 -63 -125 -21 -176 -28 -280 -42 -306 -40 -584 -94 -830
-161 -44 -12 -96 -26 -115 -30 -199 -47 -456 -118 -505 -140 -11 -5 -54 -18
-95 -30 -132 -37 -245 -73 -255 -82 -5 -4 -19 -8 -32 -8 -13 0 -31 -4 -41 -10
-29 -16 -85 -38 -122 -49 -45 -13 -119 -39 -145 -51 -11 -5 -63 -23 -115 -41
-52 -17 -99 -35 -105 -39 -5 -4 -64 -29 -130 -55 -66 -26 -148 -60 -182 -76
-35 -16 -67 -29 -73 -29 -5 0 -10 -4 -10 -10 0 -5 -7 -10 -15 -10 -8 0 -23 -4
-33 -9 -9 -6 -53 -27 -97 -47 -44 -20 -115 -54 -158 -76 -43 -21 -83 -38 -89
-38 -5 0 -23 -9 -38 -20 -16 -11 -42 -23 -59 -26 -16 -4 -32 -12 -35 -20 -3
-8 -14 -14 -25 -14 -11 0 -36 -9 -54 -19 -64 -36 -72 -40 -158 -79 -48 -22
-117 -60 -155 -84 -38 -25 -108 -65 -155 -91 -47 -25 -101 -56 -121 -69 -19
-12 -54 -34 -77 -48 -80 -47 -176 -113 -226 -155 -27 -23 -68 -54 -89 -69 -21
-14 -67 -52 -101 -84 -34 -31 -81 -73 -104 -92 -99 -80 -131 -109 -220 -200
-132 -134 -286 -309 -351 -399 -66 -91 -140 -207 -140 -219 0 -5 -8 -20 -19
-33 -10 -13 -22 -39 -25 -56 -4 -18 -11 -33 -15 -33 -10 0 -47 -79 -56 -120
-4 -19 -13 -42 -20 -50 -11 -14 -35 -90 -69 -215 -29 -106 -45 -193 -51 -270
-3 -44 -8 -97 -12 -119 -5 -35 -4 -38 17 -31 19 6 126 21 207 29 25 2 36 -3
47 -19 24 -37 53 -147 61 -230 4 -44 10 -84 15 -90 4 -5 10 -30 12 -55 5 -41
50 -180 83 -255 8 -16 17 -46 20 -65 9 -44 152 -340 165 -340 6 0 10 -9 10
-20 0 -11 7 -23 15 -26 8 -4 15 -12 15 -20 0 -7 13 -29 30 -47 16 -19 30 -41
30 -49 0 -17 30 -59 110 -156 30 -37 67 -83 81 -102 15 -19 77 -84 139 -145
124 -122 120 -118 211 -195 35 -30 75 -65 89 -77 55 -47 71 -60 145 -113 43
-30 116 -84 164 -119 224 -166 389 -262 475 -277 23 -3 52 -12 66 -19 24 -12
92 -12 218 1 56 6 102 -1 102 -15 0 -5 -18 -18 -40 -28 -117 -54 38 -40 180
17 120 48 236 63 306 40 36 -12 37 -13 15 -21 -12 -5 -64 -14 -114 -19 -58 -7
-98 -17 -109 -27 -10 -9 -18 -12 -18 -7 0 5 -7 -4 -15 -20 -8 -15 -15 -30 -15
-31 0 -2 17 -6 38 -10 20 -4 42 -11 49 -16 18 -15 63 0 63 21 0 28 27 50 53
43 40 -9 200 -11 226 -2 14 4 41 10 60 12 33 3 52 29 30 43 -17 10 -9 24 14
23 21 0 21 -1 2 -9 -18 -7 -19 -8 -3 -15 10 -4 15 -11 13 -16 -3 -4 8 -7 25
-6 18 1 30 8 30 16 0 11 4 10 13 -4 10 -12 16 -14 21 -7 12 20 24 13 22 -14
-1 -18 -5 -24 -18 -20 -15 3 -16 1 -7 -15 5 -11 7 -28 4 -38 -8 -25 -40 -61
-54 -61 -6 0 -11 -5 -11 -11 0 -6 -8 -8 -19 -4 -13 4 -23 0 -30 -12 -5 -10
-12 -17 -15 -15 -22 9 -46 -1 -52 -22 -7 -28 -41 -46 -104 -52 -42 -5 -64 0
-197 41 -27 8 -82 24 -123 35 -41 12 -88 28 -103 36 -16 8 -38 14 -50 14 -12
0 -35 7 -51 15 -15 8 -42 15 -59 15 -31 0 -39 2 -152 39 -92 30 -239 96 -310
139 -16 10 -57 33 -90 51 -33 18 -89 54 -125 79 -35 26 -79 56 -96 67 -37 23
-212 148 -390 278 -76 56 -166 134 -306 267 -115 109 -99 92 -202 200 -78 82
-87 95 -72 105 14 11 14 14 -5 31 -12 10 -39 45 -61 77 -21 31 -43 57 -48 57
-6 0 -10 9 -10 19 0 10 -25 54 -55 96 -31 42 -62 90 -71 107 -11 22 -20 28
-32 23 -9 -4 -27 -10 -40 -12 -12 -3 -22 -7 -22 -8 0 -12 60 -134 69 -139 6
-4 11 -17 11 -28 0 -12 16 -50 35 -85 19 -35 35 -67 35 -70 0 -4 -14 6 -30 22
-32 30 -150 251 -150 279 0 21 -2 21 -58 -14 -27 -16 -56 -30 -65 -30 -30 0
-28 -20 6 -63 18 -23 53 -78 77 -122 23 -44 55 -96 70 -115 37 -49 70 -108 70
-127 0 -8 9 -17 21 -20 16 -4 20 -12 16 -30 -3 -16 2 -27 14 -34 11 -5 19 -17
19 -27 0 -27 189 -244 350 -402 164 -161 239 -223 514 -422 245 -178 633 -411
936 -560 157 -78 349 -168 356 -168 2 0 27 -11 56 -24 65 -30 284 -117 375
-150 38 -13 133 -50 213 -81 179 -70 321 -119 515 -179 229 -71 227 -71 430
-120 105 -26 206 -51 225 -56 169 -45 636 -141 803 -165 93 -14 185 -29 205
-34 20 -5 105 -19 187 -31 83 -11 191 -27 240 -35 50 -8 189 -26 310 -40 121
-14 243 -29 270 -35 74 -14 250 -28 425 -35 428 -15 628 -27 785 -45 111 -13
867 -8 1220 9 110 5 270 12 355 16 162 6 454 36 600 60 126 22 214 33 373 50
78 8 156 17 174 19 184 24 274 40 308 55 43 20 111 36 188 46 26 4 64 14 85
23 25 10 71 16 142 18 200 4 829 162 1325 333 66 23 219 75 340 115 241 81
530 193 725 279 167 75 579 285 640 328 14 9 53 32 85 50 33 18 79 45 102 61
23 15 44 28 47 28 21 0 482 308 611 407 6 5 30 24 55 43 25 19 47 37 50 40 3
3 34 30 70 59 168 137 409 394 519 552 18 27 37 49 42 49 5 0 9 6 9 13 0 6 14
28 30 47 17 19 38 51 48 70 30 60 76 135 84 138 4 2 8 12 8 22 0 9 7 23 15 30
8 7 15 21 15 31 0 11 4 19 9 19 5 0 17 21 25 48 9 26 28 67 42 92 56 98 109
261 102 317 -5 41 -18 57 -65 83 -52 28 -57 41 -35 80 23 40 46 46 78 21 15
-12 37 -21 49 -21 20 0 23 7 29 53 17 133 17 219 2 357 -22 187 -45 297 -95
447 -23 67 -41 129 -41 137 0 9 -4 16 -10 16 -5 0 -10 7 -10 15 0 8 -4 15 -10
15 -5 0 -10 4 -10 10 0 17 -48 115 -67 135 -10 11 -25 35 -32 53 -7 17 -17 32
-21 32 -4 0 -10 8 -13 18 -10 29 -54 103 -85 141 -31 39 -63 95 -61 108 4 21
-2 33 -16 33 -9 0 -21 12 -28 28 -6 15 -22 38 -34 51 -12 14 -20 28 -17 33 3
4 -2 8 -10 8 -9 0 -16 7 -16 15 0 8 -9 20 -20 27 -11 7 -20 18 -20 24 0 6 -12
22 -27 36 -16 14 -34 34 -40 44 -7 10 -12 15 -12 9 3 -23 -2 -27 -16 -15 -8 7
-12 16 -9 21 3 5 -1 9 -8 9 -7 0 -42 32 -78 71 -36 40 -84 90 -107 112 -23 22
-40 44 -37 48 3 5 1 9 -4 9 -9 0 -43 29 -133 113 -31 28 -75 68 -99 87 -24 19
-59 50 -78 68 -19 17 -38 32 -42 32 -3 0 -15 8 -26 18 -10 9 -38 30 -62 46
-24 16 -46 34 -50 40 -10 16 -125 102 -161 121 -17 8 -31 20 -31 25 0 6 -6 10
-13 10 -19 0 -49 35 -40 45 5 4 2 5 -4 1 -7 -4 -13 -3 -13 2 0 5 -14 12 -31
16 -22 4 -30 10 -25 21 4 10 -1 15 -15 15 -24 0 -101 49 -93 61 2 5 -8 11 -23
15 -57 12 -64 16 -59 30 3 7 0 16 -6 20 -7 4 -8 3 -4 -4 12 -19 -23 -14 -53 7
-15 11 -54 32 -86 46 -33 15 -63 33 -67 39 -4 6 -8 7 -8 3 0 -6 -128 55 -169
80 -2 1 2 10 10 20 9 11 10 14 2 9 -8 -4 -13 -2 -13 4 0 6 -5 8 -10 5 -6 -4
-8 -10 -5 -14 4 -8 -8 -4 -90 28 -20 7 -31 19 -32 33 -2 16 1 18 10 9 6 -6 19
-11 30 -11 10 0 15 -4 12 -10 -3 -5 -1 -10 6 -10 7 0 21 -7 31 -17 10 -9 18
-11 18 -6 0 6 -7 13 -15 17 -9 3 -12 12 -8 22 5 13 2 16 -9 11 -9 -3 -34 3
-55 15 -21 11 -47 21 -58 21 -11 1 -21 8 -21 15 -1 6 -2 17 -3 24 0 7 -8 3
-17 -8 -8 -10 -13 -13 -9 -6 5 11 -6 17 -27 13 -5 0 -8 6 -8 15 0 11 -5 14
-16 10 -9 -3 -18 -6 -20 -6 -3 0 -2 -4 1 -10 3 -5 2 -10 -4 -10 -20 0 -21 19
-1 25 11 3 20 11 20 16 0 6 -7 6 -19 -1 -14 -7 -22 -7 -26 0 -4 6 -11 8 -16 4
-6 -3 -7 4 -3 20 5 19 2 26 -9 26 -8 0 -18 -6 -20 -12 -4 -10 -6 -10 -6 0 -1
7 -6 10 -11 7 -6 -4 -16 -2 -23 3 -7 5 -21 6 -32 1 -11 -4 -14 -8 -7 -8 6 -1
12 -5 12 -11 0 -6 -9 -6 -22 -1 -13 5 -22 13 -21 18 1 5 -7 10 -18 10 -11 1
-36 12 -57 25 -32 20 -137 65 -168 71 -7 2 -18 8 -25 14 -16 12 -93 47 -129
58 -14 4 -38 17 -55 29 -16 11 -30 19 -30 18 0 -10 -165 43 -200 64 -11 7 -92
36 -180 64 -88 29 -169 57 -180 61 -32 14 -214 74 -280 93 -33 9 -89 25 -125
36 -100 29 -404 100 -428 100 -12 0 -31 5 -44 10 -13 6 -111 26 -218 45 -107
18 -208 36 -225 40 -91 18 -317 59 -385 70 -99 15 -377 52 -567 75 -95 12
-183 23 -195 25 -105 18 -421 43 -638 50 -102 4 -250 11 -330 15 -130 8 -1063
10 -1100 3z m880 -177 c307 -6 872 -43 1115 -72 72 -8 184 -22 250 -30 66 -7
156 -21 200 -29 44 -9 132 -22 195 -30 111 -13 188 -26 278 -46 23 -5 55 -9
70 -9 35 0 337 -60 467 -93 55 -14 126 -30 158 -37 32 -6 56 -14 54 -17 -6 -5
-182 26 -292 52 -33 7 -127 26 -210 40 -82 15 -172 33 -200 40 -27 7 -102 21
-165 30 -63 9 -153 23 -200 31 -173 28 -928 99 -1380 129 -129 9 -397 18 -595
22 -377 6 -562 -4 -780 -44 -49 -9 -101 -17 -115 -18 -14 -1 -36 -7 -50 -13
-24 -10 -23 -11 13 -11 31 -1 38 -4 35 -18 -2 -11 -17 -22 -38 -27 -22 -5 -46
-23 -65 -47 -39 -50 -72 -65 -177 -83 -48 -8 -109 -26 -136 -40 -69 -35 -201
-137 -284 -218 -70 -69 -90 -80 -67 -36 7 14 -5 6 -31 -21 -38 -37 -42 -46
-32 -62 10 -16 10 -21 -3 -25 -8 -3 -12 -10 -9 -15 3 -5 -2 -9 -10 -9 -20 0
-20 9 1 32 9 11 11 18 5 18 -7 0 -12 -5 -12 -11 0 -5 -5 -7 -10 -4 -6 3 -13
-2 -17 -12 -4 -10 -9 -20 -13 -23 -3 -3 -19 -23 -35 -45 -16 -22 -46 -63 -67
-91 -21 -28 -38 -56 -38 -62 0 -5 -4 -12 -9 -14 -5 -1 -11 -10 -13 -18 -2 -8
-11 -21 -20 -28 -10 -7 -18 -17 -18 -22 0 -5 -11 -21 -26 -35 -14 -14 -22 -30
-19 -36 4 -6 17 4 31 23 13 18 34 46 46 62 13 16 23 32 23 36 0 4 8 14 18 24
9 10 17 20 17 24 0 4 18 26 40 50 22 24 40 48 40 55 0 7 9 18 20 25 11 7 20
19 20 27 0 16 12 20 23 9 4 -4 -2 -14 -12 -23 -11 -9 -29 -36 -41 -59 -12 -23
-26 -42 -30 -42 -4 0 -13 -15 -20 -32 -7 -18 -23 -42 -34 -53 -21 -21 -31 -35
-73 -114 -13 -25 -32 -53 -43 -63 -11 -11 -20 -25 -20 -33 0 -8 -7 -15 -15
-15 -8 0 -15 -9 -15 -19 0 -11 -7 -26 -15 -34 -8 -8 -12 -17 -9 -20 3 -3 -11
-37 -30 -76 -20 -39 -36 -73 -35 -76 2 -12 -55 -125 -63 -125 -4 0 -8 -6 -8
-14 0 -24 -122 -301 -138 -314 -12 -9 -17 -34 -18 -105 -1 -64 -7 -101 -18
-122 l-17 -30 2 57 c2 32 0 61 -4 65 -4 3 -7 -7 -7 -23 0 -42 -14 -61 -33 -46
-12 10 -16 9 -21 -4 -10 -27 -7 -52 9 -58 26 -9 16 -76 -11 -76 -8 0 -20 11
-26 25 -6 14 -15 25 -19 25 -10 0 -2 78 13 130 19 70 117 292 131 298 4 2 7
12 7 23 0 10 5 19 10 19 6 0 10 11 10 25 0 48 70 179 86 162 5 -4 3 -12 -4
-16 -7 -4 -14 -17 -17 -29 -3 -19 -1 -21 16 -11 12 6 18 13 15 17 -4 3 3 15
14 27 13 14 18 28 14 39 -5 14 -9 15 -16 4 -12 -19 1 39 19 82 25 59 83 184
93 200 6 8 28 51 51 95 23 44 52 94 65 112 13 17 24 34 24 38 0 3 11 23 25 45
14 22 25 47 25 55 0 9 7 18 15 21 10 4 13 13 9 26 -8 25 23 60 47 53 10 -4 23
2 31 13 41 59 110 133 248 272 117 117 169 162 210 181 136 65 168 79 177 79
6 0 13 7 17 15 3 8 14 15 25 15 11 0 23 5 26 11 4 6 13 8 21 5 8 -3 14 -1 14
4 0 5 12 12 28 16 15 3 46 14 69 25 24 10 48 19 53 19 6 0 25 7 42 16 80 41
452 54 1168 40z m-3007 -197 c21 -10 42 -19 48 -19 5 0 20 -11 33 -25 13 -14
27 -25 32 -25 5 0 20 -16 33 -35 13 -19 27 -33 31 -30 10 6 20 -19 20 -50 0
-13 4 -27 10 -30 5 -3 17 -23 27 -43 9 -20 22 -40 27 -44 6 -4 11 -27 11 -50
0 -42 0 -43 33 -40 42 4 41 -11 -3 -37 -30 -17 -35 -26 -35 -58 0 -21 -7 -47
-15 -57 -8 -11 -15 -28 -15 -39 0 -10 -17 -51 -38 -90 -49 -91 -57 -120 -32
-112 11 3 20 0 23 -9 8 -20 -10 -31 -27 -17 -11 9 -21 0 -49 -41 -19 -29 -46
-77 -61 -105 -21 -42 -23 -53 -11 -53 18 0 20 -16 4 -26 -6 -3 -16 0 -21 7 -5
8 -11 10 -14 4 -2 -6 -29 -48 -59 -94 -30 -46 -55 -94 -55 -105 0 -20 1 -20
20 4 11 14 20 28 20 33 0 4 4 7 10 7 5 0 7 -7 4 -15 -10 -26 18 -17 53 17 18
18 33 35 33 39 0 4 14 23 30 41 20 22 30 27 30 17 0 -18 -56 -100 -77 -112 -8
-5 -27 -23 -41 -40 -15 -17 -35 -39 -44 -49 -21 -21 -25 -56 -5 -41 6 6 20 13
29 16 16 6 16 4 5 -16 -6 -12 -24 -38 -39 -58 -16 -20 -28 -43 -28 -51 0 -18
-28 -76 -41 -83 -5 -4 -9 -17 -9 -31 0 -14 -12 -35 -30 -51 -16 -14 -30 -31
-30 -38 0 -15 -70 -91 -97 -104 -37 -19 -29 -41 12 -34 33 5 35 4 35 -21 0
-16 5 -26 15 -26 21 0 19 -9 -6 -29 -18 -14 -19 -20 -9 -42 6 -13 21 -29 33
-34 30 -14 37 -65 8 -65 -13 0 -21 9 -26 30 -4 17 -13 30 -21 30 -34 0 -154
-25 -154 -32 0 -4 -7 -8 -15 -8 -8 0 -15 -4 -15 -9 0 -9 -55 -41 -71 -41 -14
0 2 32 37 79 36 47 40 56 25 65 -5 4 -21 -7 -34 -24 -23 -27 -47 -39 -47 -24
0 3 14 30 30 60 17 29 28 54 25 54 -10 0 -42 -34 -54 -58 -7 -13 -15 -21 -18
-18 -3 3 36 75 88 160 52 85 103 172 115 193 12 21 60 103 108 182 47 78 86
147 86 152 0 5 4 9 8 9 5 0 16 17 25 38 16 37 58 114 77 142 29 43 250 480
250 496 0 7 8 17 17 23 14 7 17 25 17 98 0 84 -2 93 -38 159 -21 38 -48 80
-60 93 -33 37 -133 111 -150 111 -27 0 -26 -18 2 -25 78 -19 160 -135 163
-228 2 -60 -33 -133 -68 -142 -16 -3 -39 -13 -51 -22 -24 -15 -24 -15 -4 -36
11 -12 25 -38 32 -59 14 -38 8 -65 -38 -168 -30 -68 -171 -267 -237 -335 -11
-11 -31 -35 -45 -53 -14 -18 -34 -43 -45 -56 -11 -13 -33 -40 -50 -61 -16 -21
-40 -48 -52 -60 -13 -12 -23 -27 -23 -34 0 -6 -4 -11 -8 -11 -5 0 -15 -12 -23
-27 -15 -29 -17 -32 -71 -99 -18 -23 -46 -60 -63 -83 -16 -23 -57 -76 -91
-119 -33 -42 -76 -99 -95 -127 -43 -63 -82 -115 -138 -185 -25 -30 -62 -82
-83 -115 -21 -33 -43 -67 -48 -75 -69 -100 -164 -250 -170 -267 -5 -11 -14
-24 -20 -28 -7 -4 -20 -26 -31 -49 -11 -22 -37 -66 -59 -96 -21 -30 -39 -58
-39 -62 -1 -4 -11 -23 -23 -42 -13 -19 -36 -57 -53 -85 -16 -28 -33 -51 -37
-51 -5 0 -8 -5 -8 -12 0 -6 -33 -61 -74 -122 -40 -61 -79 -122 -86 -136 -7
-14 -37 -62 -66 -107 -30 -46 -54 -85 -54 -88 0 -7 -63 -98 -76 -110 -6 -5
-28 -41 -49 -80 -20 -38 -42 -77 -50 -85 -7 -8 -23 -35 -35 -60 -20 -39 -56
-96 -70 -110 -3 -3 -31 -45 -63 -93 -32 -49 -61 -86 -64 -83 -8 8 64 168 121
266 27 47 56 99 64 115 36 72 130 228 197 330 112 169 185 304 185 341 0 9 8
28 18 42 10 15 22 34 25 42 4 8 25 44 46 80 22 36 63 105 91 154 29 49 56 94
62 100 11 12 46 73 108 187 38 72 177 284 301 462 30 43 59 85 64 95 32 53 64
99 79 111 9 8 24 29 33 48 15 32 133 164 213 238 18 17 49 48 68 70 20 22 79
81 131 130 203 193 265 259 291 310 8 17 21 35 27 40 13 10 17 32 15 76 -2 24
-7 27 -49 32 -26 3 -54 0 -64 -6 -24 -15 -49 7 -49 45 0 29 1 30 38 23 40 -6
92 7 92 25 0 5 -21 10 -46 10 -35 0 -54 6 -76 25 -37 31 -48 25 -48 -26 0 -24
-12 -67 -29 -102 -43 -94 -44 -101 -21 -130 17 -22 19 -32 12 -60 -20 -72
-132 -207 -297 -359 -135 -124 -187 -180 -246 -266 -29 -42 -56 -79 -59 -82
-3 -3 -35 -45 -70 -95 -35 -49 -79 -108 -97 -131 -18 -23 -33 -44 -33 -47 0
-4 -20 -33 -43 -64 -44 -57 -147 -211 -147 -218 0 -2 -31 -51 -70 -109 -67
-101 -97 -152 -156 -261 -14 -27 -30 -51 -35 -53 -5 -2 -9 -9 -9 -17 0 -7 -6
-18 -14 -24 -8 -7 -23 -29 -34 -49 -37 -72 -65 -118 -116 -197 -86 -132 -181
-308 -300 -555 -25 -53 -64 -126 -86 -162 -40 -67 -49 -98 -30 -98 6 0 14 8
17 18 4 9 14 28 24 42 9 14 43 70 75 125 31 55 59 95 61 89 4 -12 -61 -142
-156 -311 -28 -50 -51 -94 -51 -97 0 -8 -39 -97 -51 -116 -24 -38 -39 -82 -39
-114 0 -38 -52 -126 -75 -126 -15 0 -25 -31 -25 -77 0 -18 -6 -36 -13 -40 -15
-9 -55 -83 -143 -263 -40 -81 -54 -118 -47 -129 9 -15 -15 -101 -28 -101 -4 0
-10 12 -13 26 -9 34 -23 27 -52 -26 -33 -63 -114 -276 -114 -301 0 -44 -109
-199 -139 -199 -3 0 -12 -15 -20 -32 -8 -18 -25 -43 -38 -55 -13 -12 -23 -25
-23 -28 1 -27 -1 -35 -10 -30 -6 3 -7 -1 -4 -9 3 -9 1 -16 -5 -16 -6 0 -11 -7
-11 -15 0 -8 -6 -12 -14 -9 -10 4 -16 -2 -18 -18 -2 -13 -9 -22 -16 -21 -6 2
-12 -2 -12 -7 0 -6 4 -10 9 -10 4 0 7 -10 6 -22 -1 -13 -3 -33 -4 -46 0 -13
-5 -20 -11 -17 -6 4 -7 -1 -3 -11 4 -11 -1 -22 -13 -31 -10 -8 -19 -19 -19
-25 0 -16 -61 -51 -94 -54 -58 -5 -136 -25 -151 -39 -21 -19 -89 -20 -96 -1
-3 9 -19 14 -37 14 -45 0 -88 12 -119 33 -14 11 -33 19 -42 19 -9 0 -19 7 -22
15 -4 8 -10 15 -15 15 -16 0 -88 55 -89 68 0 6 -10 12 -21 12 -12 0 -31 9 -43
21 -25 25 -113 81 -174 110 -42 21 -71 53 -76 83 -1 8 -20 29 -42 45 -21 17
-43 34 -49 39 -5 4 -32 24 -58 44 -112 85 -486 466 -553 563 -11 17 -35 46
-53 65 -55 60 -94 161 -56 146 9 -3 15 0 15 10 0 11 -6 13 -20 9 -17 -6 -19
-3 -14 23 4 21 2 31 -10 35 -9 4 -18 25 -22 57 -5 38 -11 50 -24 50 -44 0
-122 332 -123 520 0 53 0 267 0 326 0 23 8 57 18 75 22 43 64 230 65 287 0 24
5 52 11 63 7 14 7 24 0 33 -14 16 -4 26 24 26 28 0 45 20 49 56 2 14 10 31 19
36 10 5 17 14 17 20 0 6 11 25 24 42 12 17 30 45 39 63 9 17 22 37 29 45 7 7
29 33 48 58 19 25 40 51 47 58 7 7 13 19 13 26 0 16 -63 31 -68 16 -2 -5 -7
-8 -10 -6 -4 2 -18 -11 -32 -30 -14 -18 -31 -34 -38 -34 -7 0 -16 -8 -19 -17
-4 -10 -9 -20 -13 -23 -3 -3 -19 -22 -34 -42 -16 -21 -32 -35 -37 -32 -12 7
12 48 61 104 14 16 34 40 44 54 10 14 27 26 36 26 10 0 24 10 33 23 24 36 134
147 146 147 6 0 11 5 11 11 0 18 297 322 400 409 36 30 67 57 70 60 41 43 263
200 283 200 7 0 23 9 37 20 14 11 30 20 35 20 6 1 26 14 45 30 19 17 42 30 52
30 10 0 18 6 18 13 0 6 20 22 45 34 38 20 45 21 53 8 6 -12 16 -7 50 25 25 23
57 42 77 46 19 3 35 10 35 15 0 5 10 9 23 9 12 0 30 9 40 20 9 11 23 20 31 20
7 0 19 7 26 15 7 8 16 13 20 10 5 -3 11 -1 14 4 3 5 17 12 31 15 15 4 45 20
67 36 23 17 49 30 60 30 10 0 21 7 25 16 4 11 13 14 29 10 13 -4 24 -2 24 4 0
11 81 50 104 50 9 0 16 4 16 9 0 12 57 41 80 41 9 0 21 5 28 12 6 6 18 13 25
14 7 1 33 11 57 23 24 11 51 21 61 21 9 0 19 7 23 15 3 8 12 12 21 9 9 -4 24
1 34 10 10 9 25 14 33 11 8 -3 21 1 28 10 7 8 23 15 36 15 12 0 26 5 29 10 3
6 14 10 24 10 10 0 24 7 31 15 7 8 23 15 36 15 12 0 26 5 29 10 3 6 17 10 30
10 13 0 26 4 30 9 3 6 14 8 24 6 11 -2 22 3 25 11 3 8 16 14 30 14 14 0 28 5
31 10 3 6 20 10 36 10 18 0 32 6 36 16 3 10 15 14 33 12 15 -1 34 5 43 13 9
10 26 15 40 12 14 -3 29 2 36 11 8 9 26 16 42 16 16 0 29 5 29 10 0 6 15 10
34 10 19 0 38 5 41 10 3 6 21 10 39 10 19 0 39 7 46 15 7 8 27 15 46 15 18 0
36 5 39 10 3 6 22 10 41 10 19 0 34 4 34 9 0 5 25 13 55 16 30 4 55 11 55 15
0 7 24 13 112 26 21 3 42 12 49 20 6 8 26 14 45 14 18 0 36 5 39 10 3 6 22 10
40 10 19 0 54 6 77 14 153 50 474 110 535 101 21 -4 70 -8 108 -9 39 -2 91 -8
118 -14 l47 -11 135 135 c74 75 135 140 135 143 0 4 -5 12 -11 18 -6 6 -14 26
-18 44 -8 40 -63 75 -131 83 -107 13 -200 16 -200 6 0 -14 -37 -13 -42 2 -3 8
-24 6 -79 -7 -41 -11 -77 -23 -80 -28 -6 -8 -71 -27 -219 -62 -30 -7 -80 -20
-110 -28 -30 -8 -127 -31 -215 -51 -88 -21 -169 -41 -180 -46 -11 -4 -51 -16
-90 -25 -149 -36 -559 -159 -620 -185 -11 -5 -31 -12 -45 -15 -42 -11 -224
-75 -242 -85 -10 -6 -26 -10 -36 -10 -10 0 -21 -3 -25 -6 -3 -4 -38 -17 -77
-30 -59 -20 -251 -97 -340 -136 -14 -6 -38 -17 -55 -24 -203 -89 -516 -241
-550 -268 -18 -13 -18 -15 -3 -16 19 0 151 69 156 82 2 4 12 8 22 8 10 0 22 5
25 10 3 6 13 10 21 10 9 0 40 11 70 25 30 14 57 25 60 25 7 0 70 27 96 41 23
12 48 12 48 -1 0 -5 -7 -10 -17 -10 -9 0 -31 -11 -49 -25 -18 -14 -39 -25 -48
-25 -8 0 -18 -4 -21 -10 -3 -5 -15 -10 -27 -10 -15 0 -18 -3 -10 -13 8 -9 -4
-27 -45 -70 -32 -33 -62 -56 -69 -53 -7 3 -20 -5 -29 -17 -8 -12 -18 -21 -20
-20 -14 7 -66 -12 -81 -28 -9 -11 -21 -19 -26 -19 -4 0 -38 -18 -74 -40 -36
-22 -69 -40 -73 -40 -4 0 -18 -12 -32 -27 -13 -16 -20 -25 -15 -21 5 4 14 3
21 -2 7 -6 24 -3 48 10 20 11 37 16 37 10 0 -5 -6 -10 -14 -10 -8 0 -27 -15
-43 -34 -15 -18 -59 -49 -98 -68 -122 -60 -298 -159 -355 -199 -30 -22 -88
-61 -129 -87 -41 -26 -127 -92 -193 -147 -66 -55 -136 -112 -156 -128 -64 -48
-105 -81 -148 -119 -23 -21 -49 -38 -58 -38 -10 0 -14 -4 -11 -10 3 -5 2 -10
-4 -10 -5 0 -22 -18 -38 -40 -15 -22 -31 -40 -35 -40 -11 0 -58 -46 -58 -56 0
-5 -8 -17 -17 -26 -32 -29 -52 -60 -47 -73 3 -7 -4 -16 -15 -20 -12 -3 -21
-12 -21 -20 0 -7 -6 -15 -14 -18 -8 -3 -17 -19 -21 -36 -4 -17 -11 -31 -16
-31 -5 0 -22 -24 -39 -52 -16 -29 -30 -48 -30 -43 0 6 -6 1 -12 -10 -7 -11
-11 -22 -9 -24 1 -2 -1 -7 -6 -10 -4 -3 -19 -27 -32 -53 -13 -27 -28 -48 -33
-48 -4 0 -8 -9 -8 -20 0 -12 -9 -30 -19 -42 -11 -11 -17 -26 -14 -33 2 -8 -5
-18 -16 -25 -12 -6 -21 -21 -21 -35 0 -13 -5 -25 -11 -27 -9 -3 -9 -10 0 -27
7 -12 9 -26 5 -29 -4 -4 -9 -1 -11 6 -10 27 -18 9 -20 -40 -2 -72 -11 -122
-23 -126 -13 -5 -13 -49 1 -57 15 -10 22 0 23 31 1 15 7 29 15 32 11 4 12 -1
7 -19 -4 -13 -9 -32 -11 -43 -2 -10 -9 -24 -15 -30 -11 -14 -27 -102 -40 -221
-8 -81 -17 -115 -31 -125 -5 -3 -9 -54 -10 -113 -2 -105 -13 -132 -24 -59 -4
20 -11 58 -17 85 -8 39 -7 52 6 72 21 32 19 205 -1 205 -9 0 -13 19 -13 60 0
52 2 60 19 60 22 0 32 38 36 143 2 65 -7 87 -20 47 -3 -11 -11 -20 -18 -20 -6
0 -3 -6 7 -13 27 -20 19 -81 -11 -85 -26 -4 -28 1 -13 29 8 15 7 19 -3 19 -8
0 -18 10 -22 23 -6 18 -9 13 -14 -27 -8 -62 -31 -75 -31 -17 0 22 4 42 9 45 5
3 12 22 15 41 4 20 12 35 19 34 27 -3 35 2 41 31 3 18 12 30 21 30 15 0 19 10
15 43 -2 25 17 80 56 161 19 38 34 73 34 79 0 13 71 161 80 167 4 3 11 16 15
30 4 14 26 51 47 83 22 33 41 65 42 72 1 7 9 20 19 29 9 10 17 22 17 27 0 6
11 25 25 43 14 18 25 38 25 44 0 7 4 12 10 12 5 0 15 11 22 24 16 30 85 113
117 141 13 11 53 49 90 85 37 36 102 96 144 134 42 38 77 76 77 84 0 17 -100
-61 -168 -131 -89 -91 -121 -119 -133 -115 -26 9 381 390 509 478 21 14 64 51
97 82 80 75 228 174 356 237 57 28 137 69 177 91 40 22 81 40 90 40 10 0 27 7
38 15 23 18 51 19 56 3 3 -8 11 -9 24 -3 18 8 18 9 -3 12 -23 4 -32 22 -13 24
6 1 14 2 20 3 5 0 15 7 22 14 15 15 44 16 53 2 3 -5 10 -10 16 -10 5 0 9 5 9
10 0 6 -7 10 -15 10 -9 0 -12 6 -9 15 4 8 14 15 24 15 10 0 20 5 22 11 5 15
70 22 79 8 4 -7 12 -8 20 -4 9 6 6 11 -10 17 -12 4 -19 12 -16 18 8 13 55 13
55 0 0 -5 7 -10 15 -10 8 0 15 4 15 9 0 5 -7 11 -15 15 -8 3 -15 10 -15 16 0
14 36 13 60 -2 25 -16 41 0 17 17 -12 9 -15 15 -7 20 6 4 20 -1 30 -10 19 -17
57 -14 46 3 -3 5 1 9 9 9 7 0 42 12 77 27 35 15 72 31 83 36 11 4 52 22 91 39
39 17 76 31 83 31 6 0 14 7 17 15 4 9 19 15 38 15 18 0 36 4 42 8 5 4 34 16
64 26 30 10 73 26 95 36 22 10 93 35 158 57 64 21 115 43 113 48 -2 6 15 10
39 10 23 0 53 5 66 12 13 7 69 26 124 43 55 18 108 36 117 41 10 5 29 9 42 9
14 0 28 5 31 10 3 6 19 10 34 10 15 0 31 4 36 9 15 13 493 134 820 208 39 8
80 19 91 23 12 5 43 12 70 16 27 4 54 13 59 20 6 7 71 25 145 39 74 14 149 30
165 35 49 15 214 2 258 -21z m4827 -82 c282 -40 639 -102 685 -118 17 -5 93
-22 170 -36 305 -55 439 -84 451 -96 4 -4 19 -7 33 -7 81 -2 182 -57 104 -58
-15 0 -30 3 -33 7 -3 4 -27 12 -55 18 -57 13 -109 26 -144 38 -20 6 -23 4 -18
-9 8 -20 -30 -22 -82 -4 -47 16 -48 17 -31 28 11 7 8 10 -13 10 -16 0 -26 -4
-22 -10 10 -16 -58 -12 -143 9 -73 18 -111 25 -297 51 -44 7 -84 16 -90 21 -5
5 -28 9 -50 9 -23 0 -91 7 -151 16 -60 9 -129 16 -154 15 -40 0 -113 8 -327
39 -36 5 -74 17 -90 30 -19 14 -50 23 -89 26 -32 3 -72 11 -88 17 -26 9 -27
12 -10 18 34 12 326 3 444 -14z m-2028 -12 c552 -6 863 -15 902 -26 17 -5 62
-9 100 -9 37 0 107 -6 155 -14 193 -32 242 -38 366 -47 72 -5 168 -14 215 -20
47 -6 122 -14 166 -17 55 -5 88 -13 100 -24 11 -9 31 -20 47 -23 15 -4 27 -11
27 -16 0 -5 10 -9 23 -9 12 0 40 -7 63 -15 23 -7 72 -19 110 -25 38 -6 89 -18
114 -26 41 -13 127 -28 315 -54 114 -16 367 -70 539 -115 53 -14 107 -25 120
-25 46 0 157 -41 190 -70 18 -17 41 -30 50 -30 9 0 16 -6 16 -14 0 -18 24 -28
85 -35 35 -4 50 -11 50 -21 1 -42 62 -59 72 -20 3 11 12 20 20 20 10 0 12 -6
7 -22 l-6 -21 37 22 c55 32 130 98 146 127 12 23 11 27 -5 40 -18 13 -40 44
-51 74 -4 8 -29 29 -58 45 -175 102 -185 113 -69 82 60 -17 98 -36 172 -87 52
-37 104 -81 115 -98 11 -17 28 -31 37 -32 29 0 45 -27 53 -92 5 -35 7 -71 6
-80 -1 -9 7 -22 18 -28 28 -14 29 -96 3 -131 -10 -13 -24 -38 -30 -54 -17 -40
-58 -92 -68 -83 -4 4 3 27 16 51 22 41 22 45 7 67 -10 15 -14 34 -11 54 10 56
25 94 38 99 19 7 9 98 -12 114 -13 11 -17 8 -27 -21 -20 -59 -87 -114 -129
-107 -4 1 -18 -4 -30 -12 -11 -8 -45 -20 -73 -27 -55 -14 -67 -32 -33 -50 11
-6 20 -17 20 -25 0 -22 28 -18 42 5 19 30 32 24 45 -19 21 -67 3 -160 -45
-231 -41 -61 -155 -180 -207 -216 -81 -56 -149 -104 -166 -118 -8 -7 -31 -21
-50 -32 -67 -38 -215 -148 -265 -198 -53 -53 -263 -200 -334 -234 -14 -6 -32
-16 -40 -22 -36 -23 -151 -90 -210 -122 -122 -66 -275 -150 -306 -169 -40 -25
-233 -125 -359 -188 -55 -28 -118 -60 -140 -72 -22 -11 -53 -28 -70 -36 -16
-9 -50 -26 -75 -39 -25 -12 -108 -54 -185 -92 -136 -67 -209 -106 -230 -122
-9 -7 -152 -56 -408 -138 -54 -18 -104 -32 -112 -32 -8 0 -29 -6 -47 -14 -83
-37 -383 -123 -509 -146 -25 -4 -113 -29 -195 -53 -173 -53 -330 -94 -429
-113 -253 -48 -447 -88 -488 -100 -70 -21 -194 -36 -350 -41 -113 -3 -148 -1
-190 13 -28 9 -66 18 -84 20 -86 7 -292 55 -318 74 -5 4 -28 13 -50 19 -22 7
-49 16 -60 21 -11 5 -37 14 -58 20 -69 21 -180 112 -275 225 -43 50 -122 160
-122 170 0 3 -15 33 -34 64 -18 32 -41 89 -51 127 -9 38 -24 92 -33 119 -13
39 -17 89 -17 232 0 160 2 184 18 200 16 16 17 16 18 -17 1 -19 0 -44 -1 -55
-1 -11 2 -16 6 -12 7 7 10 16 18 57 2 8 8 26 14 40 10 24 11 24 11 3 1 -32 19
-38 27 -9 3 13 14 26 25 29 10 3 19 13 19 22 0 11 -5 15 -15 12 -16 -7 -29 8
-20 23 8 13 54 -20 55 -40 1 -11 3 -12 7 -2 3 7 16 17 30 23 13 5 21 13 18 19
-3 5 -1 10 4 10 6 0 11 -4 11 -9 0 -5 16 -9 36 -9 20 0 41 -5 47 -11 6 -6 19
-11 28 -11 13 0 19 -10 21 -37 4 -45 5 -43 53 112 21 66 48 149 60 185 13 36
31 86 39 113 16 47 54 144 82 204 16 36 19 67 4 58 -6 -3 -7 1 -3 10 4 13 8
14 14 4 9 -15 72 119 65 138 -3 7 1 13 9 13 7 0 17 15 20 33 4 17 11 34 14 37
4 3 30 50 58 105 151 302 241 439 367 559 106 102 293 249 364 285 41 22 187
71 209 71 38 0 53 11 53 39 0 15 6 36 14 46 12 16 19 18 47 9 32 -9 105 0 149
19 19 8 63 14 72 10 3 -2 201 -5 440 -8z m5180 -969 c-3 -17 1 -18 45 -10 64
12 189 10 205 -3 7 -6 31 -16 53 -23 46 -15 95 -41 95 -52 0 -9 -60 0 -124 18
-57 16 -194 18 -216 4 -11 -7 -8 -10 16 -10 42 0 46 -7 23 -43 -22 -37 -24
-64 -8 -117 8 -26 8 -43 1 -56 -9 -16 -17 -11 -75 47 -35 36 -77 73 -94 81
-28 14 -32 14 -66 -11 -68 -51 -112 -97 -147 -151 -19 -30 -39 -60 -45 -66
-21 -23 -79 -143 -72 -151 5 -4 12 -1 17 7 7 12 10 11 16 -4 4 -10 2 -21 -4
-25 -7 -4 -14 -24 -16 -45 -6 -43 -21 -66 -43 -66 -10 0 -14 -7 -11 -17 5 -20
-28 -58 -37 -43 -4 6 -3 20 1 33 4 12 9 28 10 35 1 7 12 21 23 31 12 10 21 24
21 31 0 8 7 22 17 32 15 17 15 18 -5 18 -12 0 -22 -4 -22 -9 0 -5 -18 -41 -40
-80 -22 -39 -40 -78 -40 -87 0 -10 3 -15 6 -11 3 3 11 1 18 -5 14 -13 -11 -98
-38 -129 -9 -11 -16 -29 -16 -42 0 -12 -9 -29 -20 -37 -11 -8 -20 -20 -20 -27
0 -7 -4 -13 -10 -13 -5 0 -7 -7 -4 -15 5 -11 2 -13 -12 -8 -12 4 -15 3 -10 -5
4 -7 4 -18 -1 -24 -4 -7 -8 -22 -8 -33 0 -11 -6 -19 -12 -18 -18 4 -16 -15 2
-33 19 -19 20 -40 2 -28 -7 5 -6 2 3 -6 18 -17 18 -76 0 -109 -5 -11 -10 -31
-10 -45 0 -14 -4 -28 -10 -31 -5 -3 -10 -15 -10 -27 0 -11 -9 -31 -19 -45 -11
-13 -18 -30 -15 -37 3 -7 -7 -32 -20 -57 -14 -24 -26 -52 -26 -62 0 -10 -6
-20 -14 -23 -8 -3 -12 -12 -9 -20 3 -8 -1 -14 -9 -14 -8 0 -15 -6 -16 -12 -1
-7 -4 -29 -7 -48 -3 -19 -6 -47 -7 -62 -1 -15 -6 -24 -11 -21 -5 3 -6 -11 -2
-35 6 -39 -3 -67 -33 -100 -7 -7 -10 -17 -7 -21 2 -5 -4 -16 -15 -26 -11 -10
-20 -25 -20 -34 0 -14 -2 -14 -10 -1 -11 17 -12 13 -12 -42 -1 -15 -4 -26 -7
-23 -14 8 -56 -31 -57 -52 -1 -13 3 -20 7 -17 5 3 9 1 9 -5 0 -5 -4 -13 -10
-16 -5 -3 -10 -19 -10 -35 0 -17 -8 -34 -19 -42 -12 -8 -17 -23 -15 -40 2 -21
-1 -25 -13 -21 -13 5 -15 1 -11 -22 7 -34 -8 -51 -43 -50 -18 1 -25 -3 -22
-12 6 -16 20 -17 25 -1 3 7 7 6 11 -5 4 -11 1 -17 -8 -17 -20 0 -37 -34 -23
-48 8 -8 5 -9 -10 -5 -14 3 -24 -2 -32 -17 -8 -15 -8 -20 -1 -16 7 5 9 1 5 -8
-6 -15 -17 -20 -36 -17 -15 2 -8 -27 7 -33 8 -3 15 -11 15 -18 0 -10 -2 -10
-9 0 -7 12 -12 12 -29 1 -32 -20 -35 -39 -11 -60 23 -20 20 -49 -6 -49 -8 0
-15 -4 -15 -9 0 -6 -9 -9 -20 -8 -11 1 -20 5 -20 10 0 4 -4 6 -9 2 -5 -3 -12
-1 -16 5 -11 17 -22 11 -21 -11 1 -12 -5 -24 -13 -27 -9 -3 -11 0 -6 8 5 9 4
11 -3 6 -7 -4 -12 -20 -12 -37 0 -19 -5 -29 -15 -29 -12 0 -12 -5 -5 -26 8
-21 8 -25 -4 -21 -20 8 -27 -40 -8 -59 12 -13 13 -19 2 -40 -10 -17 -17 -21
-25 -14 -7 6 -21 7 -30 3 -14 -5 -17 -3 -12 10 3 9 2 19 -2 21 -7 5 -8 -17 -2
-46 0 -3 11 -4 24 -1 19 4 20 3 4 -7 -9 -6 -22 -8 -27 -5 -15 9 -30 -4 -23
-20 7 -21 40 -19 52 3 9 15 10 14 8 -5 -1 -13 -5 -23 -10 -23 -5 0 -7 -10 -4
-21 4 -16 3 -19 -5 -11 -8 8 -15 9 -25 1 -9 -9 -17 -8 -28 1 -9 8 -15 8 -15 2
0 -6 8 -13 18 -16 10 -3 18 -15 19 -27 2 -20 2 -20 -18 2 -10 12 -19 16 -19 9
0 -7 -8 -10 -19 -7 -11 3 -22 -1 -25 -9 -3 -7 -12 -11 -21 -8 -8 3 -12 10 -9
15 3 5 -2 6 -10 3 -9 -3 -16 -10 -16 -16 0 -5 5 -6 12 -2 8 5 9 2 5 -10 -4
-10 -7 -23 -7 -29 0 -7 -4 -6 -10 3 -8 13 -11 13 -22 1 -7 -8 -8 -11 -2 -8 11
7 39 -41 29 -51 -3 -3 -5 0 -5 7 0 7 -7 11 -14 8 -10 -4 -13 -1 -9 9 3 7 1 14
-5 14 -13 0 -20 -20 -14 -43 3 -10 11 -16 18 -13 8 3 14 -1 14 -10 0 -10 -7
-13 -22 -9 -18 4 -27 -1 -40 -25 -9 -16 -24 -30 -32 -30 -10 0 -13 -6 -9 -17
6 -16 5 -16 -10 -4 -10 8 -20 11 -24 7 -3 -3 -1 -6 5 -6 7 0 12 -7 12 -15 0
-8 -5 -15 -11 -15 -5 0 -7 4 -4 10 3 6 -1 7 -10 4 -9 -4 -14 -12 -12 -18 3 -6
-2 -17 -9 -24 -9 -8 -14 -9 -14 -2 0 6 -4 8 -10 5 -5 -3 -10 -1 -10 4 0 6 -5
11 -11 11 -5 0 -8 -4 -5 -8 3 -5 7 -20 10 -35 5 -30 -23 -53 -50 -43 -8 3 -12
2 -9 -4 3 -5 -1 -15 -8 -22 -8 -7 -12 -20 -10 -29 3 -10 -4 -25 -16 -35 -11
-10 -17 -22 -14 -27 4 -6 -3 -8 -16 -4 -27 7 -39 -16 -21 -38 7 -9 10 -18 6
-22 -3 -3 -6 -1 -6 5 0 7 -6 12 -13 12 -8 0 -13 -14 -14 -37 -1 -21 -6 -39
-12 -41 -6 -2 -9 -8 -6 -13 4 -5 -2 -6 -11 -2 -10 4 -15 2 -12 -3 4 -5 1 -19
-5 -31 -12 -21 -15 -23 -37 -23 -5 0 -7 -6 -4 -14 4 -10 -2 -13 -21 -10 -18 2
-25 -2 -22 -11 3 -7 -6 -18 -19 -24 -30 -13 -44 -14 -24 -1 13 8 13 10 -1 10
-9 0 -19 -7 -23 -15 -3 -8 0 -14 6 -12 6 1 13 -4 15 -10 3 -7 0 -13 -7 -13 -6
0 -8 -4 -5 -10 3 -5 2 -10 -4 -10 -5 0 -12 4 -16 10 -9 15 -34 0 -30 -19 2
-10 -1 -24 -6 -32 -7 -11 -9 -10 -9 6 0 17 -2 18 -11 5 -9 -13 -10 -12 -5 2 3
10 1 20 -5 23 -5 4 -7 10 -5 14 3 4 -1 8 -9 8 -21 0 -18 -24 5 -49 11 -12 20
-25 20 -30 0 -14 -15 -9 -33 12 -24 28 -37 25 -37 -10 0 -16 4 -30 8 -30 10 0
3 -58 -7 -64 -20 -11 -62 -16 -56 -6 3 5 1 10 -5 10 -7 0 -9 -8 -5 -22 6 -17
4 -20 -10 -14 -12 4 -16 2 -12 -8 3 -8 -3 -24 -14 -37 -13 -15 -19 -17 -19 -8
-1 8 -7 -1 -15 -19 -8 -18 -12 -40 -8 -50 4 -13 2 -13 -10 3 -12 14 -16 16
-17 6 0 -8 -8 -23 -17 -33 -13 -14 -14 -21 -5 -30 17 -17 15 -28 -4 -28 -14 0
-14 -3 -4 -15 7 -9 8 -15 2 -15 -5 0 -8 -8 -5 -19 3 -11 -2 -21 -11 -24 -9 -4
-16 -2 -16 3 0 6 -4 10 -10 10 -6 0 -6 -9 0 -25 5 -14 6 -25 1 -25 -5 0 -11 7
-15 15 -9 26 -35 18 -31 -10 1 -14 -3 -25 -9 -25 -7 0 -20 -14 -30 -32 -20
-33 -69 -88 -79 -88 -3 0 0 12 8 27 18 35 10 44 -13 12 -20 -29 -52 -87 -52
-95 0 -3 6 -4 14 -1 21 8 16 -24 -6 -47 -16 -17 -18 -18 -18 -3 0 31 -25 17
-45 -24 -32 -67 -39 -79 -47 -79 -5 0 -8 -7 -8 -15 0 -9 -7 -18 -15 -21 -8 -4
-15 -11 -15 -18 0 -6 -14 -27 -30 -46 -17 -19 -33 -45 -36 -57 -4 -13 -10 -23
-15 -23 -5 0 -9 -6 -9 -14 0 -8 -4 -16 -8 -18 -5 -1 -24 -30 -42 -63 -81 -147
-99 -197 -77 -223 9 -12 9 -16 -1 -19 -6 -3 -10 -10 -6 -16 3 -7 -3 -2 -14 11
-26 29 -42 28 -42 -2 0 -13 -3 -31 -6 -40 -4 -10 -1 -16 9 -16 16 0 32 -39 41
-105 6 -37 3 -44 -39 -90 -45 -51 -53 -69 -35 -80 15 -9 12 -25 -4 -25 -21 0
-71 54 -71 76 0 10 5 19 12 19 7 0 18 6 25 13 6 6 24 12 39 12 38 0 42 12 22
54 -20 39 -39 42 -36 5 l3 -24 -18 21 c-9 12 -26 24 -36 28 -18 6 -18 14 -12
107 3 57 13 113 21 129 8 16 15 36 15 45 0 9 17 42 38 73 21 31 43 68 49 82 5
14 27 46 47 73 20 26 36 50 36 53 0 3 22 34 49 68 26 33 63 89 82 122 19 34
45 74 58 91 32 40 112 173 159 263 51 101 65 124 78 132 7 4 22 27 34 50 12
24 27 48 34 53 7 6 26 35 41 65 15 30 33 62 40 70 7 8 34 53 59 100 25 47 57
106 71 133 14 26 29 47 34 47 5 0 23 30 41 68 17 37 35 69 38 72 7 5 23 29
146 218 58 90 69 102 89 97 15 -4 29 0 39 12 22 24 40 73 28 73 -6 0 -10 8 -9
18 0 10 3 12 6 5 7 -20 19 -15 20 8 1 12 13 38 26 58 14 20 35 58 48 84 13 27
34 60 46 73 13 14 23 32 23 39 0 8 9 20 20 27 11 7 20 19 20 26 0 7 20 46 45
86 25 41 45 78 45 82 0 4 11 21 23 38 26 34 107 165 107 173 0 3 13 23 28 46
55 82 120 182 136 212 9 17 25 44 35 60 257 422 322 530 347 575 16 30 44 77
62 103 18 27 35 60 38 73 3 13 9 24 13 24 4 0 24 35 46 78 21 42 49 94 62 114
21 35 69 121 108 198 10 19 23 44 29 55 6 11 29 56 51 100 23 44 70 125 106
180 36 55 74 114 84 131 43 69 105 152 153 204 48 53 49 55 26 58 -27 4 -28 6
-14 33 17 32 100 65 100 40 0 -4 -11 -20 -25 -35 -13 -14 -22 -26 -19 -26 13
0 64 42 60 49 -3 4 18 18 45 31 29 13 48 28 45 35 -6 17 15 36 34 32 8 -1 14
-11 12 -21z m330 -415 c25 -11 48 -23 51 -28 3 -5 -57 -9 -133 -8 -91 0 -143
-4 -150 -11 -9 -9 5 -11 55 -7 60 5 68 4 81 -16 8 -11 22 -21 30 -21 8 0 14
-4 14 -8 0 -4 10 -8 21 -9 12 -1 29 -9 38 -18 10 -8 46 -29 82 -46 82 -40 156
-92 236 -164 47 -43 53 -47 103 -82 25 -17 64 -46 86 -65 22 -18 56 -44 74
-58 61 -46 124 -98 180 -149 30 -28 58 -51 62 -51 11 0 166 -159 160 -165 -3
-3 0 -5 6 -5 30 0 13 22 -121 158 -199 201 -301 292 -394 356 -24 16 -43 32
-43 36 0 4 -8 10 -17 14 -23 7 -70 35 -111 66 -19 14 -39 25 -45 25 -7 1 -11
6 -10 12 2 7 -13 17 -32 24 -19 7 -32 16 -29 21 3 4 -2 11 -10 14 -9 3 -16 12
-16 20 0 8 -10 14 -25 14 -27 0 -34 17 -11 26 8 3 25 -5 38 -18 20 -20 23 -20
26 -6 2 11 9 15 20 11 18 -7 189 -125 231 -159 13 -10 38 -31 55 -45 17 -14
54 -41 81 -60 42 -29 183 -138 274 -214 37 -30 173 -165 201 -200 117 -143
225 -289 237 -321 4 -10 21 -42 39 -70 57 -90 125 -227 150 -303 13 -41 28
-79 33 -85 4 -6 14 -33 21 -61 7 -27 16 -54 19 -60 4 -5 8 -23 10 -40 2 -16 7
-34 11 -40 12 -16 49 -145 57 -204 11 -73 33 -80 33 -10 0 28 -4 68 -10 88 -5
20 -16 86 -26 146 -18 125 -38 203 -65 257 -26 52 -24 66 13 76 17 4 34 14 36
22 3 9 -1 11 -14 6 -76 -29 -103 -13 -113 69 -5 33 -13 73 -20 88 -6 16 -11
37 -11 48 0 11 -11 32 -25 47 -27 29 -31 47 -15 57 10 6 58 -30 130 -101 20
-19 41 -34 48 -34 25 0 6 62 -27 86 -14 11 -14 15 -1 38 13 24 11 31 -13 80
-15 29 -27 57 -27 63 0 5 -9 18 -20 28 -11 10 -20 24 -20 31 0 7 -14 21 -30
31 -31 18 -84 96 -85 123 0 17 -1 18 -77 109 -29 35 -64 78 -77 95 -29 36
-199 204 -331 326 -111 102 -109 100 -204 174 -42 33 -76 60 -76 62 0 1 9 0
20 -3 11 -3 20 -8 20 -12 0 -4 15 -15 33 -26 146 -85 503 -395 639 -555 25
-30 64 -75 87 -100 55 -61 52 -59 105 -127 25 -34 46 -64 46 -68 0 -4 15 -25
33 -48 46 -60 81 -123 124 -227 14 -33 26 -58 50 -105 34 -67 53 -112 53 -124
0 -8 8 -23 17 -33 11 -12 17 -38 18 -76 1 -31 10 -109 19 -172 20 -143 20
-176 1 -231 -16 -44 -89 -129 -111 -129 -8 0 -14 -35 -17 -107 -8 -136 -21
-229 -37 -248 -7 -8 -26 -14 -43 -12 -28 2 -33 -2 -45 -38 -12 -36 -11 -41 3
-50 50 -30 50 -30 36 -73 -13 -39 -16 -41 -60 -44 -43 -3 -46 -5 -52 -37 -4
-18 -11 -36 -16 -40 -10 -6 -57 -103 -66 -136 -3 -11 -10 -38 -16 -60 -7 -27
-20 -46 -38 -57 -19 -11 -32 -31 -42 -62 -7 -25 -18 -47 -24 -49 -6 -2 -8 -10
-4 -19 8 -22 44 -12 53 14 4 15 13 18 37 16 37 -4 49 -32 21 -52 -11 -9 -13
-15 -6 -20 28 -17 -40 -72 -69 -56 -17 10 -99 -36 -99 -55 0 -19 -27 -37 -55
-37 -14 0 -25 -5 -25 -9 0 -5 -16 -24 -35 -43 -19 -18 -31 -36 -28 -40 3 -3
-2 -15 -12 -26 -10 -11 -15 -20 -11 -20 4 0 2 -9 -4 -20 -6 -11 -18 -20 -26
-20 -16 0 -74 -39 -110 -74 -47 -47 -178 -162 -201 -177 -34 -23 -63 -56 -63
-72 0 -17 -29 -37 -80 -57 -27 -10 -132 -90 -170 -130 -3 -3 -32 -23 -65 -45
-33 -22 -62 -42 -65 -45 -29 -30 -226 -145 -391 -230 -277 -141 -351 -180
-369 -195 -17 -14 -153 -85 -163 -85 -3 0 -32 -12 -64 -26 -104 -48 -196 -85
-305 -125 -60 -21 -116 -42 -125 -47 -10 -5 -47 -20 -83 -32 -35 -13 -96 -38
-136 -56 -39 -19 -75 -34 -80 -34 -4 0 -15 -6 -23 -13 -16 -14 -121 -44 -246
-73 -38 -8 -77 -19 -86 -24 -17 -9 -114 -34 -189 -49 -25 -5 -90 -18 -145 -29
-55 -11 -149 -28 -210 -37 -60 -8 -155 -24 -210 -35 -55 -10 -149 -26 -210
-35 -60 -9 -130 -22 -155 -27 -81 -20 -208 -18 -278 4 l-64 19 -24 -28 c-23
-27 -24 -27 -38 -8 -14 19 -15 19 -28 2 -12 -15 -18 -16 -43 -7 -49 19 -56 50
-11 50 19 0 23 5 23 32 0 24 8 39 38 64 22 18 50 35 65 37 14 3 37 18 52 34
36 38 235 288 265 333 9 14 22 30 28 35 20 17 215 284 215 294 0 5 3 11 8 13
8 3 46 48 77 92 58 80 129 171 137 174 13 6 9 32 -5 32 -7 0 -23 -11 -35 -25
-12 -14 -26 -25 -31 -25 -10 0 -2 48 10 56 15 9 10 34 -6 34 -8 0 -15 -5 -15
-11 0 -13 -91 -124 -123 -149 -12 -10 -146 -141 -298 -292 -325 -322 -360
-371 -284 -402 23 -10 35 -22 35 -35 0 -25 -16 -36 -53 -40 -7 0 -19 -17 -27
-36 -10 -26 -20 -35 -37 -35 -13 0 -26 -1 -30 -2 -16 -6 -14 34 2 52 13 15 14
23 5 39 -6 12 -17 21 -25 21 -8 0 -15 7 -15 16 0 8 4 13 9 10 5 -3 23 24 40
60 34 71 119 163 301 324 107 96 151 139 189 190 14 19 33 40 41 46 32 25 248
241 272 274 15 19 46 55 69 80 23 25 46 58 51 73 8 21 16 27 32 25 16 -2 21
-9 19 -32 -1 -16 -8 -33 -14 -37 -9 -5 -9 -14 1 -38 15 -37 26 -39 34 -8 3 13
30 60 61 106 30 45 55 85 55 87 0 3 13 24 28 47 15 23 33 53 40 67 7 14 32 57
57 95 49 77 52 85 30 85 -9 0 -15 -9 -15 -25 0 -14 -5 -25 -10 -25 -6 0 -20
-11 -32 -25 -42 -48 -68 -18 -28 32 11 14 20 32 20 40 0 8 13 28 30 46 16 18
30 38 30 45 0 27 25 5 30 -27 7 -43 17 -40 44 11 51 95 63 115 85 147 17 24
20 36 12 44 -8 8 -16 6 -31 -8 -11 -10 -22 -16 -25 -13 -12 11 15 57 37 64 32
10 91 71 122 127 27 48 27 67 0 67 -18 0 -18 24 0 39 8 7 18 27 22 44 8 41 61
94 77 78 6 -6 14 -11 18 -11 7 0 109 154 109 165 0 4 16 31 36 61 19 29 33 58
30 63 -4 5 5 22 20 38 23 25 42 74 33 89 -2 3 8 12 24 20 32 17 35 30 7 39
-11 3 -20 11 -20 17 0 19 50 77 79 93 21 10 44 45 85 125 59 116 66 140 41
140 -33 0 -6 55 30 62 11 3 18 10 16 19 -2 8 -3 19 -2 24 1 6 4 31 7 57 4 33
11 49 23 53 18 5 71 102 71 129 0 8 6 21 13 28 7 7 21 25 31 39 9 15 30 29 47
33 16 3 32 12 34 21 9 27 15 39 37 75 36 60 68 127 68 144 0 9 3 16 8 16 7 0
52 90 52 105 0 4 6 21 14 38 48 109 77 173 150 330 20 43 36 83 37 90 0 7 13
35 29 62 16 28 36 66 45 85 10 19 26 53 37 75 32 68 103 194 116 207 7 7 12
19 12 29 0 9 14 30 30 47 17 18 30 36 30 42 0 5 5 10 10 10 6 0 10 7 10 16 0
22 38 68 63 76 37 12 162 0 209 -21z m-442 -218 c0 -25 -21 -97 -29 -103 -4
-3 -18 -27 -30 -55 -42 -92 -55 -115 -67 -115 -18 0 -24 72 -8 91 20 23 17 37
-8 41 -18 2 -23 9 -23 35 0 20 -7 37 -19 46 -17 12 -17 14 -2 30 14 13 20 14
31 4 7 -6 11 -15 8 -19 -2 -5 3 -8 12 -8 9 0 15 -6 12 -12 -2 -7 -10 -12 -17
-10 -10 2 -9 -3 2 -19 16 -25 38 -36 38 -20 0 13 60 113 74 123 18 12 26 9 26
-9z m-311 -605 c-22 -126 -84 -328 -101 -328 -5 0 -8 -7 -8 -15 0 -31 -60
-141 -94 -174 -30 -29 -36 -32 -42 -18 -3 10 1 32 9 50 8 17 18 43 22 56 4 14
16 38 26 55 11 17 19 40 19 51 0 25 36 125 50 139 5 5 10 19 10 29 0 10 6 31
14 45 8 15 20 48 26 74 7 25 21 61 32 79 18 30 21 31 33 16 8 -11 9 -30 4 -59z
m-7974 -338 c35 -18 35 -19 16 -30 -12 -6 -21 -17 -21 -24 0 -7 -11 -23 -25
-36 -14 -13 -25 -30 -25 -37 0 -7 -12 -19 -26 -25 -24 -11 -29 -9 -55 20 -40
45 -37 92 9 145 19 21 70 16 127 -13z m-391 -20 c29 0 61 -6 72 -14 18 -14 18
-15 -8 -25 -22 -8 -28 -17 -28 -41 0 -32 -9 -37 -28 -18 -9 9 -15 9 -24 0 -7
-7 -23 -12 -36 -12 -15 0 -26 -7 -29 -20 -3 -11 -9 -20 -14 -20 -5 0 -9 -7 -9
-15 0 -17 -16 -20 -25 -5 -11 18 -35 10 -45 -15 -11 -28 -35 -33 -44 -9 -10
25 -8 28 42 86 26 31 58 70 72 87 14 17 31 29 38 26 8 -3 37 -5 66 -5z m1167
-512 c52 -51 111 -119 132 -150 21 -32 45 -58 53 -58 20 0 18 -17 -3 -29 -16
-8 -32 -8 -78 -2 -17 2 -110 94 -125 124 -7 15 -19 27 -27 27 -9 0 -11 8 -7
25 6 23 3 25 -26 25 -28 0 -31 2 -20 15 7 9 9 22 4 32 -4 10 -8 20 -8 23 -4
19 -19 26 -46 22 -16 -2 -30 -2 -30 2 0 8 53 35 71 36 9 0 59 -42 110 -92z
m-851 -58 c0 -5 -7 -13 -16 -18 -15 -8 -15 -12 -1 -33 15 -24 25 -79 32 -173
15 -198 15 -200 -3 -236 -10 -22 -26 -36 -40 -38 -21 -3 -32 -22 -12 -22 16 0
12 -20 -5 -26 -8 -4 -27 1 -41 11 -21 13 -23 19 -13 31 6 8 10 15 8 17 -2 1
-13 7 -24 13 -23 13 -28 59 -8 76 8 6 11 19 7 31 -3 11 -2 22 4 26 16 9 18
236 3 255 -9 10 -9 16 -1 21 6 4 15 16 19 28 10 26 91 60 91 37z m4224 -45
c59 -8 115 -19 124 -24 10 -5 36 -12 59 -16 110 -18 284 -102 420 -204 97 -71
226 -202 292 -296 70 -99 164 -261 186 -320 10 -27 22 -55 27 -61 5 -7 15 -38
24 -70 8 -32 26 -79 40 -104 14 -25 27 -62 29 -83 2 -21 8 -43 13 -50 5 -7 10
-39 10 -72 1 -33 3 -89 6 -125 8 -104 7 -271 -1 -283 -4 -7 -13 -30 -19 -52
-6 -22 -19 -60 -28 -85 -9 -25 -21 -64 -26 -87 -6 -23 -22 -56 -36 -72 -14
-17 -26 -41 -28 -53 -1 -13 -8 -36 -14 -51 -7 -16 -12 -40 -12 -55 0 -15 -9
-44 -20 -64 -10 -20 -27 -68 -36 -107 -10 -39 -21 -71 -26 -71 -4 0 -8 -6 -8
-12 0 -7 -11 -35 -25 -63 -13 -27 -25 -62 -25 -77 0 -16 -4 -28 -8 -28 -9 0
-42 -71 -62 -135 -7 -22 -16 -42 -19 -45 -13 -11 -59 -88 -87 -147 -16 -34
-37 -65 -46 -68 -19 -7 -20 -45 -1 -45 7 0 13 -5 13 -11 0 -5 -5 -7 -11 -4
-15 10 -99 12 -99 2 0 -4 -3 -6 -7 -6 -18 3 -33 -2 -33 -10 0 -4 11 -6 25 -3
15 2 25 0 25 -8 0 -8 15 -10 50 -6 39 4 52 2 56 -9 9 -24 -47 -125 -87 -157
-21 -17 -40 -37 -44 -46 -7 -18 47 -67 84 -77 12 -3 63 -25 112 -48 49 -24 89
-42 89 -40 0 1 -5 14 -12 27 -9 22 -8 29 7 46 24 27 34 25 48 -10 7 -16 31
-43 52 -60 22 -16 60 -46 85 -65 49 -37 73 -46 47 -17 -10 10 -17 25 -17 32 0
8 -12 24 -27 36 -17 14 -24 26 -20 37 10 26 35 20 51 -11 8 -15 33 -47 55 -70
23 -23 41 -51 41 -62 0 -78 341 -94 655 -31 88 18 169 36 180 41 11 5 58 16
105 25 47 9 99 20 116 26 17 5 43 9 59 9 17 0 37 10 51 26 13 14 28 22 34 19
15 -9 178 14 245 35 33 10 89 27 125 38 36 12 102 30 147 41 45 12 95 26 110
33 29 12 72 26 158 52 28 8 81 26 120 40 38 14 77 26 85 26 9 0 21 5 28 12 6
6 18 13 26 14 27 4 91 27 96 34 3 5 47 22 98 40 52 17 101 35 110 39 10 5 53
23 97 41 44 18 107 45 140 60 121 57 151 70 159 70 8 0 104 43 146 65 14 7 75
38 135 69 61 30 155 80 210 111 54 30 103 55 108 55 5 0 35 16 67 35 32 19 62
35 67 35 5 0 20 11 33 25 13 14 27 25 31 25 12 0 145 87 217 142 35 26 70 48
78 48 8 0 17 7 20 15 5 12 35 34 97 72 11 6 22 15 26 20 3 4 23 19 43 33 21
14 38 31 38 38 0 7 -4 11 -9 7 -5 -3 -13 0 -16 5 -4 6 9 27 28 45 20 19 39 44
42 56 4 11 34 48 66 81 33 33 67 74 76 91 19 37 45 65 98 103 48 35 200 186
273 272 29 34 60 62 68 62 13 0 36 22 134 131 54 60 58 64 79 104 11 20 17 44
14 51 -3 8 3 24 12 34 10 11 15 20 10 20 -4 0 0 11 9 25 9 13 16 31 16 38 0 8
7 20 15 27 8 7 15 25 15 41 0 16 5 30 10 30 6 1 13 2 18 3 4 1 19 12 34 25 20
18 27 31 23 49 -4 22 16 61 52 99 6 7 13 18 16 25 2 7 8 10 12 6 4 -4 2 -29
-5 -55 -7 -26 -14 -64 -17 -83 -4 -38 -32 -139 -42 -155 -3 -5 -6 -12 -7 -15
-14 -72 -73 -170 -103 -170 -5 0 -7 -9 -4 -20 3 -12 0 -20 -6 -20 -7 0 -10 -4
-7 -8 6 -10 -4 -24 -29 -38 -12 -7 -20 -22 -20 -39 -1 -16 -6 -30 -13 -33 -7
-2 -9 -8 -6 -13 3 -6 -1 -18 -9 -27 -9 -9 -16 -21 -16 -27 0 -5 -10 -11 -21
-11 -11 -1 -22 -3 -24 -5 -37 -49 -56 -78 -56 -88 0 -8 5 -7 16 3 8 9 17 16
20 16 9 0 -25 -56 -45 -74 -11 -10 -18 -23 -14 -29 3 -6 1 -7 -5 -3 -7 4 -12
2 -12 -5 0 -7 -3 -9 -6 -6 -4 4 -1 13 6 22 14 16 10 18 -14 9 -9 -3 -16 -12
-16 -20 0 -8 -4 -14 -8 -14 -5 0 -18 -18 -31 -40 -12 -22 -29 -40 -37 -40 -12
0 -18 -12 -15 -32 0 -4 -8 -10 -19 -13 -11 -4 -20 -15 -20 -26 0 -10 -7 -19
-15 -19 -8 0 -20 -10 -26 -22 -7 -13 -36 -47 -66 -75 -29 -29 -53 -60 -53 -69
0 -8 -5 -12 -10 -9 -15 9 -41 -14 -33 -29 3 -6 3 -8 -2 -4 -10 9 -74 -28 -97
-56 -9 -12 -22 -22 -27 -22 -6 -1 -14 -2 -19 -3 -4 0 -18 -11 -32 -24 -14 -12
-45 -38 -70 -57 -73 -55 -171 -143 -166 -147 5 -6 42 15 87 50 20 15 42 27 48
27 6 0 11 3 11 8 0 4 25 27 56 52 31 25 68 56 83 70 35 33 71 53 71 40 0 -5
-3 -10 -7 -10 -5 0 -36 -26 -69 -58 -34 -31 -74 -67 -90 -79 -15 -12 -68 -60
-117 -105 -49 -46 -119 -104 -156 -130 -165 -118 -462 -313 -516 -338 -16 -8
-49 -27 -72 -42 -23 -15 -46 -28 -51 -28 -5 0 -20 -9 -34 -19 -41 -33 -180
-101 -204 -101 -31 0 -178 -54 -246 -91 -10 -5 -23 -9 -28 -9 -6 0 -37 -12
-68 -26 -62 -28 -77 -34 -137 -59 -22 -9 -55 -23 -73 -31 -18 -8 -41 -14 -50
-14 -10 0 -26 -6 -37 -13 -35 -23 -102 -40 -137 -34 -40 7 -90 -3 -183 -36
-80 -29 -383 -126 -465 -150 -30 -8 -86 -24 -125 -35 -38 -11 -92 -24 -120
-28 -27 -3 -54 -10 -60 -14 -12 -10 -372 -98 -545 -134 -69 -15 -141 -31 -160
-36 -172 -45 -479 -80 -699 -80 -86 0 -217 -7 -291 -15 -74 -8 -157 -17 -185
-20 -123 -13 -152 -17 -185 -26 -59 -15 -348 -38 -465 -37 -60 0 -186 -7 -280
-16 -93 -9 -197 -19 -230 -22 -33 -3 -123 -11 -200 -19 -389 -41 -499 -47
-880 -48 -416 -2 -813 7 -985 23 -58 5 -168 15 -245 21 -77 6 -144 15 -150 20
-7 7 16 8 65 5 41 -3 116 -8 165 -11 50 -3 117 -8 150 -10 295 -21 1212 -25
1445 -6 241 20 267 24 292 48 13 13 39 25 58 27 19 3 43 8 53 11 23 9 77 60
77 73 0 6 14 15 30 21 17 5 30 14 30 19 0 19 -14 21 -39 4 -35 -24 -113 -58
-125 -54 -5 2 -28 -3 -50 -12 -96 -34 -214 -53 -416 -63 -181 -10 -319 -8
-412 7 -52 7 -124 8 -252 0 -118 -6 -199 -7 -235 0 -31 5 -180 14 -331 19
-151 6 -313 17 -360 25 -47 8 -139 22 -205 31 -65 9 -135 23 -155 30 -19 7
-62 16 -95 20 -33 3 -89 12 -125 20 -73 17 -218 41 -330 55 -41 6 -91 14 -110
19 -37 10 -98 22 -250 46 -86 14 -234 45 -439 91 -60 14 -75 14 -81 4 -13 -22
-116 5 -136 35 -12 19 -27 24 -90 30 -64 6 -77 10 -91 31 -8 13 -23 24 -32 24
-22 1 -51 24 -51 41 0 19 -41 35 -125 49 -38 6 -96 20 -129 32 -32 11 -69 18
-82 15 -17 -3 -29 2 -38 15 -8 11 -33 24 -57 29 -23 6 -61 24 -83 42 -23 17
-47 36 -55 42 -8 5 -29 25 -47 43 -30 30 -37 32 -82 28 l-49 -4 23 23 c28 28
30 51 9 75 -14 15 -13 18 2 32 16 14 51 23 76 19 4 -1 -2 -10 -13 -21 -22 -22
-26 -40 -9 -40 17 0 79 51 79 65 0 7 11 29 25 49 29 43 30 46 10 46 -36 0 2
27 67 48 77 24 186 98 234 157 15 19 46 47 68 62 23 15 43 30 46 33 3 4 23 17
45 30 22 13 78 49 123 80 46 30 92 60 101 65 10 6 25 18 35 28 10 9 24 17 32
17 8 0 12 5 8 11 -3 6 -15 9 -25 6 -10 -3 -18 -2 -17 2 3 24 -5 32 -29 30 -71
-5 -81 12 -37 65 33 39 69 61 114 69 19 4 42 17 50 28 19 24 101 44 255 63
120 14 143 21 165 46 8 9 35 24 60 34 25 10 61 27 81 37 20 11 45 19 55 19 11
0 28 7 38 15 11 8 29 15 41 15 12 0 25 4 30 9 9 9 60 38 150 83 22 11 47 24
55 29 74 43 259 129 278 129 32 0 117 26 177 55 28 13 73 31 100 41 28 9 86
35 129 56 44 21 85 38 92 38 6 0 17 6 23 14 7 8 23 17 37 20 14 4 42 18 62 31
20 13 60 29 87 36 28 6 55 15 60 19 19 15 52 15 69 1 15 -13 15 -15 -1 -27
-10 -7 -26 -14 -35 -14 -9 0 -23 -9 -30 -19 -8 -11 -27 -25 -43 -33 -17 -7
-37 -20 -45 -29 -20 -22 -93 -43 -122 -36 -18 5 -33 -3 -66 -32 -39 -36 -53
-61 -33 -61 4 0 42 16 84 35 42 19 97 38 122 42 25 3 45 11 45 18 0 6 32 25
70 40 39 15 70 32 70 37 0 4 7 8 15 8 8 0 43 13 77 29 83 37 165 69 323 126
153 54 169 61 258 104 67 33 84 51 47 51 -11 0 -20 4 -20 8 0 15 39 50 62 58
13 3 26 12 30 17 4 8 13 5 26 -6 10 -9 24 -17 30 -17 15 0 16 26 2 35 -18 11
2 27 26 21 14 -4 24 -2 24 4 0 5 7 10 16 10 10 0 14 7 12 23 -2 12 6 32 18 46
24 26 36 67 28 98 -7 25 20 79 45 93 25 13 91 13 91 0 0 -17 29 1 36 23 10 34
73 87 103 87 15 0 36 7 48 15 21 14 24 14 44 -6 15 -15 24 -18 32 -10 6 6 21
11 34 11 14 0 23 6 23 15 0 20 41 39 130 60 41 9 91 28 110 40 40 27 158 67
171 59 20 -12 5 -23 -63 -45 -56 -18 -81 -33 -117 -69 -83 -84 -99 -119 -65
-138 14 -8 12 -11 -12 -20 -16 -5 -38 -17 -49 -25 -20 -16 -20 -16 0 -30 19
-14 19 -16 3 -34 -9 -10 -14 -23 -10 -28 7 -10 10 -11 62 -13 23 -2 30 -7 30
-23 0 -21 2 -21 133 -13 212 14 675 11 722 -5 50 -17 249 -115 286 -142 42
-29 111 -59 140 -59 28 0 39 19 39 73 0 23 -18 46 -90 116 -49 48 -90 92 -90
97 0 19 -76 54 -106 49 -16 -3 -47 1 -68 9 -30 10 -46 11 -63 3 -16 -7 -30 -7
-46 1 -12 6 -37 14 -55 17 -33 7 -33 7 -26 51 7 50 8 49 -77 59 -39 4 -63 13
-82 30 -14 14 -38 25 -52 25 -15 0 -25 6 -25 15 0 10 -10 14 -35 13 -19 -1
-32 -5 -29 -10 3 -4 -1 -8 -8 -8 -11 0 -10 -2 0 -9 11 -7 11 -9 -2 -14 -18 -7
-32 8 -16 18 5 3 10 10 10 14 0 13 -53 0 -73 -18 -25 -21 -112 -19 -171 3 -25
10 -46 21 -46 26 0 15 66 38 130 44 36 3 72 7 80 9 62 15 101 18 221 20 132 2
137 3 178 31 23 16 38 33 33 38 -4 4 -68 10 -142 13 -74 4 -151 9 -170 12 -31
6 -28 7 30 14 123 14 367 -12 434 -46 27 -14 55 -25 63 -25 7 0 13 -4 13 -10
0 -5 -4 -10 -10 -10 -21 0 -9 -28 18 -38 54 -21 73 -24 87 -12 13 10 15 8 15
-13 0 -19 11 -34 44 -57 25 -16 51 -30 59 -30 8 0 20 -6 26 -13 6 -8 28 -19
49 -25 21 -7 49 -21 62 -32 13 -11 29 -20 36 -20 6 0 38 -30 70 -67 33 -37 68
-76 79 -88 58 -58 75 -94 86 -177 6 -46 18 -91 26 -100 18 -20 13 -53 -7 -53
-9 0 -16 12 -18 30 -2 16 -12 35 -23 43 -10 7 -19 22 -19 33 0 25 -6 24 -45
-8 -18 -16 -65 -55 -104 -87 -51 -43 -71 -66 -71 -83 0 -13 7 -26 15 -29 8 -3
17 -13 19 -22 5 -13 18 -17 63 -17 36 0 61 5 66 13 11 16 0 67 -17 81 -17 14
-66 -8 -66 -30 0 -19 -29 -34 -42 -21 -11 11 1 42 17 42 6 0 20 9 30 20 10 11
22 17 27 14 4 -3 8 -2 7 3 -4 23 3 33 25 33 38 0 38 0 97 -215 47 -170 46
-377 -2 -600 -40 -185 -60 -247 -119 -370 -27 -56 -60 -117 -72 -136 -13 -18
-32 -52 -42 -74 -36 -75 -81 -138 -173 -243 -13 -14 -23 -29 -23 -34 0 -5 -4
-7 -9 -4 -5 3 -13 0 -18 -7 -11 -15 -45 -103 -68 -175 -9 -29 -23 -56 -31 -59
-8 -3 -14 -10 -14 -17 0 -20 -77 -169 -116 -227 -40 -57 -119 -154 -142 -173
-7 -6 -39 -37 -71 -68 -33 -32 -62 -58 -66 -58 -9 0 -101 -76 -137 -114 -15
-16 -25 -33 -21 -39 4 -6 11 -4 18 6 11 15 55 37 76 37 21 0 -14 -42 -47 -56
-44 -18 -48 -46 -4 -34 26 7 30 6 30 -11 0 -18 2 -18 58 3 31 11 69 30 84 42
45 35 116 77 139 81 31 6 99 55 99 72 0 5 18 22 41 39 22 16 56 44 76 62 20
17 39 32 43 32 4 0 13 13 20 30 15 36 96 113 110 105 6 -4 8 -20 5 -36 l-5
-29 20 20 c11 11 20 25 20 30 0 13 37 50 49 50 8 0 41 54 41 67 0 1 -7 3 -15
3 -8 0 -15 -5 -15 -12 0 -16 -41 -58 -57 -58 -23 0 -14 24 27 74 22 26 40 56
40 65 0 9 16 26 34 39 19 13 43 39 53 59 10 19 22 43 28 53 5 10 18 21 29 24
16 4 18 8 8 18 -18 18 -15 28 8 28 18 0 19 3 9 21 -9 18 -8 24 5 31 11 6 15
16 10 30 -5 18 -3 20 15 15 22 -5 38 7 22 17 -11 7 -2 46 10 46 5 0 9 9 9 20
0 11 5 20 11 20 6 0 8 8 4 19 -3 10 1 23 9 30 8 7 18 26 21 42 4 16 13 29 21
29 18 0 18 -27 -1 -46 -17 -18 -20 -47 -4 -42 6 2 11 8 11 13 0 6 9 27 20 48
18 36 18 40 3 57 -13 15 -14 19 -1 29 12 10 17 8 25 -8 16 -29 13 -61 -9 -101
-11 -19 -22 -43 -26 -52 -3 -10 -10 -18 -15 -18 -5 0 -9 -9 -9 -19 0 -11 -5
-23 -10 -26 -6 -4 -8 -11 -4 -16 9 -15 72 70 78 106 3 16 15 48 27 69 18 33
19 43 8 63 -7 12 -21 23 -31 23 -21 0 -38 32 -20 38 7 2 12 10 12 18 0 20 43
104 53 104 12 0 1 -44 -22 -91 -9 -20 -15 -41 -13 -47 9 -28 31 -8 57 51 58
128 72 163 90 212 10 28 22 54 26 59 5 6 9 16 9 23 0 7 16 48 36 90 19 43 38
91 41 108 3 16 10 35 15 42 5 7 7 17 3 23 -4 6 0 19 9 29 9 10 14 25 11 33 -4
9 0 31 8 50 22 52 7 503 -18 568 -10 25 -19 61 -21 80 -5 60 -24 121 -57 188
-36 74 -47 60 -22 -28 9 -30 18 -73 19 -95 2 -22 10 -76 19 -120 8 -44 15
-104 16 -134 1 -56 7 -75 21 -66 5 3 12 -5 16 -17 5 -16 1 -26 -15 -36 -24
-17 -28 -32 -7 -32 8 0 18 -10 21 -21 8 -25 -3 -149 -15 -164 -4 -5 -11 -37
-14 -70 -12 -96 -43 -196 -66 -210 -6 -3 -10 -19 -10 -36 0 -16 -4 -29 -9 -29
-5 0 -11 -15 -15 -32 -3 -18 -8 -37 -10 -43 -2 -5 -7 -25 -11 -43 -4 -18 -12
-35 -16 -38 -11 -7 -11 1 2 51 5 22 11 66 13 98 1 35 8 62 16 67 7 4 10 12 6
18 -5 9 11 55 33 92 5 8 15 42 21 75 7 33 16 70 20 81 13 34 24 184 13 184 -5
0 -17 -35 -26 -77 -18 -82 -35 -124 -52 -130 -6 -2 -24 9 -41 24 -17 16 -39
33 -48 38 -22 13 -29 77 -12 100 13 18 15 18 40 2 25 -17 26 -17 26 5 0 13
-13 36 -30 51 -32 31 -39 67 -19 111 8 18 9 29 2 38 -18 23 -46 217 -34 232
16 19 -13 43 -33 27 -11 -9 -17 -6 -30 14 -9 14 -19 39 -23 57 -7 33 -2 34 51
12 16 -6 18 -4 14 14 -4 15 0 27 14 36 18 13 19 16 5 57 -9 24 -24 64 -35 89
-21 50 -36 130 -25 130 5 0 20 -11 35 -25 52 -48 52 -23 1 49 -40 56 -216 235
-277 280 -54 40 -172 87 -226 90 -39 2 -95 18 -165 46 -48 20 -196 40 -361 50
-213 12 -472 1 -644 -30 -155 -27 -259 -48 -269 -54 -5 -3 -40 -13 -77 -21
-193 -43 -286 -65 -354 -84 -41 -12 -104 -28 -140 -37 -36 -8 -103 -24 -150
-35 -47 -11 -103 -24 -125 -29 -22 -5 -61 -16 -85 -24 -25 -9 -53 -16 -63 -16
-10 0 -37 -9 -59 -20 -23 -11 -48 -20 -55 -20 -18 0 -108 -28 -148 -45 -39
-17 -108 -43 -165 -61 -25 -8 -54 -18 -65 -23 -17 -8 -50 -20 -160 -60 -11 -4
-40 -17 -65 -29 -25 -12 -48 -22 -52 -22 -6 0 -92 -37 -173 -75 -16 -7 -48
-21 -70 -30 -22 -9 -98 -45 -170 -80 -71 -35 -141 -68 -155 -74 -14 -6 -32
-15 -40 -20 -8 -6 -40 -22 -70 -36 -30 -15 -75 -40 -100 -55 -25 -16 -79 -46
-120 -66 -41 -21 -77 -40 -80 -44 -3 -3 -23 -15 -45 -27 -63 -32 -119 -64
-135 -77 -8 -6 -36 -22 -61 -34 -26 -12 -52 -29 -59 -37 -7 -8 -16 -15 -20
-15 -5 0 -32 -16 -61 -35 -30 -19 -59 -35 -65 -35 -7 0 -14 -7 -18 -15 -3 -8
-12 -15 -19 -15 -8 0 -20 -6 -26 -14 -6 -7 -39 -28 -74 -45 -78 -40 -171 -92
-195 -109 -10 -8 -40 -26 -67 -40 -27 -15 -51 -33 -53 -41 -3 -10 8 -7 34 9
21 13 41 26 44 29 3 4 19 13 35 21 17 8 48 26 70 39 22 13 69 40 105 59 36 19
76 42 90 51 14 9 39 23 55 30 17 7 38 18 48 23 11 5 21 8 23 6 5 -6 -293 -196
-366 -234 -14 -7 -34 -21 -45 -32 -11 -10 -27 -21 -37 -24 -9 -4 -55 -33 -103
-65 -48 -32 -101 -67 -119 -78 -18 -11 -56 -37 -84 -57 -29 -21 -55 -38 -58
-38 -10 0 -87 -64 -143 -120 -31 -30 -92 -84 -136 -120 -107 -86 -209 -175
-263 -230 -46 -47 -129 -164 -150 -214 -20 -46 -26 -22 -7 33 9 27 31 69 49
93 94 125 95 141 4 46 -72 -76 -98 -129 -101 -206 -2 -54 -1 -57 21 -54 14 2
22 -2 22 -11 0 -23 29 -42 42 -29 16 16 44 15 72 -3 19 -13 23 -23 22 -68 l-1
-52 -55 -28 c-30 -16 -59 -35 -63 -43 -13 -22 -22 -17 -36 21 -7 19 -16 35
-19 35 -4 0 -16 -14 -26 -31 -16 -27 -20 -29 -28 -15 -5 9 -8 37 -6 64 2 36 0
47 -12 47 -12 0 -15 -15 -17 -67 -1 -38 2 -68 6 -68 5 0 14 -20 20 -45 12 -47
31 -53 31 -9 0 30 26 32 35 3 4 -13 1 -27 -10 -39 -16 -18 -16 -21 9 -53 30
-39 108 -95 208 -151 76 -41 97 -63 52 -52 -52 13 -229 105 -271 141 -23 19
-45 35 -50 35 -14 0 -83 71 -98 100 -21 43 -25 86 -10 106 8 11 15 38 15 61 0
23 4 44 9 48 5 3 7 21 4 40 -4 25 1 49 21 88 14 30 26 59 26 64 0 6 7 13 15
17 10 3 15 19 15 44 0 29 10 52 47 102 69 97 230 251 403 387 126 100 257 197
320 237 40 26 43 29 27 41 -22 16 -1 27 26 13 10 -5 17 -5 17 1 0 5 -6 12 -12
15 -7 3 -3 3 8 1 14 -4 41 6 73 25 29 16 55 30 60 30 4 0 16 9 26 20 9 10 33
24 51 30 19 7 34 17 34 23 0 7 10 18 23 24 68 36 84 45 109 61 14 9 50 32 80
50 77 47 92 56 98 62 9 9 44 30 80 47 19 10 54 30 77 45 23 16 46 28 52 28 6
0 11 5 11 10 0 6 9 10 20 10 11 0 20 4 20 9 0 5 15 16 33 25 33 17 39 21 122
71 69 42 88 53 104 61 8 4 62 35 120 69 58 33 126 71 151 84 51 25 72 37 115
66 17 11 59 34 95 52 36 17 90 42 119 57 30 14 61 26 68 26 7 0 21 4 31 10 9
5 49 23 87 41 39 17 64 34 57 36 -7 3 -43 -11 -80 -30 -44 -23 -73 -33 -82
-27 -9 6 -2 14 26 29 21 12 46 25 54 30 25 14 90 41 100 41 6 0 10 -7 10 -15
0 -24 16 -20 130 33 65 30 87 38 119 47 12 4 38 17 57 30 19 13 48 26 64 30
23 5 30 12 30 31 0 20 9 29 42 44 43 19 65 17 85 -7 10 -13 20 -12 75 7 35 12
81 30 103 40 22 10 67 26 100 35 33 9 74 21 91 26 17 5 94 22 170 38 150 32
374 83 439 100 22 6 69 18 105 26 36 8 133 31 215 50 199 48 468 101 585 115
52 7 120 16 150 20 101 14 420 11 534 -5z m6506 -95 c0 -5 14 -10 30 -10 l30
0 -1 -67 c0 -38 -4 -88 -7 -113 -6 -39 -10 -45 -34 -48 -19 -2 -30 3 -37 17
-7 11 -7 22 -2 25 12 8 12 74 0 82 -17 10 -6 124 12 124 5 0 9 -4 9 -10z
m-9497 -78 c31 -19 68 -47 82 -63 13 -16 33 -29 44 -29 11 0 22 -9 26 -19 8
-25 35 -42 113 -70 66 -25 81 -50 43 -71 -24 -12 -68 -13 -75 -1 -3 4 -19 11
-35 14 -21 5 -38 19 -56 47 -14 22 -30 40 -35 40 -6 0 -10 8 -10 18 0 16 -78
62 -105 62 -16 0 -104 104 -105 124 0 18 1 18 28 0 15 -10 53 -33 85 -52z
m5389 -339 c-6 -3 -10 -9 -6 -14 3 -5 0 -9 -7 -9 -6 0 -9 -8 -6 -20 3 -11 2
-20 -3 -20 -4 0 -11 -12 -14 -26 -4 -15 -18 -41 -32 -59 -13 -17 -24 -39 -24
-47 0 -9 -7 -18 -15 -22 -8 -3 -15 -12 -15 -20 0 -8 -5 -16 -10 -18 -6 -2 -12
-13 -13 -25 0 -12 -4 -21 -7 -21 -20 2 -29 -6 -40 -32 -13 -31 -37 -56 -46
-47 -3 3 7 29 23 58 15 29 53 101 84 161 31 59 67 118 81 131 13 12 27 31 31
41 6 16 10 17 20 6 9 -10 9 -13 -1 -17z m-4022 -40 c0 -11 -56 -70 -78 -82
-13 -7 -14 -13 -5 -21 12 -13 -10 -59 -54 -113 -13 -16 -23 -37 -23 -47 0 -12
-24 -36 -64 -65 -35 -25 -67 -52 -70 -61 -4 -9 -15 -14 -28 -12 -20 3 -23 8
-20 41 4 45 -14 49 -32 7 -13 -32 -103 -100 -131 -100 -9 0 -13 -4 -10 -10 12
-19 -5 -30 -31 -18 -20 10 -29 8 -54 -10 -16 -12 -32 -22 -36 -22 -4 0 -18 -9
-30 -21 -21 -19 -161 -56 -172 -44 -9 9 55 57 144 106 79 44 96 57 102 83 7
28 12 31 48 32 41 1 117 38 164 79 14 13 39 30 57 39 18 9 44 32 59 52 16 20
38 40 51 45 13 5 26 17 30 26 11 30 34 47 143 105 39 20 40 21 40 11z m3785
-255 c-4 -17 -15 -46 -25 -63 -34 -61 -93 -182 -150 -310 -17 -38 -34 -72 -38
-75 -4 -3 -25 -31 -46 -62 -22 -32 -42 -58 -46 -58 -4 0 -13 -12 -21 -27 -8
-16 -23 -37 -35 -48 -11 -11 -41 -59 -67 -106 -51 -94 -83 -133 -68 -82 18 60
51 137 74 172 51 78 76 118 107 176 18 33 39 67 46 76 25 28 138 222 183 312
25 49 50 91 58 94 7 3 13 11 13 19 0 8 5 14 11 14 7 0 8 -11 4 -32z m-5667 10
c-2 -6 -13 -16 -24 -22 -10 -6 -39 -23 -63 -38 -25 -16 -52 -28 -61 -28 -10 0
-23 -7 -30 -15 -7 -8 -20 -15 -30 -15 -9 0 -25 -9 -34 -19 -10 -11 -30 -21
-45 -23 -20 -2 -25 -8 -24 -25 3 -28 -25 -39 -35 -14 -7 19 -8 19 -65 -1 -58
-20 -75 -19 -62 1 8 13 88 51 108 51 8 0 22 9 31 19 10 10 32 22 50 25 30 6
74 26 145 66 25 14 117 48 134 49 5 1 7 -4 5 -11z m-620 -280 c19 -19 15 -26
-25 -38 -41 -12 -85 -32 -93 -41 -3 -3 -51 -11 -108 -17 -57 -7 -136 -23 -176
-37 -77 -27 -131 -32 -142 -14 -13 21 23 40 84 44 34 2 78 8 99 14 21 5 65 15
98 21 76 14 224 60 231 71 7 12 18 11 32 -3z m5938 -144 c-9 -8 -16 -24 -16
-34 0 -10 -4 -21 -9 -25 -5 -3 -15 -22 -22 -43 -19 -60 -50 -126 -69 -147 -10
-11 -28 -41 -40 -67 -12 -25 -30 -54 -41 -64 -10 -9 -19 -22 -19 -29 0 -7 -9
-20 -20 -30 -21 -19 -26 -35 -12 -35 5 0 13 10 19 22 5 12 12 17 16 11 8 -13
-62 -152 -145 -283 -36 -58 -86 -141 -112 -185 -79 -134 -146 -225 -168 -225
-16 0 -1 45 32 94 17 24 30 48 30 54 0 5 12 31 26 57 15 26 27 60 26 76 0 16
2 28 6 28 23 -4 31 4 29 23 -1 12 4 23 11 24 6 1 14 2 17 3 15 3 -18 40 -37
43 -29 4 -35 38 -12 73 9 14 14 28 11 32 -4 3 3 17 13 31 11 13 20 31 20 38 0
16 75 162 95 184 7 8 17 27 20 43 4 15 11 27 16 27 11 0 40 69 34 80 -3 5 -1
12 5 15 6 4 10 14 8 23 -1 10 4 34 11 54 12 36 21 42 89 54 7 1 24 9 37 18 13
9 31 16 39 16 27 0 83 40 95 67 11 25 14 26 22 10 7 -12 6 -22 -5 -33z m-5986
8 c0 -9 -162 -112 -177 -112 -6 0 -13 -4 -15 -9 -1 -5 -52 -37 -113 -71 -60
-34 -126 -72 -145 -83 -19 -11 -44 -25 -55 -31 -11 -6 -34 -21 -52 -33 -17
-13 -34 -23 -37 -23 -3 0 -25 -13 -49 -30 -25 -16 -51 -30 -58 -30 -8 0 -27
-9 -44 -20 -16 -11 -38 -20 -47 -20 -10 0 -18 -4 -18 -10 0 -5 -9 -10 -19 -10
-11 0 -23 -5 -26 -11 -4 -5 -32 -21 -63 -35 -31 -14 -59 -28 -62 -32 -3 -5
-32 -20 -65 -36 -33 -15 -70 -33 -82 -39 -25 -11 -43 -3 -27 13 6 6 89 50 185
99 198 100 315 162 368 195 20 12 43 26 51 29 8 4 29 15 45 25 17 10 51 30 77
45 25 14 64 37 87 51 22 14 43 26 46 26 2 0 28 15 57 33 62 39 220 125 231
126 4 1 7 -2 7 -7z m-141 -9 c-1 -18 -68 -62 -130 -86 -37 -15 -99 -30 -139
-33 -52 -5 -89 -16 -127 -36 -30 -16 -58 -26 -63 -23 -18 11 -10 35 10 35 11
0 20 5 20 11 0 6 -9 13 -20 16 -28 7 -25 20 8 37 25 14 26 15 7 22 -28 10 -77
45 -72 51 8 7 141 -48 153 -63 9 -11 18 -12 40 -4 15 6 53 10 84 9 54 -1 178
35 203 60 13 13 27 15 26 4z m-829 -188 c-15 -18 -5 -35 21 -35 12 0 19 -7 19
-19 0 -10 6 -24 14 -30 11 -9 15 -7 19 9 6 23 27 27 27 6 0 -18 -38 -46 -62
-46 -12 0 -18 -8 -18 -21 0 -12 -13 -38 -30 -59 -16 -21 -30 -42 -30 -48 0
-14 -27 -23 -47 -15 -13 5 -15 2 -9 -12 4 -11 2 -22 -6 -27 -18 -11 -30 -10
-23 2 3 6 1 10 -4 10 -6 0 -11 -7 -11 -15 0 -13 -18 -20 -42 -16 -5 0 -8 -5
-8 -13 0 -11 -7 -13 -31 -6 -22 7 -31 5 -35 -4 -3 -8 -17 -16 -32 -19 -15 -3
-45 -22 -67 -41 -22 -20 -45 -36 -51 -36 -6 0 -17 -6 -23 -13 -6 -8 -30 -19
-53 -26 -86 -26 -118 -44 -125 -68 -3 -16 0 -30 10 -40 14 -14 12 -18 -17 -38
-18 -12 -63 -32 -101 -45 -37 -12 -77 -33 -88 -46 -11 -13 -30 -24 -40 -24
-11 0 -27 -6 -36 -14 -96 -87 -118 -106 -126 -106 -7 0 -30 -19 -52 -41 -8 -9
-23 -14 -33 -12 -10 3 -23 -5 -34 -21 -9 -14 -25 -26 -36 -26 -11 0 -28 -4
-38 -10 -73 -41 -232 -108 -232 -97 0 26 50 121 87 165 66 78 107 133 122 161
7 13 28 43 45 66 18 23 50 73 71 111 43 77 172 254 195 268 8 5 26 21 40 35
38 40 97 81 115 81 8 0 18 7 21 15 4 8 17 15 30 15 13 0 24 6 24 13 0 8 19 22
43 32 23 9 50 21 60 27 12 6 23 6 31 -1 17 -15 96 17 97 38 0 10 2 11 6 4 3
-8 12 -3 27 14 27 31 126 50 163 32 13 -7 33 -8 50 -4 15 4 37 9 48 11 11 1
33 6 48 10 23 5 34 1 58 -22 26 -25 34 -25 30 0 -1 5 1 16 4 25 6 14 7 14 16
-2 8 -13 7 -22 -1 -32z m-1205 -318 c4 -12 1 -35 -4 -51 -6 -15 -11 -41 -11
-57 0 -21 -12 -43 -41 -74 -54 -58 -71 -59 -63 -2 3 23 7 48 10 55 2 6 -1 12
-6 12 -11 0 -14 63 -3 73 3 4 12 2 20 -5 11 -9 17 -6 29 10 8 12 22 22 30 22
8 0 14 9 14 20 0 27 18 25 25 -3z m925 -292 c0 -8 -3 -15 -7 -15 -5 0 -21 -11
-37 -25 -16 -14 -32 -25 -35 -25 -4 0 -21 -14 -40 -30 -18 -17 -36 -28 -41
-25 -5 3 -11 -4 -15 -15 -3 -11 -11 -20 -16 -20 -5 0 -42 -33 -82 -73 -39 -41
-80 -77 -89 -80 -10 -4 -18 -13 -18 -22 0 -8 -6 -15 -14 -15 -16 0 -60 -55
-70 -87 -7 -23 -36 -32 -36 -12 0 5 -5 7 -12 3 -7 -5 -5 -11 7 -21 15 -10 16
-16 7 -25 -9 -9 -12 -8 -12 5 0 24 -14 21 -46 -8 -24 -23 -54 -33 -54 -20 0
17 32 64 54 80 14 11 26 26 26 33 0 7 5 10 11 7 6 -4 8 -14 4 -22 -5 -13 -3
-14 10 -3 9 7 14 18 12 23 -2 6 15 30 37 55 23 24 40 48 39 53 -2 4 7 11 19
15 12 3 36 19 52 35 17 16 36 29 42 29 7 0 14 7 18 15 3 8 12 15 21 15 8 0 15
5 15 10 0 6 7 10 15 10 8 0 15 5 15 11 0 5 5 7 12 3 7 -4 8 -3 4 5 -7 11 15
41 32 41 5 0 26 16 47 36 33 31 96 70 118 73 4 1 7 -6 7 -14z m6140 -128 c0
-46 -99 -272 -207 -472 -39 -71 -94 -175 -123 -230 -29 -55 -60 -111 -69 -125
-9 -14 -22 -36 -28 -50 -6 -14 -33 -54 -59 -90 -27 -36 -57 -76 -66 -90 -26
-40 -98 -113 -104 -107 -3 3 9 29 28 59 33 53 47 87 68 166 9 34 17 45 46 57
42 17 57 34 130 143 54 80 234 438 234 465 0 7 7 22 15 33 8 10 15 28 15 39 0
11 7 34 16 50 9 17 22 49 30 72 21 60 74 118 74 80z m-4480 -1433 c30 -9 64
-24 74 -35 19 -18 19 -18 1 -25 -19 -8 -64 0 -220 34 -107 24 -125 31 -125 45
0 14 201 0 270 -19z m-395 -154 c39 -12 84 -25 101 -30 17 -6 53 -10 80 -10
27 0 74 -6 105 -14 62 -17 373 -54 764 -91 148 -15 273 -29 277 -31 15 -9 8
-55 -8 -61 -18 -6 -195 7 -419 32 -71 8 -170 17 -220 20 -49 3 -106 10 -125
15 -19 5 -114 16 -210 25 -162 15 -310 41 -310 55 0 6 25 6 118 0 87 -6 78 11
-11 21 -40 5 -66 4 -75 -3 -10 -9 -14 -6 -19 10 -7 28 -23 28 -30 2 -7 -25
-47 -36 -79 -21 -14 6 -36 11 -49 11 -22 0 -25 4 -25 39 0 35 -3 39 -26 39
-14 0 -31 5 -37 11 -18 18 115 5 198 -19z"/>
<path d="M7295 12683 c-11 -3 -24 -9 -29 -14 -6 -5 -20 -9 -33 -9 -24 0 -31
-14 -13 -25 17 -10 11 -25 -10 -25 -10 0 -23 8 -29 17 -9 16 -13 16 -73 -3
-50 -16 -62 -24 -60 -39 3 -16 -1 -17 -39 -11 -30 5 -56 1 -93 -13 -28 -10
-69 -24 -91 -31 -39 -12 -168 -59 -230 -85 -16 -7 -56 -22 -87 -35 -66 -26
-74 -34 -23 -24 21 4 35 2 35 -4 0 -14 -27 -23 -45 -15 -9 3 -21 -2 -29 -12
-10 -14 -16 -16 -34 -6 -17 9 -22 9 -20 0 2 -7 -8 -15 -21 -18 -14 -4 -26 -12
-29 -19 -6 -18 73 -16 88 3 7 8 21 15 31 15 19 0 26 2 87 33 19 9 41 17 51 17
10 0 40 11 67 25 27 14 56 25 64 25 20 0 121 33 140 45 8 5 26 11 40 13 14 2
29 7 35 13 5 5 15 9 23 9 7 0 20 7 29 16 9 8 22 13 30 10 8 -3 35 4 61 16 26
12 52 22 57 23 6 1 12 3 15 4 3 1 14 4 26 6 11 3 33 11 48 19 16 8 34 12 41
10 6 -3 18 2 25 11 11 13 9 15 -9 15 -11 0 -21 5 -21 10 0 14 17 12 43 -4 17
-10 30 -11 57 -3 l35 11 -37 4 c-27 2 -35 7 -31 18 5 14 -4 16 -42 7z"/>
<path d="M6260 12279 c-19 -10 -51 -18 -70 -17 -40 2 -106 -19 -132 -41 -10
-8 -18 -10 -18 -5 0 5 -4 3 -9 -5 -5 -7 -23 -15 -40 -17 -29 -3 -312 -143
-335 -165 -6 -5 -18 -9 -28 -9 -10 0 -18 -4 -18 -8 0 -5 -18 -18 -40 -31 -22
-12 -40 -26 -40 -32 0 -5 -9 -9 -19 -9 -11 0 -22 -4 -26 -9 -3 -5 -31 -22 -63
-36 -62 -28 -155 -85 -160 -97 -2 -5 -8 -8 -14 -8 -5 0 -24 -11 -42 -25 -18
-14 -38 -25 -44 -25 -7 0 -12 -5 -12 -10 0 -6 -10 -15 -22 -20 -55 -24 -196
-128 -348 -256 -104 -88 -387 -365 -426 -418 -16 -22 -40 -53 -54 -70 -31 -38
-30 -37 -87 -116 -26 -36 -46 -72 -45 -81 2 -9 -3 -19 -11 -22 -17 -6 -82
-125 -132 -242 -9 -22 -23 -54 -30 -72 -15 -33 -31 -133 -22 -133 2 0 12 23
21 51 9 27 28 76 43 107 14 31 32 73 40 92 56 131 121 239 192 319 11 13 21
27 21 31 0 4 17 25 38 47 20 23 53 60 72 84 41 52 245 259 254 259 4 0 21 16
38 36 17 19 59 56 92 82 71 55 93 72 111 90 8 6 16 12 19 12 3 0 53 33 112 73
157 106 246 166 269 178 11 5 36 20 57 32 177 107 461 257 486 257 7 0 10 5 7
10 -3 6 3 10 14 10 11 0 35 9 54 20 19 12 45 23 57 25 13 2 30 11 39 18 9 8
37 20 64 27 26 7 47 16 47 21 0 4 18 13 40 19 22 6 40 15 40 20 0 10 39 25 56
22 6 -1 17 5 24 13 7 8 23 15 36 15 28 0 40 16 18 24 -22 9 -35 6 -74 -15z"/>
<path d="M5140 12144 c-14 -7 -32 -18 -40 -24 -88 -60 -296 -193 -313 -200
-12 -5 -40 -24 -63 -42 -22 -18 -74 -60 -115 -93 -41 -33 -87 -69 -103 -80
-41 -30 -81 -85 -62 -85 9 0 16 7 16 15 0 8 5 15 10 15 6 0 21 9 33 21 43 41
203 148 232 155 17 4 44 19 61 33 63 52 207 166 223 176 9 6 31 22 49 38 18
15 36 27 40 27 4 1 23 14 42 30 36 32 32 37 -10 14z"/>
<path d="M4565 11677 c-39 -29 -94 -77 -123 -106 -55 -55 -78 -62 -45 -14 11
15 23 34 28 42 13 22 -16 2 -43 -31 -13 -15 -45 -43 -72 -63 -28 -21 -50 -45
-50 -55 0 -10 -33 -52 -74 -94 -41 -42 -77 -85 -81 -95 -3 -11 -17 -26 -30
-35 -14 -9 -25 -22 -25 -28 0 -14 -56 -104 -85 -138 -25 -28 -28 -50 -8 -68
10 -10 13 -9 13 6 0 11 9 31 20 45 12 14 26 36 33 49 24 45 90 138 97 138 4 0
25 23 46 50 21 28 41 50 44 50 4 0 32 24 62 53 31 28 86 77 123 107 81 67 260
240 248 240 -4 0 -40 -24 -78 -53z"/>
<path d="M3919 10955 c-7 -19 -17 -35 -21 -35 -4 0 -8 -7 -8 -15 0 -8 -16 -31
-35 -50 -19 -20 -37 -51 -41 -70 -3 -19 -20 -56 -36 -82 -17 -26 -30 -58 -30
-70 0 -19 -2 -20 -15 -7 -13 13 -18 5 -43 -67 -34 -98 -44 -149 -31 -169 8
-11 12 -9 20 13 6 16 11 43 11 62 0 40 9 67 20 60 4 -3 13 9 19 27 6 17 17 39
25 47 8 9 30 56 51 106 20 49 45 101 56 116 10 15 19 32 19 37 0 6 4 12 8 14
10 4 62 94 62 107 0 24 -19 9 -31 -24z"/>
<path d="M11140 13199 c-201 -8 -263 -24 -472 -123 -32 -15 -58 -34 -58 -42 0
-8 -4 -13 -8 -10 -11 7 -156 -108 -221 -175 -103 -106 -168 -198 -265 -377
-60 -111 -66 -126 -37 -96 10 10 17 22 14 27 -2 4 1 7 6 7 6 0 17 15 26 33 8
17 20 41 27 52 73 112 88 138 88 145 0 5 3 10 8 12 4 2 23 23 42 48 19 25 58
69 87 99 29 29 53 57 53 62 0 5 4 9 9 9 6 0 33 23 62 50 29 28 59 50 67 50 28
0 93 43 87 58 -5 12 -3 13 10 2 13 -10 19 -10 33 4 10 9 28 16 40 16 12 0 41
7 65 15 39 13 77 20 227 40 29 4 984 8 1000 4 6 -1 135 -6 312 -13 70 -2 131
-7 137 -10 11 -7 42 -11 276 -30 99 -9 214 -20 255 -26 41 -5 93 -9 115 -7 22
2 56 0 75 -4 42 -10 92 -11 143 -5 20 2 37 0 37 -5 0 -5 -10 -9 -22 -9 -39 0
-4 -20 43 -25 75 -7 232 -25 264 -30 17 -3 61 -7 98 -9 38 -3 75 -10 82 -16
17 -14 56 -4 52 13 -1 7 -9 15 -17 19 -9 4 0 7 21 7 41 1 53 -7 38 -25 -6 -7
-8 -18 -4 -24 9 -15 71 -12 85 5 13 15 8 19 -22 16 -10 -1 -18 3 -18 10 0 7
10 9 30 6 16 -4 32 -2 35 3 3 5 -11 12 -32 15 -21 4 -108 20 -193 36 -144 27
-348 55 -455 63 -33 2 -45 0 -45 -10 0 -11 -17 -14 -67 -13 -38 1 -79 4 -93 8
-23 7 -24 8 -5 14 11 3 46 5 78 4 91 -4 66 9 -40 21 -54 6 -147 17 -208 25
-60 8 -175 20 -255 26 -80 7 -167 14 -195 16 -27 2 -97 7 -155 10 -228 13
-284 16 -290 20 -5 3 -488 17 -685 19 -66 0 -185 -2 -265 -5z"/>
<path d="M15239 12197 c-99 -95 -164 -147 -271 -218 -27 -18 -48 -35 -48 -39
0 -4 -11 -11 -25 -14 -14 -4 -25 -12 -25 -19 0 -6 -21 -25 -46 -41 -25 -16
-50 -34 -57 -40 -7 -6 -30 -24 -52 -41 -61 -45 -101 -83 -179 -171 -75 -86
-162 -163 -256 -230 -31 -22 -70 -53 -86 -68 -34 -32 -172 -126 -185 -126 -5
0 -9 -7 -9 -16 0 -15 3 -14 28 2 15 10 50 30 77 45 70 38 251 160 333 224 7 6
43 39 80 75 346 331 374 357 407 372 14 6 25 14 25 18 0 3 23 19 50 35 28 16
50 33 50 37 0 4 24 23 53 41 81 52 233 224 215 243 -2 1 -37 -30 -79 -69z"/>
<path d="M14168 11632 c-10 -2 -18 -8 -18 -13 0 -5 -5 -9 -11 -9 -6 0 -48 -22
-95 -50 -47 -27 -87 -50 -91 -50 -4 0 -14 -7 -23 -15 -9 -8 -29 -16 -44 -17
-16 -2 -31 -8 -33 -15 -3 -7 -9 -13 -15 -13 -5 0 -28 -9 -51 -19 -23 -11 -45
-18 -48 -18 -4 1 -15 -5 -25 -14 -11 -9 -34 -22 -51 -30 -18 -8 -33 -18 -33
-22 0 -5 -4 -6 -9 -3 -5 3 -11 -1 -14 -9 -4 -9 -1 -12 9 -8 26 10 14 -17 -13
-29 -16 -7 -39 -20 -52 -30 -13 -10 -31 -18 -41 -18 -9 0 -27 -9 -40 -20 -13
-11 -27 -20 -31 -20 -4 0 -11 -9 -14 -20 -3 -11 -11 -20 -18 -20 -12 0 -90
-51 -95 -62 -2 -5 -10 -8 -18 -8 -8 0 -17 -7 -20 -15 -5 -12 -23 -22 -54 -30
-29 -8 -62 -28 -67 -40 -3 -9 -12 -14 -19 -11 -7 3 -17 -1 -21 -7 -5 -7 -25
-21 -46 -31 -21 -10 -41 -24 -44 -33 -5 -12 -7 -12 -14 -1 -6 9 -9 10 -9 1 0
-7 -7 -10 -15 -7 -9 4 -15 0 -15 -10 0 -10 -6 -13 -15 -10 -9 4 -15 0 -15 -10
0 -9 -5 -16 -11 -16 -15 0 -39 -26 -32 -34 4 -3 -1 -6 -10 -6 -10 0 -17 -4
-17 -10 0 -5 -4 -10 -9 -10 -6 0 -22 -11 -37 -25 -26 -24 -26 -26 -9 -45 17
-19 17 -20 -9 -30 -15 -5 -31 -10 -36 -10 -5 0 -25 -9 -44 -21 -20 -12 -36
-18 -36 -15 0 4 -21 -8 -47 -26 -27 -18 -64 -39 -83 -46 -79 -29 -136 -45
-154 -43 -11 2 -16 -2 -12 -8 4 -6 2 -11 -3 -11 -17 0 -13 18 5 28 14 8 12 10
-10 14 -15 3 -29 1 -32 -3 -3 -5 -11 -9 -17 -9 -7 0 -4 5 6 11 15 9 16 13 6
25 -10 12 -10 15 1 12 8 -2 15 3 16 10 1 6 2 15 3 18 0 4 9 0 18 -7 10 -8 14
-9 10 -2 -4 7 0 16 9 21 14 8 12 10 -9 14 -15 3 -24 2 -22 -2 6 -10 -35 -37
-69 -46 -22 -5 -24 -10 -19 -35 4 -22 2 -29 -10 -29 -8 0 -17 9 -20 19 -3 15
-1 18 11 14 10 -4 13 -2 8 5 -10 17 -35 15 -42 -2 -4 -10 -15 -13 -39 -9 -50
8 -84 -34 -53 -65 20 -20 1 -25 -26 -7 -28 19 -56 14 -56 -9 0 -21 32 -30 42
-11 5 8 14 13 19 9 6 -3 5 -12 -3 -22 -8 -10 -9 -13 -1 -9 6 4 14 3 18 -3 4
-6 -8 -10 -30 -10 -22 0 -34 4 -30 10 3 6 2 10 -2 10 -5 0 -14 -9 -21 -20 -7
-11 -19 -20 -26 -20 -8 0 -18 -5 -22 -12 -4 -7 -3 -8 4 -4 7 4 12 1 12 -8 0
-13 3 -14 19 -4 11 7 19 14 18 17 -3 9 10 10 33 4 22 -6 27 -19 8 -20 -7 -1
-45 -15 -84 -31 -38 -16 -84 -33 -102 -37 -18 -3 -32 -11 -32 -16 0 -5 -9 -9
-20 -9 -20 0 -29 19 -10 21 6 1 15 2 20 3 6 0 10 4 10 9 0 4 0 12 0 17 0 6 -5
10 -10 10 -6 0 -9 -5 -8 -12 2 -7 -10 -15 -27 -18 -27 -5 -48 -30 -25 -30 5 0
10 -4 10 -9 0 -6 -21 -13 -47 -16 -27 -3 -66 -13 -88 -21 -46 -16 -80 -17
-110 -3 l-20 9 20 -1 c36 -2 40 2 16 15 -21 11 -26 10 -49 -11 -22 -20 -48
-28 -74 -24 -5 0 -8 -4 -8 -10 0 -6 -7 -9 -15 -5 -8 3 -15 1 -15 -4 0 -5 -8
-7 -17 -3 -15 5 -14 3 2 -10 11 -8 17 -18 13 -22 -14 -14 -88 -18 -103 -5 -9
7 -18 10 -22 7 -3 -4 -12 -2 -20 4 -10 9 -13 8 -13 0 0 -7 -4 -9 -10 -6 -5 3
-10 1 -10 -4 0 -10 38 -16 63 -12 5 1 6 -3 3 -8 -3 -5 -20 -12 -38 -15 -18 -3
-44 -9 -58 -12 -14 -3 -36 -7 -50 -8 -14 -1 -31 -5 -38 -10 -8 -5 -18 -4 -25
3 -6 6 -16 11 -21 11 -6 0 -4 -5 4 -11 12 -8 9 -9 -13 -5 -18 4 -33 1 -42 -8
-8 -8 -47 -20 -87 -27 -40 -7 -75 -13 -78 -14 -34 -8 -123 -21 -240 -35 -116
-14 -423 -8 -443 8 -8 7 -17 9 -20 6 -3 -3 -12 -2 -19 2 -7 5 -29 9 -48 10
-81 4 -238 44 -233 59 1 6 -12 11 -31 12 -33 1 -136 50 -136 64 0 4 7 15 16
23 14 15 14 16 -5 16 -12 0 -21 -6 -21 -15 0 -19 -14 -19 -29 -1 -10 12 -9 21
5 43 10 15 14 25 10 21 -9 -8 -36 13 -30 24 2 3 -4 4 -15 1 -24 -6 -37 13 -21
32 10 11 7 13 -13 9 -18 -3 -29 3 -41 21 -19 28 -10 34 11 8 12 -16 12 -15 2
9 -7 15 -16 25 -20 22 -5 -3 -9 3 -9 12 0 10 -3 14 -7 10 -4 -4 -8 -15 -8 -24
0 -9 -6 -16 -12 -15 -7 2 -13 -2 -13 -9 0 -6 -3 -8 -6 -5 -4 4 -1 13 6 22 7 8
9 15 6 15 -4 0 -2 9 4 20 9 16 8 18 -5 14 -8 -4 -15 -12 -15 -20 0 -29 -36
-13 -55 24 -10 20 -20 39 -21 41 -2 1 -7 0 -13 -4 -12 -7 -2 -33 23 -57 7 -8
21 -29 30 -47 36 -69 153 -177 255 -235 53 -31 102 -56 107 -56 5 0 21 -6 36
-14 30 -16 202 -60 294 -76 62 -10 427 -16 499 -7 95 11 199 29 221 37 13 5
45 12 71 15 72 9 199 35 280 56 40 10 82 19 93 19 12 0 19 3 17 8 -3 4 17 8
45 9 28 1 55 6 62 11 6 6 27 12 46 15 30 4 104 24 340 94 30 9 100 33 155 54
55 20 120 44 145 52 123 41 296 115 401 172 26 14 54 25 63 25 9 0 19 6 22 14
3 8 17 17 31 21 14 3 72 28 127 54 157 75 228 107 269 122 20 7 47 24 60 37
l22 23 -26 -4 c-14 -3 -32 -1 -40 3 -22 14 23 54 115 101 44 23 90 50 101 60
11 10 37 25 58 34 21 9 35 20 32 24 -3 5 9 14 26 20 17 6 46 24 65 41 19 16
41 30 49 30 8 0 26 11 41 25 15 14 23 25 18 25 -5 0 14 12 41 26 28 14 57 34
66 44 9 11 19 16 23 13 3 -4 15 3 26 15 12 12 24 22 28 22 4 0 23 13 42 30 19
16 47 35 62 41 16 6 28 15 28 19 0 5 42 32 93 61 50 29 94 56 97 59 3 4 21 15
40 24 39 19 97 63 90 69 -3 2 -13 2 -22 -1z"/>
<path d="M13560 11318 c-14 -6 -56 -24 -95 -41 -38 -16 -85 -35 -103 -43 -20
-9 -30 -19 -26 -26 4 -6 3 -8 -4 -5 -10 7 -82 -19 -135 -49 -15 -8 -37 -17
-50 -19 -12 -3 -31 -9 -42 -14 -29 -14 -233 -105 -282 -126 -24 -10 -43 -22
-43 -27 0 -5 -4 -6 -10 -3 -5 3 -10 1 -10 -4 0 -6 5 -11 10 -11 6 0 10 -4 10
-10 0 -5 -7 -10 -16 -10 -8 0 -13 -4 -10 -9 12 -19 -6 -41 -32 -39 -18 2 -27
-2 -27 -12 0 -19 35 -29 57 -16 22 13 35 1 19 -18 -9 -11 -7 -15 8 -19 17 -4
19 -1 14 24 -3 19 -1 29 6 29 7 0 9 -4 6 -10 -3 -5 -2 -10 4 -10 18 0 21 18 5
34 -22 22 -11 32 36 34 30 1 39 -1 34 -11 -4 -6 3 -3 17 8 18 16 21 16 10 2
-8 -9 -12 -20 -9 -22 5 -5 98 62 110 79 5 7 8 7 8 -1 0 -7 5 -13 10 -13 14 0
12 27 -2 33 -8 3 -6 6 5 6 9 1 17 -4 17 -9 0 -6 6 -5 14 2 7 7 11 19 9 25 -3
8 4 13 19 13 24 0 53 34 43 51 -4 5 -3 9 2 8 21 -4 33 2 33 15 0 16 44 41 90
51 17 4 28 11 24 16 -7 12 3 11 26 -1 13 -7 19 -6 24 5 3 8 13 15 21 15 9 0
13 5 10 10 -3 6 3 10 13 10 11 0 25 7 32 15 7 8 21 15 31 15 9 0 24 7 33 15 8
8 18 15 23 15 15 0 63 25 63 33 0 4 7 7 15 7 8 0 15 5 15 10 0 6 -1 10 -2 9
-2 0 -14 -5 -28 -11z"/>
<path d="M16037 11088 c-7 -12 -33 -57 -57 -98 -23 -41 -50 -86 -59 -100 -9
-14 -32 -54 -50 -90 -19 -36 -42 -76 -51 -90 -9 -14 -36 -61 -60 -105 -23 -44
-47 -81 -51 -83 -5 -2 -9 -10 -9 -17 0 -7 -4 -15 -8 -17 -13 -5 -41 -72 -34
-83 3 -5 11 2 16 18 5 15 13 27 18 27 4 0 8 6 8 13 0 6 9 23 20 37 11 14 20
32 20 41 0 8 9 25 20 37 11 12 20 25 20 30 0 4 8 17 18 28 9 10 28 40 41 67
13 26 28 47 33 47 4 0 8 5 8 10 0 6 15 34 33 63 18 29 41 72 52 97 11 25 23
47 27 50 12 9 70 132 65 137 -3 3 -12 -6 -20 -19z"/>
<path d="M11955 9320 c-27 -5 -86 -16 -130 -25 -44 -8 -134 -24 -200 -35 -66
-11 -135 -27 -153 -35 -18 -8 -43 -15 -55 -15 -20 0 -88 -20 -307 -90 -36 -11
-96 -29 -134 -39 -37 -11 -73 -24 -79 -30 -6 -6 -19 -11 -28 -11 -9 0 -56 -13
-105 -28 -49 -16 -118 -38 -154 -50 -95 -30 -127 -41 -210 -75 -19 -7 -57 -22
-85 -32 -101 -35 -181 -66 -212 -80 -17 -8 -38 -15 -47 -15 -16 0 -60 -17
-131 -51 -22 -10 -45 -19 -51 -19 -10 0 -96 -33 -169 -64 -16 -7 -46 -19 -65
-26 -19 -7 -55 -21 -80 -32 -68 -30 -113 -49 -135 -58 -11 -4 -82 -35 -157
-69 -76 -33 -140 -61 -143 -61 -3 0 -49 -20 -103 -45 -53 -25 -110 -52 -127
-60 -148 -68 -238 -110 -280 -133 -27 -14 -102 -53 -165 -85 -167 -85 -252
-131 -368 -201 -56 -33 -110 -65 -120 -71 -9 -5 -55 -32 -100 -58 -46 -27
-107 -61 -135 -76 -56 -29 -134 -77 -154 -95 -25 -22 -39 -32 -76 -55 -29 -18
-36 -26 -26 -35 8 -8 13 -8 16 2 3 6 9 10 14 6 5 -3 18 -2 30 1 19 7 20 7 2
21 -17 12 -16 13 9 14 35 0 59 10 52 21 -3 5 3 6 12 2 10 -4 22 0 30 11 6 10
14 16 16 15 6 -4 48 13 48 19 0 4 20 16 45 27 25 11 45 26 45 33 0 6 5 13 10
13 19 3 25 5 89 37 36 18 74 41 85 51 12 10 32 22 46 26 13 4 30 14 38 21 7 8
17 12 22 9 4 -3 13 2 20 10 7 8 22 15 33 15 11 0 28 7 38 16 9 8 26 16 37 17
12 0 26 11 33 23 6 12 17 20 24 18 7 -3 19 2 28 10 8 9 25 17 36 19 12 2 27 9
33 15 7 7 20 12 30 12 17 0 33 7 78 31 8 5 33 18 55 29 22 11 48 26 58 33 15
10 20 9 30 -3 14 -18 37 -24 37 -10 0 5 -8 13 -17 19 -24 13 -8 27 40 34 35 5
37 4 25 -10 -12 -15 -11 -15 9 -4 13 6 22 17 20 24 -1 7 4 11 10 10 7 -2 18 5
24 15 7 12 20 17 33 15 14 -3 24 3 31 18 6 12 17 25 25 29 8 4 29 15 47 24 17
9 36 16 42 16 6 0 43 16 83 36 42 20 83 33 96 31 12 -2 22 1 22 7 0 6 46 28
103 49 56 21 122 48 147 61 25 13 67 36 94 50 27 14 57 26 67 26 10 0 24 7 33
15 8 8 22 15 30 15 9 0 16 5 16 11 0 7 9 9 23 5 17 -4 30 1 47 19 13 13 27 22
32 19 5 -3 15 -1 22 5 7 6 30 13 51 17 21 3 48 9 59 13 12 5 27 6 34 4 6 -3
12 2 12 11 0 9 8 16 18 16 10 0 37 9 60 20 22 11 48 20 57 20 8 0 15 4 15 9 0
9 28 21 75 30 18 4 30 12 29 21 -1 11 10 15 34 16 20 0 38 6 40 12 2 7 15 12
28 12 13 0 24 5 24 10 0 6 14 10 30 10 17 0 30 5 30 10 0 6 6 10 14 10 15 0
108 27 146 42 14 6 34 14 45 18 11 4 31 12 45 18 14 6 36 14 50 17 25 7 68 24
124 51 16 8 36 14 45 14 9 0 29 7 44 15 15 8 43 17 62 21 19 3 35 9 35 13 0 4
12 8 26 9 15 1 32 6 38 11 11 9 48 18 91 21 18 1 17 3 -5 12 l-25 11 25 5 c13
2 26 0 27 -5 4 -11 104 7 124 23 8 6 26 11 41 12 14 1 46 8 70 16 23 8 58 17
76 21 17 4 32 11 32 16 0 6 9 7 20 4 12 -4 26 -2 33 3 7 5 38 13 70 16 31 4
57 11 57 16 0 4 8 6 19 3 10 -3 22 0 25 6 4 6 34 11 67 11 35 0 59 4 59 11 0
6 -8 8 -19 4 -11 -3 -22 -2 -25 4 -8 12 18 21 34 11 7 -4 79 -6 159 -3 388 14
498 4 676 -63 11 -4 27 -6 35 -5 8 2 12 0 8 -4 -7 -8 55 -55 72 -55 6 0 10 -4
10 -10 0 -5 16 -26 35 -46 19 -19 35 -40 35 -44 0 -13 18 -22 24 -12 17 29
-205 242 -252 242 -8 0 -28 6 -45 14 -86 40 -141 47 -357 51 -118 2 -237 0
-265 -5z"/>
<path d="M11230 9301 c-63 -9 -126 -23 -139 -30 -14 -8 -38 -11 -57 -8 -19 3
-36 2 -39 -2 -2 -5 -18 -11 -34 -14 -29 -6 -71 -42 -71 -60 0 -5 10 -6 23 -3
12 4 33 9 47 12 14 3 38 12 54 19 15 8 43 17 62 21 19 3 34 10 34 14 0 4 30
10 68 14 74 7 192 37 192 48 0 10 2 10 -140 -11z"/>
<path d="M9428 8635 c-14 -8 -65 -29 -112 -46 -47 -17 -89 -35 -92 -40 -3 -5
-12 -9 -21 -9 -18 0 -86 -30 -94 -42 -3 -5 -35 -19 -70 -32 -184 -67 -236 -87
-251 -96 -10 -6 -25 -10 -34 -10 -8 0 -22 -7 -30 -15 -9 -8 -24 -15 -34 -15
-10 0 -21 -4 -25 -9 -3 -5 -29 -17 -58 -27 -28 -9 -57 -20 -63 -25 -6 -5 -19
-10 -30 -12 -10 -2 -35 -13 -54 -25 -19 -12 -65 -37 -102 -55 -38 -17 -68 -38
-68 -44 0 -7 4 -13 8 -13 5 0 9 -7 9 -15 0 -24 -25 -17 -29 8 -4 30 -22 28
-26 -3 -5 -32 -26 -55 -65 -71 -18 -7 -60 -30 -95 -51 -34 -21 -68 -38 -75
-38 -7 0 -18 -9 -25 -20 -7 -11 -19 -20 -27 -20 -8 0 -15 -4 -15 -9 0 -5 -9
-13 -20 -16 -26 -8 -124 -74 -128 -86 -2 -5 -9 -9 -15 -9 -16 -1 -92 -69 -85
-76 5 -5 45 13 58 26 8 8 119 80 124 80 2 0 33 17 67 38 35 21 85 49 112 62
26 13 47 27 47 32 0 4 8 8 19 8 10 0 24 7 31 15 7 8 19 15 27 15 8 0 27 8 41
19 15 10 47 29 72 41 25 12 55 28 67 34 13 6 23 14 23 19 0 4 6 7 14 7 18 0
174 78 181 91 4 5 15 9 26 9 10 0 19 5 19 10 0 6 7 10 15 10 8 0 23 4 33 9 9
5 35 17 57 26 22 10 53 23 69 31 16 8 35 14 41 14 7 0 18 7 25 15 7 8 21 15
31 15 11 0 19 4 19 9 0 5 9 13 20 16 11 4 18 11 15 16 -4 5 7 6 25 3 20 -5 30
-3 30 6 0 7 7 10 16 6 12 -5 15 -2 10 10 -5 13 -1 15 20 11 14 -2 38 2 53 9
18 10 21 14 9 14 -10 0 -18 5 -18 10 0 6 6 10 13 10 7 0 30 9 51 20 25 12 48
17 68 13 25 -5 29 -3 26 13 -2 15 2 18 25 16 21 -2 27 0 21 9 -5 9 -1 10 14 7
12 -4 20 -3 17 2 -8 13 19 29 63 36 23 3 39 11 36 15 -3 5 11 16 32 25 29 12
34 18 23 25 -19 12 -29 11 -61 -6z"/>
<path d="M12947 6876 c-21 -13 -55 -40 -76 -60 -21 -21 -44 -38 -52 -39 -8 -2
-23 -10 -34 -19 -11 -9 -47 -39 -80 -65 -33 -26 -69 -58 -81 -71 -11 -13 -33
-24 -47 -26 -26 -3 -82 -44 -73 -54 4 -3 139 68 215 113 68 41 101 63 137 92
23 18 44 33 47 33 11 0 57 47 57 59 0 6 6 11 14 11 9 0 13 10 12 25 0 14 -1
25 -1 24 0 0 -17 -11 -38 -23z"/>
<path d="M13025 6633 c-67 -8 -191 -35 -199 -44 -6 -5 -16 -9 -24 -9 -7 0 -33
-9 -58 -20 -24 -12 -65 -24 -89 -29 -25 -5 -50 -13 -57 -18 -7 -5 -32 -15 -54
-21 -23 -7 -47 -19 -54 -27 -7 -8 -18 -15 -25 -15 -18 0 -143 -59 -125 -59 12
-1 78 15 175 42 6 2 21 10 35 19 14 9 41 19 60 23 19 4 45 13 57 21 12 7 37
15 55 16 18 1 52 10 75 19 22 10 44 15 47 12 3 -3 12 -1 20 6 7 6 31 13 52 15
22 3 50 9 64 14 14 5 30 10 35 10 16 1 158 15 180 18 11 1 76 3 145 4 95 2
117 4 90 11 -36 9 -351 18 -405 12z"/>
<path d="M3328 9905 c-2 -3 -35 -7 -72 -9 -37 -2 -73 -9 -79 -15 -15 -15 -18
-91 -4 -90 7 0 61 13 121 28 l109 28 33 -29 c19 -17 34 -28 34 -25 0 19 -22
57 -33 57 -7 0 -27 14 -45 30 -31 28 -52 36 -64 25z"/>
<path d="M3325 9764 c-148 -30 -155 -33 -155 -76 0 -27 3 -30 23 -23 83 26
176 44 200 39 31 -7 32 -3 12 36 -15 30 -29 34 -80 24z"/>
<path d="M3385 9364 c-22 -8 -64 -13 -95 -12 -54 3 -55 2 -52 -22 2 -14 10
-35 18 -48 18 -28 54 -25 137 12 46 20 55 28 59 55 5 36 -4 38 -67 15z"/>
<path d="M3415 9250 c-3 -5 -15 -10 -25 -10 -15 0 -76 -23 -99 -37 -2 -1 7
-18 19 -37 15 -25 29 -36 45 -36 30 0 135 39 135 49 0 5 -7 25 -15 45 -15 35
-46 49 -60 26z"/>
<path d="M18555 7958 c-42 -34 -95 -88 -95 -99 0 -6 -4 -8 -9 -5 -10 6 -39
-24 -31 -32 3 -3 -3 -6 -12 -8 -10 -1 -25 -9 -34 -18 -8 -9 -20 -16 -25 -16
-5 0 -9 -6 -9 -14 0 -8 -7 -16 -15 -20 -8 -3 -51 -31 -96 -63 -44 -32 -88 -62
-97 -68 -9 -5 -21 -13 -26 -18 -115 -82 -153 -107 -163 -107 -7 0 -16 -6 -20
-13 -4 -8 -29 -26 -55 -41 -27 -16 -48 -31 -48 -35 0 -4 -27 -20 -60 -36 -32
-17 -59 -35 -60 -41 0 -7 -12 -15 -27 -19 -16 -3 -35 -13 -43 -20 -8 -7 -37
-25 -65 -41 -27 -15 -63 -35 -79 -43 -29 -17 -36 -36 -13 -37 6 0 36 15 65 33
29 18 59 33 67 33 8 0 15 5 15 10 0 6 6 10 14 10 7 0 19 7 26 15 7 9 19 14 27
11 8 -3 16 0 19 8 3 7 29 26 57 41 63 34 171 106 175 116 2 5 20 18 40 31 20
12 66 45 102 74 36 28 99 74 140 102 41 28 95 69 120 91 64 57 69 61 74 61 2
0 37 32 77 70 41 39 77 70 81 70 5 0 8 6 8 14 0 8 6 17 13 19 6 3 7 6 2 6 -6
1 -24 -9 -40 -21z"/>
<path d="M10192 5830 c9 -5 27 -10 40 -9 36 1 310 -11 343 -16 68 -10 475 -16
475 -7 0 5 -105 12 -232 16 -128 4 -255 9 -283 11 -160 11 -359 15 -343 5z"/>
<path d="M9373 4037 c-6 -9 -4 -1097 2 -1157 1 -19 4 -280 5 -579 2 -520 1
-545 -17 -569 -45 -61 -63 -67 -221 -73 -164 -6 -1006 -4 -1065 3 -20 3 -39 7
-42 10 -3 2 -5 499 -6 1104 -1 604 -4 1135 -8 1179 l-6 80 -255 0 c-140 0
-299 -1 -352 -3 l-97 -4 5 -1486 c3 -818 8 -1493 10 -1500 6 -21 2252 -7 2337
14 79 19 176 69 234 119 61 54 133 181 169 300 l27 90 -2 1150 c-1 1040 -6
1293 -27 1326 -8 13 -683 9 -691 -4z"/>
<path d="M10915 4040 l-130 -5 1 -30 c0 -16 4 -685 9 -1485 5 -952 11 -1459
17 -1468 15 -17 683 -18 694 0 7 11 6 410 -1 933 -2 110 -4 477 -5 815 l-2
614 23 6 c13 4 290 6 614 6 660 -1 634 2 685 -72 23 -34 25 -49 31 -203 4 -91
10 -389 13 -661 3 -272 9 -707 13 -967 l6 -472 126 -3 c69 -2 227 -4 351 -3
l225 0 -1 315 c-1 173 -4 704 -8 1180 -9 1039 -13 1089 -94 1224 -67 111 -144
177 -273 231 -129 55 -122 55 -1184 53 -539 -1 -1038 -5 -1110 -8z"/>
<path d="M14266 4032 c-3 -9 -4 -33 -2 -52 3 -19 7 -309 10 -645 4 -335 9
-743 11 -905 2 -162 7 -536 11 -830 3 -294 9 -538 12 -542 4 -4 509 -8 1122
-9 1173 -2 1142 -3 1260 44 166 65 316 212 360 353 20 66 21 82 16 414 -3 190
-8 626 -12 970 l-6 625 -28 95 c-71 242 -150 355 -303 430 -120 58 -101 58
-1324 64 -1055 5 -1122 4 -1127 -12z m1939 -613 c49 -13 100 -51 119 -87 11
-22 15 -121 20 -492 3 -256 9 -602 12 -770 l6 -305 -31 -42 c-17 -23 -40 -47
-51 -53 -25 -13 -1148 -14 -1183 -1 -13 5 -34 7 -48 4 -16 -3 -30 2 -41 14
-14 16 -17 75 -22 478 -3 253 -6 615 -6 805 -1 209 -5 362 -12 387 -19 79 -69
73 599 73 401 0 611 -4 638 -11z"/>
<path d="M18242 4039 c-83 -10 -120 -23 -219 -71 -148 -73 -256 -211 -284
-363 -11 -57 -9 -392 6 -1125 3 -129 8 -397 11 -595 3 -198 7 -372 8 -387 2
-16 3 -117 4 -226 1 -141 6 -203 15 -215 11 -15 48 -17 360 -19 l348 -3 -3
180 c-2 206 -24 662 -33 716 -5 26 -3 39 6 45 18 10 1295 5 1323 -6 40 -15 47
-66 56 -405 11 -393 17 -516 27 -526 4 -4 165 -9 356 -10 287 -2 350 0 357 11
5 8 7 17 5 21 -3 3 -7 100 -10 215 -2 115 -7 304 -11 419 -3 116 -8 260 -9
320 -2 61 -6 211 -10 335 -3 124 -8 308 -10 410 -17 754 -26 1094 -30 1100 -2
3 -6 41 -10 85 -5 56 -11 84 -23 93 -12 9 -245 12 -1091 11 -592 -1 -1104 -5
-1139 -10z m1542 -635 c9 -8 16 -18 16 -22 1 -4 2 -90 4 -192 2 -102 7 -269
11 -372 6 -145 5 -191 -5 -203 -11 -13 -88 -15 -599 -15 -322 0 -616 3 -652 6
-109 11 -104 -3 -105 274 -1 132 -5 284 -8 339 -6 78 -4 105 7 128 18 34 45
59 72 66 11 2 295 5 632 6 544 1 613 -1 627 -15z"/>
<path d="M6165 4031 c-38 -6 -41 -9 -145 -172 -58 -91 -147 -230 -199 -310
-52 -79 -129 -200 -171 -269 -42 -69 -106 -170 -141 -225 -35 -55 -70 -111
-77 -125 -7 -14 -28 -43 -46 -65 l-33 -39 -26 29 c-14 17 -40 55 -58 85 -17
30 -46 78 -64 105 -18 28 -65 102 -105 165 -40 63 -92 144 -115 180 -23 36
-76 118 -116 182 -191 301 -275 430 -291 445 -15 14 -63 15 -424 10 -223 -3
-409 -9 -412 -12 -3 -3 1 -11 10 -18 8 -6 32 -39 53 -72 21 -33 74 -114 117
-180 43 -66 83 -127 88 -135 5 -8 25 -37 45 -65 19 -27 38 -57 42 -65 4 -8 28
-48 55 -88 26 -41 48 -75 48 -78 0 -2 41 -66 91 -141 51 -76 108 -164 128
-195 20 -31 63 -99 95 -150 74 -116 123 -192 218 -338 41 -63 78 -122 82 -130
4 -8 23 -41 44 -72 20 -31 61 -96 91 -144 l54 -87 -7 -499 c-5 -340 -3 -504 4
-518 10 -18 23 -19 346 -20 185 0 340 -2 344 -5 4 -3 13 2 20 10 9 11 10 134
5 523 -7 475 -6 510 10 543 10 19 63 104 118 189 125 193 194 301 233 362 16
26 68 107 115 180 47 73 134 210 193 303 134 212 151 238 365 570 186 288 210
328 205 337 -6 10 -718 8 -789 -1z"/>
<path d="M21255 4031 c-3 -6 -3 -74 -1 -153 3 -79 8 -330 11 -558 3 -228 7
-440 10 -470 2 -30 7 -176 10 -325 3 -148 10 -430 16 -625 6 -195 13 -471 17
-613 5 -193 10 -260 20 -266 7 -4 172 -8 368 -9 l355 -1 -6 252 c-3 139 -8
317 -10 397 -12 387 -18 636 -30 1360 -4 195 -8 416 -10 490 -2 74 -5 182 -6
240 -1 58 -6 113 -11 124 -6 10 -12 38 -13 62 -4 54 -14 87 -29 96 -17 11
-684 10 -691 -1z"/>
<path d="M2690 4011 c0 -6 5 -13 11 -17 8 -4 8 -9 0 -17 -8 -8 -11 -177 -11
-558 0 -452 -2 -549 -14 -558 -21 -18 -1300 -11 -1318 7 -10 10 -10 14 1 21 8
5 10 14 5 22 -4 7 -9 52 -9 99 -3 138 -9 134 -15 -9 -4 -102 -8 -135 -19 -139
-12 -4 -13 81 -9 559 3 310 3 570 1 577 -4 9 -82 12 -346 12 -188 0 -347 -4
-353 -8 -9 -5 -15 -331 -23 -1232 -6 -674 -11 -1352 -11 -1508 l0 -283 348 1
c191 1 354 5 362 10 11 7 14 119 17 611 2 332 7 607 11 610 4 4 313 9 687 11
l680 3 1 -608 c1 -334 5 -611 8 -615 9 -8 689 -3 697 6 4 4 9 655 13 1447 3
792 8 1458 10 1480 2 22 1 50 -1 63 l-5 22 -359 0 c-218 0 -359 -4 -359 -9z"/>
</g>
</svg>
