<?xml version="1.0" standalone="no"?>
<!DOCTYPE svg PUBLIC "-//W3C//DTD SVG 20010904//EN"
 "http://www.w3.org/TR/2001/REC-SVG-20010904/DTD/svg10.dtd">
<svg version="1.0" xmlns="http://www.w3.org/2000/svg"
 width="1024.000000pt" height="577.000000pt" viewBox="0 0 1024.000000 577.000000"
 preserveAspectRatio="xMidYMid meet">
<metadata>
Created by potrace 1.16, written by Peter Selinger 2001-2019
</metadata>
<g transform="translate(0.000000,577.000000) scale(0.100000,-0.100000)"
fill="#000000" stroke="none">
<path d="M8210 5165 c-8 -2 -49 -9 -90 -15 -491 -77 -998 -364 -1299 -733
-194 -239 -327 -496 -383 -741 -30 -131 -30 -359 0 -471 55 -203 174 -356 347
-447 414 -216 1081 -153 1582 148 355 214 643 526 819 889 146 300 169 542 78
815 -77 231 -182 351 -399 456 -148 72 -258 96 -465 100 -96 1 -182 1 -190 -1z
m170 -181 c110 -22 229 -66 317 -115 96 -54 245 -198 295 -284 241 -417 102
-925 -380 -1387 -111 -107 -204 -169 -387 -258 -363 -177 -699 -224 -1000
-140 -74 21 -239 109 -310 165 -128 101 -216 223 -268 372 -39 115 -49 288
-23 428 44 236 177 507 341 695 158 182 477 392 714 470 86 28 257 64 346 74
70 7 277 -4 355 -20z"/>
<path d="M7270 3886 l0 -633 28 -6 c15 -3 134 -6 265 -7 l237 -1 0 353 c0 225
-4 367 -11 393 -9 33 -54 84 -257 288 -135 136 -250 247 -254 247 -4 0 -8
-285 -8 -634z"/>
<path d="M8219 4273 c-188 -190 -248 -257 -259 -288 -15 -46 -28 -721 -13
-736 4 -4 126 -5 271 -2 l262 6 0 634 c0 348 -4 633 -8 633 -4 0 -118 -111
-253 -247z"/>
<path d="M517 1983 c-4 -3 -7 -343 -7 -755 l0 -748 230 0 230 0 0 755 0 755
-223 0 c-123 0 -227 -3 -230 -7z"/>
<path d="M1844 1979 c-133 -17 -261 -74 -320 -143 -46 -54 -74 -146 -74 -245
0 -103 20 -167 71 -225 49 -55 72 -68 199 -111 276 -95 924 -339 958 -361 24
-16 29 -38 10 -51 -7 -4 -298 -10 -646 -13 l-634 -5 1 -170 0 -170 794 0 793
0 77 38 c135 67 193 173 185 335 -7 140 -57 226 -156 268 -20 9 -185 71 -367
139 -181 68 -379 142 -440 165 -60 23 -159 59 -219 81 -60 21 -115 44 -122 50
-21 17 -17 46 8 63 20 14 92 16 585 16 l563 0 0 175 0 175 -602 -1 c-332 -1
-631 -5 -664 -10z"/>
<path d="M3600 1406 c0 -560 1 -587 20 -650 39 -126 133 -207 295 -253 88 -25
924 -32 1046 -9 156 29 246 88 302 193 58 112 58 122 55 738 l-3 560 -227 3
-228 2 0 -485 c0 -333 -4 -501 -11 -532 -14 -55 -60 -103 -115 -122 -24 -8
-111 -15 -234 -18 -282 -8 -364 12 -414 97 -20 34 -21 53 -26 545 l-5 510
-227 3 -228 2 0 -584z"/>
<path d="M5807 1984 c-4 -4 -7 -83 -7 -176 l0 -168 584 0 c344 0 587 -4 590
-9 6 -9 -139 -85 -844 -444 -162 -82 -248 -132 -278 -160 -126 -122 -117 -404
16 -492 83 -55 94 -55 897 -53 l740 3 3 173 2 172 -599 0 c-528 0 -600 2 -611
16 -11 12 -11 17 1 29 15 14 477 254 852 441 126 63 244 130 266 149 58 53 85
123 86 221 0 70 -4 88 -30 139 -38 74 -85 108 -192 137 -76 21 -98 22 -773 26
-382 2 -698 0 -703 -4z"/>
<path d="M8012 1383 l3 -608 27 -57 c52 -111 138 -177 280 -215 93 -24 947
-32 1056 -9 207 43 320 160 343 355 5 42 8 315 7 606 l-3 530 -227 3 -227 2
-3 -507 -3 -508 -25 -44 c-45 -80 -120 -101 -375 -101 -247 0 -330 23 -376
104 l-24 41 -5 505 -5 505 -223 3 -223 2 3 -607z"/>
</g>
</svg>
