<?xml version="1.0" standalone="no"?>
<!DOCTYPE svg PUBLIC "-//W3C//DTD SVG 20010904//EN"
 "http://www.w3.org/TR/2001/REC-SVG-20010904/DTD/svg10.dtd">
<svg version="1.0" xmlns="http://www.w3.org/2000/svg"
 width="1450.000000pt" height="1821.000000pt" viewBox="0 0 1450.000000 1821.000000"
 preserveAspectRatio="xMidYMid meet">
<metadata>
Created by potrace 1.16, written by Peter Selinger 2001-2019
</metadata>
<g transform="translate(0.000000,1821.000000) scale(0.100000,-0.100000)"
fill="#000000" stroke="none">
<path d="M7252 17673 c-10 -16 -45 -73 -77 -128 -85 -147 -164 -284 -193 -335
-14 -25 -44 -76 -67 -115 -23 -38 -60 -101 -82 -140 -41 -72 -223 -389 -425
-740 -63 -110 -126 -220 -140 -245 -14 -25 -76 -133 -138 -240 -62 -107 -147
-253 -188 -325 -89 -154 -80 -138 -223 -385 -62 -107 -129 -224 -149 -260
-120 -211 -165 -290 -190 -330 -15 -25 -39 -65 -53 -90 -13 -25 -57 -100 -96
-167 -39 -67 -72 -130 -73 -140 -3 -37 2 -74 10 -69 4 2 15 -9 24 -25 10 -16
13 -29 9 -29 -5 0 -11 7 -15 15 -8 21 -26 19 -26 -2 0 -14 2 -15 9 -5 6 10 10
7 15 -13 5 -20 11 -25 25 -20 15 5 21 -1 26 -24 3 -16 13 -32 21 -35 14 -5 14
-8 0 -22 -9 -8 -22 -12 -28 -8 -10 6 -11 4 0 -7 18 -20 15 -32 -8 -26 -21 5
-35 -7 -25 -23 3 -6 15 -6 30 0 16 6 25 5 29 -3 2 -7 2 2 -1 19 -3 19 0 35 7
39 9 5 10 1 5 -16 -5 -18 -4 -20 4 -9 8 11 13 12 21 4 9 -9 9 -14 1 -18 -6 -4
-11 -12 -11 -17 0 -6 5 -7 10 -4 21 13 28 -6 18 -45 -7 -28 -16 -40 -29 -40
-10 0 -21 -4 -24 -10 -8 -13 -35 -13 -35 -1 0 5 8 12 18 14 13 4 12 5 -5 6
-12 0 -26 8 -31 17 -6 11 -12 13 -16 6 -8 -14 13 -102 25 -102 5 0 9 -4 9 -10
0 -5 18 -38 40 -72 22 -35 40 -68 40 -75 0 -6 4 -13 8 -15 5 -1 22 -26 38 -54
16 -29 54 -93 84 -143 30 -51 60 -99 65 -109 6 -9 31 -52 57 -94 25 -42 44
-79 41 -82 -4 -3 -1 -6 5 -6 7 0 12 -5 12 -11 0 -5 18 -37 40 -69 22 -32 40
-61 40 -65 0 -3 24 -42 53 -88 29 -45 67 -107 83 -137 17 -30 56 -97 87 -148
31 -51 57 -97 57 -101 0 -4 11 -21 25 -37 13 -15 22 -30 20 -32 -2 -2 5 -14
16 -25 11 -12 22 -32 25 -44 4 -13 10 -23 15 -23 5 0 9 -6 9 -14 0 -7 7 -19
15 -26 8 -7 15 -19 15 -27 0 -13 -2 -13 -17 -2 -15 12 -16 12 -10 -6 6 -18 6
-18 -6 -4 -8 11 -22 15 -43 12 -20 -3 -36 1 -47 11 -10 10 -17 12 -19 5 -4
-13 -48 -3 -48 11 0 5 7 7 15 4 8 -4 15 -2 15 4 0 12 -29 24 -40 17 -5 -3 -11
-1 -15 5 -3 6 1 13 9 16 18 7 11 24 -10 24 -8 0 -14 -9 -14 -20 0 -11 -4 -20
-9 -20 -12 0 -22 28 -12 35 12 7 11 75 0 76 -5 1 -14 2 -21 3 -21 2 -20 26 1
34 20 7 20 9 7 27 -14 18 -15 18 -16 3 0 -10 -7 -18 -15 -18 -17 0 -20 16 -5
25 6 4 8 11 4 16 -3 6 -11 3 -18 -7 -12 -16 -13 -16 -19 0 -8 21 0 39 14 31 5
-4 9 -1 9 4 0 6 -9 11 -20 11 -11 0 -20 -6 -20 -12 0 -9 -3 -8 -9 2 -13 19 -5
29 19 23 12 -3 20 0 20 6 0 7 -6 11 -12 10 -20 -3 -78 13 -78 21 0 4 -11 12
-24 18 -16 7 -25 22 -29 46 -3 20 -13 43 -21 52 -9 8 -16 29 -16 45 0 23 -4
29 -22 30 -13 0 -17 3 -10 6 6 2 12 13 12 24 0 13 -6 18 -21 16 -23 -2 -35 13
-44 56 -4 21 -13 29 -35 34 -34 6 -41 33 -9 33 31 0 20 31 -16 43 -16 6 -36
16 -43 24 -7 7 -24 13 -38 13 -34 0 -30 16 7 24 35 7 35 33 -1 28 -13 -2 -20
1 -16 6 11 19 -4 40 -26 34 -17 -4 -19 -1 -14 16 5 15 1 27 -13 39 -12 10 -21
27 -21 40 0 12 -7 28 -15 37 -8 8 -15 21 -15 29 0 8 -7 20 -15 27 -9 7 -13 21
-10 30 4 14 -2 19 -30 24 -31 6 -51 26 -25 26 14 0 31 37 24 54 -9 23 -24 20
-24 -4 0 -11 -7 -20 -15 -20 -12 0 -13 4 -3 26 10 22 10 28 -5 39 -9 7 -17 19
-17 28 0 26 -18 29 -22 5 -3 -16 -7 -8 -15 27 -7 31 -8 51 -2 53 16 6 -1 22
-24 22 -21 1 -21 1 -3 15 10 7 15 19 11 25 -5 8 -11 8 -21 -1 -18 -15 -18 -48
1 -55 17 -7 21 -44 5 -44 -5 0 -10 5 -10 11 0 6 -6 16 -13 24 -11 11 -16 7
-26 -21 -7 -19 -17 -34 -22 -34 -6 0 -17 -15 -25 -32 -8 -18 -22 -45 -32 -60
-9 -14 -35 -56 -57 -93 -22 -37 -48 -79 -57 -94 -10 -14 -21 -32 -24 -40 -4
-7 -30 -52 -57 -100 -74 -126 -105 -183 -121 -223 -14 -34 -14 -38 18 -101 18
-37 39 -75 48 -84 8 -10 18 -25 22 -33 4 -8 12 -24 19 -35 78 -130 104 -175
117 -200 8 -16 32 -54 53 -84 20 -30 37 -61 37 -68 0 -8 3 -12 8 -10 4 3 8 -9
9 -26 2 -20 13 -42 30 -58 33 -31 47 -51 72 -104 10 -22 35 -64 55 -94 20 -29
36 -57 36 -62 0 -5 19 -37 43 -72 24 -34 50 -77 58 -94 8 -18 17 -33 20 -33 4
0 19 -24 33 -52 15 -29 47 -84 72 -123 25 -38 49 -79 55 -90 27 -54 98 -157
116 -168 7 -4 13 -17 13 -28 0 -15 5 -19 19 -14 15 5 18 1 13 -20 -2 -15 0
-25 7 -25 6 0 11 -9 11 -19 0 -11 15 -28 35 -41 29 -18 34 -26 29 -47 -6 -22
-4 -24 15 -18 21 6 22 4 19 -27 -3 -31 -1 -33 30 -36 17 -2 32 -7 32 -13 0 -5
-4 -9 -10 -9 -5 0 -10 -4 -10 -10 0 -5 9 -10 20 -10 21 0 45 -34 35 -50 -3 -5
0 -7 8 -4 8 3 17 -2 20 -10 4 -9 2 -16 -3 -16 -22 0 -8 -22 19 -31 19 -7 28
-15 24 -25 -3 -7 2 -16 10 -20 8 -3 21 -19 27 -35 13 -30 24 -36 35 -19 3 6
11 10 17 10 6 0 6 -6 -2 -15 -10 -12 -10 -19 -2 -27 7 -7 12 -20 12 -29 0 -24
15 -32 32 -17 14 14 42 17 54 5 12 -12 21 -8 27 13 5 21 46 27 82 14 14 -6 13
-8 -5 -21 -11 -8 -29 -11 -40 -8 -15 5 -20 2 -20 -14 0 -29 15 -34 35 -11 9
10 23 16 30 14 7 -3 19 2 28 10 9 9 23 16 31 16 18 0 21 16 6 25 -15 9 -2 25
16 18 8 -3 24 3 36 13 12 11 18 14 15 7 -4 -6 -3 -14 2 -17 5 -4 14 9 20 27
12 35 49 73 59 61 4 -4 1 -9 -5 -11 -15 -5 -17 -33 -3 -33 6 0 10 7 10 15 0 7
8 19 18 24 16 10 16 10 0 11 -14 0 -18 8 -18 34 0 29 4 34 30 40 22 4 30 11
30 26 0 12 -4 18 -10 15 -5 -3 -10 -13 -10 -21 0 -8 -4 -14 -10 -14 -12 0 -24
45 -16 65 3 8 2 15 -2 15 -5 0 -18 18 -30 40 -11 22 -17 40 -11 40 5 0 9 -5 9
-11 0 -5 5 -7 11 -4 15 10 -19 33 -58 41 -18 3 -33 11 -33 16 0 6 6 8 14 5 8
-3 20 0 26 8 6 8 18 11 25 8 19 -7 32 44 16 60 -9 9 -14 8 -21 -3 -8 -12 -10
-9 -10 13 0 19 5 27 18 28 10 0 12 3 5 6 -22 8 -14 23 12 23 20 0 25 5 25 25
0 14 -4 25 -9 25 -5 0 -12 8 -15 18 -2 9 -4 4 -3 -13 2 -29 0 -30 -45 -33 -38
-2 -48 0 -48 12 0 9 7 16 15 16 18 0 21 65 4 76 -7 4 -9 23 -6 48 3 22 3 35 0
29 -7 -20 -23 -15 -23 7 0 11 -6 20 -14 20 -8 0 -20 15 -26 34 -7 23 -20 38
-38 45 -24 8 -25 10 -5 10 12 1 25 6 28 11 4 6 11 8 16 5 8 -5 11 8 8 31 0 4
12 15 28 26 l28 19 -30 -7 c-16 -4 -32 -8 -34 -10 -2 -2 -12 1 -22 7 -15 7
-19 6 -19 -5 0 -8 10 -16 23 -18 21 -3 28 -24 7 -22 -5 1 -24 2 -41 3 -31 1
-31 1 -15 26 20 30 20 40 1 58 -21 22 -30 67 -14 68 8 1 20 2 28 3 28 2 23 26
-6 27 -27 2 -27 2 -3 6 44 8 47 23 4 23 -35 1 -37 2 -18 13 18 11 19 14 6 37
-13 23 -13 23 -9 3 4 -20 1 -23 -23 -23 -33 0 -43 10 -29 30 7 13 9 12 9 -2 0
-10 5 -18 10 -18 12 0 13 20 1 39 -6 9 -6 22 1 34 18 34 -3 33 -31 -2 -16 -20
-33 -31 -39 -27 -18 11 -14 24 8 31 16 5 19 12 14 32 -4 16 -2 28 7 34 11 8
11 11 -5 20 -10 6 -26 19 -36 29 -21 21 -30 16 -31 -14 -1 -12 -6 -1 -13 24
-13 47 -28 57 -94 59 -18 1 -31 5 -27 10 10 17 -16 23 -45 11 -16 -7 -37 -9
-46 -6 -28 11 -9 18 58 22 35 2 97 8 138 13 152 17 140 21 191 -65 24 -42 54
-93 67 -113 13 -20 25 -44 29 -53 3 -10 8 -18 12 -18 4 0 15 -17 26 -37 11
-21 32 -56 46 -78 15 -22 35 -56 45 -75 11 -19 36 -62 57 -95 54 -85 205 -332
235 -384 13 -25 29 -50 34 -55 17 -21 138 -227 138 -236 0 -4 4 -10 8 -12 5
-2 23 -30 42 -63 18 -33 37 -62 40 -65 5 -4 22 -31 85 -139 6 -9 25 -40 43
-67 17 -28 32 -53 32 -56 0 -6 -1239 -16 -2895 -24 -649 -3 -1189 -7 -1201 -9
-11 -3 -27 -17 -34 -32 -8 -16 -24 -44 -36 -63 -12 -19 -95 -161 -184 -315
-215 -369 -207 -356 -360 -615 -73 -124 -142 -243 -155 -265 -12 -22 -75 -130
-140 -240 -65 -110 -133 -225 -150 -255 -147 -254 -194 -334 -230 -395 -24
-38 -52 -86 -63 -105 -41 -72 -92 -160 -192 -330 -57 -96 -149 -254 -205 -350
-56 -96 -153 -260 -215 -365 -62 -104 -134 -227 -161 -273 l-48 -82 18 -88
c38 -178 38 -181 -10 -258 -179 -292 -257 -424 -310 -529 -23 -44 -45 -82 -49
-85 -16 -11 -170 -292 -170 -310 0 -12 7 -21 18 -21 9 -1 28 -3 42 -5 14 -2
108 -6 210 -8 171 -5 563 -19 890 -33 74 -4 178 -7 230 -9 52 -1 150 -4 217
-7 67 -2 124 0 125 4 2 4 21 4 43 -1 23 -5 128 -12 235 -15 241 -7 368 -13
378 -17 12 -6 125 -1 162 6 25 6 31 5 20 -3 -11 -7 5 -9 55 -5 39 2 77 4 85 4
8 0 42 -1 75 -1 54 -1 57 -2 28 -11 l-33 -9 -2 -182 c-1 -100 -2 -195 -3 -212
-6 -107 -6 -110 -14 -90 -8 18 -15 20 -65 15 -64 -6 -60 -1 -130 -150 l-35
-75 -5 -360 c-3 -198 -9 -499 -12 -670 -7 -341 -7 -352 -1 -608 3 -98 9 -182
13 -187 5 -4 63 -11 130 -14 156 -7 162 -3 229 130 l49 99 6 200 5 199 25 7
c25 7 25 7 2 8 -13 1 -22 6 -20 13 2 6 30 12 67 14 34 1 66 5 69 9 4 4 8 208
10 453 2 468 5 518 25 505 20 -13 121 -3 133 13 13 16 34 19 34 3 0 -5 4 -8 9
-5 5 3 22 -1 38 -9 16 -8 55 -17 88 -21 33 -3 66 -11 73 -17 11 -9 12 -81 7
-386 -4 -207 -8 -556 -10 -776 -2 -356 -1 -401 13 -411 20 -15 238 -19 274 -5
14 5 30 23 38 43 26 66 51 124 64 148 9 16 16 82 21 190 4 110 11 175 21 194
12 26 12 32 -2 53 -26 40 -12 52 63 55 l68 3 7 45 c3 25 7 151 7 280 1 129 4
312 8 405 l6 170 46 0 46 0 55 110 c51 104 54 115 58 201 6 130 2 135 -101
133 -47 -1 -85 -6 -89 -13 -4 -6 -8 46 -8 117 0 82 4 127 10 127 6 0 10 -6 8
-13 -4 -17 -2 -17 102 -17 71 0 90 3 90 14 0 19 34 29 74 22 54 -10 63 6 71
125 l7 106 -30 22 c-28 19 -43 21 -188 21 -86 0 -154 3 -150 7 3 4 74 6 156 5
122 -1 153 2 165 14 14 14 19 29 16 47 0 4 2 7 7 7 11 0 34 58 28 69 -3 5 1 8
10 7 9 0 24 14 35 33 10 19 23 39 29 45 5 5 10 18 10 27 0 9 6 22 14 28 8 7
22 26 31 44 9 18 24 44 33 58 9 15 37 60 61 100 24 41 57 95 73 120 15 25 28
53 28 62 0 9 6 20 13 24 6 4 19 22 27 38 8 17 18 32 21 35 10 9 39 73 39 87 0
7 7 13 15 13 8 0 15 7 15 16 0 14 43 98 78 152 8 12 12 33 10 47 -4 19 -1 24
15 22 12 -1 22 6 28 21 8 21 6 23 -19 20 -19 -2 -27 2 -27 12 0 10 8 14 23 13
13 -2 35 4 50 13 15 8 19 13 9 10 -10 -3 -39 -6 -63 -6 -39 0 -45 -3 -40 -17
3 -10 1 -25 -4 -33 -9 -13 -12 -12 -25 4 -19 25 -19 46 0 46 8 0 15 4 15 9 0
4 -11 6 -25 3 -15 -2 -25 -11 -25 -22 0 -18 -29 -49 -31 -34 -11 76 25 195 76
252 16 19 36 55 44 80 9 28 16 40 18 30 4 -14 7 -15 18 -5 7 6 11 15 8 20 -6
10 19 77 27 72 4 -2 16 2 26 10 11 8 14 14 7 15 -21 0 -15 27 7 33 11 3 20 12
20 21 0 8 9 33 21 55 11 22 18 45 14 51 -3 5 -2 10 4 10 5 0 12 -6 15 -12 3
-7 5 -4 4 7 -3 27 61 155 92 185 9 9 30 44 40 68 5 13 15 20 21 17 6 -4 9 -1
8 6 -2 8 5 29 14 47 10 18 16 36 13 40 -2 4 2 13 10 20 11 10 13 8 10 -15 -2
-16 -1 -21 1 -13 13 39 36 79 44 74 5 -3 9 0 9 5 0 6 -5 11 -11 11 -6 0 -9 6
-6 13 2 6 12 12 23 12 15 0 19 7 17 30 -2 20 1 25 6 16 7 -11 10 -11 17 0 4 7
3 14 -4 17 -7 2 -9 8 -6 13 4 6 11 6 19 -1 9 -8 15 -8 20 0 4 6 1 9 -6 8 -7
-2 -15 6 -17 17 -2 11 -1 17 3 13 4 -4 16 2 28 13 11 10 27 19 34 19 7 0 13 5
13 11 0 6 -9 8 -22 4 -20 -5 -21 -4 -7 7 9 7 14 18 12 24 -5 15 23 37 37 29
13 -8 13 -45 -1 -45 -18 0 -4 -23 15 -26 16 -2 31 9 62 48 6 8 14 26 18 42 4
16 13 35 21 42 8 8 12 21 9 29 -4 9 0 15 10 15 18 0 40 36 31 50 -3 6 1 10 9
10 9 0 16 7 16 15 0 8 5 15 11 15 6 0 8 9 4 22 -6 17 -4 20 9 15 10 -4 15 -3
12 2 -3 4 15 39 41 77 26 38 63 100 84 139 39 72 59 91 59 56 0 -12 5 -21 10
-21 18 0 10 -55 -10 -73 -25 -21 -26 -43 -1 -50 25 -6 31 0 31 30 0 13 6 23
14 23 8 0 31 28 51 62 61 105 107 183 142 238 13 19 37 62 54 95 28 53 68 121
107 181 6 10 16 29 22 42 21 49 90 93 90 58 0 -18 102 -218 120 -236 3 -3 12
-18 20 -35 8 -16 25 -47 38 -68 23 -38 47 -81 84 -147 34 -62 127 -215 138
-227 5 -7 10 -15 10 -19 0 -4 11 -21 24 -38 13 -17 33 -58 45 -92 13 -33 32
-72 44 -85 29 -33 67 -87 67 -95 0 -4 10 -21 23 -38 13 -17 27 -38 30 -46 4
-8 16 -28 27 -45 11 -16 23 -37 27 -45 4 -8 21 -36 39 -61 18 -25 43 -65 56
-89 12 -23 28 -50 33 -59 6 -9 21 -34 34 -56 13 -22 29 -44 35 -50 16 -14 106
-151 136 -208 15 -27 40 -64 56 -84 16 -19 28 -40 26 -46 -2 -6 1 -13 5 -16 5
-3 16 -19 26 -34 10 -15 22 -25 27 -22 4 3 6 -4 3 -15 -3 -11 -1 -20 5 -20 5
0 15 -13 22 -30 7 -17 19 -30 27 -30 9 0 13 -6 9 -15 -3 -9 0 -15 8 -15 19 0
49 -37 43 -54 -3 -8 9 -29 29 -50 19 -19 34 -44 34 -56 0 -11 5 -20 11 -20 6
0 8 -7 5 -15 -3 -9 1 -18 8 -21 8 -3 16 -14 19 -25 3 -11 11 -18 19 -17 9 2
12 -6 11 -26 -2 -23 3 -30 27 -39 22 -8 28 -16 24 -29 -3 -11 0 -18 8 -18 7 0
21 -18 31 -40 10 -22 25 -40 33 -40 8 0 14 -8 14 -17 0 -10 16 -36 35 -58 20
-22 38 -51 42 -65 3 -14 11 -29 17 -35 6 -5 22 -32 36 -59 14 -26 31 -50 37
-53 7 -3 10 -9 7 -15 -3 -5 4 -19 16 -30 12 -11 19 -26 16 -34 -3 -8 1 -14 8
-14 7 0 18 -11 24 -25 6 -14 16 -25 22 -25 5 0 10 -6 10 -14 0 -7 14 -30 30
-51 17 -21 30 -43 30 -50 0 -7 7 -18 15 -25 8 -7 12 -16 9 -21 -3 -5 0 -9 5
-9 6 0 11 -5 11 -10 0 -6 17 -26 38 -44 21 -19 51 -59 66 -88 15 -29 56 -93
91 -143 36 -49 65 -94 65 -98 0 -7 37 -64 50 -77 3 -3 10 -14 16 -25 17 -31
64 -41 198 -41 l123 1 7 -196 c3 -117 2 -206 -3 -220 -5 -13 -10 -18 -10 -11
-1 6 -13 12 -28 12 -22 0 -25 -2 -13 -10 11 -7 6 -8 -16 -4 -39 7 -43 1 -88
-120 l-36 -99 1 -386 c0 -212 4 -560 7 -773 7 -372 8 -388 27 -402 18 -13 18
-17 7 -37 -12 -19 -12 -21 1 -16 8 3 19 1 25 -5 6 -6 12 -6 16 1 4 6 0 11 -8
11 -26 0 -18 27 10 34 14 4 58 9 97 12 48 3 76 9 83 19 20 27 37 18 31 -15 -7
-35 17 -44 26 -10 6 23 27 27 27 6 0 -7 9 -16 20 -19 11 -3 20 -1 20 4 0 5 7
9 15 9 17 0 17 14 15 272 -1 102 2 148 10 153 19 11 90 15 91 4 1 -5 2 -13 3
-18 0 -5 5 -13 10 -18 5 -5 6 170 2 417 -21 1432 -21 1443 1 1432 11 -6 35 -9
54 -7 105 13 406 8 415 -6 2 -5 -12 -25 -33 -46 -48 -48 -108 -161 -129 -244
-21 -83 -13 -204 21 -305 32 -97 32 -119 0 -79 -13 17 -31 38 -39 47 -10 11
-11 18 -4 20 7 3 9 12 5 22 -6 14 -9 15 -20 4 -37 -39 -49 -71 -42 -114 3 -24
11 -44 16 -44 6 0 8 -4 4 -10 -8 -12 5 -60 16 -60 5 0 9 14 9 30 0 37 15 39
34 3 9 -16 16 -21 16 -13 1 28 17 -11 24 -61 7 -45 32 -79 60 -79 8 0 17 6 19
13 4 9 8 9 15 -2 5 -7 15 -10 21 -7 6 4 11 1 11 -6 1 -9 4 -8 13 3 11 15 21
13 102 -21 50 -20 150 -59 223 -85 72 -27 132 -54 132 -60 0 -5 19 -19 42 -30
74 -35 120 -105 108 -162 -4 -18 -4 -33 1 -33 5 0 9 -7 9 -15 0 -9 -6 -12 -15
-9 -8 4 -15 2 -15 -4 0 -6 5 -12 12 -14 8 -3 8 -9 1 -22 -10 -18 -11 -18 -32
3 -14 14 -21 17 -21 7 0 -8 7 -16 15 -20 20 -7 19 -36 -1 -36 -8 0 -13 -4 -10
-9 8 -13 -31 -44 -45 -35 -8 4 -10 3 -5 -4 9 -15 -56 -33 -66 -18 -4 6 -12 5
-22 -3 -13 -11 -16 -11 -16 2 0 8 12 18 27 21 24 7 25 9 11 23 -16 15 -43 10
-33 -7 3 -4 -2 -13 -10 -20 -12 -10 -15 -9 -15 8 0 12 -4 24 -10 27 -5 3 -10
-1 -10 -9 0 -9 -4 -16 -10 -16 -18 0 -11 25 11 38 12 8 32 11 50 7 21 -5 29
-3 29 7 0 9 -9 14 -22 14 -15 -1 -27 7 -33 21 -5 13 -14 22 -20 20 -5 -1 -27
8 -48 20 -26 16 -37 29 -37 45 1 21 2 22 14 6 7 -10 21 -18 30 -18 9 0 16 -7
16 -15 0 -8 5 -15 10 -15 6 0 10 7 10 15 0 8 -4 15 -10 15 -22 0 -8 17 25 30
19 8 35 17 35 22 0 11 -14 10 -27 -3 -13 -13 -36 -2 -27 12 3 6 16 15 28 20
18 8 17 9 -7 4 -16 -3 -39 -18 -53 -33 l-24 -27 7 48 c6 46 5 47 -21 47 -27 0
-35 15 -13 23 6 3 0 6 -15 6 -16 1 -28 5 -28 11 0 5 7 6 17 3 10 -4 14 -2 10
5 -4 6 -24 16 -45 23 -47 16 -124 57 -138 75 -6 8 -16 14 -22 14 -5 0 -12 7
-15 14 -3 8 -23 18 -44 22 -20 4 -44 13 -51 21 -9 9 -27 12 -50 8 -21 -3 -31
-2 -24 1 18 8 15 35 -3 28 -10 -4 -15 0 -15 12 0 14 -3 15 -12 6 -7 -7 -15
-12 -20 -12 -10 0 -64 53 -71 71 -3 8 -6 4 -8 -11 -1 -14 -4 -43 -6 -65 -2
-22 -4 -49 -4 -59 0 -11 -9 -32 -20 -48 -12 -16 -15 -28 -9 -28 7 0 9 -8 5
-21 -4 -11 -8 -64 -10 -117 -4 -107 10 -166 51 -217 l23 -29 -5 80 -5 79 26
-85 c14 -46 37 -106 50 -132 22 -43 23 -54 15 -105 -6 -32 -10 -59 -10 -60 0
-2 -29 -3 -64 -3 -36 0 -68 -5 -71 -10 -3 -6 2 -10 12 -10 14 0 15 -2 5 -9 -8
-4 -13 -11 -13 -15 1 -3 1 -9 0 -13 -5 -37 4 -400 10 -408 5 -5 11 -25 14 -42
5 -27 3 -33 -11 -33 -10 -1 -5 -6 13 -14 17 -7 38 -28 48 -45 16 -28 16 -32 3
-37 -9 -3 -13 -10 -10 -15 3 -5 15 -4 27 2 15 9 22 9 25 1 2 -6 9 -9 16 -6 8
3 16 -4 19 -15 3 -14 0 -21 -9 -21 -8 0 -14 5 -14 10 0 6 -9 10 -20 10 -11 0
-20 -4 -20 -10 0 -5 7 -10 15 -10 8 0 15 -4 15 -10 0 -5 13 -10 29 -10 25 0
68 -29 45 -30 -5 0 -1 -5 9 -11 23 -13 85 27 68 44 -13 13 -14 27 -3 27 12 0
42 -78 36 -95 -4 -11 0 -15 16 -15 19 0 20 2 10 15 -10 12 -10 15 4 15 9 0 16
-6 16 -14 0 -7 10 -16 23 -20 31 -8 37 -7 37 4 0 6 -12 10 -26 10 -16 0 -24 5
-22 13 7 19 38 21 52 2 7 -10 31 -18 66 -20 33 -3 47 -1 36 4 -14 5 -16 10 -8
15 7 4 12 5 12 3 0 -2 20 -1 45 3 42 6 61 -2 33 -13 -7 -3 -2 -6 12 -6 25 -1
52 11 51 23 0 3 2 13 5 21 9 22 27 18 21 -5 -6 -24 18 -28 27 -5 3 8 13 15 23
15 10 1 29 7 43 15 29 16 19 20 -11 4 -19 -10 -59 -4 -59 9 0 4 20 8 44 9 59
2 86 17 87 51 2 23 2 24 6 4 5 -27 14 -28 31 -2 7 11 21 20 33 20 11 0 18 4
14 10 -3 5 5 16 17 24 64 43 109 142 161 356 29 117 36 239 13 217 -8 -6 -12
-15 -10 -18 4 -7 -73 -29 -101 -29 -12 0 -9 6 11 23 75 60 152 147 177 198 35
76 46 129 47 226 0 136 -29 233 -104 344 -23 34 -36 66 -36 86 0 43 -26 141
-50 188 -11 22 -20 45 -20 51 0 7 -9 15 -19 19 -13 4 -17 12 -14 25 4 16 14
20 44 20 32 0 42 5 50 24 9 18 21 25 56 29 25 3 50 11 55 18 5 8 7 50 5 94 -7
130 -75 272 -176 370 -23 21 -41 42 -41 46 0 7 92 20 158 22 30 1 42 6 42 17
1 12 4 11 15 -4 19 -25 33 -11 16 15 -20 33 -4 35 27 3 21 -21 39 -30 69 -32
23 -1 44 2 48 8 3 5 12 10 18 10 7 0 6 -4 -3 -10 -10 -7 8 -9 60 -5 41 2 82 0
90 -5 12 -7 15 -47 18 -209 l4 -201 -42 0 c-54 0 -67 -14 -75 -83 -4 -32 -12
-57 -17 -57 -7 0 -8 -16 -5 -40 3 -23 1 -40 -5 -40 -5 0 -8 -17 -6 -37 3 -36
5 -38 43 -44 22 -3 34 -7 28 -8 -25 -2 -13 -19 17 -23 21 -3 30 0 30 9 0 8 -4
12 -9 8 -5 -3 -12 -1 -16 5 -3 5 -2 10 4 10 6 0 8 7 5 15 -4 8 -2 15 4 15 6 0
8 23 6 56 -3 41 0 54 9 51 16 -5 14 -214 -2 -230 -9 -9 -14 -9 -19 0 -5 8 -12
2 -21 -18 -8 -19 -18 -28 -27 -25 -8 3 -14 -1 -14 -9 0 -9 10 -15 24 -15 14 0
28 -4 31 -10 9 -15 22 -12 29 6 4 9 2 13 -5 8 -7 -4 -10 1 -7 11 1 10 8 20 14
22 8 3 12 -46 13 -172 1 -143 -2 -175 -13 -175 -7 0 -20 -7 -27 -16 -11 -14
-11 -18 1 -28 16 -12 23 -46 10 -46 -5 0 -11 6 -13 13 -4 9 -6 9 -6 0 -1 -7
-6 -13 -12 -13 -8 0 -10 12 -6 35 5 32 4 35 -19 35 -22 0 -24 4 -24 48 -1 41
-2 45 -13 27 -16 -27 -21 -423 -6 -442 8 -9 8 -13 0 -13 -15 0 -14 -27 2 -33
9 -3 9 -7 -1 -19 -16 -20 -10 -740 7 -746 5 -2 8 -9 5 -17 -3 -8 -1 -22 4 -31
9 -16 24 -18 119 -15 59 1 119 4 133 6 14 2 33 4 42 4 16 1 50 60 46 79 -1 4
1 14 4 22 32 83 40 151 38 314 -1 94 -2 179 -1 189 1 13 10 17 45 17 53 0 56
5 57 103 2 118 -6 112 139 113 69 0 190 2 269 3 78 1 144 1 146 -1 1 -2 6
-163 10 -358 8 -340 10 -416 13 -441 3 -18 310 -6 328 13 8 7 24 56 36 108 17
77 22 128 22 267 1 94 4 174 8 178 4 4 22 10 40 14 l33 7 0 319 c0 176 -4 586
-8 910 -8 522 -11 591 -25 602 -11 9 -57 13 -144 13 -79 0 -128 4 -128 10 0 6
28 10 65 10 55 0 65 3 65 18 1 16 1 16 11 -1 7 -13 14 -15 23 -8 7 6 26 7 51
1 21 -5 42 -7 46 -5 3 3 55 7 115 11 60 3 111 8 113 10 2 2 10 -1 18 -7 8 -7
13 -7 13 -2 0 6 12 9 28 7 25 -2 26 -2 9 11 -12 9 -17 20 -13 33 4 13 2 20 -6
19 -31 -1 -48 4 -48 13 0 6 9 10 20 10 26 0 25 12 -1 28 -16 11 -18 16 -9 28
7 8 19 14 26 14 8 0 14 4 14 9 0 12 77 6 94 -9 9 -6 20 -9 25 -6 5 4 12 2 16
-3 3 -6 -4 -15 -15 -21 -11 -6 -20 -18 -20 -27 0 -12 3 -13 14 -4 15 12 30 0
31 -24 0 -5 6 -10 14 -10 8 0 16 -6 18 -12 7 -19 -52 -16 -93 3 -30 14 -35 14
-49 1 -18 -19 -19 -25 -2 -42 10 -9 18 -10 32 -3 10 6 43 8 76 5 41 -5 59 -3
62 6 3 9 7 9 18 0 18 -14 164 -12 179 3 11 11 25 59 76 269 19 77 43 169 53
205 27 90 91 370 91 396 0 12 -16 41 -34 65 l-35 43 -69 1 c-41 0 -75 5 -85
13 -11 10 -17 10 -22 1 -6 -8 -10 -7 -16 2 -8 12 -12 11 -22 -3 -7 -9 -24 -16
-37 -16 -80 -1 -240 -11 -248 -16 -6 -4 -14 -1 -18 5 -5 9 -10 7 -19 -4 -10
-15 -20 -16 -65 -7 -72 14 -127 13 -134 -2 -5 -10 -7 -10 -12 0 -3 6 -17 12
-30 12 -13 0 -23 5 -22 12 2 6 -5 14 -14 16 -13 2 -18 -3 -18 -17 0 -15 -6
-21 -21 -21 -17 0 -19 4 -13 22 6 21 5 21 -10 9 -12 -10 -47 -14 -120 -15 -86
0 -106 3 -121 17 -9 10 -20 15 -23 12 -4 -3 0 -10 7 -14 9 -6 2 -10 -20 -14
-19 -3 -38 -1 -44 4 -5 5 -24 9 -42 9 -18 0 -33 5 -33 10 0 19 -43 10 -65 -15
-18 -19 -24 -21 -29 -10 -3 8 -12 15 -21 15 -8 0 -15 6 -15 14 0 8 -5 18 -12
22 -8 5 -9 0 -6 -14 8 -30 -16 -29 -53 2 l-28 24 127 1 c70 1 197 3 282 6 85
2 357 6 605 10 247 3 451 8 454 10 2 3 23 5 45 5 56 0 86 10 86 26 0 8 -6 14
-12 14 -7 0 -3 6 8 14 18 13 20 23 16 71 -3 42 -1 55 8 53 8 -2 21 17 31 44
l18 46 -78 129 c-43 70 -123 202 -179 293 -55 91 -152 251 -215 355 -63 105
-165 273 -227 375 -62 102 -125 205 -140 230 -15 25 -85 140 -155 255 -70 116
-231 381 -358 590 -126 209 -273 452 -327 540 -234 385 -279 460 -383 635 -61
102 -123 205 -140 229 l-30 44 -401 -7 c-221 -4 -646 -11 -946 -16 -1327 -24
-2665 -39 -2801 -32 l-65 4 4 29 c2 16 8 29 13 29 5 0 9 6 9 13 0 6 11 25 25
41 14 16 25 37 25 48 0 10 7 18 15 18 8 0 16 8 16 18 1 9 2 29 3 44 1 16 7 33
13 39 9 9 11 6 7 -12 -4 -19 -1 -17 13 9 9 17 20 32 25 32 4 0 5 7 2 15 -4 8
-1 15 5 15 7 0 9 9 6 23 -4 16 0 29 14 41 24 22 28 15 5 -8 -8 -9 -11 -16 -5
-16 15 0 34 39 27 56 -3 8 3 19 13 26 11 6 17 18 14 25 -3 7 0 13 6 13 6 0 8
6 5 14 -7 19 16 32 27 15 6 -9 9 -10 9 -2 0 6 -4 14 -9 18 -6 3 -3 18 7 34 9
16 20 27 24 25 5 -3 8 4 8 16 0 12 4 19 9 16 5 -3 12 1 15 10 3 8 2 12 -4 9
-19 -12 -10 9 18 38 15 17 20 27 12 23 -13 -7 -13 -6 0 6 8 7 25 35 38 61 14
30 26 45 34 41 6 -4 8 -3 4 4 -3 6 5 22 20 37 14 14 23 32 20 40 -3 8 -1 17 3
20 5 2 18 24 30 47 38 76 93 172 107 186 8 7 14 20 14 28 0 8 7 14 16 14 10 0
14 5 10 15 -8 22 14 54 33 48 13 -4 13 -3 2 5 -11 8 -10 15 5 41 10 17 25 31
34 32 10 0 11 2 2 6 -14 5 6 44 127 250 36 61 93 159 126 216 33 58 64 102 69
99 5 -3 6 0 2 7 -4 7 11 43 37 84 24 40 60 101 80 137 19 36 65 114 101 174
36 60 66 110 66 112 0 2 15 27 33 56 18 29 41 69 51 88 41 82 49 96 66 115 10
11 26 40 36 65 10 25 26 56 36 69 10 13 18 30 18 37 0 17 16 18 24 2 3 -7 4
-4 1 7 -3 11 3 34 11 50 57 105 81 140 92 138 5 -1 8 6 5 16 -2 10 2 25 11 33
8 8 25 37 39 64 34 70 65 124 93 161 13 17 24 37 24 43 0 7 8 24 19 38 10 15
40 65 66 112 26 47 52 87 56 91 5 3 12 25 15 50 6 44 3 48 -255 478 -144 238
-269 445 -279 460 -9 14 -22 35 -29 46 -43 75 -234 392 -268 445 -42 66 -168
275 -503 835 -102 171 -192 321 -200 335 -34 54 -326 537 -343 567 -10 18 -29
49 -42 70 -13 21 -57 94 -97 163 -144 248 -152 260 -170 260 -10 0 -27 -12
-38 -27z m73 -7653 c4 -16 10 -30 15 -30 13 0 129 -183 175 -275 22 -44 43
-81 48 -83 4 -2 7 -8 7 -12 0 -5 13 -28 29 -52 25 -37 125 -205 183 -307 10
-18 26 -40 34 -49 8 -8 13 -20 11 -26 -3 -7 8 -27 24 -45 16 -19 26 -37 23
-42 -7 -13 -34 -11 -34 2 0 5 -5 7 -10 4 -6 -4 -8 -11 -5 -16 8 -12 -6 -11
-25 1 -12 7 -11 12 5 31 20 22 20 22 -2 15 -12 -4 -24 -2 -28 4 -3 6 -11 8
-16 5 -5 -4 -9 -1 -9 6 0 6 -15 25 -32 41 -18 16 -41 36 -50 45 -10 9 -21 31
-24 50 -6 31 -18 47 -37 48 -8 0 -27 30 -52 83 -17 35 -46 54 -53 34 -6 -18
-22 -4 -22 19 0 11 4 17 10 14 6 -4 6 2 0 17 -6 13 -13 31 -16 40 -4 10 -15
16 -28 15 -14 -1 -22 4 -24 19 -2 13 -16 26 -37 34 -34 13 -40 24 -37 63 1 9
-5 17 -13 17 -11 0 -14 -30 -15 -172 -2 -231 -3 -255 -14 -265 -5 -5 -7 -1 -3
9 3 10 3 19 -1 22 -5 3 -7 38 -5 79 1 41 -4 99 -11 128 -8 29 -11 62 -7 73 4
12 2 41 -5 66 -10 37 -21 49 -14 15 1 -5 -2 -7 -5 -3 -4 4 -9 24 -11 45 -7 61
-7 63 -15 63 -10 0 -19 -27 -20 -58 0 -18 -3 -22 -7 -12 -8 17 -42 26 -42 11
0 -5 5 -13 10 -16 14 -8 13 -45 -1 -45 -6 0 -8 7 -5 16 5 13 2 15 -14 11 -17
-4 -19 -1 -14 21 l5 27 -21 -24 -21 -24 28 -19 28 -19 -30 3 c-24 2 -30 -1
-35 -22 -4 -18 -8 -21 -14 -12 -11 18 0 56 29 103 14 21 25 42 25 47 0 5 9 17
19 26 15 13 20 14 25 4 3 -7 3 -3 0 9 -3 12 -1 30 5 40 5 10 19 41 31 68 34
79 54 115 62 115 5 0 8 6 8 13 0 14 19 37 31 37 4 0 10 -13 14 -30z m1011
-1667 c10 -21 22 -40 25 -43 4 -3 17 -25 29 -50 12 -25 26 -47 30 -50 26 -19
33 -80 9 -80 -5 0 -9 -6 -9 -12 1 -7 9 -3 20 10 l19 23 16 -31 c9 -17 13 -40
10 -50 -4 -14 -2 -18 7 -15 16 6 63 -59 53 -74 -3 -6 0 -11 8 -11 20 0 46 -52
29 -57 -6 -3 -10 -9 -7 -13 3 -5 12 -7 19 -4 18 7 58 -58 53 -88 -2 -13 -2
-17 0 -10 6 15 23 16 23 0 0 -6 6 -19 14 -27 19 -21 31 -81 17 -81 -6 0 -11 5
-11 10 0 6 -5 10 -10 10 -6 0 -5 -8 2 -20 7 -10 10 -22 7 -25 -11 -11 -39 7
-39 25 0 10 -6 21 -12 24 -10 5 -10 7 0 12 10 5 10 11 -3 31 -9 14 -14 35 -11
47 5 19 4 20 -8 4 -16 -22 -30 -24 -23 -3 4 8 1 17 -4 21 -8 4 -8 9 0 17 7 7
15 6 26 -3 18 -15 19 -2 2 21 -7 10 -25 16 -42 15 -22 -1 -30 3 -30 17 0 10
-6 21 -13 26 -9 5 -12 21 -8 48 4 36 2 40 -26 51 -16 6 -32 20 -35 31 -3 12
-10 21 -15 21 -13 0 -38 26 -38 39 0 6 -5 11 -11 11 -5 0 -7 4 -4 10 3 5 -1
20 -9 32 -9 12 -16 30 -16 40 0 10 -7 18 -15 18 -18 0 -20 21 -2 40 10 12 9
12 -5 1 -13 -10 -18 -10 -18 -2 0 7 -5 9 -11 5 -8 -4 -9 0 -4 15 3 11 2 21 -3
21 -5 0 -12 9 -15 20 -4 17 -2 18 14 9 13 -6 19 -6 19 1 0 5 -5 10 -11 10 -6
0 -8 7 -5 16 5 12 1 14 -16 8 -20 -6 -21 -5 -9 10 19 23 26 20 47 -21z m409
-680 c12 -29 15 -67 5 -73 -4 -3 -2 -16 6 -30 l15 -25 -4 25 c-3 14 -2 34 2
44 8 20 8 20 14 0 4 -10 15 -32 26 -49 21 -33 27 -60 11 -50 -7 4 -9 -5 -5
-26 6 -35 15 -52 15 -29 0 9 5 7 15 -6 13 -18 14 -18 15 -1 0 10 5 15 10 12 6
-4 8 -15 5 -26 -4 -13 -2 -17 7 -14 8 3 21 -9 33 -32 21 -38 21 -40 25 -83 1
-14 4 -19 7 -12 10 24 25 12 18 -15 -5 -23 -4 -25 9 -14 14 11 16 11 18 -5 0
-11 0 -28 0 -39 -2 -16 0 -17 7 -5 6 8 11 12 13 10 17 -23 58 -91 58 -96 0 -3
14 -26 31 -51 16 -25 28 -52 24 -60 -3 -10 -1 -13 8 -10 8 3 21 -8 31 -28 19
-35 15 -58 -9 -48 -9 3 -22 0 -29 -6 -12 -10 -13 -8 -9 8 3 12 9 21 14 21 5 0
9 8 9 17 0 16 -1 16 -12 0 -10 -12 -17 -14 -28 -6 -11 8 -12 12 -2 16 19 7 14
23 -8 23 -13 0 -18 5 -14 15 5 11 2 13 -10 9 -22 -9 -20 13 3 28 10 6 17 18
14 25 -8 20 -20 16 -27 -9 -6 -23 -7 -23 -21 -4 -8 11 -15 26 -15 33 0 16 -22
17 -38 1 -8 -8 -12 -9 -12 -1 0 6 5 13 12 15 8 3 7 14 -5 38 -21 41 -21 39 6
34 l22 -5 -22 10 c-13 6 -23 15 -23 21 0 6 -5 8 -11 4 -8 -4 -7 -9 2 -16 11
-8 11 -9 -1 -5 -8 2 -15 10 -16 18 0 8 -4 22 -9 32 -4 10 -5 21 -1 24 3 3 -3
13 -15 21 -15 10 -19 21 -15 40 6 27 -18 72 -30 59 -4 -3 1 -14 10 -23 9 -9
15 -21 13 -28 -5 -16 -30 -14 -34 4 -4 13 -3 13 6 0 6 -8 11 -11 11 -6 0 5
-14 21 -30 36 -27 24 -29 29 -15 40 19 16 20 31 1 24 -8 -3 -25 5 -37 17 -22
22 -22 23 -3 30 10 4 13 8 7 8 -7 1 -13 9 -13 18 0 9 -3 13 -7 10 -7 -8 -39
34 -35 46 1 4 -3 7 -9 7 -6 0 -8 8 -5 18 4 11 -1 23 -13 31 -18 13 -18 16 -4
38 18 28 28 29 38 6z m-4405 -2025 c0 -12 47 -58 59 -58 5 0 11 10 15 22 4 17
8 20 17 11 6 -6 17 -9 25 -6 8 3 16 -5 20 -21 7 -28 44 -37 44 -11 0 18 16 20
26 3 4 -7 2 -14 -6 -16 -9 -3 -6 -10 11 -23 20 -15 22 -20 11 -31 -11 -11 -16
-9 -29 7 -15 19 -15 19 -8 -10 l7 -30 -26 28 c-20 22 -27 24 -33 13 -5 -8 -19
-19 -33 -25 -14 -5 -19 -10 -12 -10 21 -1 13 -21 -9 -21 -13 0 -23 -8 -26 -20
-4 -16 -8 -18 -19 -9 -8 7 -31 13 -51 15 -20 2 -44 11 -52 19 -15 15 -13 16
24 11 22 -3 32 -3 23 0 -10 3 -18 12 -18 20 0 19 -35 18 -55 -2 -15 -15 -17
-15 -30 2 -13 17 -16 17 -25 4 -9 -13 -11 -13 -19 -1 -8 12 -12 12 -25 2 -14
-12 -16 -10 -16 7 0 26 -18 38 -33 23 -8 -8 -8 -14 1 -23 19 -19 14 -25 -18
-20 -22 3 -28 8 -21 16 6 6 7 17 3 24 -11 17 -82 -6 -82 -27 -1 -14 -2 -14
-14 2 -7 9 -22 17 -33 17 -10 0 -24 5 -30 11 -7 7 -20 8 -34 3 -13 -4 -28 -8
-34 -9 -5 0 -9 -6 -7 -13 1 -7 -5 -12 -13 -12 -8 0 -13 6 -11 13 3 6 7 24 10
40 7 28 26 38 26 12 0 -17 26 -20 35 -4 4 6 -1 16 -11 24 -15 11 -16 16 -7 26
10 10 14 9 19 -4 3 -9 10 -14 15 -11 19 11 30 -8 12 -21 -15 -11 -11 -14 39
-20 37 -5 63 -3 75 4 15 10 13 11 -14 6 -23 -5 -38 -2 -48 9 -19 19 -19 46 0
46 8 0 15 5 15 10 0 6 7 10 15 10 8 0 15 -4 15 -10 0 -5 6 -10 13 -10 8 0 18
-10 24 -22 l10 -23 12 23 c16 30 28 28 36 -8 4 -16 11 -30 16 -30 5 0 7 11 3
25 -8 33 20 65 55 64 23 -2 23 -2 4 -6 -21 -4 -41 -38 -29 -50 3 -4 6 2 6 12
0 15 6 17 40 12 24 -3 41 -1 44 7 3 8 7 7 14 -3 6 -8 15 -10 23 -5 8 5 21 9
29 9 8 0 16 6 16 13 2 22 4 23 14 17 6 -3 10 -11 10 -17z m8260 -279 c0 -5 -9
-9 -19 -9 -11 0 -23 -5 -27 -12 -5 -7 -7 -109 -6 -228 2 -131 -1 -210 -6 -201
-5 7 -7 22 -5 32 7 24 -16 33 -49 20 -21 -8 -28 -22 -43 -78 -9 -37 -20 -113
-24 -168 l-6 -100 -269 2 c-147 0 -272 5 -277 10 -10 10 -25 648 -16 684 6 24
8 25 129 27 153 3 511 21 516 26 8 9 102 4 102 -5z m-9017 -65 c63 1 77 -1 77
-14 2 -61 13 -191 19 -220 l7 -35 197 -3 197 -2 0 -95 0 -95 -67 5 c-124 9
-468 14 -480 7 -13 -9 -79 -133 -87 -167 -4 -14 -10 -25 -16 -25 -13 0 0 633
13 642 6 4 18 1 26 -5 12 -10 13 -8 8 11 -5 22 -4 22 11 9 12 -10 39 -14 95
-13z m7128 -291 c56 -29 102 -84 114 -136 4 -15 10 -25 15 -22 10 6 25 -74 15
-83 -3 -3 -10 -1 -14 6 -5 9 -11 4 -20 -14 -11 -25 -10 -26 4 -14 18 15 20 14
28 -21 7 -27 -15 -70 -29 -56 -4 4 1 13 11 21 10 7 15 18 11 25 -6 9 -12 7
-21 -6 -13 -17 -14 -17 -23 7 -8 21 -11 14 -17 -47 -8 -76 -19 -96 -23 -41 -3
35 -7 43 -25 43 -7 1 -11 6 -9 13 1 7 -9 12 -23 12 -26 0 -35 26 -16 46 15 16
18 94 4 94 -7 0 -13 6 -13 13 0 23 -40 57 -66 57 -16 0 -28 8 -34 23 -8 21
-11 20 -14 -5 0 -6 -6 -13 -12 -15 -7 -2 -10 5 -7 21 3 13 0 32 -5 42 -9 16
-11 13 -17 -20 -8 -42 -11 -44 -80 -48 -48 -4 -50 -5 -48 -33 l2 -30 -11 33
c-9 26 -8 40 7 72 10 21 20 38 24 37 3 -1 19 7 34 17 25 17 94 30 178 35 14 0
50 -11 80 -26z m-7625 -840 c-4 -329 -10 -600 -12 -602 -2 -2 -4 50 -4 117 0
66 -3 123 -7 125 -5 3 -7 -47 -5 -111 l3 -117 -25 -1 c-25 -2 -26 1 -26 47 0
27 -4 49 -10 49 -5 0 -10 11 -10 25 0 14 5 25 12 25 6 0 3 9 -7 20 -18 20 -18
20 -39 -5 -33 -38 -38 -30 -14 20 12 25 29 45 37 45 13 0 13 2 2 9 -7 5 -22 6
-32 4 -10 -3 -19 0 -19 6 0 6 9 11 19 11 26 0 51 10 51 21 0 5 -12 6 -26 3
-18 -5 -25 -3 -23 7 4 24 -13 99 -22 99 -12 0 -11 28 1 32 11 4 16 223 6 256
-5 14 -3 29 4 38 7 8 12 40 11 74 -1 45 3 62 13 66 13 5 13 8 -2 24 -9 9 -24
20 -32 23 -10 4 -7 6 8 6 12 1 22 -3 22 -9 0 -5 5 -10 10 -10 16 0 12 30 -5
36 -13 5 -13 9 -3 22 10 12 10 14 1 8 -17 -10 -16 12 1 46 13 25 13 29 -1 37
-14 7 -13 10 7 21 22 12 22 14 6 25 -15 12 -14 15 14 44 18 17 35 31 38 31 12
0 33 -40 27 -50 -4 -6 1 -10 9 -10 18 0 21 16 6 25 -14 9 -13 33 3 50 6 8 14
14 16 15 2 0 0 -269 -3 -597z m9334 82 c0 -10 -10 -15 -27 -16 -38 0 -167 -7
-293 -16 -58 -3 -130 -6 -160 -7 -30 0 -58 -5 -62 -11 -4 -5 -8 7 -8 28 l0 37
275 0 c238 0 275 -2 275 -15z m-2150 -754 c64 -41 154 -76 228 -87 41 -6 44
-9 39 -33 -3 -14 -13 -43 -21 -63 -13 -31 -21 -38 -44 -38 -92 0 -216 92 -251
186 -21 55 -25 74 -16 74 2 0 32 -18 65 -39z m-7244 -407 c3 -19 15 -39 25
-45 22 -11 25 -34 6 -46 -21 -13 -40 -65 -26 -73 16 -10 -1 -18 -31 -15 -14 2
-28 4 -32 4 -5 1 -8 7 -8 14 -1 6 -9 30 -20 52 -20 40 -26 101 -12 120 11 16
55 32 74 27 10 -2 20 -18 24 -38z"/>
<path d="M13295 5370 l-130 -5 -3 -167 -2 -168 -24 0 c-25 0 -25 1 -68 -120
l-23 -65 3 -805 c2 -443 7 -866 10 -940 l7 -135 148 0 c175 0 162 -9 207 136
28 91 30 107 30 257 l0 160 31 7 31 7 -7 381 c-16 994 -26 1440 -30 1447 -8
13 -45 15 -180 10z"/>
<path d="M5445 5353 c-87 -12 -216 -70 -284 -129 -58 -50 -116 -142 -142 -223
-26 -82 -28 -219 -5 -307 9 -34 16 -65 16 -69 0 -15 -19 7 -35 41 -16 33 -18
34 -31 17 -7 -10 -14 -26 -14 -36 0 -10 -4 -16 -9 -13 -10 6 -100 -170 -146
-284 -33 -82 -54 -192 -48 -261 12 -154 96 -304 213 -379 49 -32 50 -32 44
-74 -4 -22 -12 -52 -18 -66 -11 -24 -16 -25 -96 -25 -84 0 -85 0 -99 -30 -40
-82 -91 -220 -91 -245 0 -44 20 -129 43 -185 36 -88 133 -204 171 -205 12 0
16 -5 13 -14 -7 -17 22 -30 46 -21 8 4 18 2 22 -4 3 -6 1 -11 -4 -11 -6 0 -11
-5 -11 -11 0 -6 7 -9 15 -5 9 3 15 0 15 -9 0 -8 12 -18 28 -21 15 -4 32 -11
38 -15 6 -5 38 -7 72 -5 46 3 62 0 62 -9 0 -16 34 -9 50 10 6 7 20 11 30 8 11
-3 20 0 20 6 0 6 -4 11 -10 11 -5 0 -10 7 -10 15 0 24 19 17 32 -11 9 -20 9
-27 -2 -34 -11 -7 -10 -9 1 -13 8 -2 2 -3 -13 -1 -19 2 -26 -1 -22 -10 3 -7
-7 -18 -22 -25 -51 -23 -154 -103 -201 -156 -151 -170 -236 -441 -233 -750 1
-95 16 -260 25 -276 3 -4 -4 -9 -15 -12 -11 -3 -20 -10 -20 -16 0 -8 6 -9 19
-2 15 9 20 7 25 -12 3 -12 6 -32 6 -44 0 -12 5 -23 10 -25 6 -2 11 -21 13 -43
1 -22 6 -43 11 -46 12 -9 17 -81 5 -73 -5 3 -9 16 -9 29 0 13 -4 27 -10 30 -6
4 -7 -6 -3 -27 3 -18 10 -34 15 -36 4 -2 8 -15 8 -30 0 -14 -3 -22 -7 -18 -10
9 -33 78 -33 97 0 13 -8 16 -35 14 -39 -2 -41 0 -20 21 8 9 15 11 15 5 0 -17
37 -13 44 5 11 28 5 40 -6 14 l-11 -25 -5 23 c-3 19 -6 21 -18 11 -11 -9 -14
-8 -14 9 0 20 25 36 41 26 5 -3 9 -1 9 4 0 10 -49 26 -56 19 -2 -2 -5 -17 -8
-33 -5 -42 -16 -64 -32 -64 -8 0 -14 -4 -14 -10 0 -5 7 -10 16 -10 11 0 14 -6
8 -22 -3 -13 -10 -24 -13 -26 -4 -1 -5 -20 -3 -42 4 -34 0 -43 -28 -68 -28
-26 -30 -33 -21 -51 9 -16 9 -21 -1 -21 -9 0 -9 -3 0 -12 7 -7 12 -16 12 -20
0 -11 -37 -10 -44 1 -13 20 -15 85 -4 99 9 10 9 15 -2 22 -12 7 -12 11 0 25
12 14 12 18 -1 25 -11 7 -14 34 -14 114 0 58 -3 97 -8 88 -9 -22 -2 46 9 72 5
14 3 17 -7 14 -18 -6 -55 -151 -67 -266 -12 -107 -6 -288 13 -402 45 -269 182
-493 374 -607 108 -65 171 -84 298 -90 125 -7 170 1 271 49 107 50 186 116
265 219 28 37 67 116 60 123 -4 3 -2 6 4 6 13 0 27 32 84 193 57 163 83 262
73 278 -3 6 -2 14 3 18 6 3 13 23 16 45 l6 39 -35 -42 c-20 -22 -42 -41 -49
-41 -7 0 -15 -6 -18 -12 -2 -7 -8 -10 -12 -6 -4 4 20 38 54 75 132 144 193
315 226 624 5 46 9 56 23 53 9 -1 69 -5 132 -8 63 -3 116 -5 116 -6 14 -4 31
-132 25 -185 -5 -52 -11 -1315 -6 -1362 5 -46 11 -63 23 -67 31 -9 283 -9 291
0 4 5 30 59 57 119 l48 110 6 210 c3 116 9 217 14 226 4 10 3 20 -3 24 -6 3
-11 19 -11 34 0 28 2 29 63 33 39 3 65 1 70 -6 5 -6 7 185 5 424 l-3 435 55 5
c53 5 55 6 77 50 13 25 23 51 23 58 0 6 5 12 10 12 6 0 10 6 10 14 0 7 11 39
25 70 27 62 32 114 13 135 -10 11 -10 13 0 7 9 -5 12 6 12 43 0 27 -4 52 -9
55 -23 15 -176 24 -188 12 -4 -3 -9 -23 -13 -43 -5 -27 -9 2 -14 100 -6 103
-5 149 4 184 12 39 15 43 25 29 10 -13 26 -16 88 -12 47 2 84 10 99 20 14 10
43 16 79 16 50 0 57 3 63 23 10 36 7 215 -4 222 -9 5 -761 20 -785 15 -5 -1
-77 -4 -158 -7 l-148 -4 -10 -26 c-13 -35 3 -236 21 -258 11 -14 39 -15 197
-13 141 2 182 6 178 16 -2 6 0 12 4 12 17 0 23 -102 15 -229 -5 -69 -10 -110
-13 -91 l-4 35 -7 -30 c-7 -26 -8 -24 -9 18 0 26 -5 47 -9 47 -5 0 -7 -13 -4
-30 3 -18 0 -30 -7 -30 -6 0 -11 5 -11 10 0 6 -11 10 -25 10 -14 0 -25 5 -25
11 0 6 -7 8 -16 5 -9 -4 -13 -2 -8 5 4 8 -1 9 -16 4 -15 -5 -20 -4 -16 4 8 12
14 12 -217 17 -153 3 -158 2 -166 -18 -6 -16 -14 -3 -39 68 -109 303 -386 500
-678 482 -40 -3 -71 -1 -68 4 3 4 21 8 40 8 19 0 34 5 34 10 0 16 -76 12 -90
-5 -19 -23 -50 -19 -50 6 0 11 5 17 10 14 6 -3 10 -1 10 4 0 6 20 16 44 23 49
13 52 33 4 22 -30 -6 -30 -6 -15 16 23 32 54 52 62 39 4 -5 -1 -16 -10 -23
-16 -11 -15 -13 6 -28 15 -9 32 -12 44 -8 11 4 25 5 31 3 18 -7 39 26 26 39
-17 17 -15 38 3 38 12 0 15 -10 13 -47 -1 -27 -6 -54 -11 -60 -11 -15 -30 -7
-21 8 7 13 -19 7 -28 -6 -13 -17 -9 -23 18 -29 19 -5 30 -2 38 10 10 13 17 14
32 6 16 -10 17 -11 2 -12 -9 0 -20 -5 -24 -11 -4 -8 1 -9 17 -4 13 4 28 14 32
21 4 8 14 14 22 14 13 0 9 40 -6 50 -7 5 -12 42 -10 68 1 6 10 12 21 12 11 0
20 -6 20 -12 0 -9 4 -8 10 2 5 8 10 11 10 5 1 -20 20 21 20 43 0 12 5 22 10
22 6 0 10 12 10 27 0 15 4 23 8 17 12 -12 32 -86 32 -113 0 -14 5 -21 13 -18
6 2 12 10 12 18 0 8 8 17 18 21 24 10 33 38 16 50 -11 8 -10 9 3 4 18 -5 43
39 111 206 35 83 61 308 36 308 -4 0 -20 -10 -36 -23 -21 -17 -36 -22 -58 -17
-30 5 -29 6 45 55 115 76 160 128 190 216 13 41 27 77 30 81 3 4 5 -149 5
-340 0 -314 2 -352 19 -401 25 -73 83 -129 126 -123 30 4 38 -6 20 -24 -7 -7
-1 -9 19 -6 20 3 28 8 24 18 -3 8 1 14 10 14 8 0 18 -11 21 -25 4 -14 14 -25
23 -25 9 0 22 -8 29 -17 7 -10 14 -13 14 -7 0 13 -34 50 -52 57 -21 7 -6 15
37 19 56 6 84 23 78 48 -3 11 0 20 6 20 6 0 13 -12 17 -27 14 -67 15 -67 28
-42 7 14 8 27 3 30 -5 4 1 17 13 29 19 19 21 26 11 41 -6 11 -8 19 -4 19 16 0
30 -16 43 -48 11 -29 11 -35 -1 -42 -7 -5 -10 -12 -7 -15 17 -18 30 10 24 51
-5 41 6 60 18 32 3 -9 8 -8 16 5 6 10 23 17 40 17 32 0 48 16 31 33 -14 14
-14 37 -1 37 6 0 10 -7 10 -15 0 -20 12 -19 41 4 13 10 29 16 36 14 7 -3 22 5
35 16 24 23 38 27 38 11 0 -5 9 -10 20 -10 25 0 26 -17 3 -23 -11 -3 -8 -5 9
-6 19 -1 26 3 22 12 -3 8 2 20 11 27 27 22 50 -18 49 -83 -1 -30 4 -61 12 -71
14 -20 118 -49 145 -41 12 4 16 -2 16 -27 0 -18 -5 -39 -11 -47 -9 -11 -8 -13
4 -9 9 3 17 20 19 44 3 35 5 36 11 14 l7 -25 11 25 c6 14 11 21 11 16 1 -10
61 55 61 67 0 5 18 47 41 94 57 119 68 163 75 281 6 112 1 131 -24 109 -43
-37 -102 -45 -102 -14 0 11 20 24 149 99 61 35 87 75 108 167 16 69 18 140 17
799 0 616 -3 725 -15 733 -22 14 -263 11 -277 -3 -9 -9 -12 -80 -12 -260 l0
-248 -54 0 c-30 0 -61 -3 -70 -6 -8 -3 -34 -54 -58 -112 l-43 -107 4 -396 c2
-297 0 -398 -9 -404 -6 -4 -48 -7 -92 -7 -145 1 -231 67 -258 196 -7 33 -11
283 -13 694 -2 559 -4 644 -17 652 -24 15 -265 13 -278 -3 -8 -9 -13 -219 -18
-653 -4 -386 -11 -641 -17 -645 -5 -4 -5 -14 2 -27 15 -27 15 -75 0 -66 -7 4
-9 -1 -7 -12 2 -11 10 -18 16 -17 12 3 17 -35 15 -99 -1 -18 4 -28 13 -28 8 0
14 -6 14 -13 0 -8 6 -27 14 -43 35 -72 56 -124 56 -138 0 -8 6 -17 13 -19 10
-4 10 -6 0 -6 -7 -1 -13 -9 -13 -19 0 -30 -24 -71 -44 -76 -11 -3 -28 0 -39 6
-18 9 -17 11 14 27 33 15 33 16 9 19 -47 5 -70 12 -70 22 0 6 12 10 26 10 14
0 23 4 19 10 -3 6 -20 10 -36 10 -18 0 -28 4 -24 10 4 6 1 17 -5 25 -10 13 -8
15 16 15 28 1 28 1 8 13 -12 7 -19 18 -17 25 3 6 0 12 -6 12 -16 0 -13 26 4
40 14 12 13 15 -10 30 -23 15 -24 18 -10 30 12 10 15 10 15 -4 0 -11 9 -16 28
-16 l27 0 -25 13 c-14 7 -26 23 -28 35 -2 12 -10 22 -18 22 -17 0 -19 16 -2
26 6 4 14 2 16 -4 2 -7 11 -12 20 -12 15 1 15 2 0 11 -19 11 -25 39 -8 39 7 0
7 6 0 19 -7 14 -6 27 4 46 11 21 12 30 3 40 -7 7 -14 12 -17 10 -3 -1 -13 5
-23 15 -16 16 -16 18 -2 24 13 4 14 10 5 26 -6 11 -17 20 -25 20 -9 0 -15 11
-16 28 -1 20 -2 22 -6 7 -9 -36 -21 -37 -32 -3 -13 42 -15 104 -7 293 3 83 6
154 6 159 0 19 30 -18 30 -38 0 -17 2 -18 10 -6 5 8 10 27 10 42 0 15 5 30 12
34 7 5 5 11 -7 21 -18 13 -18 13 1 28 17 13 17 14 2 15 -10 0 -18 4 -18 10 0
5 13 7 30 4 19 -4 30 -2 30 5 0 6 -10 11 -22 11 -21 1 -22 2 -5 14 17 13 25
52 8 41 -6 -3 -10 3 -11 12 -2 51 -5 63 -17 59 -7 -3 -15 -1 -19 5 -8 13 -34
-8 -34 -27 0 -8 -4 -14 -8 -14 -5 0 -14 -15 -20 -32 -6 -18 -20 -59 -31 -90
-17 -50 -20 -87 -22 -307 -2 -138 -4 -249 -5 -248 -1 1 -14 34 -29 72 -33 82
-70 140 -136 210 -41 43 -99 145 -99 173 0 13 -61 87 -70 85 -4 -1 -7 5 -6 15
0 9 -9 21 -22 27 -12 5 -25 19 -29 30 -6 20 -6 20 -14 0 -7 -18 -8 -17 -8 6
-1 15 -7 26 -16 26 -8 0 -12 -4 -9 -9 7 -10 -47 -10 -64 1 -7 4 -14 19 -16 32
-1 14 -6 30 -10 37 -9 14 -46 16 -46 2 0 -5 -5 -10 -11 -10 -6 0 -9 6 -6 14 4
9 -4 16 -23 19 -47 10 -80 63 -50 82 6 3 10 12 10 18 0 7 -7 4 -15 -6 -9 -13
-20 -17 -33 -12 -15 4 -22 0 -27 -15 -10 -32 -34 -50 -66 -50 -25 0 -29 4 -29
26 0 14 8 38 19 52 10 15 22 37 25 50 4 12 11 20 16 17 5 -3 11 1 13 7 4 10 6
10 6 0 1 -8 7 -10 19 -5 26 13 52 10 63 -7 9 -13 10 -12 6 2 -5 13 3 18 33 23
73 12 163 -34 222 -115 20 -27 33 -37 38 -30 10 16 20 -24 20 -85 0 -27 4 -55
8 -61 8 -13 83 -24 112 -17 11 3 22 14 25 24 5 16 16 19 75 19 63 0 69 -2 72
-22 3 -18 7 -13 17 22 36 124 -38 339 -159 460 -71 72 -142 111 -244 135 -56
14 -189 18 -261 8z m-170 -1038 c39 -19 115 -51 170 -70 110 -39 130 -56 140
-121 7 -51 15 -55 125 -60 47 -1 88 -3 92 -4 24 -1 32 -170 8 -170 -4 0 -12
-11 -18 -25 -6 -14 -17 -25 -23 -25 -8 0 -6 7 4 18 23 26 22 46 -3 39 -11 -3
-18 -2 -15 3 8 13 -35 44 -107 75 -21 9 -40 25 -43 36 -5 15 -12 18 -32 13
-23 -6 -79 6 -128 27 -11 5 -44 17 -72 29 -49 18 -105 50 -144 82 -20 17 -66
89 -71 114 -5 24 18 74 35 74 6 0 44 -16 82 -35z m-19 -865 c63 -30 165 -60
203 -60 28 0 27 -17 -5 -93 -37 -90 -41 -93 -115 -79 -121 22 -217 139 -243
297 -1 6 -5 16 -9 23 -5 6 -5 17 -2 22 4 6 29 -9 58 -35 29 -25 80 -59 113
-75z m1328 87 c55 -43 160 -85 231 -93 62 -8 72 -16 56 -47 -6 -12 -21 -49
-33 -83 l-23 -61 -50 1 c-55 2 -98 21 -160 71 -44 35 -75 109 -75 176 0 26 -3
30 -10 19 -7 -11 -10 -7 -10 18 0 42 17 42 74 -1z m-877 -1148 c76 -68 117
-142 157 -283 37 -125 32 -161 -17 -148 -22 6 -22 6 2 12 l24 5 -27 32 c-15
18 -25 37 -21 43 4 6 3 9 -2 8 -5 -2 -25 9 -44 25 -77 62 -112 87 -121 87 -5
0 -27 9 -50 20 -39 19 -60 24 -134 34 -17 2 -41 9 -53 15 -19 11 -20 13 -6 35
11 16 13 30 7 47 -9 23 -9 23 -16 -8 -4 -18 -12 -33 -17 -33 -5 0 -6 12 -3 28
7 24 6 26 -9 13 -10 -7 -17 -19 -17 -27 0 -7 -5 -25 -12 -39 -9 -21 -18 -25
-42 -23 -16 2 -31 9 -33 15 -3 7 19 35 47 64 40 40 54 48 64 39 10 -8 15 -8
18 0 2 6 14 12 27 13 14 1 27 10 32 24 7 19 16 22 76 25 124 5 141 3 170 -23z
m1029 -706 c-8 -19 -36 -16 -37 5 -1 16 -2 16 -6 0 -5 -21 -19 -24 -26 -5 -2
6 -8 9 -12 5 -4 -4 0 -14 9 -23 9 -9 16 -26 15 -38 0 -12 -3 -17 -5 -11 -3 6
-16 9 -29 6 -20 -3 -27 1 -35 23 -13 34 -5 45 14 19 8 -10 18 -16 22 -11 4 4
2 7 -4 7 -7 0 -12 7 -12 15 0 8 -4 15 -9 15 -18 0 -23 54 -7 66 19 13 21 25 4
21 -9 -1 -12 11 -10 41 2 24 -2 50 -8 58 -10 11 -10 14 0 14 8 0 11 21 8 73
-2 58 0 72 12 73 8 1 29 3 45 4 17 1 24 4 18 7 -7 2 -13 9 -13 14 0 11 23 7
32 -6 5 -6 8 -5 8 3 0 7 5 10 10 7 6 -4 11 8 12 27 2 18 4 -64 5 -182 2 -118
1 -220 -1 -227z m-840 130 c-2 -82 -5 -161 -5 -178 -2 -71 -66 -259 -84 -248
-6 4 -8 0 -5 -9 7 -16 -37 -75 -45 -61 -2 4 -3 27 -2 51 0 25 -4 47 -12 54
-17 14 -16 37 2 44 10 4 13 14 9 30 -4 14 -2 24 4 24 6 0 8 9 5 20 -3 11 4 34
16 52 11 18 21 26 21 18 0 -10 3 -11 11 -3 6 6 18 9 26 6 13 -5 13 -2 3 16 -9
18 -14 20 -26 10 -11 -9 -14 -8 -14 5 0 10 4 15 9 11 6 -3 14 2 19 11 6 11 12
13 16 6 4 -6 13 -9 21 -5 19 7 19 52 0 59 -12 5 -12 8 3 23 10 9 16 15 13 14
-7 -4 -31 19 -31 29 0 6 7 8 15 5 18 -7 30 9 13 17 -10 5 -10 7 0 12 22 10 14
61 -13 82 -30 24 -32 36 -5 29 13 -3 20 0 20 9 0 8 5 14 11 14 7 0 8 -48 5
-147z m-511 -112 c62 -27 107 -66 152 -131 50 -72 72 -118 89 -193 8 -34 20
-81 26 -105 10 -39 9 -46 -10 -65 -29 -29 -140 -36 -196 -13 -139 58 -234 201
-272 406 -22 125 -28 116 76 119 72 2 99 -2 135 -18z m-290 -667 c93 -92 221
-153 385 -185 36 -7 66 -14 68 -15 6 -4 -57 -124 -73 -141 -10 -9 -41 -17 -80
-21 -55 -4 -72 -1 -118 22 -101 49 -183 150 -236 289 -6 15 -15 27 -20 27 -5
0 -7 10 -4 23 4 18 3 19 -7 7 -9 -12 -10 -10 -4 10 4 14 7 33 6 44 -1 20 6 15
83 -60z"/>
<path d="M7940 5351 l-105 -6 -2 -230 c-1 -126 -2 -242 -2 -257 -1 -27 -3 -28
-50 -28 -74 0 -95 -12 -115 -64 -10 -25 -15 -50 -12 -55 3 -5 0 -11 -8 -14
-24 -9 -36 -105 -32 -252 3 -77 7 -419 11 -760 3 -341 8 -638 12 -660 3 -22
13 -45 22 -52 13 -10 13 -14 3 -21 -7 -5 -12 -13 -11 -18 1 -5 -2 -18 -6 -28
-6 -14 -3 -23 11 -34 13 -10 15 -16 7 -19 -18 -7 -16 -23 2 -23 8 0 15 -8 14
-17 0 -11 -3 -13 -6 -5 -6 16 -23 16 -23 -1 0 -28 40 -37 168 -38 136 0 172 5
172 27 0 8 4 14 9 14 5 0 8 -8 7 -17 -1 -13 7 -18 29 -19 103 -3 104 -4 35
-27 -328 -110 -510 -440 -511 -927 0 -61 -4 -110 -8 -110 -4 0 -6 23 -3 50 3
37 1 50 -9 50 -10 0 -10 3 -1 12 7 7 12 21 11 33 -1 32 -51 -78 -88 -195 -18
-58 -37 -115 -42 -128 -12 -30 -11 -45 1 -37 6 3 10 -1 10 -10 0 -11 -5 -15
-14 -12 -9 4 -15 -5 -19 -29 -3 -19 -12 -41 -21 -49 -35 -36 -42 -464 -10
-665 8 -47 42 -135 76 -193 15 -26 28 -50 28 -53 0 -9 85 -116 126 -160 22
-22 68 -61 104 -86 158 -109 338 -134 528 -72 96 31 123 45 209 113 131 104
204 220 272 439 67 213 117 443 92 428 -6 -4 -11 -12 -11 -17 0 -14 -56 -69
-69 -69 -6 0 -11 -4 -11 -10 0 -5 -9 -10 -19 -10 -15 0 -10 10 26 47 103 111
161 223 209 407 26 102 33 120 30 79 -1 -29 0 -51 3 -49 3 2 6 -303 6 -677 1
-375 4 -694 8 -709 l7 -28 134 0 c160 0 165 3 196 105 47 153 49 167 51 403
l2 232 26 2 c29 2 52 5 64 8 4 1 13 3 20 4 8 1 13 23 15 64 3 65 15 81 27 35
5 -20 38 -63 49 -63 7 0 -2 90 -9 90 -5 1 1 8 15 16 14 8 17 13 8 10 -13 -4
-17 1 -17 22 -1 15 -1 85 -2 156 0 83 -4 125 -10 115 -7 -12 -9 -11 -9 4 0 9
5 17 10 17 6 0 10 4 10 9 0 21 -55 -6 -60 -30 l-6 -24 -7 25 c-3 14 -7 232 -8
485 -1 253 -2 493 -3 534 -1 88 -17 81 184 84 129 2 150 0 191 -19 86 -40 168
-138 152 -181 -4 -11 -2 -14 5 -9 15 9 15 -79 1 -109 -7 -15 -8 -10 -4 17 3
22 2 38 -4 38 -5 0 -9 -19 -9 -42 0 -63 -1 -68 -13 -68 -5 0 -7 5 -4 10 3 6
-1 10 -9 10 -11 0 -16 10 -16 31 0 20 -4 28 -11 23 -8 -5 -10 2 -6 22 5 30
-13 53 -45 54 -10 0 -19 11 -23 29 -5 24 -12 30 -38 33 -18 2 -45 -3 -60 -10
-30 -14 -52 -8 -28 7 9 6 1 8 -20 6 -19 -2 -62 -3 -97 -4 -43 -1 -61 -5 -60
-13 2 -7 -7 -14 -19 -16 -22 -3 -33 -22 -13 -22 14 0 12 -27 -2 -33 -10 -4
-10 -7 -1 -17 10 -11 14 -9 22 11 8 21 10 22 16 6 4 -9 2 -24 -4 -31 -8 -10
-8 -15 -1 -18 14 -4 -11 -58 -27 -58 -19 0 -16 17 5 29 15 10 15 11 -6 17 -12
4 -21 11 -20 18 2 6 -1 12 -6 14 -6 1 -11 -18 -12 -43 -2 -25 1 -45 6 -45 6 0
11 -12 11 -27 1 -18 3 -22 6 -10 9 35 43 -53 42 -108 l-1 -50 -13 40 c-11 32
-14 35 -14 15 -1 -18 -4 -21 -10 -12 -7 11 -10 10 -15 -3 -10 -26 -7 -123 4
-130 6 -3 10 -2 10 2 0 5 9 9 20 9 11 0 20 -3 20 -6 0 -3 8 -6 18 -7 9 -1 24
-3 32 -5 11 -2 14 4 12 25 -2 15 -1 27 3 27 16 0 30 -22 174 -270 23 -41 38
-136 19 -124 -3 2 -24 -3 -45 -12 -21 -9 -47 -20 -58 -24 -57 -21 -79 -33 -67
-37 16 -6 15 -28 -3 -43 -8 -7 -15 -22 -16 -34 0 -11 -2 -61 -4 -111 -2 -52
-8 -91 -14 -93 -6 -2 -8 -8 -5 -14 4 -5 7 -60 9 -121 1 -62 8 -130 14 -153 14
-53 123 -263 181 -349 15 -22 43 -69 62 -105 122 -224 97 -203 238 -196 63 3
142 5 175 6 33 0 66 4 73 9 7 4 29 61 48 125 l35 118 -43 71 c-24 39 -57 93
-75 121 -58 92 -83 138 -83 152 0 7 8 29 17 49 13 27 24 36 51 41 22 4 36 14
39 25 5 19 12 20 113 21 59 1 63 -1 57 -22 -4 -15 0 -20 15 -20 18 0 19 -4 13
-33 -16 -64 -9 -179 15 -247 44 -126 172 -265 300 -326 206 -98 518 -48 707
112 102 87 133 147 188 368 37 147 47 247 27 263 -10 8 -20 9 -33 2 -24 -12
-78 -8 -72 6 3 5 28 28 56 50 76 60 129 144 150 238 39 176 5 343 -99 489 -34
48 -40 63 -48 133 -6 49 -22 95 -34 95 -5 0 -8 12 -6 27 2 16 1 20 -2 11 -8
-25 -24 -22 -25 5 -1 21 -1 21 -9 -3 -5 -17 -8 -19 -9 -7 -1 21 -9 22 -32 1
-16 -14 -18 -13 -31 12 -16 34 -38 43 -38 16 0 -15 -7 -19 -32 -20 -18 0 -38
-8 -44 -16 -16 -22 -24 -20 -21 6 2 12 12 25 23 29 16 6 14 8 -8 8 -24 1 -28
5 -28 31 0 28 -3 30 -35 30 -30 0 -35 3 -35 24 0 14 5 28 10 31 6 3 10 24 10
46 0 21 5 39 10 39 6 0 10 11 10 25 0 29 -36 48 -113 59 -53 8 -51 6 -35 75
11 48 13 51 42 51 75 -1 180 -93 208 -182 6 -21 15 -35 21 -31 6 4 8 0 4 -10
-3 -9 -2 -19 2 -21 5 -3 7 -16 5 -28 -6 -34 19 -59 58 -59 63 0 143 16 144 29
1 6 2 17 3 22 0 6 19 10 41 10 29 0 42 5 50 19 27 51 -7 223 -66 326 -63 111
-152 190 -269 236 -54 21 -76 24 -205 23 -164 0 -226 -15 -329 -81 -195 -124
-279 -381 -201 -614 25 -72 16 -110 -12 -53 -10 20 -18 44 -18 51 0 30 -20 9
-48 -49 -22 -46 -27 -67 -19 -79 7 -11 6 -28 -1 -55 l-12 -39 5 43 c3 23 3 42
0 42 -8 0 -34 -68 -44 -118 -5 -26 -18 -76 -27 -112 -11 -42 -17 -102 -17
-170 0 -122 14 -167 82 -260 42 -57 71 -80 56 -43 -4 10 -9 38 -12 63 -5 51
10 38 22 -20 4 -19 23 -66 43 -105 21 -42 37 -89 39 -119 2 -27 8 -56 12 -65
5 -9 12 -43 15 -76 3 -34 2 -49 -2 -35 -8 25 -8 25 -14 3 -7 -26 -28 -31 -28
-8 0 8 -4 15 -10 15 -5 0 -12 10 -15 23 -9 33 -52 60 -105 65 l-47 4 -16 -43
c-9 -24 -20 -57 -26 -74 -9 -28 -9 -29 -10 -5 -1 26 -37 90 -222 392 -60 98
-109 188 -109 200 1 13 7 48 14 78 7 30 14 90 15 133 l2 79 -33 -24 c-31 -23
-78 -27 -78 -8 0 5 15 18 34 29 89 56 166 180 185 301 14 84 14 220 0 296 -30
170 -116 297 -244 362 -106 53 -126 55 -510 59 -198 3 -382 1 -410 -4 l-50 -8
-3 -260 c-1 -143 -4 -266 -7 -273 -3 -7 -10 -10 -15 -7 -8 5 -8 11 0 20 17 21
-76 17 -94 -4 -16 -19 -76 -173 -76 -197 0 -36 -10 -4 -34 108 -13 63 -35 143
-49 177 -94 233 -284 397 -511 441 -66 14 -60 30 12 30 33 0 42 4 43 18 0 9 3
12 5 6 12 -28 204 50 204 83 0 9 6 13 14 10 7 -3 20 2 29 11 8 10 27 28 41 41
15 13 25 29 23 35 -2 6 6 15 17 21 44 22 67 73 141 319 27 88 47 237 35 257
-4 5 -19 -1 -35 -15 -33 -28 -58 -37 -75 -26 -13 8 -14 7 65 69 198 154 251
498 109 708 -38 55 -66 79 -154 132 -68 41 -67 40 -52 50 40 25 116 99 137
135 38 64 58 167 51 257 -18 223 -125 377 -302 435 -40 13 -105 17 -339 19
-159 1 -337 -1 -395 -4z m544 -358 c42 -14 99 -54 128 -88 13 -15 18 -17 19
-5 0 8 5 2 10 -15 5 -16 6 -45 3 -62 -7 -36 -11 -37 -104 -6 -50 16 -244 37
-266 29 -24 -9 -26 17 -4 78 23 68 23 69 10 61 -5 -3 -10 -1 -10 5 0 31 129
33 214 3z m-745 -283 c4 0 15 -23 25 -51 10 -28 27 -56 37 -62 11 -7 19 -15
19 -20 0 -4 -4 -6 -8 -3 -4 2 -14 0 -22 -5 -13 -8 -13 -10 0 -18 8 -5 18 -7
22 -5 5 3 6 -7 2 -22 -5 -19 -4 -25 5 -20 13 9 12 22 16 -154 2 -80 0 -135 -3
-122 -9 29 -26 30 -30 2 -2 -11 -6 -18 -10 -16 -4 2 -5 -43 -2 -101 3 -58 2
-107 -3 -110 -4 -2 -5 -9 -1 -14 12 -20 10 -70 -3 -81 -15 -12 -17 -38 -3 -38
6 0 10 -9 10 -19 0 -10 6 -21 14 -24 10 -4 14 -19 12 -52 -1 -26 3 -50 9 -55
9 -8 11 2 7 40 -3 33 -1 50 7 50 8 0 11 -45 11 -147 0 -80 -2 -144 -5 -141 -3
2 -5 43 -6 91 -1 48 -5 84 -10 81 -5 -3 -9 -32 -9 -65 0 -35 -4 -59 -11 -59
-5 0 -7 -5 -4 -10 4 -6 11 -7 17 -4 6 4 1 -7 -12 -23 -17 -24 -20 -35 -11 -50
11 -21 -2 -43 -24 -43 -11 0 -29 -28 -38 -60 -2 -8 -10 4 -16 27 -6 23 -15 44
-20 47 -4 3 -9 117 -10 253 -5 388 -6 401 -13 408 -3 4 -2 21 3 38 6 22 6 39
-3 55 -9 17 -9 28 -1 41 7 11 8 23 2 32 -5 8 -7 30 -4 49 9 53 9 292 1 316 -4
14 -1 26 9 34 8 7 15 19 15 27 0 8 6 24 12 36 13 22 13 22 16 -5 2 -16 7 -28
11 -28z m511 -344 c28 -1 38 -17 39 -62 1 -31 2 -32 65 -39 37 -3 70 -13 77
-21 25 -30 -11 -124 -47 -124 -7 0 -25 -5 -39 -12 -19 -8 -22 -14 -13 -20 9
-6 10 -10 2 -15 -6 -5 -9 -19 -7 -33 6 -41 4 -65 -5 -68 -4 -1 -5 -26 -2 -55
4 -28 4 -54 0 -57 -4 -3 -9 -15 -12 -27 -5 -17 -1 -23 16 -26 11 -2 -5 -5 -36
-6 l-57 -1 0 33 c0 53 -4 68 -16 63 -13 -5 -25 182 -25 383 0 94 1 103 18 96
9 -4 28 -8 42 -9z m38 -932 c16 -5 22 -14 22 -35 0 -38 11 -36 31 4 16 31 17
32 93 35 85 3 106 -6 106 -45 0 -68 -69 -117 -181 -129 -64 -6 -68 -6 -84 20
-9 14 -18 37 -19 50 -2 33 -14 22 -38 -30 -19 -45 -23 -46 -93 -46 -51 0 -53
10 -15 97 10 22 21 50 24 63 7 20 14 22 69 22 34 0 72 -3 85 -6z m76 -1031
c43 -11 71 -27 94 -50 17 -19 32 -36 32 -39 0 -2 7 -12 16 -23 21 -24 92 -202
99 -250 6 -34 5 -35 -9 -17 -9 11 -16 16 -16 12 0 -5 -6 -3 -13 3 -8 6 -18 7
-22 3 -5 -4 -5 -1 -1 6 9 14 -54 77 -86 88 -10 3 -18 10 -18 15 0 5 -5 9 -11
9 -6 0 -27 7 -46 17 -19 9 -69 26 -111 38 -77 21 -77 21 -74 53 2 21 -1 32 -9
32 -10 0 -10 3 -1 12 7 7 12 22 12 35 0 13 4 23 9 23 5 0 7 -9 4 -20 -8 -30 3
-24 20 10 11 21 12 32 4 37 -7 4 -4 9 9 14 30 12 53 10 118 -8z m-193 -24
c-12 -46 -13 -54 -2 -39 5 8 13 11 17 7 9 -9 -16 -38 -27 -31 -5 3 -9 -4 -9
-15 0 -12 -4 -21 -9 -21 -9 0 -27 -38 -24 -50 1 -3 -17 -4 -39 -2 -22 3 -45
-1 -50 -6 -8 -8 -17 -8 -30 -1 -17 9 -17 11 1 47 23 45 63 83 116 110 43 23
62 23 56 1z m982 -566 c2 -194 0 -350 -5 -347 -4 3 -8 -4 -8 -15 0 -32 1 -36
11 -33 5 1 9 -2 9 -8 0 -5 -4 -10 -9 -10 -5 0 -9 -13 -9 -30 1 -16 5 -30 10
-30 4 0 8 -25 8 -56 0 -31 -4 -53 -9 -49 -5 3 -12 -5 -14 -17 -4 -20 -4 -19
-6 5 0 15 4 27 9 27 6 0 10 19 10 43 0 31 -3 38 -10 27 -7 -11 -10 0 -11 40
-1 37 -4 45 -7 25 -5 -30 -5 -30 -12 -5 -4 17 -12 24 -26 23 -14 -2 -12 0 6 9
35 17 36 18 20 28 -13 8 -12 10 3 10 19 0 23 26 7 50 -8 11 -9 7 -4 -14 5 -21
4 -27 -5 -22 -6 4 -11 19 -12 34 0 25 -1 26 -9 6 -5 -12 -14 -25 -20 -29 -8
-5 -8 -11 1 -21 18 -21 -7 -18 -28 4 -10 11 -26 22 -35 25 -10 4 -18 12 -17
19 0 10 2 10 6 1 10 -26 20 -11 23 35 2 26 2 95 1 155 -1 66 3 107 9 107 5 0
13 0 18 0 4 1 10 -16 13 -37 6 -37 6 -37 8 -6 1 24 5 31 16 27 9 -4 15 0 15
10 0 9 -5 16 -11 16 -7 0 -9 9 -6 21 3 12 -3 35 -14 52 -10 18 -19 35 -19 40
0 12 18 8 23 -5 2 -7 2 0 -1 17 -4 26 -3 28 12 16 14 -12 16 -11 16 5 0 14 3
15 9 6 18 -28 33 16 31 90 -2 83 0 138 5 123 2 -5 5 -168 8 -362z m1770 -50
c-4 -10 -2 -14 5 -10 6 4 13 -1 15 -10 3 -11 5 -7 6 10 1 33 11 32 105 -15 32
-16 106 -47 165 -68 165 -60 181 -68 181 -91 0 -14 5 -19 15 -16 8 4 36 -8 62
-26 57 -38 93 -101 93 -163 0 -81 -107 -193 -111 -116 l-2 27 -4 -27 c-4 -28
-17 -36 -27 -19 -4 5 -2 11 3 13 4 1 11 20 15 41 4 23 4 37 -2 33 -5 -3 -7 7
-5 22 3 18 2 23 -5 14 -13 -19 -36 11 -29 38 4 15 0 20 -15 20 -11 0 -18 5
-16 12 6 17 -23 48 -44 48 -10 0 -18 4 -18 9 0 5 -36 22 -80 37 -44 16 -80 32
-80 36 0 4 -7 5 -15 2 -8 -4 -15 -2 -15 2 0 5 -15 16 -32 23 -42 18 -88 50
-109 76 -46 56 -60 69 -55 53 3 -10 1 -20 -4 -23 -6 -4 -10 -1 -10 4 0 6 -5
11 -11 11 -6 0 -17 7 -26 15 -12 12 -12 19 -3 30 6 7 18 11 26 8 9 -3 14 1 14
12 0 9 4 14 10 10 5 -3 6 -13 3 -22z m-2756 -64 c58 -28 153 -117 153 -143 0
-5 11 -24 25 -42 14 -18 25 -42 25 -53 0 -12 5 -21 10 -21 6 0 10 -8 10 -17 0
-10 8 -48 17 -86 14 -52 21 -66 33 -62 8 3 2 -8 -15 -24 -36 -37 -139 -66
-193 -56 -121 23 -234 140 -286 297 -25 73 -52 205 -44 213 2 3 29 11 59 19
70 18 129 11 206 -25z m-340 -658 c99 -99 180 -145 311 -177 40 -9 74 -20 76
-23 7 -10 -38 -157 -53 -175 -19 -23 -95 -21 -146 4 -67 32 -168 140 -199 211
-8 19 -23 54 -34 79 -10 25 -25 69 -32 97 -6 29 -16 50 -21 47 -5 -3 -9 2 -9
10 0 29 18 17 107 -73z m3298 -205 c33 -8 77 -18 98 -21 27 -4 37 -10 34 -20
-3 -7 -11 -33 -18 -56 -16 -56 -26 -69 -55 -69 -57 0 -192 68 -193 97 -1 6
-10 14 -20 18 -12 4 -17 12 -14 24 3 10 0 22 -6 25 -6 4 -11 16 -11 27 0 11
-4 17 -10 14 -6 -4 -10 6 -10 23 l0 29 73 -38 c39 -21 99 -45 132 -53z"/>
<path d="M1268 5308 c-1 -2 -4 -93 -7 -202 l-6 -200 -55 3 -55 2 -62 -108
c-34 -59 -64 -124 -67 -143 -15 -98 -24 -1756 -10 -1770 10 -10 39 -13 225
-26 l97 -6 24 34 c14 18 42 67 63 108 21 41 43 81 49 89 6 8 11 75 12 170 1
86 5 166 9 177 10 32 105 49 105 19 0 -8 4 -15 9 -15 6 0 11 19 13 43 l3 42
13 -57 c8 -32 19 -64 26 -70 7 -7 18 -35 26 -63 7 -27 16 -54 20 -60 4 -5 10
-21 13 -35 10 -43 45 -36 68 13 11 23 37 71 60 107 51 82 143 268 192 386 21
49 49 103 62 120 21 26 25 28 40 13 13 -13 15 -45 14 -220 -5 -683 -4 -818 9
-831 17 -17 289 -29 315 -13 10 5 45 61 78 122 l59 113 0 173 c0 132 3 178 14
192 8 11 12 25 9 32 -3 8 2 13 12 13 11 0 15 -5 11 -15 -4 -12 2 -15 27 -14
23 1 26 3 10 6 -36 7 -27 23 12 23 35 0 47 -13 23 -24 -7 -3 -5 -5 4 -3 22 3
25 85 34 1098 7 735 6 757 -12 766 -11 6 -84 11 -163 12 -116 2 -148 -1 -167
-14 -13 -8 -24 -20 -24 -25 0 -5 -13 -38 -29 -72 -16 -35 -57 -124 -91 -198
-123 -267 -243 -509 -256 -514 -28 -11 -43 8 -89 112 -64 144 -180 402 -217
482 -16 36 -46 102 -66 148 l-35 82 -174 0 c-95 0 -174 -1 -175 -2z m410 -796
c7 -15 40 -88 74 -162 101 -226 113 -254 128 -310 7 -25 18 -56 25 -70 18 -37
28 -83 15 -75 -5 3 -10 16 -11 28 0 21 -1 21 -10 2 -7 -16 -8 -13 -6 14 1 19
-3 36 -10 38 -7 3 -9 -3 -6 -17 4 -16 2 -19 -11 -14 -20 8 -20 8 -1 44 9 17
11 30 5 30 -5 0 -10 -6 -10 -14 0 -10 -9 -14 -27 -12 -20 2 -32 13 -47 42 -11
21 -33 51 -48 66 -16 15 -28 32 -28 37 0 6 -13 8 -30 5 -23 -5 -30 -3 -30 9 0
8 -3 22 -6 31 -4 11 -1 16 10 16 11 0 16 9 16 26 0 18 -5 25 -17 22 -9 -2 -18
-9 -21 -17 -3 -8 0 -11 7 -7 6 4 11 2 11 -3 0 -6 -4 -11 -9 -11 -6 0 -12 -19
-14 -42 -2 -24 -4 42 -5 145 -2 185 4 227 31 227 7 0 18 -12 25 -28z m720
-238 c1 -143 -2 -262 -7 -275 -10 -24 -10 -24 -10 4 -1 15 -8 39 -17 53 -9 13
-14 27 -11 31 4 3 11 -5 16 -18 9 -21 10 -22 11 -4 0 11 3 31 6 45 3 14 2 20
-3 15 -14 -19 -37 -11 -51 18 -9 18 -21 27 -38 27 -30 0 -32 -17 -1 -22 15 -2
21 -9 19 -22 -2 -10 2 -22 9 -26 7 -5 9 -15 4 -26 -8 -17 -9 -17 -12 4 -3 12
-14 27 -25 33 -19 10 -20 9 -14 -14 5 -22 3 -26 -15 -24 -15 1 -19 6 -15 23 4
16 2 22 -10 20 -9 -1 -19 -8 -24 -15 -5 -10 -9 -10 -15 -2 -10 18 3 44 20 38
9 -4 12 -1 8 9 -3 8 0 21 7 29 6 8 9 18 6 24 -4 5 0 16 8 24 8 8 12 17 9 20
-3 4 4 27 16 53 12 25 20 52 17 60 -3 7 0 16 6 20 7 5 8 2 3 -6 -5 -9 -4 -11
4 -6 6 4 9 16 6 27 -4 11 -2 19 4 19 6 0 11 7 11 15 0 8 4 15 9 15 5 0 14 21
20 46 9 34 16 45 29 42 15 -3 17 -26 20 -254z"/>
<path d="M9875 3478 c-53 -153 -55 -188 -19 -299 36 -110 54 -71 47 101 -2 52
-5 109 -5 127 -1 18 -6 29 -11 26 -6 -4 -8 0 -4 10 4 10 10 24 13 32 3 8 1 15
-5 15 -7 0 -14 -6 -16 -12z"/>
<path d="M3043 2713 c-10 -3 -13 -54 -13 -203 0 -108 -3 -210 -6 -226 -5 -28
-7 -29 -57 -26 -29 1 -57 -1 -63 -5 -15 -10 -112 -203 -125 -245 -10 -36 -14
-1794 -4 -1821 9 -23 37 -27 192 -27 l141 0 45 92 c25 51 51 107 58 123 9 20
15 105 19 247 3 119 9 220 13 224 4 5 30 9 57 10 l49 3 25 -52 c13 -29 36 -81
51 -117 15 -36 33 -76 41 -90 7 -14 19 -37 25 -52 13 -34 46 -37 58 -5 5 12
40 87 79 167 86 178 172 373 172 388 0 7 4 12 8 12 4 0 14 17 21 37 13 36 45
73 62 73 4 0 14 -7 23 -15 13 -13 15 -82 13 -530 -2 -410 1 -517 11 -527 10
-10 54 -13 170 -13 l157 0 25 50 c81 161 84 172 91 405 10 292 2 264 77 267
38 1 60 -2 57 -7 -4 -6 -1 -10 4 -10 8 0 11 164 11 533 0 292 3 708 6 922 3
259 2 395 -5 405 -8 12 -42 16 -170 18 -188 4 -158 25 -251 -178 -131 -286
-231 -498 -275 -585 -25 -49 -35 -60 -55 -60 -29 0 -31 3 -154 275 -196 431
-245 533 -259 542 -13 8 -304 10 -324 1z m407 -819 c14 -28 34 -70 44 -95 11
-24 36 -80 56 -124 121 -259 122 -263 97 -297 -7 -9 -17 -14 -23 -10 -15 11
-44 60 -44 75 0 8 -7 20 -15 27 -8 6 -13 15 -12 19 4 13 -46 100 -54 95 -5 -3
-9 11 -9 31 0 33 -2 35 -25 29 -15 -4 -25 -2 -25 5 0 6 6 8 13 5 17 -6 16 31
-1 48 -8 8 -9 5 -5 -11 4 -15 1 -21 -12 -21 -11 0 -15 5 -10 19 3 10 1 29 -4
42 -5 13 -10 19 -10 13 -1 -16 -31 -13 -31 3 0 7 8 13 18 13 16 1 16 1 0 14
-14 10 -18 28 -18 88 0 41 3 78 7 82 16 16 40 -2 63 -50z m723 24 c7 -27 0
-349 -8 -356 -3 -3 -6 19 -6 49 -1 30 -4 44 -6 32 -3 -18 -7 -20 -18 -10 -9 9
-10 14 -1 19 7 5 5 8 -6 8 -9 0 -25 3 -35 7 -17 6 -17 5 1 -15 11 -12 16 -25
13 -28 -3 -4 -14 7 -24 23 -10 16 -24 28 -30 26 -7 -3 -13 0 -13 6 0 6 5 11
10 11 6 0 10 5 10 11 0 6 -7 9 -15 5 -8 -3 -15 -1 -15 4 0 6 7 10 15 10 11 0
15 11 15 40 0 22 5 40 10 40 6 0 10 9 10 20 0 11 5 20 10 20 6 0 10 8 10 18 0
25 37 82 54 82 8 0 16 -10 19 -22z"/>
</g>
</svg>
