<?xml version="1.0" standalone="no"?>
<!DOCTYPE svg PUBLIC "-//W3C//DTD SVG 20010904//EN"
 "http://www.w3.org/TR/2001/REC-SVG-20010904/DTD/svg10.dtd">
<svg version="1.0" xmlns="http://www.w3.org/2000/svg"
 width="2048.000000pt" height="460.000000pt" viewBox="0 0 2048.000000 460.000000"
 preserveAspectRatio="xMidYMid meet">
<metadata>
Created by potrace 1.16, written by Peter Selinger 2001-2019
</metadata>
<g transform="translate(0.000000,460.000000) scale(0.100000,-0.100000)"
fill="#000000" stroke="none">
<path d="M2205 3935 c-589 -171 -1017 -470 -1257 -876 -76 -128 -140 -290
-173 -442 -26 -115 -31 -371 -10 -497 65 -389 302 -724 695 -984 319 -212 697
-342 1080 -374 164 -14 490 -12 650 5 80 8 213 30 295 49 83 20 182 42 220 50
60 12 103 22 219 51 12 3 36 7 54 10 18 3 35 9 38 14 3 5 14 9 24 9 10 0 22 5
26 12 5 8 2 9 -11 4 -18 -7 -135 -37 -200 -51 -16 -4 -27 -4 -24 0 4 3 67 22
140 41 150 39 216 61 338 111 46 18 86 32 89 29 2 -3 -6 -10 -19 -15 -13 -5
-50 -20 -81 -34 -31 -14 -58 -23 -61 -21 -2 2 -4 -3 -4 -11 0 -9 4 -11 11 -6
6 5 30 15 54 22 23 6 42 16 42 21 0 4 11 8 25 8 14 0 33 4 43 10 29 16 171 80
177 80 3 0 50 22 103 48 306 153 409 227 673 484 70 68 94 100 131 173 65 129
93 214 113 345 19 125 33 177 34 127 1 -16 5 -26 11 -22 24 15 -1 299 -39 446
-22 87 -100 261 -113 253 -8 -5 -12 10 -9 35 2 7 -2 10 -8 7 -10 -7 -71 92
-71 115 0 15 -80 113 -87 106 -2 -3 18 -38 45 -78 27 -41 64 -101 83 -134 18
-33 36 -62 39 -65 8 -6 24 -62 21 -74 -1 -4 3 -14 9 -21 17 -20 20 -183 3
-196 -10 -9 -13 -8 -13 5 0 9 4 16 9 16 5 0 7 9 4 20 -6 23 -34 23 -41 1 -3
-8 0 -11 7 -7 20 13 11 -2 -24 -41 -26 -28 -31 -39 -20 -41 16 -4 21 -22 6
-22 -5 0 -8 -11 -8 -24 0 -17 4 -23 13 -19 8 3 14 -1 14 -11 0 -9 -4 -16 -10
-16 -5 0 -10 -8 -10 -18 0 -10 -5 -23 -11 -29 -8 -8 -6 -18 6 -37 14 -21 15
-31 6 -57 -15 -45 -14 -56 5 -33 14 17 15 17 10 1 -3 -10 -6 -21 -6 -23 0 -2
-6 -4 -13 -4 -6 0 -18 -12 -24 -27 -7 -16 -24 -40 -38 -55 -16 -17 -23 -34
-19 -45 5 -15 4 -16 -5 -3 -9 12 -11 11 -11 -8 0 -13 4 -21 9 -17 5 3 12 1 15
-4 3 -5 -3 -11 -14 -14 -11 -3 -20 -10 -20 -17 0 -6 4 -9 9 -6 5 3 11 -1 14
-9 4 -10 1 -12 -11 -8 -14 6 -15 4 -5 -8 10 -12 8 -17 -8 -27 -11 -7 -19 -8
-19 -2 0 5 6 10 13 10 9 0 9 2 0 8 -9 6 -9 26 2 87 17 95 19 273 5 382 -16
119 -63 258 -135 398 -64 125 -75 160 -55 167 5 2 11 27 12 56 2 43 -1 56 -16
64 -10 6 -27 19 -37 29 -11 11 -23 19 -29 19 -5 0 -10 4 -10 9 0 16 -83 52
-94 41 -6 -6 -22 -10 -37 -10 -40 0 -79 -17 -79 -35 0 -8 -4 -15 -10 -15 -5 0
-10 -7 -10 -15 0 -8 -4 -15 -8 -15 -5 0 -15 -19 -21 -42 -60 -199 -366 -355
-856 -437 -185 -31 -251 -36 -261 -20 -5 8 -9 43 -11 78 -1 36 -7 67 -13 71
-7 4 -8 18 -4 35 4 18 3 26 -3 22 -7 -4 -14 12 -18 41 -22 151 -110 426 -132
417 -7 -2 -13 3 -13 11 0 8 5 12 11 8 6 -3 3 9 -6 27 -20 39 -31 52 -22 27 4
-10 2 -18 -3 -18 -6 0 -10 5 -10 11 0 5 -5 7 -12 3 -7 -5 -9 -2 -5 9 7 17 -15
41 -28 29 -4 -4 -6 0 -3 8 3 8 -2 20 -10 26 -20 14 -55 6 -48 -12 3 -7 -2 -21
-11 -30 -16 -15 -15 -18 6 -35 40 -33 8 -64 -40 -39 -23 13 -25 30 -3 30 8 0
12 5 9 10 -4 6 -11 7 -17 4 -6 -4 -8 -3 -5 2 3 6 2 16 -4 24 -7 13 -9 12 -9
-2 0 -9 -5 -20 -12 -24 -7 -5 -8 -3 -3 6 5 9 2 10 -14 5 -21 -7 -56 17 -56 39
0 6 -12 12 -27 14 -17 2 -28 9 -28 18 0 20 -19 8 -31 -20 -8 -18 -9 -16 -5 10
5 31 4 31 -35 30 -29 0 -45 5 -54 17 -7 10 -16 14 -19 9 -4 -6 -22 -2 -46 9
-21 10 -44 19 -50 19 -22 0 22 49 78 86 125 85 131 87 227 81 81 -5 147 -25
218 -67 50 -30 40 -37 -13 -10 -47 24 -68 20 -23 -4 15 -8 22 -15 15 -16 -7 0
-23 5 -35 11 l-22 12 20 -24 c11 -12 34 -38 50 -57 17 -18 47 -66 68 -105 21
-40 35 -61 31 -47 -3 14 -17 43 -30 66 -13 22 -24 47 -24 55 1 8 7 0 14 -16 7
-17 20 -36 29 -43 13 -11 15 -10 9 10 -3 13 -13 35 -22 51 -12 19 -16 42 -12
75 5 55 3 56 -123 98 -38 13 -60 23 -48 24 24 0 129 -37 183 -65 31 -16 31
-17 14 -36 -15 -17 -15 -23 -4 -44 7 -14 20 -33 29 -42 9 -10 25 -38 36 -61
17 -39 20 -41 27 -23 5 14 16 21 32 21 14 0 28 5 32 11 4 7 -2 9 -14 7 -12 -2
-22 1 -24 7 -2 5 5 10 16 10 13 0 23 13 34 47 13 43 17 47 41 42 14 -2 4 4
-24 16 -27 11 -72 20 -99 20 -69 0 -51 11 35 20 83 9 106 28 56 47 -43 16 -33
15 84 -2 186 -28 397 -83 562 -147 90 -35 99 -48 12 -18 -68 23 -78 22 -30 -5
19 -10 35 -24 35 -32 0 -7 6 -13 13 -13 7 0 22 -7 33 -16 10 -8 13 -12 5 -8
-9 5 -12 3 -7 -4 4 -7 16 -12 26 -12 10 0 22 -5 25 -10 4 -6 23 -19 43 -30 20
-11 53 -34 72 -51 19 -17 29 -29 23 -25 -24 13 -13 -10 18 -40 36 -34 79 -114
79 -146 -1 -14 -8 -1 -19 30 -10 29 -32 70 -48 90 -59 73 -271 186 -457 241
-76 23 -110 27 -56 6 29 -11 31 -14 11 -14 -20 -1 -21 -3 -11 -16 10 -12 9
-15 -6 -15 -12 0 -15 -3 -8 -8 6 -4 17 -24 23 -44 7 -21 17 -40 22 -43 5 -4 9
-14 9 -25 0 -10 7 -20 15 -24 8 -3 15 -12 15 -21 0 -15 172 -105 200 -105 7 0
10 -3 7 -7 -4 -3 21 -22 55 -41 35 -19 72 -43 84 -53 26 -24 41 -25 23 -1 -11
15 -11 15 1 4 8 -7 15 -18 15 -25 0 -7 8 -11 17 -11 9 1 27 -9 39 -22 12 -13
20 -24 16 -24 -3 0 -15 10 -27 22 -11 12 -20 18 -20 13 0 -5 7 -16 16 -26 14
-16 12 -19 -20 -44 -19 -15 -63 -42 -98 -61 -35 -19 -52 -32 -38 -29 14 4 40
16 58 26 26 15 36 16 51 7 17 -10 16 -13 -17 -29 -19 -10 -39 -16 -43 -13 -5
3 -7 -1 -4 -8 3 -8 -12 -20 -40 -32 -25 -10 -44 -20 -42 -23 7 -7 126 46 199
88 126 74 208 179 208 266 -1 122 -137 252 -371 354 -245 107 -525 175 -914
220 -145 17 -542 18 -670 1 -164 -22 -293 -42 -367 -57 -77 -17 -105 -19 -94
-7 8 7 11 8 44 11 13 2 12 4 -6 12 -13 5 -28 6 -34 3 -5 -4 -5 4 2 16 8 15 8
20 1 16 -6 -4 -11 -3 -11 3 0 10 39 27 53 23 4 -1 21 12 36 29 26 28 30 29 38
14 9 -16 11 -16 28 2 13 13 20 14 23 5 2 -6 13 -12 24 -12 11 0 18 5 15 13 -3
7 -21 11 -51 10 -25 -1 -46 3 -46 8 0 5 -9 9 -21 9 -11 0 -18 -3 -16 -7 3 -5
-25 -9 -62 -10 -43 -1 -59 2 -46 7 51 22 -23 5 -160 -35z m541 -91 c-87 -13
-105 -19 -94 -29 9 -9 141 -45 165 -45 44 0 30 -15 -15 -17 -41 -1 -98 -11
-311 -54 -50 -10 -153 -40 -261 -75 -125 -41 -369 -168 -432 -224 -62 -55 -98
-117 -99 -171 0 -31 -1 -32 -10 -11 -5 14 -5 39 1 65 5 23 8 42 7 43 -1 1 -24
14 -51 28 -40 21 -52 24 -64 13 -10 -7 -7 5 9 33 35 65 126 133 274 205 153
75 287 123 480 171 160 41 391 83 450 82 24 0 4 -5 -49 -14z m-91 -324 c-9
-14 8 -13 23 2 9 9 12 9 12 -2 0 -13 2 -13 10 0 22 34 9 -24 -21 -92 -28 -64
-59 -153 -59 -170 0 -5 7 -8 15 -8 19 0 19 -2 -9 -112 -14 -51 -35 -145 -47
-208 -25 -126 -48 -165 -91 -156 -13 3 -57 8 -98 11 -104 9 -305 50 -425 86
-140 42 -270 108 -343 174 -76 69 -102 121 -101 201 l1 59 13 -66 c15 -74 62
-161 75 -139 4 7 15 10 24 7 21 -8 64 7 48 17 -19 11 -14 34 8 41 15 5 20 15
20 41 0 19 4 34 9 34 5 0 7 -10 5 -22 -2 -13 -2 -17 2 -10 3 6 13 12 22 13 10
0 71 29 137 63 83 44 120 68 119 80 -1 9 4 16 11 16 8 0 16 8 19 18 5 13 17
19 41 20 19 1 34 -3 32 -7 -5 -20 42 -14 243 35 213 51 228 54 254 54 13 0 29
7 36 15 14 17 24 20 15 5z m500 -62 c12 -82 24 -106 54 -113 49 -11 93 -70
131 -175 10 -30 20 -48 21 -40 0 8 5 0 10 -18 6 -19 14 -30 20 -26 8 4 7 0 0
-14 -16 -30 -15 -47 3 -33 11 10 16 8 21 -9 4 -12 4 -24 1 -27 -3 -4 -2 -11 3
-17 5 -6 12 -38 15 -71 3 -33 3 -54 0 -47 -3 6 -10 10 -15 6 -5 -3 -9 2 -9 10
0 9 -4 16 -9 16 -5 0 -12 20 -15 45 -4 25 -12 45 -17 45 -19 0 -20 -26 -2 -66
24 -54 25 -80 5 -80 -90 0 -110 -5 -115 -24 -3 -11 -12 -20 -21 -20 -9 0 -16
8 -16 20 0 13 -7 20 -19 20 -25 0 -38 -20 -21 -30 7 -4 11 -14 8 -21 -4 -11
17 -13 118 -11 134 4 172 -11 57 -21 -112 -11 -542 -8 -564 3 -19 10 -28 42
-10 38 5 -2 24 8 42 22 19 13 41 25 49 25 11 0 14 9 13 30 -4 40 21 149 52
231 29 78 29 78 10 70 -8 -3 -15 -4 -15 -2 0 3 -3 12 -7 22 -4 12 -3 15 5 10
8 -5 10 -2 6 9 -4 9 0 23 9 33 27 32 37 60 29 83 l-8 22 -21 -27 c-28 -34 -75
-150 -107 -257 -14 -46 -25 -77 -25 -68 -1 26 48 189 74 246 13 28 21 54 17
57 -3 3 0 6 7 6 7 0 10 4 7 9 -10 15 4 39 25 44 10 3 19 11 19 19 0 10 -3 9
-11 -2 -9 -13 -10 -13 -6 0 2 8 10 15 18 15 8 0 13 8 13 17 -1 10 3 16 9 15 6
-1 11 4 12 11 0 6 3 11 6 10 4 -2 15 5 26 14 23 21 61 37 90 37 18 1 22 -6 28
-41z m1935 -313 c0 -8 4 -15 9 -15 5 0 21 -21 36 -46 25 -42 25 -47 11 -63 -9
-10 -16 -25 -16 -34 0 -9 -4 -17 -9 -17 -6 0 -12 24 -14 53 -3 49 -3 49 -5
-14 -2 -55 2 -75 23 -110 14 -24 25 -48 24 -54 0 -5 -11 11 -25 38 -13 26 -28
47 -33 47 -5 0 -20 -15 -34 -32 -155 -201 -380 -327 -802 -452 -27 -8 -44 -15
-36 -15 14 -1 57 9 146 34 28 8 77 22 110 31 58 15 83 25 170 64 22 10 58 26
80 36 22 9 48 24 59 33 10 9 20 15 22 13 4 -2 40 18 86 49 16 12 34 16 45 12
16 -6 15 -8 -7 -13 -14 -3 -25 -10 -26 -15 0 -6 -4 -18 -9 -28 -5 -13 -11 -15
-21 -6 -9 8 -18 8 -31 -1 -16 -10 -15 -10 5 -5 12 4 22 2 22 -3 0 -11 -28 -24
-39 -18 -4 3 -8 -5 -8 -17 -2 -17 0 -18 7 -7 8 12 10 12 16 -3 8 -21 24 -22
24 -2 0 8 -6 15 -12 15 -9 0 -8 3 2 9 16 11 33 4 25 -10 -10 -15 18 -10 43 7
17 12 22 12 23 2 0 -7 5 -1 11 15 11 32 33 37 23 6 -5 -15 -4 -19 4 -15 6 4
11 14 11 22 0 8 5 14 10 14 6 0 10 -8 10 -17 0 -13 8 -9 29 16 19 23 30 30 35
22 4 -6 16 -9 26 -6 15 5 25 -8 53 -67 19 -40 38 -89 42 -108 16 -76 26 -64
21 25 -3 69 -3 78 4 40 23 -140 3 -370 -43 -500 -52 -145 -170 -326 -306 -467
-51 -54 -89 -98 -84 -98 5 0 16 -11 23 -24 7 -14 19 -27 27 -30 15 -6 125 73
142 102 6 9 11 12 11 5 0 -15 -120 -125 -190 -174 -30 -21 -89 -62 -130 -90
-208 -144 -533 -276 -835 -339 -220 -46 -354 -60 -625 -67 -280 -6 -411 2
-635 38 -932 151 -1557 704 -1588 1404 -5 92 9 263 22 289 6 12 31 82 55 156
32 97 62 166 107 243 35 59 67 107 71 107 4 0 8 -26 8 -59 0 -32 4 -82 10
-110 9 -48 8 -57 -22 -114 -35 -70 -68 -162 -67 -186 0 -12 2 -13 6 -2 4 10 7
10 13 1 5 -8 14 6 25 36 32 88 39 103 49 97 5 -4 6 -1 2 6 -11 16 13 71 30 71
17 0 18 12 2 28 -19 19 0 27 20 9 10 -10 24 -17 30 -17 6 0 31 -18 57 -40 57
-49 117 -91 214 -148 42 -24 68 -41 59 -38 -10 3 -26 9 -35 12 -12 4 -9 -2 7
-15 45 -38 64 -51 75 -51 5 0 4 -4 -3 -9 -10 -6 -4 -10 18 -14 20 -4 29 -11
24 -18 -4 -7 0 -9 13 -5 13 4 29 -2 46 -18 15 -14 34 -23 42 -20 8 4 15 2 15
-3 0 -13 87 -36 101 -27 7 4 9 3 6 -3 -13 -21 186 -40 225 -21 9 4 18 4 20 -1
2 -4 12 -5 22 -1 14 5 3 10 -42 19 -34 6 -64 17 -68 23 -4 7 -3 8 5 4 7 -4 84
-19 173 -32 88 -14 168 -29 178 -34 14 -8 18 -31 23 -152 15 -368 100 -755
220 -1004 24 -49 44 -104 45 -122 1 -19 9 -50 17 -70 13 -32 13 -34 0 -18 -44
57 -78 88 -85 76 -5 -9 -9 -9 -14 -1 -11 18 -26 13 -26 -9 0 -10 9 -42 20 -70
11 -28 20 -52 20 -53 0 -8 -65 -3 -145 10 -77 12 -129 23 -230 49 -27 7 49
-36 105 -60 25 -11 50 -25 55 -31 6 -7 17 -14 25 -18 10 -3 6 -6 -10 -7 -40
-3 30 -17 197 -39 150 -20 328 -29 340 -17 3 3 41 6 83 6 115 0 330 59 330 90
0 5 -24 -2 -52 -15 -94 -43 -291 -83 -274 -57 5 8 -1 12 -17 12 -28 0 -115 28
-122 40 -3 4 18 0 45 -11 119 -45 233 -3 337 124 59 71 104 160 153 302 87
255 125 453 141 752 6 114 14 215 17 223 3 8 4 19 3 23 -1 5 3 6 9 2 6 -4 7
-13 1 -23 -13 -26 -1 -88 20 -111 12 -13 15 -21 8 -21 -7 0 -2 -12 12 -26 l24
-26 6 79 6 78 -38 35 c-21 20 -42 34 -48 32 -17 -6 -13 13 7 37 14 17 42 25
142 42 380 61 707 176 952 335 127 82 225 205 252 317 7 28 26 38 26 12z
m-1646 -723 c3 -5 -4 -29 -15 -53 l-21 -44 -251 0 c-193 0 -258 -3 -276 -13
-22 -13 -26 -11 -67 29 -24 24 -44 37 -44 29 0 -7 -2 -11 -5 -8 -4 3 -3 17 1
32 l6 26 252 3 c138 1 288 3 333 5 45 1 84 -2 87 -6z m-374 -303 c0 -6 9 -8
23 -4 15 4 18 3 8 -3 -8 -6 -11 -18 -6 -31 5 -16 3 -20 -9 -15 -9 3 -16 2 -16
-3 0 -5 14 -14 30 -20 32 -12 41 -43 13 -43 -14 0 -15 -2 -4 -9 7 -5 11 -13 7
-19 -3 -6 -2 -13 4 -17 5 -3 10 1 10 10 0 9 5 13 11 9 6 -3 15 0 20 7 7 11 9
10 9 -5 0 -12 5 -16 14 -13 10 4 13 1 9 -9 -6 -17 13 -19 21 -1 5 10 7 10 12
0 3 -7 12 -13 20 -13 8 0 14 -5 14 -11 0 -6 7 -9 15 -5 8 3 15 1 15 -4 0 -6
18 -10 40 -10 22 0 40 -2 40 -4 0 -13 -52 -179 -69 -221 -15 -35 -16 -43 -5
-27 9 12 22 22 30 22 7 0 20 12 28 28 39 71 -5 -71 -47 -153 -25 -50 -79 -107
-129 -138 -62 -39 -118 -12 -188 91 -55 81 -63 96 -91 173 -24 67 -18 90 20
70 12 -7 21 -8 21 -4 0 4 12 -10 26 -32 15 -22 23 -31 19 -20 -4 11 -18 48
-31 83 -13 35 -24 74 -24 88 0 21 3 24 26 18 25 -6 26 -5 20 22 -14 71 -17
147 -5 154 17 11 51 -1 45 -16 -3 -8 0 -11 10 -7 17 6 19 30 3 35 -7 2 -5 9 5
17 11 9 16 10 16 2 0 -6 5 -11 10 -11 6 0 10 7 10 15 0 14 -12 20 -33 16 -5
-1 -6 3 -2 9 8 13 35 13 35 -1z"/>
<path d="M1330 2796 c0 -9 6 -16 13 -17 6 0 2 -4 -10 -9 -35 -14 -27 -53 12
-62 18 -5 18 -6 -5 -15 -24 -10 -24 -10 13 -24 31 -11 34 -15 20 -22 -11 -7
-20 -5 -28 7 -7 9 -16 16 -20 16 -5 0 0 -9 10 -20 10 -11 24 -20 31 -20 7 0
11 -8 9 -17 -4 -30 5 -34 38 -16 l32 17 -30 7 c-25 6 -23 7 12 5 41 -2 74 -16
39 -16 -9 0 -28 -11 -41 -24 -13 -13 -27 -21 -31 -17 -4 3 12 -22 36 -57 127
-184 406 -357 780 -484 119 -40 279 -82 286 -75 3 2 0 67 -6 143 -13 181 -11
212 13 229 11 7 17 21 14 32 -3 15 -6 13 -15 -9 -14 -33 -16 -34 -41 -9 -11
11 -41 22 -72 26 -276 36 -598 131 -766 225 -30 17 -59 28 -66 24 -7 -4 -9 -4
-5 1 4 4 -15 23 -43 42 -55 36 -64 39 -53 21 4 -7 -3 -4 -17 7 -13 11 -26 22
-29 24 -3 2 5 1 18 -2 19 -4 21 -3 11 9 -7 9 -20 12 -32 8 -13 -4 -17 -2 -13
5 8 13 -13 47 -43 67 -19 13 -21 13 -21 0z"/>
<path d="M1023 2433 c-18 -7 -17 -139 2 -249 18 -101 51 -212 89 -298 25 -57
47 -75 27 -23 -7 17 -7 28 -1 32 6 4 10 0 10 -8 0 -7 7 -14 15 -14 8 0 12 4 9
9 -3 4 0 8 6 8 11 0 23 -12 87 -88 20 -23 38 -40 41 -38 2 3 18 -13 33 -34 43
-59 45 -48 3 15 -20 30 -41 52 -47 48 -5 -3 -7 -1 -4 4 4 6 -7 36 -24 66 -76
141 -119 314 -119 481 0 60 -4 96 -9 87 -5 -7 -11 -9 -14 -4 -6 10 -82 14
-104 6z"/>
<path d="M1546 1500 c24 -28 45 -64 54 -95 10 -36 27 -61 64 -97 47 -45 65
-53 108 -50 10 1 15 -4 12 -11 -5 -14 73 -63 83 -53 4 3 2 6 -3 6 -6 0 -19 7
-30 16 -10 8 -14 13 -9 11 12 -6 37 18 28 27 -3 3 9 0 26 -7 28 -10 29 -12 11
-19 -11 -4 -20 -10 -20 -12 0 -3 11 -1 24 4 13 5 27 6 32 2 4 -4 4 -2 1 4 -3
6 -34 28 -69 49 -87 53 -199 137 -283 209 -63 55 -66 56 -29 16z"/>
<path d="M3550 1191 c0 -6 -6 -10 -12 -8 -7 1 -12 -4 -10 -10 1 -7 -5 -13 -13
-13 -8 0 -19 -9 -25 -20 -6 -11 -15 -18 -19 -16 -4 3 -22 -14 -40 -39 -39 -54
-92 -97 -162 -131 -47 -22 -49 -24 -19 -18 19 3 76 22 125 40 50 19 96 34 103
34 6 0 12 7 12 15 0 8 14 36 30 62 17 26 28 53 26 60 -3 7 0 15 6 19 7 5 8 2
3 -6 -5 -9 -4 -11 3 -6 15 9 16 33 2 41 -5 3 -10 1 -10 -4z"/>
<path d="M9515 3589 c-92 -13 -223 -54 -320 -99 -352 -162 -599 -475 -681
-862 -25 -118 -25 -363 -1 -478 80 -370 297 -657 626 -828 111 -58 222 -97
328 -118 101 -19 348 -18 452 1 492 94 871 472 968 965 20 103 22 336 4 429
-51 259 -163 474 -341 651 -174 175 -400 292 -645 334 -97 17 -290 19 -390 5z
m307 -440 c176 -37 324 -154 429 -337 51 -88 82 -174 81 -219 -1 -18 2 -33 7
-33 5 0 9 -10 9 -22 1 -13 5 -48 10 -78 12 -73 -2 -228 -28 -315 -149 -483
-661 -670 -1018 -372 -173 144 -282 384 -282 622 0 352 229 677 528 749 71 18
194 20 264 5z"/>
<path d="M14045 3569 c-273 -37 -507 -152 -700 -343 -215 -214 -333 -484 -351
-801 -20 -337 117 -679 366 -919 172 -166 370 -270 610 -322 112 -24 352 -24
460 0 434 96 755 378 899 788 86 248 87 539 0 784 -123 350 -370 608 -711 743
-154 61 -411 92 -573 70z m347 -463 c108 -36 164 -72 248 -156 85 -84 150
-197 191 -330 20 -65 23 -97 24 -230 0 -132 -3 -167 -23 -233 -45 -156 -116
-273 -232 -380 -120 -111 -261 -167 -420 -167 -100 0 -178 18 -270 62 -86 42
-222 176 -275 271 -141 256 -139 575 8 837 63 112 191 236 298 289 154 76 300
88 451 37z"/>
<path d="M10750 3535 c0 -2 51 -84 114 -182 62 -98 231 -362 375 -588 144
-225 266 -417 271 -425 93 -135 140 -219 141 -250 0 -19 2 -214 5 -432 l6
-398 289 0 289 0 0 428 0 427 54 85 c30 47 93 146 140 220 47 74 173 272 280
440 248 390 420 661 424 672 2 4 -147 8 -331 8 l-334 0 -247 -432 c-233 -407
-270 -468 -279 -457 -4 4 -234 404 -433 751 l-79 137 -342 1 c-189 0 -343 -2
-343 -5z"/>
<path d="M15490 3281 l0 -241 355 0 355 0 1 -177 c1 -98 2 -185 3 -193 2 -8 3
-333 4 -723 l2 -707 273 2 272 3 0 895 0 895 325 0 c179 0 333 2 343 3 16 2
17 21 17 237 l0 235 -522 0 c-288 0 -727 3 -975 7 l-453 6 0 -242z"/>
<path d="M6420 3270 l0 -240 333 -2 c182 -1 305 -4 272 -8 l-60 -6 45 -4 c42
-5 45 -7 47 -37 2 -20 -2 -33 -9 -33 -6 0 -8 -3 -5 -7 4 -3 2 -12 -4 -20 -9
-10 -7 -13 7 -14 18 0 18 -1 -1 -9 -11 -5 -15 -10 -10 -11 6 -2 -64 -6 -155
-9 l-165 -6 209 -2 208 -2 -3 -812 -4 -813 276 -3 276 -2 6 481 c4 265 7 670
7 901 l0 418 353 2 352 3 3 238 2 237 -990 0 -990 0 0 -240z"/>
<path d="M18107 3503 c-3 -5 -103 -262 -222 -573 -119 -311 -248 -646 -287
-745 -38 -99 -103 -265 -143 -370 -66 -169 -214 -546 -224 -569 -2 -4 48 -6
110 -2 63 3 202 5 309 6 l195 0 53 148 c30 81 68 188 86 237 l33 90 438 0 438
0 87 -228 c48 -125 92 -233 97 -238 12 -12 583 -1 583 11 0 10 -277 698 -541
1345 -44 110 -125 308 -179 440 -53 132 -117 288 -141 348 l-44 107 -322 0
c-177 0 -324 -3 -326 -7z m412 -790 c114 -299 189 -507 185 -515 -2 -3 -121
-7 -264 -7 l-260 -2 15 38 c8 21 48 135 90 253 137 388 149 420 156 420 3 0
38 -84 78 -187z"/>
<path d="M784 1885 c10 -55 54 -212 73 -255 137 -316 323 -534 638 -747 250
-170 610 -315 945 -382 241 -49 303 -57 525 -71 216 -13 288 -13 279 1 -5 8 1
10 19 7 16 -3 25 -1 24 6 -1 6 8 10 20 9 17 -2 22 3 25 25 2 20 8 26 22 24 14
-3 17 1 12 13 -3 9 -6 19 -6 21 0 2 -7 4 -15 4 -8 0 -15 -5 -15 -11 0 -8 -4
-8 -15 1 -8 6 -19 9 -25 5 -5 -3 -10 0 -10 7 0 10 -2 11 -8 0 -10 -15 -40 -6
-63 20 -9 10 -19 14 -23 10 -4 -3 -35 -8 -69 -9 -35 -2 -64 -8 -69 -15 -6 -10
-8 -9 -8 3 0 23 -26 44 -33 27 -3 -9 -9 -8 -20 6 -12 17 -62 32 -52 16 2 -3
-12 -10 -31 -16 -19 -6 -37 -7 -40 -3 -3 5 1 10 8 10 7 1 -5 5 -27 9 -27 5
-42 4 -47 -4 -6 -8 -8 -8 -8 1 0 7 -18 16 -39 19 -31 5 -38 10 -34 23 5 13 3
14 -8 4 -7 -7 -24 -13 -38 -13 -21 0 -23 2 -11 10 13 8 12 10 -2 10 -10 0 -18
-4 -18 -10 0 -19 -16 -10 -17 10 -1 16 3 19 20 15 77 -18 357 -35 546 -33
l216 1 -270 7 c-267 7 -402 20 -628 61 -725 130 -1323 490 -1602 963 -30 51
-69 129 -86 172 -37 93 -44 103 -35 49z"/>
</g>
</svg>
