<?xml version="1.0" encoding="UTF-8"?>
<!DOCTYPE svg PUBLIC "-//W3C//DTD SVG 1.1//EN" "http://www.w3.org/Graphics/SVG/1.1/DTD/svg11.dtd">
<svg xmlns="http://www.w3.org/2000/svg" version="1.1" width="633px" height="394px" style="shape-rendering:geometricPrecision; text-rendering:geometricPrecision; image-rendering:optimizeQuality; fill-rule:evenodd; clip-rule:evenodd" xmlns:xlink="http://www.w3.org/1999/xlink">
<g><path style="opacity:0.004" fill="#000000" d="M 341.5,4.5 C 342.833,5.16667 342.833,5.16667 341.5,4.5 Z"/></g>
<g><path style="opacity:0.004" fill="#000000" d="M 476.5,15.5 C 477.833,16.1667 477.833,16.1667 476.5,15.5 Z"/></g>
<g><path style="opacity:0.004" fill="#000000" d="M 305.5,46.5 C 306.833,47.1667 306.833,47.1667 305.5,46.5 Z"/></g>
<g><path style="opacity:0.004" fill="#000000" d="M 236.5,47.5 C 237.833,48.1667 237.833,48.1667 236.5,47.5 Z"/></g>
<g><path style="opacity:0.004" fill="#000000" d="M 68.5,49.5 C 69.8333,50.1667 69.8333,50.1667 68.5,49.5 Z"/></g>
<g><path style="opacity:0.004" fill="#000000" d="M 71.5,55.5 C 72.8333,56.1667 72.8333,56.1667 71.5,55.5 Z"/></g>
<g><path style="opacity:0.004" fill="#000000" d="M 500.5,57.5 C 501.833,58.1667 501.833,58.1667 500.5,57.5 Z"/></g>
<g><path style="opacity:0.004" fill="#000000" d="M 395.5,58.5 C 396.833,59.1667 396.833,59.1667 395.5,58.5 Z"/></g>
<g><path style="opacity:0.004" fill="#000000" d="M 527.5,60.5 C 528.833,61.1667 528.833,61.1667 527.5,60.5 Z"/></g>
<g><path style="opacity:0.004" fill="#000000" d="M 59.5,76.5 C 60.8333,77.1667 60.8333,77.1667 59.5,76.5 Z"/></g>
<g><path style="opacity:0.004" fill="#000000" d="M 467.5,76.5 C 468.833,77.1667 468.833,77.1667 467.5,76.5 Z"/></g>
<g><path style="opacity:0.004" fill="#000000" d="M 128.5,77.5 C 129.833,78.1667 129.833,78.1667 128.5,77.5 Z"/></g>
<g><path style="opacity:0.004" fill="#000000" d="M 140.5,88.5 C 141.833,89.1667 141.833,89.1667 140.5,88.5 Z"/></g>
<g><path style="opacity:0.004" fill="#000000" d="M 302.5,92.5 C 303.833,93.1667 303.833,93.1667 302.5,92.5 Z"/></g>
<g><path style="opacity:0.357" fill="#09068b" d="M 224.5,101.5 C 219.324,99.8164 213.991,99.1497 208.5,99.5C 213.181,96.9348 218.014,96.9348 223,99.5C 224.03,99.8361 224.53,100.503 224.5,101.5 Z"/></g>
<g><path style="opacity:0.055" fill="#0e098b" d="M 154.5,109.5 C 150.607,106.763 146.607,104.263 142.5,102C 134.741,100.921 127.408,102.088 120.5,105.5C 121.343,103.827 122.676,102.66 124.5,102C 132.652,98.5185 140.652,98.8518 148.5,103C 150.854,104.972 152.854,107.139 154.5,109.5 Z"/></g>
<g><path style="opacity:0.212" fill="#05098b" d="M 298.5,101.5 C 293.167,100.167 287.833,100.167 282.5,101.5C 287.802,97.5873 293.136,97.5873 298.5,101.5 Z"/></g>
<g><path style="opacity:1" fill="#0f09bb" d="M 67.5,99.5 C 78.2887,98.9747 88.9554,99.8081 99.5,102C 101.063,102.759 102.063,103.926 102.5,105.5C 99.7471,104.978 97.0804,104.144 94.5,103C 82.1687,102.379 69.8354,101.879 57.5,101.5C 60.8333,100.833 64.1667,100.167 67.5,99.5 Z"/></g>
<g><path style="opacity:1" fill="#0101f5" d="M 208.5,99.5 C 213.991,99.1497 219.324,99.8164 224.5,101.5C 224.833,101.5 225.167,101.5 225.5,101.5C 227.443,104.243 228.943,107.243 230,110.5C 230.667,124.833 230.667,139.167 230,153.5C 229.429,157.984 227.596,161.818 224.5,165C 218.912,166.289 213.245,166.789 207.5,166.5C 200.667,159.431 198,150.931 199.5,141C 199.834,130.492 200.334,119.992 201,109.5C 202.919,105.746 205.419,102.412 208.5,99.5 Z M 217.5,110.5 C 217.783,111.289 218.283,111.956 219,112.5C 219.5,125.829 219.667,139.163 219.5,152.5C 219.5,152.833 219.5,153.167 219.5,153.5C 216.663,156.101 213.83,156.101 211,153.5C 210.333,139.833 210.333,126.167 211,112.5C 212.789,110.771 214.956,110.104 217.5,110.5 Z"/></g>
<g><path style="opacity:0.004" fill="#000000" d="M 347.5,101.5 C 348.833,102.167 348.833,102.167 347.5,101.5 Z"/></g>
<g><path style="opacity:1" fill="#0101f9" d="M 57.5,101.5 C 69.8354,101.879 82.1687,102.379 94.5,103C 97.0804,104.144 99.7471,104.978 102.5,105.5C 102.954,108.14 104.121,110.473 106,112.5C 106.912,116.795 107.579,121.128 108,125.5C 108.168,159.003 108.668,192.336 109.5,225.5C 109.5,226.167 109.5,226.833 109.5,227.5C 110.635,229.213 112.302,229.88 114.5,229.5C 114.167,191.827 114.5,154.161 115.5,116.5C 116.218,112.325 117.884,108.658 120.5,105.5C 127.408,102.088 134.741,100.921 142.5,102C 146.607,104.263 150.607,106.763 154.5,109.5C 154.5,110.167 154.5,110.833 154.5,111.5C 154.231,113.429 154.731,115.095 156,116.5C 156.5,137.831 156.667,159.164 156.5,180.5C 151.5,180.5 146.5,180.5 141.5,180.5C 141.83,160.326 141.497,140.326 140.5,120.5C 140.389,119.883 140.056,119.383 139.5,119C 137.527,118.505 135.527,118.338 133.5,118.5C 132.5,118.5 131.5,118.5 130.5,118.5C 129.84,155.848 130.506,192.848 132.5,229.5C 132.833,229.5 133.167,229.5 133.5,229.5C 135.527,229.662 137.527,229.495 139.5,229C 140.126,228.25 140.626,227.416 141,226.5C 141.173,220.984 141.673,215.651 142.5,210.5C 147.5,210.5 152.5,210.5 157.5,210.5C 157.665,218.862 157.332,227.195 156.5,235.5C 153.46,241.185 148.793,244.685 142.5,246C 127.377,246.962 112.377,246.129 97.5,243.5C 95.3947,240.711 93.5613,237.711 92,234.5C 91.5001,221.504 91.3334,208.504 91.5,195.5C 91.5,194.5 91.5,193.5 91.5,192.5C 87.8019,192.552 84.1352,192.886 80.5,193.5C 80.5,199.167 80.5,204.833 80.5,210.5C 79.5,210.5 78.5,210.5 77.5,210.5C 78.0444,212.58 78.8777,214.58 80,216.5C 80.8708,224.296 80.3708,231.962 78.5,239.5C 76.4728,242.194 74.1395,244.527 71.5,246.5C 61.3595,247.509 51.6929,246.009 42.5,242C 41.6195,241.292 40.9528,240.458 40.5,239.5C 40.8186,237.25 40.3186,235.25 39,233.5C 38.1667,195.162 38.3334,156.829 39.5,118.5C 39.1525,120.14 39.6525,121.807 41,123.5C 41.3333,122.5 41.6667,121.5 42,120.5C 42.5575,124.357 42.3908,127.857 41.5,131C 42.938,131.219 44.2713,131.719 45.5,132.5C 46.6416,137.177 48.3083,141.51 50.5,145.5C 53.4723,173.513 51.8056,201.179 45.5,228.5C 45.0162,231.575 46.0162,233.909 48.5,235.5C 49.4287,236.689 49.762,238.022 49.5,239.5C 52.3609,239.342 55.0276,240.008 57.5,241.5C 60.932,239.939 64.5987,239.106 68.5,239C 69.9789,236.195 71.8122,233.695 74,231.5C 74.6667,228.167 74.6667,224.833 74,221.5C 70.8767,214.567 69.2101,207.233 69,199.5C 67.911,185.52 67.411,171.52 67.5,157.5C 68.0509,153.784 69.3843,150.284 71.5,147C 71.0426,146.586 70.7093,146.086 70.5,145.5C 71.6161,145.598 72.6161,145.098 73.5,144C 72.0664,139.018 72.3997,134.185 74.5,129.5C 75.675,129.719 76.675,129.386 77.5,128.5C 76.954,127.228 76.6207,125.894 76.5,124.5C 74.8348,119.351 72.1681,114.851 68.5,111C 64.78,110.808 61.28,109.975 58,108.5C 55.5934,109.63 53.0934,110.463 50.5,111C 47.9841,113.863 45.8174,117.03 44,120.5C 40.7928,118.312 39.7928,115.312 41,111.5C 42.3756,110.295 43.5423,108.962 44.5,107.5C 48.0181,103.982 52.3515,101.982 57.5,101.5 Z M 58.5,122.5 C 59.4778,122.811 60.1445,123.478 60.5,124.5C 56.5101,126.05 55.8434,125.383 58.5,122.5 Z M 68.5,141.5 C 66.7868,142.635 66.1201,144.302 66.5,146.5C 65.5028,146.47 64.8361,146.97 64.5,148C 65.0082,163.066 65.0082,177.899 64.5,192.5C 65.1667,193.5 65.8333,194.5 66.5,195.5C 65.8708,198.205 65.5374,200.872 65.5,203.5C 66.681,207.072 67.3476,210.738 67.5,214.5C 65.1727,214.753 63.1727,214.086 61.5,212.5C 60.5224,212.977 59.6891,213.643 59,214.5C 57.3499,211.894 55.8499,211.894 54.5,214.5C 53.8501,214.804 53.1835,215.137 52.5,215.5C 51.5481,213.955 51.2148,212.288 51.5,210.5C 53.676,209.287 54.0093,207.62 52.5,205.5C 53.3829,204.452 54.0496,203.285 54.5,202C 55.5554,191.556 55.5554,181.222 54.5,171C 57.1667,169.333 57.1667,167.667 54.5,166C 56.7811,164.518 56.7811,162.851 54.5,161C 55.09,157.997 55.4233,154.997 55.5,152C 55.3613,150.699 54.6946,149.866 53.5,149.5C 53.5,149.167 53.5,148.833 53.5,148.5C 54.0967,148.265 54.4301,147.765 54.5,147C 53.3141,144.244 51.9808,141.578 50.5,139C 51.1905,137.933 51.6905,136.766 52,135.5C 53.2242,138.473 55.2242,139.14 58,137.5C 59.0852,138.293 60.2519,138.96 61.5,139.5C 64.863,136.51 67.1963,137.176 68.5,141.5 Z M 83.5,120.5 C 85.5,120.5 87.5,120.5 89.5,120.5C 89.5,138.833 89.5,157.167 89.5,175.5C 87.2495,175.819 85.2495,175.319 83.5,174C 83.5338,159.709 83.5338,145.209 83.5,130.5C 83.5,127.167 83.5,123.833 83.5,120.5 Z M 58.5,225.5 C 61.6741,225.952 62.0075,226.952 59.5,228.5C 57.4807,227.867 57.1474,226.867 58.5,225.5 Z"/></g>
<g><path style="opacity:1" fill="#0101f4" d="M 266.5,105.5 C 267.383,114.467 267.716,123.467 267.5,132.5C 265.32,134.031 264.32,136.198 264.5,139C 265.298,143.678 266.298,148.178 267.5,152.5C 268.796,157.062 269.462,161.729 269.5,166.5C 266.482,166.665 263.482,166.498 260.5,166C 259.601,164.348 258.601,162.848 257.5,161.5C 257.5,160.833 257.5,160.167 257.5,159.5C 257.811,153.048 256.478,147.048 253.5,141.5C 250.47,140.163 247.47,140.497 244.5,142.5C 245.465,149.776 245.799,157.109 245.5,164.5C 243.167,164.5 240.833,164.5 238.5,164.5C 238.5,143.833 238.5,123.167 238.5,102.5C 245.321,101.345 252.321,101.179 259.5,102C 262.166,102.666 264.5,103.833 266.5,105.5 Z M 248.5,111.5 C 250.857,111.337 253.19,111.503 255.5,112C 256.823,112.816 257.489,113.983 257.5,115.5C 257.666,119.514 257.499,123.514 257,127.5C 254.519,129.314 251.685,129.98 248.5,129.5C 248.5,123.5 248.5,117.5 248.5,111.5 Z"/></g>
<g><path style="opacity:0.118" fill="#100b86" d="M 67.5,99.5 C 64.1667,100.167 60.8333,100.833 57.5,101.5C 52.3515,101.982 48.0181,103.982 44.5,107.5C 41.5468,108.787 39.2135,110.787 37.5,113.5C 37.3505,112.448 37.5172,111.448 38,110.5C 45.879,101.894 55.7123,98.2277 67.5,99.5 Z"/></g>
<g><path style="opacity:0.004" fill="#000000" d="M 518.5,104.5 C 519.833,105.167 519.833,105.167 518.5,104.5 Z"/></g>
<g><path style="opacity:0.004" fill="#000000" d="M 527.5,105.5 C 528.833,106.167 528.833,106.167 527.5,105.5 Z"/></g>
<g><path style="opacity:0.004" fill="#000000" d="M 533.5,107.5 C 534.833,108.167 534.833,108.167 533.5,107.5 Z"/></g>
<g><path style="opacity:0.004" fill="#000000" d="M 179.5,111.5 C 180.833,112.167 180.833,112.167 179.5,111.5 Z"/></g>
<g><path style="opacity:0.209" fill="#100d99" d="M 266.5,105.5 C 264.5,103.833 262.166,102.666 259.5,102C 252.321,101.179 245.321,101.345 238.5,102.5C 237.504,115.99 237.171,129.656 237.5,143.5C 237.167,143.5 236.833,143.5 236.5,143.5C 235.183,128.846 235.183,114.179 236.5,99.5C 243.841,99.3337 251.174,99.5003 258.5,100C 260.5,100.667 262.5,101.333 264.5,102C 265.823,102.816 266.489,103.983 266.5,105.5 Z"/></g>
<g><path style="opacity:0.924" fill="#0405c9" d="M 298.5,101.5 C 301.833,102.833 304.167,105.167 305.5,108.5C 305.5,113.5 305.5,118.5 305.5,123.5C 302.167,123.5 298.833,123.5 295.5,123.5C 296.025,118.86 295.358,114.527 293.5,110.5C 294.496,110.414 295.329,110.748 296,111.5C 296.499,115.152 296.665,118.818 296.5,122.5C 299.167,122.5 301.833,122.5 304.5,122.5C 304.666,118.154 304.499,113.821 304,109.5C 301.175,107.512 299.341,104.845 298.5,101.5 Z"/></g>
<g><path style="opacity:0.822" fill="#0809c7" d="M 282.5,101.5 C 281.72,104.101 280.054,106.101 277.5,107.5C 276.811,109.444 276.311,111.444 276,113.5C 275.5,127.496 275.333,141.496 275.5,155.5C 274.614,142.332 273.947,128.999 273.5,115.5C 273.316,108.701 276.316,104.034 282.5,101.5 Z"/></g>
<g><path style="opacity:0.98" fill="#0504eb" d="M 44.5,107.5 C 43.5423,108.962 42.3756,110.295 41,111.5C 39.7928,115.312 40.7928,118.312 44,120.5C 45.8174,117.03 47.9841,113.863 50.5,111C 53.0934,110.463 55.5934,109.63 58,108.5C 61.28,109.975 64.78,110.808 68.5,111C 72.1681,114.851 74.8348,119.351 76.5,124.5C 76.6207,125.894 76.954,127.228 77.5,128.5C 76.675,129.386 75.675,129.719 74.5,129.5C 72.3997,134.185 72.0664,139.018 73.5,144C 72.6161,145.098 71.6161,145.598 70.5,145.5C 70.7093,146.086 71.0426,146.586 71.5,147C 69.3843,150.284 68.0509,153.784 67.5,157.5C 67.4724,152.138 67.8058,146.805 68.5,141.5C 68.543,139.231 68.543,136.898 68.5,134.5C 66.2073,135.705 63.7073,136.372 61,136.5C 56.6285,136.518 52.4619,135.851 48.5,134.5C 48.4238,138.384 49.0905,142.05 50.5,145.5C 48.3083,141.51 46.6416,137.177 45.5,132.5C 44.2713,131.719 42.938,131.219 41.5,131C 42.3908,127.857 42.5575,124.357 42,120.5C 41.6667,121.5 41.3333,122.5 41,123.5C 39.6525,121.807 39.1525,120.14 39.5,118.5C 38.3334,156.829 38.1667,195.162 39,233.5C 40.3186,235.25 40.8186,237.25 40.5,239.5C 39.6557,237.157 38.6557,234.824 37.5,232.5C 37.5,195.5 37.5,158.5 37.5,121.5C 37.5,118.833 37.5,116.167 37.5,113.5C 39.2135,110.787 41.5468,108.787 44.5,107.5 Z M 58.5,122.5 C 55.8434,125.383 56.5101,126.05 60.5,124.5C 60.1445,123.478 59.4778,122.811 58.5,122.5 Z"/></g>
<g><path style="opacity:0.668" fill="#03059a" d="M 266.5,105.5 C 267.793,106.842 268.626,108.509 269,110.5C 269.667,116.833 269.667,123.167 269,129.5C 268.768,130.737 268.268,131.737 267.5,132.5C 267.716,123.467 267.383,114.467 266.5,105.5 Z"/></g>
<g><path style="opacity:0.773" fill="#0f079d" d="M 54.5,120.5 C 57.2469,120.187 59.9135,120.52 62.5,121.5C 63.8647,123.751 63.5314,125.751 61.5,127.5C 55.699,129.035 53.3657,126.702 54.5,120.5 Z M 58.5,122.5 C 55.8434,125.383 56.5101,126.05 60.5,124.5C 60.1445,123.478 59.4778,122.811 58.5,122.5 Z"/></g>
<g><path style="opacity:0.945" fill="#0403df" d="M 133.5,118.5 C 133.5,118.833 133.5,119.167 133.5,119.5C 133.167,119.5 132.833,119.5 132.5,119.5C 131.171,156.069 131.171,192.736 132.5,229.5C 130.506,192.848 129.84,155.848 130.5,118.5C 131.5,118.5 132.5,118.5 133.5,118.5 Z"/></g>
<g><path style="opacity:0.004" fill="#000000" d="M 32.5,125.5 C 33.8333,126.167 33.8333,126.167 32.5,125.5 Z"/></g>
<g><path style="opacity:1" fill="#0503d9" d="M 154.5,111.5 C 155.375,113.568 156.541,115.568 158,117.5C 158.666,139.175 158.5,160.842 157.5,182.5C 151.907,182.807 146.407,182.473 141,181.5C 140.5,161.169 140.333,140.836 140.5,120.5C 141.497,140.326 141.83,160.326 141.5,180.5C 146.5,180.5 151.5,180.5 156.5,180.5C 156.667,159.164 156.5,137.831 156,116.5C 154.731,115.095 154.231,113.429 154.5,111.5 Z"/></g>
<g><path style="opacity:0.541" fill="#000591" d="M 217.5,110.5 C 214.956,110.104 212.789,110.771 211,112.5C 210.333,126.167 210.333,139.833 211,153.5C 213.83,156.101 216.663,156.101 219.5,153.5C 219.126,155.95 217.626,156.95 215,156.5C 211.787,156.898 209.787,155.565 209,152.5C 208.167,138.821 208.334,125.154 209.5,111.5C 210.674,109.766 212.34,108.766 214.5,108.5C 216.03,108.64 217.03,109.307 217.5,110.5 Z"/></g>
<g><path style="opacity:0.141" fill="#0e109e" d="M 217.5,110.5 C 218.5,110.5 219.5,110.5 220.5,110.5C 220.829,124.677 220.496,138.677 219.5,152.5C 219.667,139.163 219.5,125.829 219,112.5C 218.283,111.956 217.783,111.289 217.5,110.5 Z"/></g>
<g><path style="opacity:0.004" fill="#000000" d="M 317.5,127.5 C 318.833,128.167 318.833,128.167 317.5,127.5 Z"/></g>
<g><path style="opacity:0.412" fill="#0d0b96" d="M 248.5,111.5 C 248.5,117.5 248.5,123.5 248.5,129.5C 251.685,129.98 254.519,129.314 257,127.5C 257.499,123.514 257.666,119.514 257.5,115.5C 258.648,119.981 258.815,124.648 258,129.5C 254.757,131.263 251.257,131.929 247.5,131.5C 247.176,124.646 247.509,117.979 248.5,111.5 Z"/></g>
<g><path style="opacity:0.004" fill="#000000" d="M 311.5,130.5 C 312.833,131.167 312.833,131.167 311.5,130.5 Z"/></g>
<g><path style="opacity:0.047" fill="#080690" d="M 154.5,109.5 C 156.984,111.12 158.484,113.453 159,116.5C 159.827,138.739 159.66,160.906 158.5,183C 152.251,183.809 146.084,183.642 140,182.5C 139.5,161.836 139.333,141.169 139.5,120.5C 138.5,120.5 137.5,120.5 136.5,120.5C 135.791,119.596 134.791,119.263 133.5,119.5C 133.5,119.167 133.5,118.833 133.5,118.5C 135.527,118.338 137.527,118.505 139.5,119C 140.056,119.383 140.389,119.883 140.5,120.5C 140.333,140.836 140.5,161.169 141,181.5C 146.407,182.473 151.907,182.807 157.5,182.5C 158.5,160.842 158.666,139.175 158,117.5C 156.541,115.568 155.375,113.568 154.5,111.5C 154.5,110.833 154.5,110.167 154.5,109.5 Z"/></g>
<g><path style="opacity:0.243" fill="#100ea0" d="M 293.5,110.5 C 295.358,114.527 296.025,118.86 295.5,123.5C 298.833,123.5 302.167,123.5 305.5,123.5C 305.5,118.5 305.5,113.5 305.5,108.5C 306.888,113.294 307.388,118.294 307,123.5C 302.934,124.464 298.767,124.797 294.5,124.5C 294.665,120.818 294.499,117.152 294,113.5C 291.782,111.381 289.282,111.048 286.5,112.5C 285.352,125.788 285.185,139.121 286,152.5C 288.697,156.107 291.53,156.107 294.5,152.5C 292.026,157.42 288.859,157.753 285,153.5C 284.215,138.468 284.382,123.468 285.5,108.5C 287.857,108.337 290.19,108.503 292.5,109C 293.056,109.383 293.389,109.883 293.5,110.5 Z"/></g>
<g><path style="opacity:0.004" fill="#000000" d="M 437.5,135.5 C 438.833,136.167 438.833,136.167 437.5,135.5 Z"/></g>
<g><path style="opacity:0.004" fill="#000000" d="M 512.5,135.5 C 513.833,136.167 513.833,136.167 512.5,135.5 Z"/></g>
<g><path style="opacity:0.776" fill="#0c099a" d="M 68.5,141.5 C 67.1963,137.176 64.863,136.51 61.5,139.5C 60.2519,138.96 59.0852,138.293 58,137.5C 55.2242,139.14 53.2242,138.473 52,135.5C 51.6905,136.766 51.1905,137.933 50.5,139C 51.9808,141.578 53.3141,144.244 54.5,147C 54.4301,147.765 54.0967,148.265 53.5,148.5C 52.7281,147.306 51.7281,146.306 50.5,145.5C 49.0905,142.05 48.4238,138.384 48.5,134.5C 52.4619,135.851 56.6285,136.518 61,136.5C 63.7073,136.372 66.2073,135.705 68.5,134.5C 68.543,136.898 68.543,139.231 68.5,141.5 Z"/></g>
<g><path style="opacity:0.008" fill="#080682" d="M 267.5,132.5 C 267.276,134.787 266.609,136.953 265.5,139C 266.866,143.399 267.533,147.899 267.5,152.5C 266.298,148.178 265.298,143.678 264.5,139C 264.32,136.198 265.32,134.031 267.5,132.5 Z"/></g>
<g><path style="opacity:0.004" fill="#000000" d="M 449.5,136.5 C 450.833,137.167 450.833,137.167 449.5,136.5 Z"/></g>
<g><path style="opacity:0.58" fill="#04079a" d="M 225.5,101.5 C 228.635,103.76 230.802,106.76 232,110.5C 232.937,126.221 232.603,141.888 231,157.5C 228.753,165.204 223.586,168.871 215.5,168.5C 212.614,168.196 209.948,167.529 207.5,166.5C 213.245,166.789 218.912,166.289 224.5,165C 227.596,161.818 229.429,157.984 230,153.5C 230.667,139.167 230.667,124.833 230,110.5C 228.943,107.243 227.443,104.243 225.5,101.5 Z"/></g>
<g><path style="opacity:0.035" fill="#000074" d="M 132.5,119.5 C 132.833,119.5 133.167,119.5 133.5,119.5C 134.791,119.263 135.791,119.596 136.5,120.5C 135.5,120.5 134.5,120.5 133.5,120.5C 133.5,156.167 133.5,191.833 133.5,227.5C 132.502,191.671 132.168,155.671 132.5,119.5 Z"/></g>
<g><path style="opacity:0.004" fill="#000000" d="M 362.5,142.5 C 363.833,143.167 363.833,143.167 362.5,142.5 Z"/></g>
<g><path style="opacity:1" fill="#0706dc" d="M 83.5,119.5 C 83.5,119.833 83.5,120.167 83.5,120.5C 83.5,123.833 83.5,127.167 83.5,130.5C 82.8826,130.611 82.3826,130.944 82,131.5C 82.1846,146.149 82.5179,160.815 83,175.5C 85.3806,176.435 87.8806,176.768 90.5,176.5C 90.5272,157.493 90.8606,138.493 91.5,119.5C 92.6623,138.329 92.8289,157.329 92,176.5C 87.8821,177.798 83.7154,177.798 79.5,176.5C 80.3179,161.211 80.8179,145.878 81,130.5C 80.9064,126.367 81.7397,122.701 83.5,119.5 Z M 83.5,120.5 C 85.5,120.5 87.5,120.5 89.5,120.5C 89.5,138.833 89.5,157.167 89.5,175.5C 87.2495,175.819 85.2495,175.319 83.5,174C 83.5338,159.709 83.5338,145.209 83.5,130.5C 83.5,127.167 83.5,123.833 83.5,120.5 Z"/></g>
<g><path style="opacity:0.651" fill="#0907c3" d="M 102.5,105.5 C 106.568,105.998 108.568,108.331 108.5,112.5C 109.125,135.314 109.792,157.98 110.5,180.5C 109.612,183.054 109.279,185.721 109.5,188.5C 109.5,200.833 109.5,213.167 109.5,225.5C 108.668,192.336 108.168,159.003 108,125.5C 107.579,121.128 106.912,116.795 106,112.5C 104.121,110.473 102.954,108.14 102.5,105.5 Z"/></g>
<g><path style="opacity:0.201" fill="#090788" d="M 273.5,115.5 C 273.947,128.999 274.614,142.332 275.5,155.5C 277.694,160.237 281.028,163.904 285.5,166.5C 280.026,165.201 276.193,161.868 274,156.5C 273.597,145.662 273.097,134.829 272.5,124C 272.502,120.979 272.836,118.146 273.5,115.5 Z"/></g>
<g><path style="opacity:0.263" fill="#070694" d="M 208.5,99.5 C 205.419,102.412 202.919,105.746 201,109.5C 200.334,119.992 199.834,130.492 199.5,141C 198,150.931 200.667,159.431 207.5,166.5C 203.088,164.582 200.254,161.249 199,156.5C 198.333,140.833 198.333,125.167 199,109.5C 201.016,104.986 204.183,101.653 208.5,99.5 Z"/></g>
<g><path style="opacity:0.004" fill="#000000" d="M 437.5,147.5 C 438.833,148.167 438.833,148.167 437.5,147.5 Z"/></g>
<g><path style="opacity:0.188" fill="#0b0c7f" d="M 253.5,141.5 C 256.478,147.048 257.811,153.048 257.5,159.5C 255.869,154.664 254.369,149.664 253,144.5C 251.644,143.62 250.144,143.286 248.5,143.5C 248.666,151.174 248.5,158.841 248,166.5C 244.591,167.622 241.091,167.789 237.5,167C 236.426,166.261 235.759,165.261 235.5,164C 236.445,157.212 236.778,150.379 236.5,143.5C 236.833,143.5 237.167,143.5 237.5,143.5C 237.334,150.841 237.5,158.174 238,165.5C 241,166.833 244,166.833 247,165.5C 247.333,157.833 247.667,150.167 248,142.5C 249.699,141.594 251.533,141.261 253.5,141.5 Z"/></g>
<g><path style="opacity:0.159" fill="#111187" d="M 305.5,157.5 C 305.5,152.167 305.5,146.833 305.5,141.5C 302.167,141.5 298.833,141.5 295.5,141.5C 295.815,145.371 295.482,149.038 294.5,152.5C 294.5,148.5 294.5,144.5 294.5,140.5C 298.767,140.203 302.934,140.536 307,141.5C 307.328,147.03 306.828,152.363 305.5,157.5 Z"/></g>
<g><path style="opacity:0.031" fill="#000060" d="M 108.5,112.5 C 109.268,113.263 109.768,114.263 110,115.5C 110.5,137.164 110.667,158.831 110.5,180.5C 109.792,157.98 109.125,135.314 108.5,112.5 Z"/></g>
<g><path style="opacity:0.424" fill="#0607b3" d="M 132.5,119.5 C 132.168,155.671 132.502,191.671 133.5,227.5C 133.5,228.167 133.5,228.833 133.5,229.5C 133.167,229.5 132.833,229.5 132.5,229.5C 131.171,192.736 131.171,156.069 132.5,119.5 Z"/></g>
<g><path style="opacity:1" fill="#0404d8" d="M 238.5,102.5 C 238.5,123.167 238.5,143.833 238.5,164.5C 240.833,164.5 243.167,164.5 245.5,164.5C 245.799,157.109 245.465,149.776 244.5,142.5C 247.47,140.497 250.47,140.163 253.5,141.5C 251.533,141.261 249.699,141.594 248,142.5C 247.667,150.167 247.333,157.833 247,165.5C 244,166.833 241,166.833 238,165.5C 237.5,158.174 237.334,150.841 237.5,143.5C 237.171,129.656 237.504,115.99 238.5,102.5 Z"/></g>
<g><path style="opacity:1" fill="#0102f4" d="M 298.5,101.5 C 299.341,104.845 301.175,107.512 304,109.5C 304.499,113.821 304.666,118.154 304.5,122.5C 301.833,122.5 299.167,122.5 296.5,122.5C 296.665,118.818 296.499,115.152 296,111.5C 295.329,110.748 294.496,110.414 293.5,110.5C 293.389,109.883 293.056,109.383 292.5,109C 290.19,108.503 287.857,108.337 285.5,108.5C 284.382,123.468 284.215,138.468 285,153.5C 288.859,157.753 292.026,157.42 294.5,152.5C 295.482,149.038 295.815,145.371 295.5,141.5C 298.833,141.5 302.167,141.5 305.5,141.5C 305.5,146.833 305.5,152.167 305.5,157.5C 305.672,158.492 305.338,159.158 304.5,159.5C 301.532,161.467 298.865,163.8 296.5,166.5C 292.732,167.787 289.065,167.787 285.5,166.5C 281.028,163.904 277.694,160.237 275.5,155.5C 275.333,141.496 275.5,127.496 276,113.5C 276.311,111.444 276.811,109.444 277.5,107.5C 280.054,106.101 281.72,104.101 282.5,101.5C 287.833,100.167 293.167,100.167 298.5,101.5 Z"/></g>
<g><path style="opacity:0.004" fill="#000000" d="M 485.5,154.5 C 486.833,155.167 486.833,155.167 485.5,154.5 Z"/></g>
<g><path style="opacity:0.004" fill="#000000" d="M -0.5,158.5 C 0.833333,159.167 0.833333,159.167 -0.5,158.5 Z"/></g>
<g><path style="opacity:0.581" fill="#100ace" d="M 120.5,105.5 C 117.884,108.658 116.218,112.325 115.5,116.5C 114.5,154.161 114.167,191.827 114.5,229.5C 112.302,229.88 110.635,229.213 109.5,227.5C 110.833,227.5 112.167,227.5 113.5,227.5C 113.333,190.165 113.5,152.832 114,115.5C 114.608,113.846 115.108,112.179 115.5,110.5C 116.167,107.833 117.833,106.167 120.5,105.5 Z"/></g>
<g><path style="opacity:0.298" fill="#0b0a7b" d="M 304.5,159.5 C 303.062,163.274 300.395,165.607 296.5,166.5C 298.865,163.8 301.532,161.467 304.5,159.5 Z"/></g>
<g><path style="opacity:0.713" fill="#0604be" d="M 37.5,121.5 C 37.5,158.5 37.5,195.5 37.5,232.5C 37.1667,232.5 36.8333,232.5 36.5,232.5C 35.9084,229.873 35.5751,227.206 35.5,224.5C 36.1667,190.167 36.8333,155.833 37.5,121.5 Z"/></g>
<g><path style="opacity:0.132" fill="#090893" d="M 83.5,120.5 C 83.5,120.167 83.5,119.833 83.5,119.5C 86.1667,119.5 88.8333,119.5 91.5,119.5C 90.8606,138.493 90.5272,157.493 90.5,176.5C 87.8806,176.768 85.3806,176.435 83,175.5C 82.5179,160.815 82.1846,146.149 82,131.5C 82.3826,130.944 82.8826,130.611 83.5,130.5C 83.5338,145.209 83.5338,159.709 83.5,174C 85.2495,175.319 87.2495,175.819 89.5,175.5C 89.5,157.167 89.5,138.833 89.5,120.5C 87.5,120.5 85.5,120.5 83.5,120.5 Z"/></g>
<g><path style="opacity:0.012" fill="#080c72" d="M 267.5,152.5 C 270.28,156.995 271.28,161.829 270.5,167C 266.833,167.667 263.167,167.667 259.5,167C 258.139,165.416 257.472,163.582 257.5,161.5C 258.601,162.848 259.601,164.348 260.5,166C 263.482,166.498 266.482,166.665 269.5,166.5C 269.462,161.729 268.796,157.062 267.5,152.5 Z"/></g>
<g><path style="opacity:0.004" fill="#000000" d="M 593.5,171.5 C 594.833,172.167 594.833,172.167 593.5,171.5 Z"/></g>
<g><path style="opacity:0.459" fill="#a38c23" d="M 455.5,177.5 C 459.506,175.931 463.173,176.598 466.5,179.5C 465.504,179.414 464.671,179.748 464,180.5C 461.646,178.363 458.812,177.363 455.5,177.5 Z"/></g>
<g><path style="opacity:0.027" fill="#816918" d="M 555.5,178.5 C 545.833,178.5 536.167,178.5 526.5,178.5C 526.784,180.415 526.451,182.081 525.5,183.5C 525.5,181.5 525.5,179.5 525.5,177.5C 535.681,177.173 545.681,177.506 555.5,178.5 Z"/></g>
<g><path style="opacity:0.957" fill="#b39a3e" d="M 271.5,178.5 C 269.031,179.317 266.365,179.817 263.5,180C 262.934,180.995 262.267,181.828 261.5,182.5C 261.67,181.178 261.337,180.011 260.5,179C 261,178.5 261.5,178 262,177.5C 265.057,178.451 268.223,178.784 271.5,178.5 Z"/></g>
<g><path style="opacity:0.055" fill="#10108e" d="M 37.5,113.5 C 37.5,116.167 37.5,118.833 37.5,121.5C 36.8333,155.833 36.1667,190.167 35.5,224.5C 35.3333,189.165 35.5,153.832 36,118.5C 36.1981,116.618 36.6981,114.952 37.5,113.5 Z"/></g>
<g><path style="opacity:0.004" fill="#000000" d="M 212.5,181.5 C 213.833,182.167 213.833,182.167 212.5,181.5 Z"/></g>
<g><path style="opacity:1" fill="#c4a731" d="M 581.5,189.5 C 583.125,191.03 584.959,192.363 587,193.5C 589.137,192.923 591.304,192.59 593.5,192.5C 593.5,190.5 593.5,188.5 593.5,186.5C 591.42,185.956 589.42,185.122 587.5,184C 582.956,178.613 577.289,177.113 570.5,179.5C 581.079,174.185 589.246,176.852 595,187.5C 595.667,189.5 595.667,191.5 595,193.5C 592.056,194.257 589.056,194.923 586,195.5C 583.791,194.103 582.291,192.103 581.5,189.5 Z"/></g>
<g><path style="opacity:1" fill="#f9ca1c" d="M 253.5,245.5 C 249.765,245.515 245.931,245.515 242,245.5C 237.806,233.919 233.806,222.252 230,210.5C 229.667,222.167 229.333,233.833 229,245.5C 226.379,245.704 223.545,245.704 220.5,245.5C 219.511,223.575 219.178,201.575 219.5,179.5C 222.85,179.335 226.183,179.502 229.5,180C 230.399,181.652 231.399,183.152 232.5,184.5C 235.726,193.989 238.726,203.656 241.5,213.5C 241.995,215.482 242.495,217.482 243,219.5C 243.333,206.167 243.667,192.833 244,179.5C 247.057,178.549 250.223,178.216 253.5,178.5C 253.5,200.833 253.5,223.167 253.5,245.5 Z"/></g>
<g><path style="opacity:1" fill="#fbcd1a" d="M 209.5,179.5 C 209.5,201.167 209.5,222.833 209.5,244.5C 207.901,244.232 206.568,244.566 205.5,245.5C 203.833,245.5 202.167,245.5 200.5,245.5C 200.5,223.5 200.5,201.5 200.5,179.5C 203.5,179.5 206.5,179.5 209.5,179.5 Z"/></g>
<g><path style="opacity:1" fill="#dfb92d" d="M 337.5,186.5 C 334.972,187.935 332.305,188.935 329.5,189.5C 325.818,189.335 322.152,189.501 318.5,190C 318.602,194.955 318.602,200.122 318.5,205.5C 322.634,206.485 326.968,206.818 331.5,206.5C 331.232,208.099 331.566,209.432 332.5,210.5C 332.5,212.833 332.5,215.167 332.5,217.5C 327.833,217.5 323.167,217.5 318.5,217.5C 322.298,216.517 326.298,216.183 330.5,216.5C 330.5,213.5 330.5,210.5 330.5,207.5C 326.167,207.5 321.833,207.5 317.5,207.5C 317.793,201.107 317.46,194.773 316.5,188.5C 318.22,187.08 320.054,185.747 322,184.5C 322.49,183.207 322.657,181.873 322.5,180.5C 317.819,180.331 313.152,179.998 308.5,179.5C 308.5,201.167 308.5,222.833 308.5,244.5C 317.833,244.5 327.167,244.5 336.5,244.5C 336.777,241.552 336.444,238.719 335.5,236C 329.827,236.065 324.16,236.565 318.5,237.5C 317.2,234.691 317.2,232.024 318.5,229.5C 318.291,231.714 319.124,233.381 321,234.5C 326.42,234.272 331.753,234.272 337,234.5C 337.922,238.691 337.588,242.691 336,246.5C 326.266,245.56 316.599,245.227 307,245.5C 306.333,223.167 306.333,200.833 307,178.5C 317.084,177.514 327.251,177.181 337.5,177.5C 337.5,180.5 337.5,183.5 337.5,186.5 Z"/></g>
<g><path style="opacity:1" fill="#fccd13" d="M 503.5,233.5 C 503.672,232.508 503.338,231.842 502.5,231.5C 501.167,224.833 499.833,218.167 498.5,211.5C 500.133,209.948 500.967,208.281 501,206.5C 501.97,209.444 502.804,212.444 503.5,215.5C 504.183,215.137 504.85,214.804 505.5,214.5C 505.192,216.924 505.526,219.257 506.5,221.5C 507.251,220.624 507.751,219.624 508,218.5C 508.5,205.504 508.667,192.504 508.5,179.5C 511.167,179.5 513.833,179.5 516.5,179.5C 516.5,201.167 516.5,222.833 516.5,244.5C 513.167,244.5 509.833,244.5 506.5,244.5C 505.873,240.634 504.873,236.968 503.5,233.5 Z"/></g>
<g><path style="opacity:0.522" fill="#a2852f" d="M 261.5,183.5 C 262.79,184.058 263.623,185.058 264,186.5C 264.501,190.51 265.001,194.51 265.5,198.5C 263.43,193.816 262.097,188.816 261.5,183.5 Z"/></g>
<g><path style="opacity:0.42" fill="#a68f37" d="M 297.5,195.5 C 297.5,192.833 297.5,190.167 297.5,187.5C 298.163,185.196 298.83,182.863 299.5,180.5C 295.454,179.235 291.454,179.235 287.5,180.5C 287.461,179.244 287.961,178.244 289,177.5C 292.468,178.803 295.968,178.803 299.5,177.5C 299.833,178.5 300.167,179.5 300.5,180.5C 299.601,185.66 298.601,190.66 297.5,195.5 Z"/></g>
<g><path style="opacity:1" fill="#f9cb18" d="M 581.5,189.5 C 580.249,187.439 578.582,187.106 576.5,188.5C 573.936,192.883 574.102,197.216 577,201.5C 579.479,203.966 581.979,206.299 584.5,208.5C 584.5,210.167 584.5,211.833 584.5,213.5C 583.448,213.351 582.448,213.517 581.5,214C 582.34,215.666 581.84,215.833 580,214.5C 579.667,215.167 579.333,215.833 579,216.5C 576.573,213.368 573.407,211.368 569.5,210.5C 568.5,210.167 567.833,209.5 567.5,208.5C 566.956,206.42 566.122,204.42 565,202.5C 564.333,197.5 564.333,192.5 565,187.5C 566.134,184.192 567.967,181.525 570.5,179.5C 577.289,177.113 582.956,178.613 587.5,184C 589.42,185.122 591.42,185.956 593.5,186.5C 593.5,188.5 593.5,190.5 593.5,192.5C 591.304,192.59 589.137,192.923 587,193.5C 584.959,192.363 583.125,191.03 581.5,189.5 Z"/></g>
<g><path style="opacity:0.11" fill="#432d0c" d="M 337.5,186.5 C 337.5,187.5 337.5,188.5 337.5,189.5C 334.833,189.5 332.167,189.5 329.5,189.5C 332.305,188.935 334.972,187.935 337.5,186.5 Z"/></g>
<g><path style="opacity:0.067" fill="#aa8e3a" d="M 253.5,245.5 C 253.5,223.167 253.5,200.833 253.5,178.5C 250.223,178.216 247.057,178.549 244,179.5C 243.667,192.833 243.333,206.167 243,219.5C 242.495,217.482 241.995,215.482 241.5,213.5C 242.331,202.007 242.831,190.341 243,178.5C 246.73,177.54 250.563,177.207 254.5,177.5C 254.831,200.339 254.497,223.006 253.5,245.5 Z"/></g>
<g><path style="opacity:1" fill="#fbcc19" d="M 371.5,182.5 C 374.576,190.917 375.243,199.584 373.5,208.5C 372.408,209.831 371.074,210.664 369.5,211C 369.855,213.932 370.188,216.766 370.5,219.5C 372.651,223.497 373.984,227.83 374.5,232.5C 375.021,236.481 375.354,240.481 375.5,244.5C 372.167,244.5 368.833,244.5 365.5,244.5C 366.114,239.968 365.114,235.968 362.5,232.5C 361.134,229.039 360.134,225.373 359.5,221.5C 357.735,220.539 355.735,220.205 353.5,220.5C 352.508,228.316 352.174,236.316 352.5,244.5C 349.833,244.5 347.167,244.5 344.5,244.5C 344.5,223.167 344.5,201.833 344.5,180.5C 353.652,179.99 362.652,180.657 371.5,182.5 Z M 361.5,189.5 C 362.469,190.309 363.302,191.309 364,192.5C 364.778,197.584 364.611,202.584 363.5,207.5C 360.57,208.299 357.57,208.632 354.5,208.5C 354.5,202.167 354.5,195.833 354.5,189.5C 356.833,189.5 359.167,189.5 361.5,189.5 Z"/></g>
<g><path style="opacity:1" fill="#fdcd14" d="M 492.5,234.5 C 492.5,237.833 492.5,241.167 492.5,244.5C 489.833,244.5 487.167,244.5 484.5,244.5C 484.5,222.833 484.5,201.167 484.5,179.5C 487.833,179.5 491.167,179.5 494.5,179.5C 494.872,182.617 494.872,185.617 494.5,188.5C 495.934,190.22 496.767,192.22 497,194.5C 497.107,197.131 497.273,199.631 497.5,202C 496,204.167 494.833,204 494,201.5C 493.586,201.957 493.086,202.291 492.5,202.5C 491.177,213.326 491.177,223.993 492.5,234.5 Z"/></g>
<g><path style="opacity:0.934" fill="#e4c139" d="M 516.5,245.5 C 513.223,245.216 510.057,245.549 507,246.5C 505.007,244.182 503.841,241.516 503.5,238.5C 503.5,236.833 503.5,235.167 503.5,233.5C 504.873,236.968 505.873,240.634 506.5,244.5C 509.833,244.5 513.167,244.5 516.5,244.5C 516.5,222.833 516.5,201.167 516.5,179.5C 513.833,179.5 511.167,179.5 508.5,179.5C 508.667,192.504 508.5,205.504 508,218.5C 507.751,219.624 507.251,220.624 506.5,221.5C 505.526,219.257 505.192,216.924 505.5,214.5C 506.494,204.013 506.828,193.346 506.5,182.5C 507.434,181.432 507.768,180.099 507.5,178.5C 510.833,178.5 514.167,178.5 517.5,178.5C 517.831,201.006 517.497,223.34 516.5,245.5 Z"/></g>
<g><path style="opacity:0.483" fill="#c9a938" d="M 371.5,182.5 C 373.136,183.749 374.303,185.416 375,187.5C 375.667,194.833 375.667,202.167 375,209.5C 373.208,212.747 371.708,216.081 370.5,219.5C 370.188,216.766 369.855,213.932 369.5,211C 371.074,210.664 372.408,209.831 373.5,208.5C 375.243,199.584 374.576,190.917 371.5,182.5 Z"/></g>
<g><path style="opacity:0.36" fill="#6e5713" d="M 516.5,245.5 C 517.497,223.34 517.831,201.006 517.5,178.5C 514.167,178.5 510.833,178.5 507.5,178.5C 507.768,180.099 507.434,181.432 506.5,182.5C 506.181,180.25 506.681,178.25 508,176.5C 511.394,177.456 514.894,177.789 518.5,177.5C 518.833,200.51 518.5,223.51 517.5,246.5C 516.893,246.376 516.56,246.043 516.5,245.5 Z"/></g>
<g><path style="opacity:0.953" fill="#bc9d2f" d="M 555.5,178.5 C 556.482,181.962 556.815,185.629 556.5,189.5C 550.5,189.5 544.5,189.5 538.5,189.5C 538.5,188.833 538.167,188.5 537.5,188.5C 542.975,187.511 548.642,187.178 554.5,187.5C 554.5,184.833 554.5,182.167 554.5,179.5C 545.5,179.5 536.5,179.5 527.5,179.5C 527.5,201.167 527.5,222.833 527.5,244.5C 536.5,244.5 545.5,244.5 554.5,244.5C 554.5,241.5 554.5,238.5 554.5,235.5C 555.479,238.625 555.813,241.958 555.5,245.5C 545.982,245.39 536.316,245.723 526.5,246.5C 525.5,225.511 525.167,204.511 525.5,183.5C 526.451,182.081 526.784,180.415 526.5,178.5C 536.167,178.5 545.833,178.5 555.5,178.5 Z"/></g>
<g><path style="opacity:1" fill="#efc422" d="M 404.5,208.5 C 405.45,212.413 407.783,215.08 411.5,216.5C 416.969,223.558 417.803,231.224 414,239.5C 410.534,244.888 405.534,247.221 399,246.5C 392.549,247.24 387.549,244.907 384,239.5C 382.95,235.197 382.116,230.863 381.5,226.5C 385.178,225.414 388.845,225.414 392.5,226.5C 393.017,231.006 395.35,234.006 399.5,235.5C 401.029,235.471 402.196,234.804 403,233.5C 403.919,229.269 403.419,225.269 401.5,221.5C 401.67,220.178 401.337,219.011 400.5,218C 396.603,214.922 392.603,212.089 388.5,209.5C 386.525,208.354 385.025,206.687 384,204.5C 382.117,198.142 382.117,191.809 384,185.5C 390.797,176.016 399.297,174.183 409.5,180C 413.934,183.798 415.934,188.631 415.5,194.5C 411.775,194.595 408.109,194.762 404.5,195C 403.751,193.266 403.251,191.433 403,189.5C 400.034,186.735 397.367,187.068 395,190.5C 394.21,193.634 394.543,196.634 396,199.5C 398.362,203.027 401.196,206.027 404.5,208.5 Z"/></g>
<g><path style="opacity:1" fill="#fccd15" d="M 463.5,194.5 C 462.833,194.5 462.5,194.167 462.5,193.5C 464.28,192.01 464.946,190.01 464.5,187.5C 460.881,186.756 457.215,186.423 453.5,186.5C 451.551,201.712 450.718,217.046 451,232.5C 453.983,235.016 457.15,235.683 460.5,234.5C 462.017,234.489 463.184,233.823 464,232.5C 464.667,233.833 464.667,235.167 464,236.5C 462.16,235.167 461.66,235.334 462.5,237C 461.027,237.71 460.36,238.876 460.5,240.5C 462.262,240.643 463.929,240.309 465.5,239.5C 468.076,240.883 467.742,241.717 464.5,242C 465.308,242.308 465.975,242.808 466.5,243.5C 460.501,244.643 454.501,244.643 448.5,243.5C 447.918,242.069 447.085,240.736 446,239.5C 443.798,222.248 442.965,204.915 443.5,187.5C 443.5,187.167 443.5,186.833 443.5,186.5C 445.484,185.017 447.317,183.351 449,181.5C 451.166,180.25 453.499,179.584 456,179.5C 458.348,180.039 460.515,180.206 462.5,180C 461.833,180.667 461.167,181.333 460.5,182C 464.806,181.886 468.639,183.386 472,186.5C 473.78,200.477 473.78,214.477 472,228.5C 470.615,229.551 469.615,230.884 469,232.5C 467.228,231.01 467.061,229.343 468.5,227.5C 467.273,226.41 466.44,225.076 466,223.5C 465.667,225.5 465.333,227.5 465,229.5C 464.831,217.659 464.331,205.993 463.5,194.5 Z M 462.5,193.5 C 462.5,194.167 462.833,194.5 463.5,194.5C 463.667,206.171 463.5,217.838 463,229.5C 462.634,231.452 461.801,233.118 460.5,234.5C 457.675,234.919 455.509,233.919 454,231.5C 453.333,218.167 453.333,204.833 454,191.5C 456.237,187.98 458.904,187.647 462,190.5C 462.483,191.448 462.649,192.448 462.5,193.5 Z"/></g>
<g><path style="opacity:0.004" fill="#000000" d="M 167.5,196.5 C 168.833,197.167 168.833,197.167 167.5,196.5 Z"/></g>
<g><path style="opacity:0.191" fill="#e7c85c" d="M 209.5,179.5 C 209.833,179.5 210.167,179.5 210.5,179.5C 210.667,201.503 210.5,223.503 210,245.5C 208.701,245.966 207.201,245.966 205.5,245.5C 206.568,244.566 207.901,244.232 209.5,244.5C 209.5,222.833 209.5,201.167 209.5,179.5 Z"/></g>
<g><path style="opacity:0.976" fill="#c3a438" d="M 570.5,179.5 C 567.967,181.525 566.134,184.192 565,187.5C 564.333,192.5 564.333,197.5 565,202.5C 566.122,204.42 566.956,206.42 567.5,208.5C 565.496,207.327 563.996,205.66 563,203.5C 559.902,194.782 561.402,187.115 567.5,180.5C 568.417,179.873 569.417,179.539 570.5,179.5 Z"/></g>
<g><path style="opacity:0.09" fill="#100f8d" d="M 115.5,110.5 C 115.108,112.179 114.608,113.846 114,115.5C 113.5,152.832 113.333,190.165 113.5,227.5C 112.167,227.5 110.833,227.5 109.5,227.5C 109.5,226.833 109.5,226.167 109.5,225.5C 109.5,213.167 109.5,200.833 109.5,188.5C 110.167,201.006 110.833,213.673 111.5,226.5C 112.333,189.171 112.833,151.838 113,114.5C 113.2,112.68 114.034,111.347 115.5,110.5 Z"/></g>
<g><path style="opacity:1" fill="#e2bc2c" d="M 277.5,206.5 C 276.59,204.981 275.757,203.315 275,201.5C 274.313,194.418 273.146,187.418 271.5,180.5C 262.539,181.095 261.872,184.595 269.5,191C 266.855,192.287 265.855,194.453 266.5,197.5C 267.675,197.281 268.675,197.614 269.5,198.5C 267.679,208.398 268.513,218.064 272,227.5C 272.499,231.152 272.665,234.818 272.5,238.5C 272.167,238.5 271.833,238.5 271.5,238.5C 268.022,225.396 266.022,212.063 265.5,198.5C 265.001,194.51 264.501,190.51 264,186.5C 263.623,185.058 262.79,184.058 261.5,183.5C 261.5,183.167 261.5,182.833 261.5,182.5C 262.267,181.828 262.934,180.995 263.5,180C 266.365,179.817 269.031,179.317 271.5,178.5C 271.56,177.957 271.893,177.624 272.5,177.5C 275.227,187.32 276.894,196.987 277.5,206.5 Z"/></g>
<g><path style="opacity:0.094" fill="#654d0e" d="M 361.5,189.5 C 359.167,189.5 356.833,189.5 354.5,189.5C 354.5,195.833 354.5,202.167 354.5,208.5C 357.57,208.632 360.57,208.299 363.5,207.5C 363.389,208.117 363.056,208.617 362.5,209C 359.518,209.498 356.518,209.665 353.5,209.5C 353.5,202.5 353.5,195.5 353.5,188.5C 356.385,188.194 359.052,188.527 361.5,189.5 Z"/></g>
<g><path style="opacity:1" fill="#ecc32a" d="M 483.5,177.5 C 487.5,177.5 491.5,177.5 495.5,177.5C 499.246,189.735 502.579,202.068 505.5,214.5C 504.85,214.804 504.183,215.137 503.5,215.5C 502.804,212.444 501.97,209.444 501,206.5C 500.967,208.281 500.133,209.948 498.5,211.5C 497.263,209.252 495.597,207.252 493.5,205.5C 492.502,215.144 492.168,224.81 492.5,234.5C 491.177,223.993 491.177,213.326 492.5,202.5C 493.086,202.291 493.586,201.957 494,201.5C 494.833,204 496,204.167 497.5,202C 497.273,199.631 497.107,197.131 497,194.5C 496.767,192.22 495.934,190.22 494.5,188.5C 494.872,185.617 494.872,182.617 494.5,179.5C 491.167,179.5 487.833,179.5 484.5,179.5C 484.5,201.167 484.5,222.833 484.5,244.5C 483.503,222.34 483.169,200.006 483.5,177.5 Z"/></g>
<g><path style="opacity:1" fill="#fccd15" d="M 318.5,217.5 C 319.405,221.667 319.405,225.667 318.5,229.5C 317.2,232.024 317.2,234.691 318.5,237.5C 324.16,236.565 329.827,236.065 335.5,236C 336.444,238.719 336.777,241.552 336.5,244.5C 327.167,244.5 317.833,244.5 308.5,244.5C 308.5,222.833 308.5,201.167 308.5,179.5C 313.152,179.998 317.819,180.331 322.5,180.5C 322.657,181.873 322.49,183.207 322,184.5C 320.054,185.747 318.22,187.08 316.5,188.5C 317.46,194.773 317.793,201.107 317.5,207.5C 321.833,207.5 326.167,207.5 330.5,207.5C 330.5,210.5 330.5,213.5 330.5,216.5C 326.298,216.183 322.298,216.517 318.5,217.5 Z"/></g>
<g><path style="opacity:0.664" fill="#c5a631" d="M 462.5,193.5 C 462.649,192.448 462.483,191.448 462,190.5C 458.904,187.647 456.237,187.98 454,191.5C 453.333,204.833 453.333,218.167 454,231.5C 455.509,233.919 457.675,234.919 460.5,234.5C 457.15,235.683 453.983,235.016 451,232.5C 450.718,217.046 451.551,201.712 453.5,186.5C 457.215,186.423 460.881,186.756 464.5,187.5C 464.946,190.01 464.28,192.01 462.5,193.5 Z"/></g>
<g><path style="opacity:0.114" fill="#7a6111" d="M 318.5,205.5 C 323.167,205.5 327.833,205.5 332.5,205.5C 332.5,207.167 332.5,208.833 332.5,210.5C 331.566,209.432 331.232,208.099 331.5,206.5C 326.968,206.818 322.634,206.485 318.5,205.5 Z"/></g>
<g><path style="opacity:0.004" fill="#000000" d="M 614.5,205.5 C 615.833,206.167 615.833,206.167 614.5,205.5 Z"/></g>
<g><path style="opacity:1" fill="#0404de" d="M 91.5,195.5 C 91.1667,195.5 90.8333,195.5 90.5,195.5C 88.283,194.631 85.9496,194.298 83.5,194.5C 83.5,196.833 83.5,199.167 83.5,201.5C 83.5,204.5 83.5,207.5 83.5,210.5C 81.8505,218.794 80.8505,227.461 80.5,236.5C 79.8243,237.602 79.1577,238.602 78.5,239.5C 80.3708,231.962 80.8708,224.296 80,216.5C 78.8777,214.58 78.0444,212.58 77.5,210.5C 78.5,210.5 79.5,210.5 80.5,210.5C 80.5,204.833 80.5,199.167 80.5,193.5C 84.1352,192.886 87.8019,192.552 91.5,192.5C 91.5,193.5 91.5,194.5 91.5,195.5 Z"/></g>
<g><path style="opacity:0.012" fill="#050353" d="M 145.5,207.5 C 150.179,207.334 154.845,207.501 159.5,208C 160.814,210.605 160.814,213.105 159.5,215.5C 159.795,213.265 159.461,211.265 158.5,209.5C 154.167,208.833 149.833,208.167 145.5,207.5 Z"/></g>
<g><path style="opacity:0.534" fill="#a88922" d="M 210.5,179.5 C 210.167,179.5 209.833,179.5 209.5,179.5C 206.5,179.5 203.5,179.5 200.5,179.5C 200.5,201.5 200.5,223.5 200.5,245.5C 199.922,246.547 199.256,246.38 198.5,245C 199.829,223.196 199.829,201.363 198.5,179.5C 198.808,178.692 199.308,178.025 200,177.5C 203.135,178.799 206.301,178.799 209.5,177.5C 210.298,177.957 210.631,178.624 210.5,179.5 Z"/></g>
<g><path style="opacity:0.453" fill="#0e0ca5" d="M 90.5,195.5 C 90.8333,195.5 91.1667,195.5 91.5,195.5C 91.3334,208.504 91.5001,221.504 92,234.5C 93.5613,237.711 95.3947,240.711 97.5,243.5C 95.9826,243.489 94.8159,242.823 94,241.5C 91.6683,238.178 90.5016,234.511 90.5,230.5C 90.5,218.833 90.5,207.167 90.5,195.5 Z"/></g>
<g><path style="opacity:0.518" fill="#856d17" d="M 537.5,188.5 C 538.167,188.5 538.5,188.833 538.5,189.5C 537.512,194.64 537.179,199.974 537.5,205.5C 541.833,205.5 546.167,205.5 550.5,205.5C 550.817,209.702 550.483,213.702 549.5,217.5C 549.5,213.833 549.5,210.167 549.5,206.5C 545.167,206.5 540.833,206.5 536.5,206.5C 536.177,200.31 536.51,194.31 537.5,188.5 Z"/></g>
<g><path style="opacity:0.024" fill="#090253" d="M 90.5,195.5 C 90.5,207.167 90.5,218.833 90.5,230.5C 89.6694,219.341 89.1694,208.007 89,196.5C 87.6439,195.62 86.1439,195.286 84.5,195.5C 84.7947,197.735 84.4614,199.735 83.5,201.5C 83.5,199.167 83.5,196.833 83.5,194.5C 85.9496,194.298 88.283,194.631 90.5,195.5 Z"/></g>
<g><path style="opacity:0.89" fill="#b0993a" d="M 404.5,208.5 C 407.229,210.89 409.562,213.557 411.5,216.5C 407.783,215.08 405.45,212.413 404.5,208.5 Z"/></g>
<g><path style="opacity:0.008" fill="#0c088a" d="M 145.5,207.5 C 149.833,208.167 154.167,208.833 158.5,209.5C 152.974,209.179 147.64,209.512 142.5,210.5C 141.673,215.651 141.173,220.984 141,226.5C 140.626,227.416 140.126,228.25 139.5,229C 137.527,229.495 135.527,229.662 133.5,229.5C 133.5,228.833 133.5,228.167 133.5,227.5C 135.339,228.752 137.172,228.752 139,227.5C 139.333,221.167 139.667,214.833 140,208.5C 141.699,207.594 143.533,207.261 145.5,207.5 Z"/></g>
<g><path style="opacity:0.497" fill="#9a7a16" d="M 434.5,181.5 C 431.512,179.727 428.179,179.06 424.5,179.5C 424.169,201.673 424.503,223.673 425.5,245.5C 424.503,246.713 423.503,246.546 422.5,245C 423.494,222.909 423.827,200.742 423.5,178.5C 426.909,178.751 430.242,178.417 433.5,177.5C 434.429,178.689 434.762,180.022 434.5,181.5 Z"/></g>
<g><path style="opacity:1" fill="#0404d0" d="M 142.5,210.5 C 147.64,209.512 152.974,209.179 158.5,209.5C 159.461,211.265 159.795,213.265 159.5,215.5C 159.823,221.69 159.49,227.69 158.5,233.5C 157.833,234.167 157.167,234.833 156.5,235.5C 157.332,227.195 157.665,218.862 157.5,210.5C 152.5,210.5 147.5,210.5 142.5,210.5 Z"/></g>
<g><path style="opacity:0.518" fill="#e39c28" d="M 232.5,184.5 C 231.399,183.152 230.399,181.652 229.5,180C 226.183,179.502 222.85,179.335 219.5,179.5C 219.178,201.575 219.511,223.575 220.5,245.5C 219.257,246.737 218.257,246.404 217.5,244.5C 217.531,222.909 217.531,201.242 217.5,179.5C 217.709,178.914 218.043,178.414 218.5,178C 222.5,177.333 226.5,177.333 230.5,178C 231.669,180.007 232.335,182.173 232.5,184.5 Z"/></g>
<g><path style="opacity:1" fill="#e1bd2c" d="M 584.5,208.5 C 595.739,217.108 598.572,227.775 593,240.5C 591.039,243.135 588.539,244.969 585.5,246C 581.167,246.667 576.833,246.667 572.5,246C 571.263,245.768 570.263,245.268 569.5,244.5C 575.5,244.5 581.5,244.5 587.5,244.5C 587.5,243.167 587.5,241.833 587.5,240.5C 588.833,240.5 590.167,240.5 591.5,240.5C 591.785,236.479 592.785,232.646 594.5,229C 593.75,225.86 592.084,224.526 589.5,225C 590.167,224 590.833,223 591.5,222C 590.551,221.383 589.718,221.549 589,222.5C 588.079,218.138 585.579,216.471 581.5,217.5C 582.089,220.276 583.422,222.61 585.5,224.5C 584.933,226.982 584.266,229.316 583.5,231.5C 583.741,228.206 582.908,225.206 581,222.5C 576.963,218.631 573.13,214.631 569.5,210.5C 573.407,211.368 576.573,213.368 579,216.5C 579.333,215.833 579.667,215.167 580,214.5C 581.84,215.833 582.34,215.666 581.5,214C 582.448,213.517 583.448,213.351 584.5,213.5C 584.5,211.833 584.5,210.167 584.5,208.5 Z"/></g>
<g><path style="opacity:0.973" fill="#c2a830" d="M 388.5,209.5 C 392.603,212.089 396.603,214.922 400.5,218C 401.337,219.011 401.67,220.178 401.5,221.5C 396.586,218.258 392.253,214.258 388.5,209.5 Z"/></g>
<g><path style="opacity:0.973" fill="#d7b338" d="M 297.5,187.5 C 297.5,190.167 297.5,192.833 297.5,195.5C 296.011,207.13 293.677,218.463 290.5,229.5C 290.334,224.821 290.501,220.155 291,215.5C 291.333,215.833 291.667,216.167 292,216.5C 293.658,206.628 295.491,196.962 297.5,187.5 Z"/></g>
<g><path style="opacity:0.094" fill="#684f0e" d="M 353.5,220.5 C 355.735,220.205 357.735,220.539 359.5,221.5C 357.833,221.5 356.167,221.5 354.5,221.5C 354.826,230.017 354.493,238.35 353.5,246.5C 353.5,237.833 353.5,229.167 353.5,220.5 Z"/></g>
<g><path style="opacity:1" fill="#ecc221" d="M 434.5,181.5 C 434.804,182.15 435.137,182.817 435.5,183.5C 434.844,204.465 434.177,225.465 433.5,246.5C 430.916,245.607 428.249,245.274 425.5,245.5C 424.503,223.673 424.169,201.673 424.5,179.5C 428.179,179.06 431.512,179.727 434.5,181.5 Z"/></g>
<g><path style="opacity:0.576" fill="#9c7f22" d="M 483.5,177.5 C 483.169,200.006 483.503,222.34 484.5,244.5C 487.167,244.5 489.833,244.5 492.5,244.5C 492.5,241.167 492.5,237.833 492.5,234.5C 492.168,224.81 492.502,215.144 493.5,205.5C 495.597,207.252 497.263,209.252 498.5,211.5C 499.833,218.167 501.167,224.833 502.5,231.5C 502.167,231.5 501.833,231.5 501.5,231.5C 498.541,224.002 496.041,216.335 494,208.5C 493.758,220.045 493.591,231.545 493.5,243C 493.905,243.945 494.572,244.612 495.5,245C 494.5,245.5 493.5,246 492.5,246.5C 489.5,245.167 486.5,245.167 483.5,246.5C 482.171,223.337 482.171,200.337 483.5,177.5 Z"/></g>
<g><path style="opacity:0.004" fill="#000000" d="M 170.5,225.5 C 171.833,226.167 171.833,226.167 170.5,225.5 Z"/></g>
<g><path style="opacity:0.99" fill="#bba12f" d="M 443.5,187.5 C 442.965,204.915 443.798,222.248 446,239.5C 447.085,240.736 447.918,242.069 448.5,243.5C 446.983,243.489 445.816,242.823 445,241.5C 444.058,238.557 442.892,235.724 441.5,233C 441.387,219.646 441.553,206.146 442,192.5C 442.198,190.618 442.698,188.952 443.5,187.5 Z"/></g>
<g><path style="opacity:1" fill="#eebf2b" d="M 455.5,177.5 C 458.812,177.363 461.646,178.363 464,180.5C 464.671,179.748 465.504,179.414 466.5,179.5C 469.764,180.927 472.264,183.261 474,186.5C 474.334,193.181 474.834,199.847 475.5,206.5C 474.78,213.648 474.78,220.648 475.5,227.5C 474.636,242.86 466.636,249.026 451.5,246C 450.058,245.623 449.058,244.79 448.5,243.5C 454.501,244.643 460.501,244.643 466.5,243.5C 465.975,242.808 465.308,242.308 464.5,242C 467.742,241.717 468.076,240.883 465.5,239.5C 463.929,240.309 462.262,240.643 460.5,240.5C 460.36,238.876 461.027,237.71 462.5,237C 461.66,235.334 462.16,235.167 464,236.5C 464.667,235.167 464.667,233.833 464,232.5C 463.184,233.823 462.017,234.489 460.5,234.5C 461.801,233.118 462.634,231.452 463,229.5C 463.5,217.838 463.667,206.171 463.5,194.5C 464.331,205.993 464.831,217.659 465,229.5C 465.333,227.5 465.667,225.5 466,223.5C 466.44,225.076 467.273,226.41 468.5,227.5C 467.061,229.343 467.228,231.01 469,232.5C 469.615,230.884 470.615,229.551 472,228.5C 473.78,214.477 473.78,200.477 472,186.5C 468.639,183.386 464.806,181.886 460.5,182C 461.167,181.333 461.833,180.667 462.5,180C 460.515,180.206 458.348,180.039 456,179.5C 453.499,179.584 451.166,180.25 449,181.5C 447.317,183.351 445.484,185.017 443.5,186.5C 445.559,181.116 449.559,178.116 455.5,177.5 Z"/></g>
<g><path style="opacity:1" fill="#f6c91e" d="M 297.5,187.5 C 295.491,196.962 293.658,206.628 292,216.5C 291.667,216.167 291.333,215.833 291,215.5C 290.501,220.155 290.334,224.821 290.5,229.5C 290.267,234.894 289.601,240.227 288.5,245.5C 284.167,245.5 279.833,245.5 275.5,245.5C 273.179,243.91 272.179,241.577 272.5,238.5C 272.665,234.818 272.499,231.152 272,227.5C 268.513,218.064 267.679,208.398 269.5,198.5C 268.675,197.614 267.675,197.281 266.5,197.5C 265.855,194.453 266.855,192.287 269.5,191C 261.872,184.595 262.539,181.095 271.5,180.5C 273.146,187.418 274.313,194.418 275,201.5C 275.757,203.315 276.59,204.981 277.5,206.5C 278.655,211.792 279.822,217.125 281,222.5C 281.623,215.675 282.956,209.341 285,203.5C 285.499,199.514 285.666,195.514 285.5,191.5C 287.162,189.088 288.162,186.254 288.5,183C 287.748,182.329 287.414,181.496 287.5,180.5C 291.454,179.235 295.454,179.235 299.5,180.5C 298.83,182.863 298.163,185.196 297.5,187.5 Z"/></g>
<g><path style="opacity:0.063" fill="#7d6b1c" d="M 287.5,180.5 C 287.414,181.496 287.748,182.329 288.5,183C 288.162,186.254 287.162,189.088 285.5,191.5C 285.931,187.663 286.598,183.997 287.5,180.5 Z"/></g>
<g><path style="opacity:1" fill="#d1b132" d="M 583.5,231.5 C 583.943,235.529 582.109,237.529 578,237.5C 575.864,235.567 573.531,233.901 571,232.5C 570.506,230.866 570.34,229.199 570.5,227.5C 565.508,226.492 563.508,228.492 564.5,233.5C 564.92,236.279 565.587,238.945 566.5,241.5C 565.206,240.71 564.039,239.71 563,238.5C 561.734,234.605 561.234,230.605 561.5,226.5C 565.119,225.756 568.785,225.423 572.5,225.5C 572.591,229.182 573.924,232.349 576.5,235C 578.259,235.798 579.926,235.631 581.5,234.5C 581.942,233.261 582.609,232.261 583.5,231.5 Z"/></g>
<g><path style="opacity:0.657" fill="#c2a331" d="M 371.5,182.5 C 362.652,180.657 353.652,179.99 344.5,180.5C 344.5,201.833 344.5,223.167 344.5,244.5C 347.167,244.5 349.833,244.5 352.5,244.5C 352.174,236.316 352.508,228.316 353.5,220.5C 353.5,229.167 353.5,237.833 353.5,246.5C 349.85,245.272 346.184,245.272 342.5,246.5C 342.5,223.833 342.5,201.167 342.5,178.5C 349.755,178.813 356.921,178.48 364,177.5C 367.014,178.539 369.514,180.205 371.5,182.5 Z"/></g>
<g><path style="opacity:0.631" fill="#a0842d" d="M 555.5,245.5 C 555.813,241.958 555.479,238.625 554.5,235.5C 548.642,235.822 542.975,235.489 537.5,234.5C 543.586,234.575 549.586,234.409 555.5,234C 556.821,237.934 556.821,241.767 555.5,245.5 Z"/></g>
<g><path style="opacity:0.078" fill="#624f0f" d="M 501.5,231.5 C 501.833,231.5 502.167,231.5 502.5,231.5C 503.338,231.842 503.672,232.508 503.5,233.5C 503.5,235.167 503.5,236.833 503.5,238.5C 502.732,236.285 502.065,233.952 501.5,231.5 Z"/></g>
<g><path style="opacity:0.261" fill="#0606db" d="M 68.5,141.5 C 67.8058,146.805 67.4724,152.138 67.5,157.5C 67.411,171.52 67.911,185.52 69,199.5C 69.2101,207.233 70.8767,214.567 74,221.5C 74.6667,224.833 74.6667,228.167 74,231.5C 71.8122,233.695 69.9789,236.195 68.5,239C 64.5987,239.106 60.932,239.939 57.5,241.5C 55.0276,240.008 52.3609,239.342 49.5,239.5C 49.762,238.022 49.4287,236.689 48.5,235.5C 46.0162,233.909 45.0162,231.575 45.5,228.5C 51.8056,201.179 53.4723,173.513 50.5,145.5C 51.7281,146.306 52.7281,147.306 53.5,148.5C 53.5,148.833 53.5,149.167 53.5,149.5C 54.5676,169.726 53.9009,190.059 51.5,210.5C 51.2148,212.288 51.5481,213.955 52.5,215.5C 53.1835,215.137 53.8501,214.804 54.5,214.5C 57.6888,214.858 60.6888,215.525 63.5,216.5C 59.4537,216.15 55.6203,216.817 52,218.5C 46.6766,233.539 51.6766,238.873 67,234.5C 71.2147,229.328 71.3814,223.995 67.5,218.5C 68.7562,218.539 69.7562,218.039 70.5,217C 68.319,209.363 67.1524,201.53 67,193.5C 66.5001,177.837 66.3334,162.17 66.5,146.5C 66.1201,144.302 66.7868,142.635 68.5,141.5 Z M 58.5,225.5 C 57.1474,226.867 57.4807,227.867 59.5,228.5C 62.0075,226.952 61.6741,225.952 58.5,225.5 Z"/></g>
<g><path style="opacity:1" fill="#0504f1" d="M 63.5,216.5 C 65.153,216.66 66.4863,217.326 67.5,218.5C 71.3814,223.995 71.2147,229.328 67,234.5C 51.6766,238.873 46.6766,233.539 52,218.5C 55.6203,216.817 59.4537,216.15 63.5,216.5 Z M 58.5,225.5 C 57.1474,226.867 57.4807,227.867 59.5,228.5C 62.0075,226.952 61.6741,225.952 58.5,225.5 Z"/></g>
<g><path style="opacity:0.306" fill="#110ca4" d="M 56.5,222.5 C 61.3876,221.909 63.8876,223.909 64,228.5C 61.447,230.729 58.6136,231.062 55.5,229.5C 55.1667,228.667 54.8333,227.833 54.5,227C 55.0735,225.393 55.7402,223.893 56.5,222.5 Z M 58.5,225.5 C 57.1474,226.867 57.4807,227.867 59.5,228.5C 62.0075,226.952 61.6741,225.952 58.5,225.5 Z"/></g>
<g><path style="opacity:0.792" fill="#100a93" d="M 66.5,146.5 C 66.3334,162.17 66.5001,177.837 67,193.5C 67.1524,201.53 68.319,209.363 70.5,217C 69.7562,218.039 68.7562,218.539 67.5,218.5C 66.4863,217.326 65.153,216.66 63.5,216.5C 60.6888,215.525 57.6888,214.858 54.5,214.5C 55.8499,211.894 57.3499,211.894 59,214.5C 59.6891,213.643 60.5224,212.977 61.5,212.5C 63.1727,214.086 65.1727,214.753 67.5,214.5C 67.3476,210.738 66.681,207.072 65.5,203.5C 65.5374,200.872 65.8708,198.205 66.5,195.5C 65.8333,194.5 65.1667,193.5 64.5,192.5C 65.0082,177.899 65.0082,163.066 64.5,148C 64.8361,146.97 65.5028,146.47 66.5,146.5 Z"/></g>
<g><path style="opacity:0.592" fill="#0c0882" d="M 53.5,149.5 C 54.6946,149.866 55.3613,150.699 55.5,152C 55.4233,154.997 55.09,157.997 54.5,161C 56.7811,162.851 56.7811,164.518 54.5,166C 57.1667,167.667 57.1667,169.333 54.5,171C 55.5554,181.222 55.5554,191.556 54.5,202C 54.0496,203.285 53.3829,204.452 52.5,205.5C 54.0093,207.62 53.676,209.287 51.5,210.5C 53.9009,190.059 54.5676,169.726 53.5,149.5 Z"/></g>
<g><path style="opacity:1" fill="#f8ca1c" d="M 537.5,188.5 C 536.51,194.31 536.177,200.31 536.5,206.5C 540.833,206.5 545.167,206.5 549.5,206.5C 549.5,210.167 549.5,213.833 549.5,217.5C 545.5,217.5 541.5,217.5 537.5,217.5C 537.5,223.167 537.5,228.833 537.5,234.5C 542.975,235.489 548.642,235.822 554.5,235.5C 554.5,238.5 554.5,241.5 554.5,244.5C 545.5,244.5 536.5,244.5 527.5,244.5C 527.5,222.833 527.5,201.167 527.5,179.5C 536.5,179.5 545.5,179.5 554.5,179.5C 554.5,182.167 554.5,184.833 554.5,187.5C 548.642,187.178 542.975,187.511 537.5,188.5 Z"/></g>
<g><path style="opacity:0.216" fill="#03038c" d="M 83.5,210.5 C 83.6664,218.507 83.4997,226.507 83,234.5C 81.6171,240.989 77.7838,244.989 71.5,246.5C 74.1395,244.527 76.4728,242.194 78.5,239.5C 79.1577,238.602 79.8243,237.602 80.5,236.5C 80.8505,227.461 81.8505,218.794 83.5,210.5 Z"/></g>
<g><path style="opacity:1" fill="#fccd17" d="M 569.5,244.5 C 569.027,243.094 568.027,242.427 566.5,242.5C 566.5,242.167 566.5,241.833 566.5,241.5C 565.587,238.945 564.92,236.279 564.5,233.5C 563.508,228.492 565.508,226.492 570.5,227.5C 570.34,229.199 570.506,230.866 571,232.5C 573.531,233.901 575.864,235.567 578,237.5C 582.109,237.529 583.943,235.529 583.5,231.5C 584.266,229.316 584.933,226.982 585.5,224.5C 583.422,222.61 582.089,220.276 581.5,217.5C 585.579,216.471 588.079,218.138 589,222.5C 589.718,221.549 590.551,221.383 591.5,222C 590.833,223 590.167,224 589.5,225C 592.084,224.526 593.75,225.86 594.5,229C 592.785,232.646 591.785,236.479 591.5,240.5C 590.167,240.5 588.833,240.5 587.5,240.5C 587.5,241.833 587.5,243.167 587.5,244.5C 581.5,244.5 575.5,244.5 569.5,244.5 Z"/></g>
<g><path style="opacity:0.004" fill="#000000" d="M 383.5,241.5 C 384.833,242.167 384.833,242.167 383.5,241.5 Z"/></g>
<g><path style="opacity:0.137" fill="#5a4d1e" d="M 566.5,242.5 C 568.027,242.427 569.027,243.094 569.5,244.5C 567.973,244.573 566.973,243.906 566.5,242.5 Z"/></g>
<g><path style="opacity:0.804" fill="#060593" d="M 36.5,232.5 C 36.8333,232.5 37.1667,232.5 37.5,232.5C 38.6557,234.824 39.6557,237.157 40.5,239.5C 40.9528,240.458 41.6195,241.292 42.5,242C 51.6929,246.009 61.3595,247.509 71.5,246.5C 62.1753,249.29 52.842,248.79 43.5,245C 38.7782,242.125 36.4449,237.958 36.5,232.5 Z"/></g>
<g><path style="opacity:0.004" fill="#000000" d="M 29.5,244.5 C 30.8333,245.167 30.8333,245.167 29.5,244.5 Z"/></g>
<g><path style="opacity:0.196" fill="#664924" d="M 271.5,238.5 C 271.833,238.5 272.167,238.5 272.5,238.5C 272.179,241.577 273.179,243.91 275.5,245.5C 274.151,246.797 272.818,246.63 271.5,245C 271.784,243.044 271.784,240.877 271.5,238.5 Z"/></g>
<g><path style="opacity:0.888" fill="#c2a83d" d="M 362.5,232.5 C 365.114,235.968 366.114,239.968 365.5,244.5C 368.833,244.5 372.167,244.5 375.5,244.5C 375.354,240.481 375.021,236.481 374.5,232.5C 375.894,236.553 377.228,240.72 378.5,245C 377.975,245.692 377.308,246.192 376.5,246.5C 372.817,245.428 369.15,245.262 365.5,246C 364.784,241.444 363.784,236.944 362.5,232.5 Z"/></g>
<g><path style="opacity:0.004" fill="#000000" d="M 473.5,245.5 C 474.833,246.167 474.833,246.167 473.5,245.5 Z"/></g>
<g><path style="opacity:0.714" fill="#040496" d="M 158.5,233.5 C 155.801,241.692 150.134,246.525 141.5,248C 127.009,249.181 112.675,248.181 98.5,245C 97.944,244.617 97.6107,244.117 97.5,243.5C 112.377,246.129 127.377,246.962 142.5,246C 148.793,244.685 153.46,241.185 156.5,235.5C 157.167,234.833 157.833,234.167 158.5,233.5 Z"/></g>
<g><path style="opacity:0.004" fill="#000000" d="M 584.5,254.5 C 585.833,255.167 585.833,255.167 584.5,254.5 Z"/></g>
<g><path style="opacity:0.004" fill="#000000" d="M 449.5,255.5 C 450.833,256.167 450.833,256.167 449.5,255.5 Z"/></g>
<g><path style="opacity:0.004" fill="#000000" d="M 575.5,255.5 C 576.833,256.167 576.833,256.167 575.5,255.5 Z"/></g>
<g><path style="opacity:0.004" fill="#000000" d="M 179.5,257.5 C 180.833,258.167 180.833,258.167 179.5,257.5 Z"/></g>
<g><path style="opacity:0.992" fill="#c19f38" d="M 493.5,255.5 C 496.073,255.148 498.406,255.648 500.5,257C 498.167,258.667 496.167,260.667 494.5,263C 492.272,263.82 490.272,263.487 488.5,262C 490.539,260.074 492.206,257.907 493.5,255.5 Z"/></g>
<g><path style="opacity:0.004" fill="#000000" d="M 131.5,263.5 C 132.833,264.167 132.833,264.167 131.5,263.5 Z"/></g>
<g><path style="opacity:0.02" fill="#a49236" d="M 406.5,264.5 C 406.5,273.833 406.5,283.167 406.5,292.5C 407.833,292.5 409.167,292.5 410.5,292.5C 410.216,290.585 410.549,288.919 411.5,287.5C 411.663,289.857 411.497,292.19 411,294.5C 409.333,294.5 407.667,294.5 406,294.5C 405.175,284.325 405.342,274.325 406.5,264.5 Z"/></g>
<g><path style="opacity:0.004" fill="#000000" d="M 386.5,271.5 C 387.833,272.167 387.833,272.167 386.5,271.5 Z"/></g>
<g><path style="opacity:1" fill="#f7cb2d" d="M 406.5,264.5 C 407.5,264.5 408.5,264.5 409.5,264.5C 409.884,269.01 410.551,273.343 411.5,277.5C 413.903,277.552 416.236,277.219 418.5,276.5C 419.922,276.75 420.922,277.583 421.5,279C 418.319,280.844 414.986,282.011 411.5,282.5C 411.5,284.167 411.5,285.833 411.5,287.5C 410.549,288.919 410.216,290.585 410.5,292.5C 409.167,292.5 407.833,292.5 406.5,292.5C 406.5,283.167 406.5,273.833 406.5,264.5 Z"/></g>
<g><path style="opacity:0.906" fill="#b59633" d="M 487.5,288.5 C 486.504,288.586 485.671,288.252 485,287.5C 484.965,280 484.298,272.666 483,265.5C 482.333,272.833 482.333,280.167 483,287.5C 483.573,289.641 484.406,291.641 485.5,293.5C 484.504,293.586 483.671,293.252 483,292.5C 482.784,290.616 482.117,288.949 481,287.5C 480.5,279.507 480.334,271.507 480.5,263.5C 481.93,263.579 483.264,263.246 484.5,262.5C 485.308,262.808 485.975,263.308 486.5,264C 486.699,270.628 486.365,277.294 485.5,284C 486.582,285.33 487.249,286.83 487.5,288.5 Z"/></g>
<g><path style="opacity:0.996" fill="#e7be30" d="M 263.5,263.5 C 268.511,263.334 273.511,263.501 278.5,264C 280.99,264.495 282.49,265.995 283,268.5C 284.052,279.945 278.885,284.612 267.5,282.5C 267.5,283.5 267.5,284.5 267.5,285.5C 267.5,288.167 267.5,290.833 267.5,293.5C 266.167,293.5 264.833,293.5 263.5,293.5C 263.5,283.5 263.5,273.5 263.5,263.5 Z M 267.5,267.5 C 272.767,266.185 276.1,268.018 277.5,273C 275.795,276.771 272.795,278.271 268.5,277.5C 268.658,274.098 268.324,270.764 267.5,267.5 Z"/></g>
<g><path style="opacity:0.004" fill="#000000" d="M 155.5,274.5 C 156.833,275.167 156.833,275.167 155.5,274.5 Z"/></g>
<g><path style="opacity:0.004" fill="#000000" d="M 257.5,276.5 C 258.833,277.167 258.833,277.167 257.5,276.5 Z"/></g>
<g><path style="opacity:0.996" fill="#a99030" d="M 339.5,275.5 C 343.5,275.5 347.5,275.5 351.5,275.5C 351.715,280.886 349.382,282.553 344.5,280.5C 342.545,280.724 340.879,281.391 339.5,282.5C 339.5,280.167 339.5,277.833 339.5,275.5 Z"/></g>
<g><path style="opacity:1" fill="#f0cd34" d="M 340.5,276.5 C 343.833,276.5 347.167,276.5 350.5,276.5C 350.5,277.5 350.5,278.5 350.5,279.5C 347.167,279.5 343.833,279.5 340.5,279.5C 340.5,278.5 340.5,277.5 340.5,276.5 Z"/></g>
<g><path style="opacity:0.082" fill="#8c7426" d="M 499.5,263.5 C 500.134,271.903 499.467,279.903 497.5,287.5C 498.107,279.369 498.774,271.369 499.5,263.5 Z"/></g>
<g><path style="opacity:0.051" fill="#59490b" d="M 263.5,263.5 C 263.5,273.5 263.5,283.5 263.5,293.5C 264.833,293.5 266.167,293.5 267.5,293.5C 267.5,290.833 267.5,288.167 267.5,285.5C 268.638,288.304 268.805,291.304 268,294.5C 266.374,294.854 264.541,294.854 262.5,294.5C 262.172,283.986 262.506,273.653 263.5,263.5 Z"/></g>
<g><path style="opacity:0.043" fill="#655004" d="M 334.5,263.5 C 334.5,273.5 334.5,283.5 334.5,293.5C 336.415,293.216 338.081,293.549 339.5,294.5C 337.5,294.5 335.5,294.5 333.5,294.5C 333.172,283.986 333.506,273.653 334.5,263.5 Z"/></g>
<g><path style="opacity:0.99" fill="#e9c030" d="M 339.5,275.5 C 339.5,277.833 339.5,280.167 339.5,282.5C 340.833,284.833 340.833,287.167 339.5,289.5C 343.833,289.5 348.167,289.5 352.5,289.5C 352.859,291.766 352.192,293.599 350.5,295C 346.812,295.45 343.146,295.283 339.5,294.5C 338.081,293.549 336.415,293.216 334.5,293.5C 334.5,283.5 334.5,273.5 334.5,263.5C 339.762,263.805 344.928,263.471 350,262.5C 352.336,263.292 352.836,264.625 351.5,266.5C 347.833,267.167 344.167,267.833 340.5,268.5C 340.024,270.921 339.691,273.254 339.5,275.5 Z"/></g>
<g><path style="opacity:1" fill="#d3af2f" d="M 406.5,264.5 C 411.65,263.349 416.984,263.183 422.5,264C 427.769,269.168 427.769,274.501 422.5,280C 425.125,282.196 426.125,285.03 425.5,288.5C 425.5,290.167 425.5,291.833 425.5,293.5C 424.167,293.5 422.833,293.5 421.5,293.5C 421.035,289.938 419.868,286.605 418,283.5C 415.959,282.577 413.792,282.244 411.5,282.5C 414.986,282.011 418.319,280.844 421.5,279C 420.922,277.583 419.922,276.75 418.5,276.5C 421.528,274.661 422.028,272.328 420,269.5C 417.435,267.821 414.602,267.154 411.5,267.5C 411.5,270.833 411.5,274.167 411.5,277.5C 410.551,273.343 409.884,269.01 409.5,264.5C 408.5,264.5 407.5,264.5 406.5,264.5 Z M 418.5,276.5 C 416.236,277.219 413.903,277.552 411.5,277.5C 411.5,274.167 411.5,270.833 411.5,267.5C 414.602,267.154 417.435,267.821 420,269.5C 422.028,272.328 421.528,274.661 418.5,276.5 Z"/></g>
<g><path style="opacity:0.478" fill="#735d33" d="M 425.5,288.5 C 426.621,290.316 427.121,292.316 427,294.5C 425.732,294.616 424.398,294.949 423,295.5C 422.283,294.956 421.783,294.289 421.5,293.5C 422.833,293.5 424.167,293.5 425.5,293.5C 425.5,291.833 425.5,290.167 425.5,288.5 Z"/></g>
<g><path style="opacity:0.929" fill="#d7b12d" d="M 499.5,263.5 C 501.167,263.5 502.833,263.5 504.5,263.5C 504.941,272.276 504.441,280.942 503,289.5C 499.146,294.676 493.979,296.509 487.5,295C 486.584,294.722 485.918,294.222 485.5,293.5C 484.406,291.641 483.573,289.641 483,287.5C 482.333,280.167 482.333,272.833 483,265.5C 484.298,272.666 484.965,280 485,287.5C 485.671,288.252 486.504,288.586 487.5,288.5C 491.145,291.172 494.478,290.839 497.5,287.5C 499.467,279.903 500.134,271.903 499.5,263.5 Z"/></g>
<g><path style="opacity:0.004" fill="#000000" d="M 380.5,294.5 C 381.833,295.167 381.833,295.167 380.5,294.5 Z"/></g>
<g><path style="opacity:0.004" fill="#000000" d="M 440.5,306.5 C 441.833,307.167 441.833,307.167 440.5,306.5 Z"/></g>
<g><path style="opacity:0.004" fill="#000000" d="M 509.5,312.5 C 510.833,313.167 510.833,313.167 509.5,312.5 Z"/></g>
<g><path style="opacity:0.004" fill="#000000" d="M 233.5,319.5 C 234.833,320.167 234.833,320.167 233.5,319.5 Z"/></g>
<g><path style="opacity:0.004" fill="#000000" d="M 176.5,321.5 C 177.833,322.167 177.833,322.167 176.5,321.5 Z"/></g>
<g><path style="opacity:0.004" fill="#000000" d="M 206.5,324.5 C 207.833,325.167 207.833,325.167 206.5,324.5 Z"/></g>
<g><path style="opacity:0.004" fill="#000000" d="M 287.5,324.5 C 288.833,325.167 288.833,325.167 287.5,324.5 Z"/></g>
<g><path style="opacity:0.004" fill="#000000" d="M 203.5,333.5 C 204.833,334.167 204.833,334.167 203.5,333.5 Z"/></g>
<g><path style="opacity:0.004" fill="#000000" d="M 257.5,337.5 C 258.833,338.167 258.833,338.167 257.5,337.5 Z"/></g>
<g><path style="opacity:0.004" fill="#000000" d="M 152.5,338.5 C 153.833,339.167 153.833,339.167 152.5,338.5 Z"/></g>
<g><path style="opacity:0.004" fill="#000000" d="M 566.5,349.5 C 567.833,350.167 567.833,350.167 566.5,349.5 Z"/></g>
<g><path style="opacity:0.004" fill="#000000" d="M 224.5,363.5 C 225.833,364.167 225.833,364.167 224.5,363.5 Z"/></g>
<g><path style="opacity:0.004" fill="#000000" d="M 128.5,365.5 C 129.833,366.167 129.833,366.167 128.5,365.5 Z"/></g>
<g><path style="opacity:0.004" fill="#000000" d="M 116.5,373.5 C 117.833,374.167 117.833,374.167 116.5,373.5 Z"/></g>
</svg>
