<?xml version="1.0" standalone="no"?>
<!DOCTYPE svg PUBLIC "-//W3C//DTD SVG 20010904//EN"
 "http://www.w3.org/TR/2001/REC-SVG-20010904/DTD/svg10.dtd">
<svg version="1.0" xmlns="http://www.w3.org/2000/svg"
 width="798.000000pt" height="816.000000pt" viewBox="0 0 798.000000 816.000000"
 preserveAspectRatio="xMidYMid meet">
<metadata>
Created by potrace 1.16, written by Peter Selinger 2001-2019
</metadata>
<g transform="translate(0.000000,816.000000) scale(0.100000,-0.100000)"
fill="#000000" stroke="none">
<path d="M3765 7639 c-899 -120 -1627 -774 -1841 -1654 -40 -167 -57 -315 -57
-505 1 -261 31 -445 115 -698 291 -878 1121 -1472 2058 -1472 828 0 1559 449
1938 1192 165 321 242 676 229 1052 -6 188 -23 303 -66 472 -97 370 -278 689
-550 968 -333 340 -721 546 -1191 631 -111 20 -522 29 -635 14z m585 -264
c418 -70 820 -288 1101 -599 147 -162 251 -322 337 -517 319 -724 175 -1541
-373 -2117 -291 -306 -682 -505 -1115 -568 -171 -24 -471 -15 -635 20 -710
151 -1256 644 -1464 1323 -249 812 65 1686 778 2162 266 178 537 274 891 315
74 9 390 -3 480 -19z"/>
<path d="M3307 7223 c-3 -5 33 -22 81 -37 429 -139 811 -470 1026 -889 93
-181 152 -371 182 -584 21 -155 14 -442 -15 -585 -65 -321 -232 -644 -457
-887 l-66 -71 34 0 c106 0 349 45 490 90 118 39 334 143 435 211 266 177 493
440 618 714 143 314 192 664 143 1018 l-11 78 -52 -135 c-92 -239 -222 -443
-392 -615 -46 -46 -85 -82 -87 -80 -2 2 -9 56 -16 119 -60 594 -319 1051 -766
1351 -288 193 -606 294 -965 306 -107 3 -178 2 -182 -4z"/>
<path d="M3923 6779 c-340 -33 -682 -166 -958 -372 -106 -79 -275 -252 -349
-356 -164 -230 -270 -493 -311 -772 -25 -175 -17 -521 14 -577 5 -9 20 21 40
79 55 157 153 338 260 478 60 78 216 241 231 241 5 0 11 -35 14 -77 4 -43 16
-136 27 -208 106 -671 540 -1181 1187 -1395 199 -65 301 -83 522 -88 120 -2
191 0 185 5 -5 6 -49 22 -97 37 -117 38 -307 131 -425 210 -391 259 -668 682
-765 1166 -19 96 -23 147 -23 315 0 203 7 273 47 430 67 269 206 540 393 765
35 41 72 84 84 94 21 19 28 37 14 35 -5 -1 -45 -5 -90 -10z"/>
<path d="M6220 2654 c0 -3 17 -26 38 -52 22 -26 101 -126 177 -222 76 -96 172
-215 214 -264 72 -86 75 -88 90 -68 9 11 59 76 112 144 52 67 151 195 220 283
69 88 129 166 133 173 6 9 -95 12 -488 12 -273 0 -496 -3 -496 -6z"/>
<path d="M230 2336 l0 -215 818 -3 c669 -3 824 -6 855 -18 51 -19 113 -73 140
-124 21 -40 22 -52 25 -384 3 -299 1 -350 -14 -394 -20 -60 -63 -111 -118
-141 -41 -22 -47 -22 -593 -25 l-553 -3 0 396 0 395 -280 0 -280 0 0 -620 0
-620 943 0 c909 0 945 1 1026 20 181 44 318 149 391 302 22 46 45 110 50 143
14 84 13 990 -1 1057 -17 81 -73 190 -131 254 -68 74 -151 127 -252 162 l-81
27 -972 3 -973 3 0 -215z"/>
<path d="M4230 2540 l-805 -5 -68 -32 c-143 -68 -241 -198 -260 -345 l-7 -48
1045 0 1045 0 0 220 0 220 -72 -2 c-40 -2 -435 -5 -878 -8z"/>
<path d="M5472 2532 c12 -18 182 -226 334 -411 38 -47 228 -280 422 -516 383
-470 393 -479 487 -479 92 0 118 23 372 335 l228 280 5 -578 5 -578 265 0 265
0 3 983 2 982 -228 0 -228 0 -91 -112 c-297 -370 -567 -705 -578 -716 -13 -15
-59 38 -406 462 -85 104 -186 228 -224 275 l-71 86 -288 3 c-277 2 -287 2
-274 -16z"/>
<path d="M3090 1200 l0 -610 285 0 285 0 0 395 0 395 760 0 760 0 0 215 0 215
-1045 0 -1045 0 0 -610z"/>
</g>
</svg>
