<?xml version="1.0" standalone="no"?>
<!DOCTYPE svg PUBLIC "-//W3C//DTD SVG 20010904//EN"
 "http://www.w3.org/TR/2001/REC-SVG-20010904/DTD/svg10.dtd">
<svg version="1.0" xmlns="http://www.w3.org/2000/svg"
 width="725.000000pt" height="622.000000pt" viewBox="0 0 725.000000 622.000000"
 preserveAspectRatio="xMidYMid meet">
<metadata>
Created by potrace 1.16, written by Peter Selinger 2001-2019
</metadata>
<g transform="translate(0.000000,622.000000) scale(0.100000,-0.100000)"
fill="#000000" stroke="none">
<path d="M3461 6109 c-208 -19 -403 -72 -597 -164 -682 -322 -1075 -1056 -963
-1799 52 -344 211 -670 451 -921 274 -287 595 -456 998 -527 114 -20 431 -16
555 6 636 115 1148 553 1349 1156 54 162 76 285 83 461 19 493 -145 923 -486
1272 -296 305 -675 481 -1108 517 -132 11 -148 11 -282 -1z m379 -23 c199 -27
378 -83 560 -177 158 -82 285 -174 416 -304 185 -182 302 -360 373 -569 23
-65 39 -121 36 -124 -3 -3 0 -11 6 -18 7 -9 6 -12 -6 -10 -8 1 -15 6 -14 11 0
4 -5 12 -13 17 -9 7 -8 8 5 4 12 -4 17 -2 15 6 -3 7 -11 13 -18 13 -7 0 -16 9
-21 20 -12 32 -10 42 6 21 8 -10 12 -23 8 -29 -3 -6 -1 -7 5 -3 9 5 9 13 0 29
-7 12 -12 25 -13 29 0 3 -4 10 -9 15 -5 4 -6 3 -2 -4 3 -6 2 -14 -3 -17 -11
-7 -23 22 -15 37 5 8 3 9 -4 2 -8 -7 -4 -30 14 -80 68 -186 99 -398 91 -613
-6 -175 -25 -284 -73 -435 -187 -578 -662 -998 -1268 -1119 -93 -19 -143 -22
-311 -22 -177 0 -214 3 -325 27 -69 14 -145 33 -169 42 -24 8 -46 13 -49 10
-3 -3 1 -5 8 -5 7 0 11 -2 8 -5 -9 -9 -68 17 -61 28 3 6 1 7 -6 3 -15 -9 -53
3 -46 15 3 5 -2 6 -11 2 -12 -4 -15 -3 -10 5 4 8 2 10 -7 6 -8 -3 -22 2 -31
11 -9 9 -16 14 -16 11 0 -11 -84 36 -173 97 -248 169 -461 413 -587 672 -94
191 -148 400 -165 640 l-7 90 -19 -49 c-36 -97 -42 -83 -36 99 6 190 26 304
83 474 205 616 758 1066 1414 1150 104 14 326 12 440 -3z m-1349 -2959 c190
-158 428 -281 669 -346 47 -13 92 -26 100 -29 8 -3 21 -4 28 -3 6 1 12 -2 12
-8 0 -5 -8 -8 -17 -6 -10 2 -18 4 -18 5 0 2 -16 6 -55 13 -14 3 -25 6 -25 7 0
1 -12 3 -26 4 -53 5 -198 60 -324 122 -163 80 -290 170 -420 299 -56 55 -76
77 -46 49 31 -28 86 -76 122 -107z"/>
<path d="M3380 5985 c-605 -91 -1096 -496 -1294 -1064 -55 -159 -76 -275 -83
-456 -6 -171 3 -276 39 -430 20 -87 96 -301 104 -292 2 2 -3 20 -11 40 -17 42
-19 61 -6 52 6 -3 8 4 5 17 -3 13 -6 28 -6 35 -1 7 -5 10 -10 7 -4 -3 -4 -14
2 -24 6 -11 6 -21 1 -24 -12 -8 -23 36 -11 48 12 12 1 37 -14 29 -7 -4 -7 -2
1 8 10 12 10 18 0 29 -10 12 -9 12 6 1 9 -8 15 -16 13 -19 -3 -3 1 -17 9 -31
8 -14 26 -55 40 -91 65 -165 203 -369 346 -510 541 -535 1385 -605 2006 -167
103 72 267 233 340 331 207 280 306 581 306 926 0 185 -18 304 -74 474 -133
406 -420 732 -809 920 -60 29 -106 56 -103 60 4 4 1 4 -8 1 -20 -7 -89 22 -89
38 0 8 -4 7 -10 -3 -7 -12 -9 -10 -7 7 1 15 5 19 13 13 6 -6 14 -7 18 -3 4 4
4 -1 1 -12 -6 -19 -6 -19 8 -2 13 16 15 16 21 2 4 -11 2 -14 -7 -9 -7 4 -9 3
-4 -2 5 -5 12 -9 15 -9 4 0 12 -4 19 -8 6 -4 15 -3 18 3 5 8 12 7 23 -2 10 -8
13 -8 9 -1 -4 6 -4 13 0 16 5 2 2 2 -4 1 -7 -2 -13 1 -13 5 0 10 -88 41 -187
66 -174 43 -438 56 -613 30z m524 -85 c141 -28 267 -70 391 -132 308 -153 536
-377 688 -675 114 -224 156 -388 164 -639 6 -190 -3 -280 -44 -439 -47 -179
-104 -306 -212 -466 -145 -218 -350 -397 -586 -514 -143 -71 -237 -104 -389
-137 -136 -30 -453 -32 -591 -5 -465 94 -854 380 -1077 794 -185 342 -227 770
-112 1150 153 510 573 910 1097 1044 208 53 459 60 671 19z"/>
<path d="M2625 5189 c-41 -36 -274 -351 -289 -391 -7 -20 -7 -37 1 -58 20 -52
266 -381 297 -397 34 -18 104 -13 138 9 30 20 526 698 540 738 13 39 4 75 -27
106 l-24 24 -300 0 -300 0 -36 -31z m204 12 c78 -1 83 -2 65 -16 -10 -8 -14
-14 -9 -13 17 3 319 -13 338 -18 28 -9 20 -32 -31 -87 -26 -29 -70 -79 -97
-112 -27 -33 -75 -87 -106 -121 -30 -34 -102 -130 -159 -215 -56 -85 -110
-160 -118 -166 -8 -7 -27 -10 -41 -7 -20 4 -23 3 -11 -5 11 -8 12 -11 2 -11
-7 0 -10 -4 -7 -10 3 -5 0 -10 -7 -10 -9 0 -9 -3 2 -10 12 -8 12 -10 -5 -10
-20 -1 -20 -1 -1 -15 24 -18 73 -19 104 -2 19 11 249 317 488 651 35 48 64 84
64 78 0 -13 -21 -43 -266 -380 -119 -163 -234 -314 -255 -334 -34 -34 -44 -38
-88 -38 -58 0 -60 1 -200 195 -52 72 -105 143 -118 158 -44 54 -34 83 80 239
154 213 179 242 218 255 18 6 43 10 54 8 11 -2 58 -4 104 -4z"/>
<path d="M2495 4840 c-14 -26 -20 -29 -72 -32 -46 -2 -58 -7 -61 -21 -3 -16 3
-18 44 -16 28 2 49 -2 51 -8 4 -12 154 -214 202 -273 36 -44 31 -49 155 135
l95 140 -219 3 -220 2 25 50 c14 28 23 50 20 50 -2 0 -11 -13 -20 -30z"/>
<path d="M3575 5210 c-11 -4 -34 -23 -52 -41 -60 -65 -721 -979 -728 -1007 -9
-43 5 -70 132 -244 127 -174 157 -204 207 -213 72 -14 85 0 327 331 124 170
344 471 489 669 145 198 270 372 278 388 18 36 7 81 -25 107 -24 19 -40 20
-317 19 -160 0 -300 -4 -311 -9z m604 -14 c6 -4 8 -12 5 -19 -3 -9 -40 -12
-132 -11 l-127 1 112 -6 c64 -3 117 -11 124 -18 8 -8 1 -22 -28 -55 -22 -23
-58 -66 -80 -95 -23 -29 -75 -90 -117 -135 -90 -99 -369 -509 -356 -522 6 -6
5 -15 -3 -25 -9 -12 -9 -13 1 -7 6 4 12 2 12 -3 0 -6 -5 -11 -11 -11 -5 0 -8
-4 -4 -9 3 -5 0 -16 -7 -23 -16 -17 -40 -58 -34 -58 10 0 642 856 670 907 10
18 15 22 16 12 0 -20 -947 -1320 -996 -1366 -38 -37 -77 -42 -124 -18 -16 8
-74 77 -136 162 -150 206 -154 212 -154 247 0 34 26 70 478 681 118 160 226
305 240 324 42 56 55 58 362 55 154 -1 284 -5 289 -8z"/>
<path d="M3382 4773 c-61 -93 -159 -229 -250 -350 -50 -67 -92 -126 -92 -130
0 -4 5 -1 10 7 5 8 14 16 20 16 5 1 12 3 15 4 14 7 31 5 44 -4 12 -9 12 -8 0
11 -7 12 -16 19 -19 15 -3 -4 -12 -8 -20 -10 -10 -1 -9 2 4 13 11 8 24 21 29
27 6 9 7 8 4 -4 -6 -19 15 -42 28 -30 5 4 5 -2 2 -13 -7 -20 -7 -20 8 -1 14
18 20 15 15 -9 -1 -5 2 -6 7 -2 4 5 9 13 9 18 3 22 5 23 14 9 6 -9 5 -20 -3
-30 -10 -13 -10 -13 5 -2 10 8 14 20 11 30 -6 15 -5 15 10 3 9 -7 14 -18 10
-25 -3 -6 -2 -7 3 -3 5 5 10 13 10 18 3 22 5 23 14 9 6 -9 5 -20 -3 -30 -10
-13 -10 -13 5 -2 10 8 14 20 11 30 -6 15 -5 16 12 2 10 -8 21 -14 24 -13 3 0
5 -4 3 -10 -2 -7 5 -4 14 5 17 17 19 17 37 1 10 -10 17 -13 15 -8 -2 6 2 10 7
10 6 0 9 -4 7 -9 -2 -5 3 -4 11 2 10 9 17 9 27 -1 12 -10 12 -9 2 4 -17 22 -3
32 17 11 9 -10 13 -13 9 -8 -5 6 -8 14 -8 20 0 16 40 -26 41 -43 0 -14 1 -14
6 -1 4 8 12 20 19 25 7 6 78 107 159 225 l146 215 -216 3 c-118 1 -215 5 -215
8 0 3 5 14 10 25 19 35 3 19 -28 -28z"/>
<path d="M3275 3913 c-107 -152 -121 -159 -180 -91 -21 24 -35 36 -33 28 3 -8
1 -23 -4 -32 -13 -26 38 -77 83 -84 28 -5 41 -1 65 19 30 26 124 157 124 174
0 4 -5 1 -10 -7 -5 -8 -10 -10 -10 -4 0 6 7 17 15 24 8 7 13 16 10 20 -3 5 4
25 16 44 40 68 13 36 -76 -91z"/>
<path d="M4482 5207 c-12 -7 -116 -141 -230 -297 -114 -157 -380 -520 -590
-808 -211 -287 -387 -534 -392 -548 -25 -63 -16 -83 118 -264 70 -95 140 -183
155 -194 36 -26 102 -27 139 -3 32 22 1185 1595 1200 1638 6 16 8 43 5 59 -6
26 -228 341 -285 403 -29 30 -79 36 -120 14z m131 -56 c42 -58 51 -81 32 -81
-31 0 -24 -28 46 -164 l73 -143 -534 -789 c-293 -434 -544 -801 -558 -816 -34
-36 -80 -37 -114 -3 l-25 25 5 -26 c3 -16 16 -31 37 -41 37 -18 72 -13 103 14
17 15 987 1335 1132 1540 27 38 46 79 51 105 l6 43 2 -41 c1 -30 -7 -52 -26
-82 -127 -186 -1154 -1574 -1175 -1586 -33 -20 -71 -20 -107 -1 -33 16 -269
334 -282 378 -6 20 -4 40 5 62 8 18 279 394 602 835 433 591 596 806 617 815
45 19 73 7 110 -44z"/>
<path d="M4307 4797 c-38 -62 -58 -90 -244 -346 -88 -121 -140 -198 -98 -146
9 11 20 21 25 21 6 1 12 3 15 4 13 7 51 5 62 -2 6 -5 14 -5 17 0 8 13 72 8 92
-8 17 -14 18 -13 6 2 -8 10 -9 19 -3 22 5 3 12 0 14 -6 4 -10 6 -10 6 1 1 9 6
8 19 -6 9 -10 14 -14 10 -9 -16 20 -7 29 11 12 18 -16 20 -16 29 -1 8 16 9 16
15 0 4 -10 12 -13 19 -8 19 11 37 12 44 2 3 -5 10 -7 15 -3 5 3 7 10 4 15 -4
5 -1 9 4 9 6 0 11 -6 11 -12 0 -10 2 -10 9 0 6 11 10 10 16 -5 5 -10 7 -21 7
-25 -7 -30 33 21 168 218 85 124 157 230 158 235 2 5 -88 9 -212 9 l-216 0 20
41 c32 62 20 55 -23 -14z"/>
<path d="M421 1646 c-48 -17 -108 -71 -134 -119 -21 -41 -22 -52 -25 -397 l-3
-355 130 0 131 0 0 123 0 122 315 0 315 0 0 120 0 120 -315 0 -315 0 0 63 c0
34 5 69 10 77 8 13 68 15 420 18 l410 3 0 119 0 120 -452 -1 c-329 0 -462 -4
-487 -13z"/>
<path d="M1777 1644 c-59 -18 -128 -84 -148 -140 -11 -29 -14 -102 -14 -289 0
-233 1 -253 21 -295 27 -57 67 -97 124 -124 43 -20 59 -21 445 -21 313 0 408
3 439 14 49 17 111 73 139 125 21 39 22 53 22 296 0 290 -3 309 -70 376 -72
72 -90 74 -529 73 -307 0 -390 -3 -429 -15z m733 -237 c25 -12 25 -14 30 -171
5 -155 1 -193 -23 -208 -7 -4 -143 -8 -303 -8 -263 0 -294 2 -313 18 -21 16
-22 24 -19 187 l3 169 25 13 c36 18 564 18 600 0z"/>
<path d="M3010 1535 l0 -125 240 0 240 0 0 -320 0 -320 130 0 130 0 0 320 0
320 238 2 237 3 3 123 3 122 -611 0 -610 0 0 -125z"/>
<path d="M4597 1646 c-71 -26 -113 -62 -144 -123 l-28 -58 0 -235 c0 -280 6
-312 75 -380 72 -73 84 -75 535 -75 l390 0 57 27 c64 30 108 82 127 150 9 30
11 118 9 288 -3 216 -5 249 -22 280 -30 57 -76 99 -133 120 -50 19 -78 20
-441 20 -299 -1 -396 -4 -425 -14z m744 -255 c17 -21 19 -41 19 -177 0 -141
-2 -156 -20 -174 -19 -19 -33 -20 -315 -20 -282 0 -296 1 -315 20 -18 18 -20
33 -20 178 0 160 4 182 40 195 8 3 145 5 303 4 l289 -2 19 -24z"/>
<path d="M5862 1218 l3 -443 133 -3 132 -3 0 326 0 325 259 0 c246 0 260 -1
285 -21 l26 -20 0 -305 0 -305 133 3 132 3 0 320 c0 176 -4 341 -8 366 -12 72
-58 133 -125 166 l-57 28 -458 3 -457 3 2 -443z"/>
</g>
</svg>
