<?xml version="1.0" standalone="no"?>
<!DOCTYPE svg PUBLIC "-//W3C//DTD SVG 20010904//EN"
 "http://www.w3.org/TR/2001/REC-SVG-20010904/DTD/svg10.dtd">
<svg version="1.0" xmlns="http://www.w3.org/2000/svg"
 width="594.000000pt" height="806.000000pt" viewBox="0 0 594.000000 806.000000"
 preserveAspectRatio="xMidYMid meet">
<metadata>
Created by potrace 1.16, written by Peter Selinger 2001-2019
</metadata>
<g transform="translate(0.000000,806.000000) scale(0.100000,-0.100000)"
fill="#000000" stroke="none">
<path d="M532 5304 c3 -2473 4 -2611 21 -2641 38 -70 126 -83 201 -30 28 19
224 243 504 572 252 298 629 741 838 985 841 983 806 940 786 964 -9 12 -132
156 -272 321 -140 164 -457 535 -705 825 -561 656 -1221 1430 -1309 1534 l-66
78 2 -2608z"/>
<path d="M5115 7698 c-99 -117 -326 -383 -504 -593 -179 -209 -437 -513 -575
-675 -138 -162 -357 -419 -487 -570 -366 -426 -605 -705 -613 -718 -9 -15
-139 139 1329 -1577 160 -187 355 -416 435 -510 402 -473 383 -455 468 -455
29 0 49 7 71 26 65 55 61 -135 59 2706 l-3 2578 -180 -212z"/>
<path d="M2845 4488 c-74 -27 -119 -77 -512 -569 -996 -1248 -1144 -1435
-1159 -1468 -42 -88 -27 -158 41 -191 l43 -21 1666 1 c1553 0 1669 2 1713 18
82 31 109 102 68 182 -10 19 -86 121 -170 225 -1262 1580 -1389 1738 -1433
1770 -82 60 -180 80 -257 53z"/>
<path d="M1550 1360 l0 -490 -29 -32 -29 -33 -261 -3 c-224 -3 -265 -1 -291
13 -42 22 -60 69 -60 155 l0 70 -165 0 -165 0 0 -212 c0 -195 2 -215 21 -255
15 -30 34 -50 63 -66 41 -22 47 -22 540 -25 574 -3 575 -3 644 72 72 79 72 75
72 723 l0 573 -170 0 -170 0 0 -490z"/>
<path d="M2050 1165 l0 -685 175 0 175 0 0 361 0 360 32 -3 c33 -3 34 -5 160
-283 70 -154 139 -306 152 -338 l25 -57 145 0 144 0 70 158 c38 86 105 235
147 330 l78 172 33 0 34 0 0 -350 0 -350 178 2 177 3 3 683 2 682 -250 0 -250
0 -145 -297 c-194 -400 -174 -368 -225 -368 l-43 0 -87 187 c-48 103 -116 253
-151 333 l-64 144 -257 1 -258 0 0 -685z"/>
<path d="M4120 1834 c-76 -20 -129 -59 -159 -119 l-26 -50 3 -465 c2 -511 4
-529 64 -623 19 -29 47 -57 72 -70 41 -22 43 -22 521 -19 525 3 545 5 624 62
52 38 96 107 110 171 6 28 11 99 11 159 l0 110 -170 0 -170 0 0 -53 c0 -31 -6
-61 -16 -75 -15 -22 -16 -22 -332 -22 -352 0 -350 0 -378 66 -20 48 -20 490 0
538 28 66 28 66 362 66 l302 0 26 -31 c22 -25 26 -41 26 -90 l0 -59 176 0 176
0 -4 164 -4 164 -34 68 c-31 60 -42 72 -89 96 l-53 28 -492 -1 c-396 0 -502
-3 -546 -15z"/>
</g>
</svg>
