<?xml version="1.0" standalone="no"?>
<!DOCTYPE svg PUBLIC "-//W3C//DTD SVG 20010904//EN"
 "http://www.w3.org/TR/2001/REC-SVG-20010904/DTD/svg10.dtd">
<svg version="1.0" xmlns="http://www.w3.org/2000/svg"
 width="938.000000pt" height="296.000000pt" viewBox="0 0 938.000000 296.000000"
 preserveAspectRatio="xMidYMid meet">
<metadata>
Created by potrace 1.16, written by Peter Selinger 2001-2019
</metadata>
<g transform="translate(0.000000,296.000000) scale(0.100000,-0.100000)"
fill="#000000" stroke="none">
<path d="M1286 2319 c-547 -49 -998 -327 -1122 -694 -57 -170 -42 -347 44
-518 89 -179 292 -349 545 -458 418 -179 971 -184 1394 -14 338 136 578 371
637 625 23 94 20 239 -4 329 -26 94 -54 148 -127 247 -195 263 -575 442 -1023
483 -130 12 -201 12 -344 0z m394 -39 c368 -45 670 -176 870 -379 62 -62 150
-189 150 -215 0 -20 -24 2 -63 57 -391 546 -1466 660 -2083 221 -119 -84 -224
-205 -286 -329 -69 -136 -82 -325 -32 -463 21 -57 11 -65 -16 -12 -55 107 -74
265 -47 381 78 329 393 585 867 704 161 41 456 57 640 35z m-70 -110 c127 -14
160 -20 160 -33 0 -6 -57 -139 -127 -296 -142 -320 -176 -402 -171 -407 2 -2
20 7 39 20 18 13 46 30 61 39 21 13 32 34 48 89 45 157 172 528 182 534 8 5 9
-3 6 -22 -3 -16 -23 -135 -43 -264 -27 -170 -42 -243 -56 -262 -24 -35 -58
-27 365 -83 187 -25 342 -48 345 -50 5 -6 -4 -5 -454 25 -159 11 -309 20 -332
22 -32 2 -55 -5 -93 -27 -27 -16 -50 -33 -50 -37 0 -4 75 -8 168 -8 92 0 340
-3 551 -7 l383 -6 -6 -54 c-24 -205 -194 -407 -454 -537 -97 -49 -255 -101
-367 -122 -122 -22 -367 -30 -480 -15 -112 15 -135 21 -135 33 0 9 38 96 202
466 49 111 88 206 86 211 -2 6 -29 -6 -60 -25 l-58 -35 -95 -292 c-113 -344
-106 -326 -112 -310 -2 7 3 59 12 115 9 57 27 172 41 257 19 124 28 159 46
178 12 13 20 24 17 26 -2 2 -89 14 -194 26 -304 37 -548 71 -554 78 -3 3 26 3
64 -1 39 -3 196 -13 350 -21 154 -9 315 -19 358 -24 77 -7 80 -7 129 25 l51
31 -64 6 c-35 4 -276 10 -536 13 -259 4 -477 10 -484 15 -21 13 5 121 52 218
69 141 222 282 404 373 226 113 534 166 805 138z m353 -71 c267 -89 475 -249
571 -440 31 -62 65 -193 53 -206 -8 -7 -82 5 -486 84 l-343 66 6 71 c7 71 51
376 62 429 7 35 23 35 137 -4z m723 -618 c32 -140 5 -290 -77 -428 -46 -76
-177 -208 -268 -268 -162 -107 -401 -191 -624 -220 -560 -72 -1128 127 -1353
475 -49 77 -84 158 -84 198 0 20 10 7 40 -55 132 -271 424 -465 822 -545 98
-20 142 -23 328 -22 184 0 230 3 320 23 284 61 490 161 653 320 85 82 141 166
183 276 22 58 27 87 28 170 0 55 -2 123 -7 150 -7 47 -7 49 7 25 8 -14 23 -58
32 -99z m-2126 -141 c296 -53 585 -111 593 -119 5 -5 -7 -118 -27 -252 -20
-134 -36 -247 -36 -251 0 -15 -40 -7 -142 28 -313 108 -538 315 -593 545 -20
86 -19 92 8 86 12 -3 101 -20 197 -37z"/>
<path d="M3720 2255 c-6 -15 -10 -29 -10 -33 0 -4 -5 -24 -11 -44 l-10 -38
-154 0 -155 0 0 -90 0 -89 133 -3 133 -3 -118 -455 c-65 -250 -115 -461 -113
-467 3 -10 38 -13 127 -13 l123 0 59 238 c32 130 81 325 108 432 27 107 54
212 59 233 l10 37 203 0 c194 0 204 -1 222 -21 18 -20 19 -46 24 -424 5 -390
6 -405 26 -432 36 -49 66 -57 214 -57 l135 -1 0 85 0 85 -50 3 c-27 2 -55 8
-62 14 -10 8 -13 98 -13 410 0 447 0 448 -69 490 -34 22 -47 23 -306 28 l-270
5 1 25 c0 14 3 43 5 65 l4 40 -118 3 -117 3 -10 -26z"/>
<path d="M5204 2272 c-6 -4 -16 -47 -22 -95 -6 -48 -14 -92 -17 -97 -4 -6 -75
-10 -166 -10 l-159 0 0 -85 0 -85 145 0 c119 0 145 -3 145 -14 0 -24 -59 -186
-95 -261 -34 -70 -105 -185 -160 -261 l-30 -40 3 -147 c2 -81 7 -147 11 -147
18 0 179 172 251 268 96 127 166 265 229 447 l49 140 35 3 c28 2 39 -2 56 -24
20 -25 21 -39 21 -199 l0 -172 -102 -35 -103 -34 -3 -99 c-1 -54 -1 -104 2
-112 4 -9 28 -4 99 22 52 18 98 31 101 28 3 -4 6 -37 6 -75 0 -43 6 -80 16
-99 28 -55 53 -59 373 -59 l290 0 3 85 3 85 -211 0 c-150 0 -213 3 -222 12 -7
7 -12 39 -12 74 l0 61 88 32 c48 17 132 48 187 69 l100 38 3 107 c2 63 -1 107
-7 107 -5 0 -81 -27 -168 -59 -87 -32 -168 -62 -180 -66 l-23 -6 0 159 c0 157
0 160 23 166 12 3 106 6 210 6 l187 0 0 83 0 84 -39 12 c-28 8 -56 29 -93 72
-59 66 -53 64 -196 61 l-94 -2 46 -65 c25 -36 46 -68 46 -71 0 -2 -91 -3 -202
-2 -196 3 -203 4 -201 23 1 11 5 57 8 103 l7 82 -113 0 c-63 0 -119 -4 -125
-8z"/>
<path d="M6329 2252 c-32 -28 -34 -35 -34 -91 0 -53 4 -64 27 -88 37 -37 136
-45 185 -14 42 27 61 85 45 139 -18 60 -43 76 -121 80 -64 4 -70 2 -102 -26z"/>
<path d="M6749 2253 c-5 -15 -17 -53 -26 -84 -15 -54 -15 -59 3 -95 11 -22 30
-44 44 -51 19 -10 131 -13 448 -13 l422 0 0 85 0 85 -326 0 -326 0 6 25 c3 14
9 36 12 50 l6 25 -126 0 -126 0 -11 -27z"/>
<path d="M8094 2263 c-9 -10 -29 -39 -45 -65 l-29 -48 -130 0 -131 0 3 -92 3
-93 77 -3 78 -3 -23 -37 c-13 -20 -45 -77 -71 -125 -47 -86 -48 -90 -44 -159
3 -61 7 -73 30 -93 34 -29 134 -40 297 -32 197 9 251 -7 251 -75 l0 -28 -305
0 -305 0 0 -95 0 -96 275 2 c338 3 327 7 335 -117 l5 -79 118 -3 117 -3 0 78
c0 134 -18 123 201 123 212 0 247 8 273 59 9 16 16 53 16 80 l0 51 -242 2
-243 3 1 38 c1 21 5 41 8 45 4 4 103 9 219 12 l212 5 3 92 3 93 -223 2 -223 3
-3 88 -3 87 -119 0 -119 0 -3 -87 -3 -88 -110 -1 c-60 0 -131 2 -157 5 l-46 6
39 65 c22 36 53 91 70 123 l29 57 450 0 450 0 0 95 0 95 -395 0 c-217 0 -395
1 -395 3 0 1 11 24 25 51 39 77 40 76 -90 76 -97 0 -118 -3 -131 -17z"/>
<path d="M6290 1834 l0 -119 36 -23 c50 -33 74 -90 74 -180 0 -55 -12 -122
-50 -272 -27 -110 -50 -202 -50 -205 0 -3 53 -4 118 -3 l117 3 42 205 c58 280
56 386 -7 511 -39 75 -172 180 -249 195 l-31 7 0 -119z"/>
<path d="M6740 1860 l0 -80 435 0 435 0 0 80 0 80 -435 0 -435 0 0 -80z"/>
<path d="M6733 1684 c-2 -6 -3 -46 -1 -90 l3 -79 286 -5 287 -5 -149 -195
c-169 -221 -180 -241 -154 -270 18 -20 30 -20 324 -18 l306 3 3 83 3 82 -140
0 c-77 0 -142 4 -146 9 -5 9 24 48 192 262 80 101 93 155 49 206 l-24 28 -417
0 c-297 0 -419 -3 -422 -11z"/>
<path d="M3528 753 l-3 -118 -25 0 c-19 0 -26 6 -28 23 -3 16 -8 22 -19 18 -8
-3 -28 -6 -44 -6 -24 0 -29 -4 -29 -24 0 -14 11 -38 25 -55 47 -55 165 -51
202 6 13 20 17 51 17 147 l1 121 -47 3 -47 3 -3 -118z"/>
<path d="M3753 850 c-50 -30 -68 -66 -68 -135 1 -81 23 -121 82 -147 35 -16
58 -19 96 -15 91 11 137 64 137 157 0 105 -55 160 -160 160 -37 0 -66 -6 -87
-20z m133 -71 c22 -25 25 -108 5 -133 -8 -9 -28 -16 -47 -16 -42 0 -64 30 -64
87 0 73 63 110 106 62z"/>
<path d="M4010 859 c0 -5 25 -48 55 -94 52 -78 55 -87 55 -144 l0 -61 44 0
c49 0 56 10 56 87 0 34 11 59 55 128 30 46 55 87 55 90 0 3 -23 5 -50 5 -50 0
-50 0 -78 -50 -15 -27 -30 -50 -34 -50 -4 0 -19 23 -33 50 -25 50 -25 50 -75
50 -28 0 -50 -5 -50 -11z"/>
<path d="M4370 716 l0 -156 126 0 125 0 -3 38 -3 37 -72 3 -72 3 -3 112 -3
112 -47 3 -48 3 0 -155z"/>
<path d="M4720 852 c-49 -24 -75 -74 -74 -143 1 -107 74 -170 180 -155 96 13
134 58 134 158 0 76 -24 122 -75 144 -47 19 -123 18 -165 -4z m116 -60 c35
-23 45 -102 18 -140 -10 -15 -25 -22 -49 -22 -41 0 -65 29 -65 78 0 55 26 92
65 92 11 0 25 -4 31 -8z"/>
<path d="M5020 715 l0 -155 45 0 44 0 3 80 3 81 54 -81 54 -80 49 0 49 0 -3
153 -3 152 -42 3 -43 3 0 -81 c0 -52 -4 -79 -10 -75 -6 4 -33 40 -60 81 -50
74 -51 74 -95 74 l-45 0 0 -155z"/>
<path d="M5451 853 c-48 -25 -70 -60 -77 -119 -8 -67 20 -135 68 -160 47 -26
151 -25 203 1 l40 20 0 65 0 65 -72 3 -73 3 0 -31 c0 -27 3 -30 30 -30 38 0
41 -26 4 -40 -38 -15 -62 -12 -84 10 -25 25 -27 105 -4 138 18 26 69 30 94 7
13 -12 28 -14 59 -9 22 4 41 10 41 15 0 5 -13 23 -29 41 -26 29 -35 33 -97 36
-52 2 -77 -1 -103 -15z"/>
<path d="M5926 721 c-31 -81 -56 -151 -56 -155 0 -3 22 -6 49 -6 44 0 50 3 53
23 3 19 10 22 59 25 53 3 57 1 63 -23 6 -23 11 -25 56 -25 28 0 50 2 50 4 0 7
-101 270 -111 289 -7 12 -22 17 -58 17 l-48 0 -57 -149z"/>
<path d="M6227 863 c-12 -11 -7 -196 6 -232 19 -55 57 -76 137 -76 54 0 74 4
97 21 45 34 53 59 53 182 l0 113 -47 -3 -48 -3 -3 -104 c-1 -58 -8 -111 -14
-118 -13 -16 -60 -17 -76 -1 -8 8 -12 49 -12 120 l0 108 -43 0 c-24 0 -47 -3
-50 -7z"/>
<path d="M6567 863 c-4 -3 -7 -21 -7 -40 l0 -33 50 0 50 0 0 -115 0 -115 50 0
50 0 0 115 0 115 45 0 45 0 0 40 0 40 -138 0 c-76 0 -142 -3 -145 -7z"/>
<path d="M6951 852 c-53 -28 -73 -74 -69 -154 3 -55 8 -72 28 -94 51 -55 132
-69 207 -35 53 25 77 68 77 141 1 101 -57 160 -159 160 -30 0 -64 -8 -84 -18z
m129 -72 c25 -25 27 -95 4 -128 -19 -27 -75 -30 -95 -5 -21 25 -18 107 5 132
24 26 60 27 86 1z"/>
<path d="M7250 715 l0 -155 40 0 40 0 0 97 c0 53 2 94 5 92 2 -3 15 -45 28
-95 l24 -89 36 -3 c36 -3 36 -3 51 50 8 29 21 76 29 103 l15 50 1 -102 1 -103
40 0 41 0 -3 153 -3 152 -60 0 -59 0 -23 -79 c-12 -43 -25 -81 -27 -83 -3 -3
-10 15 -16 38 -6 24 -17 62 -24 84 l-13 40 -61 3 -62 3 0 -156z"/>
<path d="M7719 847 c-51 -34 -71 -80 -66 -150 6 -73 26 -103 84 -129 55 -24
132 -20 173 10 37 27 60 80 60 137 0 96 -62 155 -161 155 -42 0 -65 -6 -90
-23z m129 -63 c18 -12 22 -25 22 -65 0 -69 -13 -89 -55 -89 -47 0 -65 22 -65
81 0 76 45 110 98 73z"/>
<path d="M8028 864 c-5 -4 -8 -74 -8 -156 l0 -148 110 0 c147 0 180 16 180 89
0 17 -10 39 -25 53 -22 22 -23 27 -10 38 23 19 19 83 -6 106 -17 15 -40 19
-127 22 -59 2 -110 0 -114 -4z"/>
<path d="M8370 715 l0 -155 45 0 45 0 0 155 0 155 -45 0 -45 0 0 -155z"/>
<path d="M8540 715 l0 -155 120 0 120 0 0 40 0 40 -75 0 -75 0 0 115 0 115
-45 0 -45 0 0 -155z"/>
<path d="M8830 715 l0 -155 130 0 130 0 0 35 0 35 -80 0 -80 0 0 30 0 30 70 0
70 0 0 30 0 29 -72 3 c-67 3 -73 5 -76 26 -3 21 -1 22 77 22 l81 0 0 35 0 35
-125 0 -125 0 0 -155z"/>
</g>
</svg>
