<?xml version="1.0" standalone="no"?>
<!DOCTYPE svg PUBLIC "-//W3C//DTD SVG 20010904//EN"
 "http://www.w3.org/TR/2001/REC-SVG-20010904/DTD/svg10.dtd">
<svg version="1.0" xmlns="http://www.w3.org/2000/svg"
 width="995.000000pt" height="895.000000pt" viewBox="0 0 995.000000 895.000000"
 preserveAspectRatio="xMidYMid meet">
<metadata>
Created by potrace 1.16, written by Peter Selinger 2001-2019
</metadata>
<g transform="translate(0.000000,895.000000) scale(0.100000,-0.100000)"
fill="#000000" stroke="none">
<path d="M4595 8933 c-579 -49 -984 -133 -1444 -299 -722 -262 -1259 -664
-1531 -1146 -17 -32 -30 -58 -27 -58 2 0 21 28 41 63 45 77 80 119 91 109 5
-4 5 -2 1 5 -7 12 25 53 102 130 41 42 61 55 46 31 -4 -7 -3 -8 4 -4 6 4 8 14
5 24 -6 15 -5 15 10 4 14 -12 16 -11 12 7 -2 11 0 23 6 26 5 4 9 2 9 -4 0 -6
7 -8 15 -5 8 4 15 10 15 16 0 5 -6 6 -12 2 -7 -4 -2 5 11 19 17 18 28 24 36
17 7 -6 16 -5 23 2 7 7 12 8 12 3 0 -6 5 -3 11 5 9 13 10 13 6 0 -2 -8 -10
-15 -18 -15 -8 0 -14 -9 -13 -22 1 -13 -3 -20 -7 -17 -5 3 -9 1 -9 -5 0 -5 6
-12 13 -15 6 -3 3 -4 -8 -3 -11 2 -19 9 -17 15 1 7 -3 12 -9 12 -6 0 -9 -7 -6
-15 4 -8 1 -17 -5 -21 -7 -5 -5 -12 7 -21 15 -10 15 -13 4 -13 -8 0 -20 5 -27
12 -8 8 -12 9 -12 1 0 -6 6 -14 13 -16 9 -4 8 -8 -3 -16 -13 -10 -13 -11 0
-11 10 0 11 -3 4 -8 -12 -8 -69 -102 -61 -102 2 0 17 18 31 41 89 134 369 401
551 525 47 31 85 59 85 61 0 7 -32 -14 -135 -86 -55 -39 -125 -87 -155 -108
-30 -20 -56 -40 -58 -45 -2 -4 -10 -8 -18 -8 -8 0 -14 -5 -14 -11 0 -5 -5 -7
-10 -4 -6 3 -13 -1 -16 -10 -6 -13 -8 -14 -15 -3 -7 10 -9 10 -9 1 0 -9 -6 -7
-18 5 -18 16 -18 18 6 47 14 17 30 28 36 27 6 -2 8 0 4 3 -9 10 64 70 187 154
316 216 702 389 1180 529 331 98 764 166 1205 191 l135 8 -110 0 c-60 0 -128
-2 -150 -4z"/>
<path d="M5141 8936 c2 -2 67 -6 144 -10 210 -10 454 -37 685 -77 131 -23 412
-86 450 -102 14 -5 29 -9 33 -8 5 1 101 -30 215 -68 378 -126 670 -263 927
-435 120 -80 175 -123 168 -130 -4 -3 0 -6 8 -6 16 -1 55 -33 87 -74 23 -30
30 -52 12 -41 -5 3 -10 2 -10 -3 0 -11 -31 -11 -45 1 -5 5 -25 17 -43 28 -20
11 -30 24 -26 31 4 7 3 8 -5 4 -10 -6 -126 68 -238 152 -18 13 -33 22 -33 19
0 -2 40 -35 90 -71 180 -134 362 -312 500 -490 16 -21 30 -35 30 -30 0 5 -14
27 -30 48 -16 21 -27 43 -24 47 3 5 -2 9 -11 9 -9 0 -13 5 -10 10 3 6 0 10 -7
10 -7 1 1 7 17 15 l30 14 -33 -6 c-24 -4 -32 -2 -30 8 2 7 -3 13 -9 14 -7 0
-20 11 -30 24 -9 13 -11 21 -5 17 6 -3 14 -2 17 4 5 8 11 8 20 0 9 -8 15 -8
20 0 3 5 12 10 18 10 7 0 6 -4 -3 -10 -13 -9 -13 -10 0 -11 8 -1 19 -1 23 0 5
1 6 -3 2 -9 -3 -6 4 -10 17 -10 19 0 20 -2 8 -11 -12 -9 -11 -10 7 -6 16 4 20
1 16 -11 -5 -10 -2 -13 6 -8 8 6 11 2 9 -10 -2 -13 3 -19 17 -19 11 0 34 -17
53 -40 17 -22 43 -52 56 -66 14 -15 46 -60 73 -101 72 -113 75 -117 52 -68
-12 25 -48 84 -80 132 -315 469 -846 826 -1608 1083 -362 122 -754 200 -1201
240 -161 14 -339 20 -329 11z"/>
<path d="M4630 8849 c-693 -29 -1296 -209 -1783 -531 -49 -32 -93 -55 -99 -52
-6 4 -8 3 -5 -3 9 -15 -19 -36 -35 -27 -7 4 -10 3 -5 -1 4 -5 0 -17 -10 -27
-18 -20 -38 -25 -27 -6 4 7 3 8 -5 4 -6 -4 -9 -11 -7 -15 3 -4 -32 -40 -77
-81 -45 -40 -64 -55 -42 -32 21 23 34 42 28 42 -13 0 -166 -159 -221 -230 -23
-30 -50 -64 -58 -75 -9 -11 -21 -30 -27 -42 -5 -13 -14 -23 -19 -23 -4 0 -8
-6 -8 -13 0 -7 -11 -29 -25 -48 -13 -20 -21 -39 -18 -43 4 -3 2 -6 -4 -6 -5 0
-15 -11 -21 -25 -17 -36 -9 -31 23 15 15 22 32 37 36 34 5 -3 9 -2 8 3 -5 19
13 41 28 36 11 -4 14 -2 9 5 -4 7 -1 12 9 12 9 0 14 4 11 9 -3 5 1 11 9 14 16
7 12 -9 -18 -63 -93 -167 -190 -390 -201 -465 -6 -34 -3 -30 15 21 l22 61 54
-9 c47 -7 1079 -217 1593 -323 462 -95 601 -125 664 -139 l69 -16 206 55 c113
31 210 60 214 64 13 13 14 12 -618 96 -313 42 -721 96 -905 120 -573 76 -859
113 -1035 135 -205 25 -227 29 -219 41 3 5 10 6 16 3 6 -4 8 -3 5 3 -3 5 0 21
8 36 11 23 11 25 -2 20 -14 -5 -13 -1 2 25 10 17 22 29 26 26 4 -2 11 1 15 7
5 8 3 9 -6 4 -8 -5 -11 -3 -8 6 3 8 11 13 17 11 7 -1 10 2 7 7 -7 11 159 252
250 362 278 335 764 641 1289 813 315 102 766 177 1130 188 l90 3 -2 -30 c-1
-16 1 -41 4 -55 5 -23 6 -24 13 -5 5 11 6 34 3 51 -3 18 0 35 6 39 13 8 272
-10 451 -31 362 -43 702 -126 994 -243 103 -42 351 -166 441 -221 314 -192
517 -368 682 -592 215 -290 249 -344 247 -395 -1 -22 3 -30 13 -26 7 3 13 0
13 -6 0 -6 -2 -11 -4 -11 -7 0 -302 -38 -581 -75 -143 -19 -467 -62 -720 -95
-732 -97 -1417 -189 -1454 -195 -19 -4 -30 -10 -25 -15 5 -5 77 -27 159 -50
257 -70 264 -73 232 -79 l-28 -6 31 -43 c18 -23 37 -39 42 -35 7 4 8 1 4 -6
-5 -7 -2 -20 6 -29 18 -21 94 -154 137 -239 17 -35 34 -63 36 -63 3 0 -33 75
-80 168 -47 92 -91 188 -99 214 l-14 48 39 10 c58 16 1197 250 1904 391 220
44 407 84 415 88 26 15 12 60 -70 229 -44 89 -81 165 -82 170 -1 4 -8 13 -15
20 -7 7 -13 21 -13 30 0 13 2 14 9 4 4 -8 12 -13 16 -12 4 1 16 -8 26 -19 11
-12 17 -21 14 -21 -3 0 9 -15 27 -33 19 -18 44 -47 56 -63 20 -25 21 -26 11
-4 -7 14 -15 27 -20 30 -4 3 -9 12 -11 20 -2 8 -7 19 -11 25 -4 5 -29 44 -56
85 -88 137 -225 293 -336 382 l-50 40 40 -39 c65 -65 84 -92 30 -43 -377 342
-924 590 -1525 694 -327 56 -768 76 -1250 55z"/>
<path d="M4996 8472 c7 -126 19 -185 59 -289 44 -111 81 -258 149 -592 47
-232 56 -266 77 -282 23 -18 63 -19 732 -20 722 -2 731 -2 757 -11 8 -3 79
-14 157 -23 104 -12 165 -15 230 -9 48 5 75 10 58 12 -16 2 -38 11 -50 19 -19
14 -17 15 25 9 25 -3 68 -8 95 -11 49 -4 49 -4 -15 12 -57 14 -179 15 -1015
14 -756 0 -953 2 -967 12 -21 17 -30 53 -78 304 -85 449 -123 623 -162 738
-22 66 -44 140 -49 165 -6 33 -7 20 -3 -48z"/>
<path d="M4970 8519 c0 -11 -17 -71 -39 -132 -21 -62 -52 -177 -69 -257 -53
-246 -114 -570 -110 -582 3 -7 17 53 32 133 40 205 89 394 130 502 19 50 40
112 45 137 13 60 25 220 17 220 -3 0 -6 -9 -6 -21z"/>
<path d="M4721 7410 c-22 -123 89 -111 -986 -108 -761 3 -946 0 -1017 -11 -48
-8 -85 -17 -83 -21 3 -4 24 -4 47 1 47 9 98 11 66 2 -80 -21 138 -42 247 -25
39 7 97 15 130 18 33 3 67 8 75 11 26 10 32 10 759 12 l708 1 25 23 c18 17 29
42 38 91 7 37 10 69 8 72 -3 2 -10 -28 -17 -66z"/>
<path d="M4870 6768 c-57 -79 -290 -390 -516 -693 -226 -302 -490 -658 -588
-790 -97 -132 -184 -243 -193 -246 -59 -20 304 -141 571 -189 60 -11 119 -20
130 -19 12 0 -33 11 -99 24 -66 13 -129 26 -140 28 -174 40 -435 127 -435 145
0 4 26 32 58 62 32 30 242 251 467 490 225 239 443 471 485 515 42 44 138 145
214 225 75 79 144 149 152 153 19 11 -17 48 633 -643 267 -283 532 -563 591
-622 58 -60 104 -108 102 -108 -2 0 13 -15 34 -34 25 -23 35 -38 29 -44 -16
-15 -160 -66 -270 -96 -55 -15 -113 -31 -130 -36 -25 -7 -175 -36 -275 -53
l-25 -4 26 -2 c35 -1 237 35 329 60 218 59 423 138 379 147 -9 1 -38 33 -65
70 -82 112 -601 811 -945 1272 -179 239 -340 456 -359 483 -18 26 -38 47 -44
47 -6 0 -58 -64 -116 -142z"/>
<path d="M8426 6413 c-78 -166 -212 -338 -433 -553 -232 -227 -412 -367 -673
-523 -570 -340 -1300 -569 -1993 -626 -162 -14 -525 -14 -682 -1 -798 67
-1620 352 -2210 765 -210 147 -503 404 -488 428 3 5 1 7 -4 4 -13 -8 -95 69
-203 193 -83 95 -112 121 -91 81 7 -11 10 -21 7 -21 -2 0 2 -23 9 -51 11 -42
11 -48 0 -39 -23 19 -28 -7 -5 -30 11 -11 18 -20 15 -20 -8 0 70 -114 118
-175 63 -78 204 -220 292 -294 488 -408 1289 -735 2085 -850 427 -62 884 -77
1260 -42 711 67 1255 212 1805 481 308 151 559 318 749 500 222 213 369 428
429 630 25 82 44 180 35 180 -2 0 -12 -17 -22 -37z"/>
<path d="M7708 6045 c-74 -133 -159 -246 -277 -370 -52 -55 -66 -72 -30 -37
35 34 67 62 71 62 4 0 32 27 64 60 31 33 63 60 70 60 7 0 18 -10 24 -22 10
-20 9 -21 -3 -6 -12 15 -14 15 -26 -4 -11 -18 -11 -20 3 -15 8 3 18 2 21 -3 4
-6 -2 -10 -12 -11 -10 0 -13 -3 -6 -5 15 -7 -18 -64 -70 -118 -21 -23 -57 -61
-80 -85 -30 -31 -20 -25 31 20 126 110 253 271 337 424 53 97 69 141 25 67
-17 -28 -60 -82 -95 -119 -35 -37 -62 -70 -59 -74 2 -4 -7 -6 -20 -5 -14 2
-27 -3 -30 -11 -3 -8 -11 -11 -17 -7 -8 4 -9 3 -5 -5 6 -9 11 -9 21 -1 10 8
15 8 21 -2 4 -7 4 -10 -1 -6 -4 4 -14 3 -20 -2 -7 -6 -20 -7 -29 -4 -16 6 -15
8 3 28 22 24 108 161 140 224 13 25 18 48 14 56 -6 9 -26 -19 -65 -89z"/>
<path d="M2119 6041 c92 -182 209 -332 376 -481 21 -19 6 1 -34 45 -67 72 -97
117 -93 138 1 4 -2 7 -7 7 -6 0 -8 9 -6 21 3 15 0 19 -10 15 -10 -3 -12 0 -8
11 5 12 3 14 -7 8 -9 -5 -11 -4 -6 4 6 9 11 9 21 1 10 -8 15 -8 21 1 4 8 3 9
-4 5 -7 -4 -12 -2 -12 3 0 21 -3 26 -31 47 -16 11 -27 24 -24 27 3 4 2 5 -2 2
-3 -3 -13 1 -21 8 -13 9 -14 9 -8 0 4 -7 2 -13 -3 -13 -6 0 -11 8 -11 17 0 9
-3 13 -6 10 -10 -10 -69 61 -110 131 -54 91 -62 87 -15 -7z"/>
<path d="M8140 3844 c-19 -2 -78 -9 -130 -15 -233 -26 -464 -95 -685 -204
-184 -92 -308 -179 -440 -310 -116 -116 -189 -217 -250 -349 -67 -143 -86
-226 -92 -396 -6 -169 8 -261 63 -404 155 -403 591 -743 1122 -876 221 -55
305 -64 577 -65 267 0 367 11 565 60 422 106 775 321 983 600 106 141 119 201
56 261 l-30 29 -448 0 -448 0 -114 -115 c-126 -127 -185 -167 -316 -213 -75
-26 -106 -31 -214 -35 -104 -4 -140 -1 -208 17 -302 76 -518 311 -561 609 -33
227 53 462 229 624 257 236 651 263 941 65 25 -17 75 -60 112 -94 l67 -63 446
0 c491 0 489 0 521 62 34 65 -5 137 -154 286 -261 261 -643 440 -1082 507
-100 15 -436 28 -510 19z"/>
<path d="M4354 3775 c-82 -41 -73 -29 -396 -580 -68 -117 -772 -1314 -904
-1536 -144 -245 -157 -270 -147 -296 19 -54 9 -53 373 -53 l337 0 59 30 c33
16 69 40 81 52 11 13 137 210 280 438 578 924 687 1095 707 1112 31 26 71 22
105 -9 48 -46 401 -603 401 -633 0 -15 -9 -35 -21 -46 -19 -18 -44 -19 -328
-24 l-306 -5 -45 -27 c-65 -38 -81 -58 -165 -213 -99 -180 -102 -221 -16 -245
22 -6 250 -10 597 -10 611 0 603 1 684 -57 24 -17 70 -74 119 -148 90 -137
106 -154 177 -189 l52 -26 344 0 c321 0 346 1 361 18 10 10 17 32 17 48 0 33
-7 45 -260 459 -101 165 -232 379 -290 475 -569 934 -857 1399 -879 1418 -14
13 -48 35 -76 48 l-50 24 -381 0 -380 0 -50 -25z"/>
<path d="M2157 3769 c-81 -19 -147 -73 -169 -138 -9 -27 -14 -245 -18 -831 -6
-898 -2 -853 -86 -936 -32 -33 -59 -48 -112 -64 -66 -20 -87 -21 -383 -18
-298 3 -317 5 -370 26 -128 51 -186 136 -198 292 -8 106 -25 147 -74 184 -26
19 -46 22 -230 28 -111 3 -273 6 -359 7 l-158 1 0 -218 c0 -246 8 -291 66
-403 88 -167 270 -304 500 -376 l89 -28 765 0 c757 0 766 0 842 22 307 87 475
244 560 523 l23 75 3 933 3 932 -328 -1 c-180 -1 -345 -5 -366 -10z"/>
<path d="M2205 626 c-94 -30 -154 -80 -191 -160 -85 -186 9 -399 199 -448 81
-21 231 -15 298 11 117 45 187 142 197 270 11 161 -69 281 -218 325 -65 19
-227 20 -285 2z m270 -115 c84 -37 128 -136 106 -237 -22 -98 -94 -153 -211
-162 -161 -11 -260 69 -260 212 0 142 101 223 263 210 33 -2 78 -12 102 -23z"/>
<path d="M5795 631 c-58 -15 -125 -54 -156 -89 -57 -65 -74 -116 -74 -222 0
-84 3 -101 27 -146 53 -100 154 -159 291 -170 95 -8 204 15 269 57 125 81 170
256 104 404 -29 65 -77 112 -146 144 -48 22 -70 26 -170 28 -63 1 -128 -2
-145 -6z m270 -130 c66 -37 95 -91 95 -175 0 -137 -87 -216 -236 -216 -101 0
-185 43 -222 115 -21 41 -24 112 -8 168 23 78 67 114 171 141 47 12 150 -5
200 -33z"/>
<path d="M9370 621 c-157 -56 -170 -231 -23 -305 17 -9 73 -23 125 -31 51 -8
120 -20 153 -25 179 -29 131 -148 -61 -150 -90 0 -157 23 -195 69 l-33 38 -45
-14 c-78 -23 -75 -19 -49 -64 49 -89 151 -132 313 -133 206 -1 305 62 305 196
0 112 -62 153 -285 188 -176 28 -208 40 -203 76 2 15 15 36 30 47 34 25 146
34 217 17 54 -13 111 -52 111 -76 0 -8 3 -14 7 -14 19 0 113 35 113 42 0 17
-28 63 -52 85 -52 49 -115 67 -248 70 -104 3 -134 0 -180 -16z"/>
<path d="M120 325 l0 -305 55 0 55 0 0 218 1 217 92 -217 92 -217 52 -1 51 0
94 221 93 221 3 -221 2 -221 55 0 55 0 0 305 0 306 -82 -3 -82 -3 -91 -212
c-50 -117 -93 -215 -96 -217 -3 -3 -46 93 -96 212 l-91 217 -81 3 -81 3 0
-306z"/>
<path d="M3800 575 l0 -55 135 0 135 0 0 -250 0 -250 65 0 65 0 0 250 0 250
135 0 135 0 0 55 0 55 -335 0 -335 0 0 -55z"/>
<path d="M7450 326 l0 -306 65 0 65 0 0 120 0 120 89 0 90 0 88 -120 87 -120
78 0 78 0 -90 118 c-50 65 -90 121 -90 125 0 4 11 7 23 7 34 0 101 52 120 93
22 46 21 122 -2 173 -14 31 -30 47 -67 65 -47 23 -59 24 -291 27 l-243 4 0
-306z m464 181 c33 -22 43 -63 25 -96 -25 -44 -53 -51 -211 -51 l-148 0 0 86
0 87 154 -5 c122 -4 160 -8 180 -21z"/>
</g>
</svg>
