<?xml version="1.0" standalone="no"?>
<!DOCTYPE svg PUBLIC "-//W3C//DTD SVG 20010904//EN"
 "http://www.w3.org/TR/2001/REC-SVG-20010904/DTD/svg10.dtd">
<svg version="1.0" xmlns="http://www.w3.org/2000/svg"
 width="1387.000000pt" height="576.000000pt" viewBox="0 0 1387.000000 576.000000"
 preserveAspectRatio="xMidYMid meet">
<metadata>
Created by potrace 1.16, written by Peter Selinger 2001-2019
</metadata>
<g transform="translate(0.000000,576.000000) scale(0.100000,-0.100000)"
fill="#000000" stroke="none">
<path d="M11125 5739 c-961 -111 -1815 -332 -2650 -686 -218 -93 -625 -297
-830 -417 -698 -410 -1312 -937 -1725 -1481 -570 -750 -791 -1560 -594 -2170
133 -411 471 -731 931 -879 265 -85 426 -106 823 -106 398 0 638 27 1030 116
319 72 785 214 1095 333 71 28 131 48 133 46 2 -2 -7 -56 -21 -119 l-24 -116
1898 0 1899 0 5 23 c3 12 39 182 80 377 41 195 80 374 85 397 6 23 10 47 10
52 0 8 -365 11 -1205 11 -1141 0 -1205 1 -1205 18 0 17 106 527 115 549 3 10
227 13 1052 15 l1048 3 56 265 c31 146 70 329 86 408 l31 142 -1052 0 -1052 0
53 248 c29 136 56 257 58 270 l5 22 1190 0 c1054 0 1190 2 1190 15 0 8 36 181
79 383 44 202 83 384 86 405 l7 37 -1658 0 c-1841 0 -1718 4 -1864 -68 -103
-50 -201 -149 -256 -257 -54 -105 -65 -141 -118 -390 -152 -715 -318 -1471
-324 -1477 -11 -10 -311 -120 -467 -171 -988 -321 -1782 -347 -2206 -72 -450
291 -460 884 -25 1583 525 844 1671 1642 2996 2085 531 178 1110 305 1654 362
83 8 151 16 152 18 3 4 54 224 54 235 0 20 -433 13 -625 -9z"/>
<path d="M947 3863 c16 -21 76 -99 133 -173 57 -74 159 -205 225 -290 67 -85
231 -297 365 -470 134 -173 346 -445 470 -605 125 -159 230 -295 233 -302 5
-7 -38 -48 -115 -111 -68 -55 -177 -144 -243 -199 -66 -54 -291 -239 -500
-410 -209 -171 -445 -364 -525 -430 -80 -65 -268 -220 -419 -343 -151 -124
-286 -235 -300 -247 l-26 -22 696 -1 c606 0 702 2 749 16 68 20 108 46 223
142 50 43 147 122 215 177 483 393 789 644 802 660 7 8 16 15 21 15 4 0 103
-125 220 -277 368 -482 407 -529 461 -577 74 -66 162 -113 253 -136 75 -19
111 -20 877 -20 439 0 798 2 798 5 0 5 -129 181 -505 689 -82 112 -244 331
-359 487 -116 156 -281 380 -368 497 -87 116 -158 216 -158 220 0 5 19 24 43
42 23 19 148 122 277 229 129 107 285 236 345 286 61 50 243 201 405 336 470
390 746 618 845 700 51 41 112 92 136 112 l43 37 -700 0 -699 0 -270 -221
c-295 -241 -408 -333 -620 -509 -191 -158 -343 -280 -348 -280 -3 0 -77 96
-165 213 -88 116 -184 244 -213 282 -30 39 -96 128 -148 198 -104 141 -169
198 -286 252 -144 67 -112 65 -1049 65 l-848 0 29 -37z"/>
</g>
</svg>
