<?xml version="1.0" standalone="no"?>
<!DOCTYPE svg PUBLIC "-//W3C//DTD SVG 20010904//EN"
 "http://www.w3.org/TR/2001/REC-SVG-20010904/DTD/svg10.dtd">
<svg version="1.0" xmlns="http://www.w3.org/2000/svg"
 width="378.000000pt" height="454.000000pt" viewBox="0 0 378.000000 454.000000"
 preserveAspectRatio="xMidYMid meet">
<metadata>
Created by potrace 1.16, written by Peter Selinger 2001-2019
</metadata>
<g transform="translate(0.000000,454.000000) scale(0.100000,-0.100000)"
fill="#000000" stroke="none">
<path d="M10 2305 l0 -2115 1870 0 1870 0 0 2115 0 2115 -1870 0 -1870 0 0
-2115z m3700 0 l0 -2075 -1830 0 -1830 0 0 2068 c0 1138 3 2072 7 2075 3 4
827 7 1830 7 l1823 0 0 -2075z"/>
<path d="M138 4283 c-2 -5 -3 -33 -2 -63 1 -30 3 -623 3 -1317 l1 -1263 1743
0 1742 0 -2 968 c-1 532 -2 1128 -3 1325 l0 357 -1739 0 c-957 0 -1741 -3
-1743 -7z m2612 -508 l0 -55 -340 0 -340 0 0 55 0 55 340 0 340 0 0 -55z m600
0 l0 -55 -95 0 -95 0 -56 -77 c-32 -43 -68 -90 -81 -105 l-25 -26 -41 19 c-23
10 -50 19 -59 19 -10 0 -18 3 -18 7 0 4 23 39 50 79 28 40 50 75 50 78 0 3
-20 6 -45 6 l-45 0 0 55 0 55 230 0 230 0 0 -55z m-1114 -185 c435 -34 800
-125 1029 -255 247 -141 283 -314 97 -460 -183 -145 -493 -242 -953 -300 -198
-26 -722 -31 -939 -10 -501 47 -895 168 -1074 327 -121 108 -129 236 -21 343
125 124 368 224 720 294 140 28 349 56 475 64 134 8 549 6 666 -3z m-12 -1112
c-5 -7 -76 -98 -159 -203 -83 -104 -185 -235 -227 -290 -85 -113 -104 -132
-133 -135 -48 -5 -74 2 -99 26 -21 21 -26 36 -26 73 0 79 48 121 139 121 l50
0 54 78 c29 42 95 137 146 210 l92 132 85 0 c66 0 83 -3 78 -12z"/>
<path d="M1788 3255 l-218 -274 0 -85 0 -84 43 -37 c120 -104 386 -174 570
-151 l57 7 0 88 0 88 -65 7 c-98 10 -248 51 -330 91 -79 38 -139 96 -150 146
-16 70 46 147 160 200 73 34 229 76 320 85 l65 7 0 87 0 87 -37 7 c-21 3 -74
5 -118 5 l-80 -1 -217 -273z"/>
<path d="M1489 3373 c-62 -82 -117 -154 -124 -161 -9 -11 -33 14 -115 120 -90
117 -106 133 -129 130 -28 -4 -234 -53 -239 -57 -2 -2 69 -95 157 -207 l161
-203 0 -161 0 -162 63 -11 c34 -5 87 -13 117 -16 30 -3 70 -8 88 -11 l32 -5 0
183 0 183 115 145 c151 191 285 367 285 374 0 3 -67 6 -149 6 l-150 0 -112
-147z"/>
<path d="M2300 3075 l0 -441 68 7 c37 5 104 13 150 20 l82 11 0 399 c0 311 -3
401 -12 404 -7 2 -75 12 -150 23 l-138 18 0 -441z"/>
<path d="M2670 3074 l0 -385 28 3 27 3 3 376 2 377 -22 6 c-13 3 -26 6 -30 6
-5 0 -8 -174 -8 -386z"/>
<path d="M2800 3072 l0 -361 63 18 c34 10 88 26 119 36 l57 18 3 281 c2 155 0
285 -3 289 -7 9 -155 60 -207 71 l-32 8 0 -360z"/>
<path d="M130 920 l0 -610 1750 0 1750 0 0 610 0 610 -1750 0 -1750 0 0 -610z
m3403 298 c2 -7 4 -168 3 -358 l-1 -345 -87 -3 -88 -3 0 361 0 360 84 0 c58 0
85 -4 89 -12z m-843 -109 l0 -89 -80 0 -80 0 0 90 0 89 58 3 c105 6 102 9 102
-93z m434 92 c8 -13 206 -669 206 -682 0 -5 -135 -9 -301 -9 -283 0 -301 1
-294 18 4 9 35 107 69 217 l62 200 67 3 c60 3 67 1 67 -16 0 -15 -38 -162 -66
-254 -5 -16 4 -18 101 -18 106 0 106 0 100 23 -4 12 -37 114 -72 227 -93 291
-92 288 -86 294 10 9 141 7 147 -3z m-2226 -16 c3 -3 -71 -176 -173 -402 l-24
-53 -86 0 c-100 0 -97 -10 -38 120 19 41 59 134 90 205 30 72 58 134 61 139 4
8 161 0 170 -9z m1182 -64 l0 -79 -123 -4 c-144 -4 -178 -18 -216 -87 -50 -91
-18 -215 69 -258 38 -20 60 -23 162 -23 l118 0 0 -80 0 -80 -138 0 c-165 0
-210 12 -282 77 -162 146 -158 432 9 547 74 51 132 65 274 66 l127 0 0 -79z
m220 -46 l0 -125 195 0 195 0 0 -220 0 -220 -80 0 -80 0 0 135 0 135 -110 0
-110 0 0 -135 0 -135 -78 0 -79 0 -6 122 c-4 66 -7 222 -7 345 l0 223 80 0 80
0 0 -125z m-1833 -63 c39 -97 68 -181 64 -185 -4 -4 -40 -7 -80 -5 l-73 3 -69
160 c-39 88 -74 170 -79 183 -9 22 -9 22 78 22 l87 0 72 -178z m664 46 c1
-171 13 -365 23 -375 4 -4 87 -10 184 -13 l177 -5 3 -81 3 -81 -193 -7 c-201
-7 -237 -3 -287 33 -57 41 -63 77 -69 384 l-5 277 82 0 81 0 1 -132z m387 -95
l-3 -228 -77 -3 -78 -3 0 231 0 230 80 0 80 0 -2 -227z m-848 -302 c0 -4 -14
-40 -31 -80 l-32 -71 -88 0 c-49 0 -89 1 -89 3 0 2 12 28 26 57 14 30 30 65
35 77 8 21 14 23 94 23 47 0 85 -4 85 -9z"/>
</g>
</svg>
